<?xml version="1.0" encoding="UTF-8"?>
<svg id="Layer_1" data-name="Layer 1" xmlns="http://www.w3.org/2000/svg" viewBox="0 0 144.27 144">
  <defs>
    <style>
      .cls-1, .cls-2, .cls-3, .cls-4, .cls-5, .cls-6, .cls-7, .cls-8, .cls-9 {
        stroke: #000;
        stroke-miterlimit: 10;
      }

      .cls-1, .cls-5, .cls-9 {
        fill: none;
      }

      .cls-3 {
        fill: #fff3d2;
      }

      .cls-4 {
        fill: #d1d1cd;
      }

      .cls-5 {
        stroke-width: 6px;
      }

      .cls-6 {
        fill: #ce3030;
      }

      .cls-7 {
        fill: #ffda40;
      }

      .cls-8 {
        fill: #6d5a48;
      }

      .cls-9 {
        stroke-width: 9px;
      }
    </style>
  </defs>
  <path class="cls-6" d="M64.49,112.39c.29,1.74,2.29,3.05,4.65,3.05h38.34c2.36,0,4.36-1.31,4.65-3.05l1.6-9.44H62.89l1.6,9.44Z"/>
  <polygon class="cls-7" points="62.89 102.95 113.73 102.95 114.37 99.13 62.24 99.13 62.89 102.95"/>
  <path class="cls-6" d="M106.98,62.2h-37.34c-7.24,0-12.84,4.71-11.94,10.04l4.55,26.88h52.13l4.55-26.88c.9-5.33-4.7-10.04-11.94-10.04Z"/>
  <path class="cls-3" d="M108.12,49.47c2.87,0,5.2-2.33,5.2-5.2s-2.33-5.2-5.2-5.2"/>
  <path class="cls-3" d="M66.29,39.89c-2.42,0-4.38,1.96-4.38,4.38s1.96,4.38,4.38,4.38"/>
  <rect class="cls-3" x="66.29" y="20.86" width="41.83" height="45.67" rx="17.67" ry="17.67" transform="translate(174.41 87.39) rotate(180)"/>
  <path d="M90.55,38.38s3.27,1.27,6.48,.26,5.17-3.92,5.17-3.92c0,0-3.27-1.27-6.48-.26s-5.17,3.92-5.17,3.92Z"/>
  <path class="cls-1" d="M101.34,42.28c0-2-1.62-3.62-3.62-3.62s-3.62,1.62-3.62,3.62"/>
  <circle cx="97.72" cy="41.7" r="1.63"/>
  <path d="M68.74,34.83s1.61,2.76,4.49,3.91,5.95,.25,5.95,.25c0,0-1.61-2.76-4.49-3.91s-5.95-.25-5.95-.25Z"/>
  <path class="cls-1" d="M76.45,41.82c0-1.84-1.49-3.33-3.33-3.33s-3.33,1.49-3.33,3.33"/>
  <circle cx="73.12" cy="41.29" r="1.5"/>
  <polyline class="cls-9" points="92.16 84.35 113.43 85.68 114.76 64.41"/>
  <polyline class="cls-9" points="41.14 83.37 60.01 84.95 61.6 66.08"/>
  <circle class="cls-3" cx="89.41" cy="83.3" r="6.06"/>
  <circle class="cls-3" cx="37.56" cy="81.99" r="6.05"/>
  <path class="cls-2" d="M97.87,57.59l-14.65-1.97-12.75,1.97c0-3.3,6.13-5.97,13.7-5.97s13.7,2.67,13.7,5.97Z"/>
  <path class="cls-3" d="M88.31,46.25c1.14,.71,1.91,1.61,1.13,2.78-2.65,4.01-7.66,6.21-10.19,3.69-5.44-5.42,.21-4.58,2.87-8.58,.78-1.18-2.7-2.62-.7-5.12"/>
  <path class="cls-4" d="M36.63,76.59c-1.9-.99-3.32-2.07-4.76-3.15-.19-1.33-.51-2.64-.76-3.96-.79-3.94-2.4-11.86-3.2-15.8,0,0-.8-3.95-.8-3.95,.93-1.56,1.82-3.11,3.12-4.74,1.84,1,3.26,2.08,4.72,3.16l.8,3.95c.79,3.94,2.4,11.86,3.2,15.8,.28,1.31,.49,2.64,.84,3.94-.9,1.55-1.79,3.1-3.16,4.75h0Z"/>
  <path d="M36.53,76.61c-1.91-3.93-2.7-8.11-3.22-12.38,0,0-.97-6.32-.97-6.32-.29-2.11-.61-4.22-.87-6.34,0,0,.2-.04,.2-.04,1,3.56,2.31,8.75,3.22,12.38,1.18,4.14,2.08,8.3,1.85,12.66,0,0-.2,.04-.2,.04h0Z"/>
  <path class="cls-8" d="M45.07,66.44c-1.69,.34-2.78,1.97-2.46,3.66l-13.27,2.68c-.36-1.68-2-2.76-3.69-2.42s-2.8,2-2.46,3.7,2,2.8,3.7,2.46c0,0,.02,0,.02,0h0s5.38-1.09,5.38-1.09l2.83,14c.3,1.5,1.76,2.47,3.26,2.17l2.28-.46c1.5-.3,2.47-1.76,2.17-3.26l-2.83-14,6.3-1.27c1.7-.34,2.8-2,2.46-3.7s-2-2.8-3.7-2.46Z"/>
  <path class="cls-7" d="M58.69,56.91h6.61c3.38,0,6.12,2.74,6.12,6.12v8.46h-18.85v-8.46c0-3.38,2.74-6.12,6.12-6.12Z" transform="translate(6.94 -6.04) rotate(5.91)"/>
  <path class="cls-7" d="M109.73,54.73h6.61c3.38,0,6.12,2.74,6.12,6.12v8.46h-18.85v-8.46c0-3.38,2.74-6.12,6.12-6.12Z" transform="translate(1.48 -2.63) rotate(1.34)"/>
  <g>
    <polygon points="114.41 124.83 117.51 125.34 114.88 131.73 112.24 138.12 111.77 131.22 111.3 124.33 114.41 124.83"/>
    <polyline class="cls-5" points="97.27 115.44 97.27 123.06 112.68 127.83"/>
    <polygon points="81.49 140.33 82.35 143.37 75.45 143.68 68.55 144 74.59 140.65 80.64 137.3 81.49 140.33"/>
    <polyline class="cls-5" points="78.19 115.44 78.19 123.28 78.19 140.61"/>
  </g>
</svg>