<?xml version="1.0" encoding="UTF-8"?>
<svg id="Layer_1" data-name="Layer 1" xmlns="http://www.w3.org/2000/svg" viewBox="0 0 160.89 144">
  <defs>
    <style>
      .cls-1, .cls-2, .cls-3, .cls-4, .cls-5, .cls-6, .cls-7, .cls-8, .cls-9 {
        stroke: #000;
        stroke-miterlimit: 10;
      }

      .cls-1, .cls-5, .cls-9 {
        fill: none;
      }

      .cls-3 {
        fill: #fff3d2;
      }

      .cls-4 {
        fill: #d1d1cd;
      }

      .cls-5 {
        stroke-width: 6px;
      }

      .cls-6, .cls-10 {
        fill: #ce3030;
      }

      .cls-7 {
        fill: #ffda40;
      }

      .cls-8 {
        fill: #6d5a48;
      }

      .cls-9 {
        stroke-width: 9px;
      }
    </style>
  </defs>
  <g>
    <line class="cls-9" x1="44.98" y1="77.24" x2="67.32" y2="77.32"/>
    <line class="cls-9" x1="67.32" y1="77.32" x2="88.49" y2="77.34"/>
  </g>
  <polygon points="115.96 139.55 116.81 142.58 109.91 142.88 103 143.18 109.06 139.84 115.11 136.51 115.96 139.55"/>
  <polyline class="cls-5" points="112.81 122.29 102.58 134.96 112.71 139.61"/>
  <polygon points="147.76 133.83 150.83 135.55 145.63 141.26 136.57 141.82 142.55 139.54 144.68 132.12 147.76 133.83"/>
  <line class="cls-5" x1="129.96" y1="120.57" x2="145.94" y2="136.55"/>
  <path class="cls-6" d="M98.65,126.44c.66,1.64,2.89,2.48,5.2,1.97l37.43-8.3c2.31-.51,3.97-2.22,3.88-3.98l-.48-9.56-49.63,11,3.6,8.87Z"/>
  <polygon class="cls-7" points="95.05 117.57 144.69 106.57 144.49 102.7 93.6 113.98 95.05 117.57"/>
  <path class="cls-6" d="M129.28,68.25l-36.46,8.08c-7.07,1.57-11.52,7.38-9.48,12.39l10.26,25.26,50.89-11.28-1.38-27.23c-.27-5.4-6.76-8.78-13.83-7.22Z"/>
  <path class="cls-3" d="M124.86,61.29c2.87,.03,5.22-2.28,5.25-5.16s-2.28-5.22-5.16-5.25"/>
  <path class="cls-3" d="M83.11,51.34c-2.42-.02-4.4,1.92-4.42,4.35s1.92,4.4,4.35,4.42"/>
  <rect class="cls-3" x="83.07" y="32.5" width="41.83" height="45.67" rx="17.67" ry="17.67" transform="translate(207.49 111.57) rotate(-179.5)"/>
  <path d="M107.38,52.66s3.25,1.3,6.48,.32,5.21-3.87,5.21-3.87c0,0-3.25-1.3-6.48-.32s-5.21,3.87-5.21,3.87Z"/>
  <path class="cls-1" d="M118.13,54.04c.02-2-1.59-3.63-3.59-3.65s-3.63,1.59-3.65,3.59"/>
  <circle cx="114.52" cy="53.43" r="1.63"/>
  <path d="M85.61,48.27s1.59,2.77,4.46,3.94,5.95,.3,5.95,.3c0,0-1.59-2.77-4.46-3.94s-5.95-.3-5.95-.3Z"/>
  <path class="cls-1" d="M93.26,53.36c.02-1.84-1.46-3.34-3.3-3.36s-3.34,1.46-3.36,3.3"/>
  <circle cx="89.93" cy="52.8" r="1.5"/>
  <polyline class="cls-9" points="143.16 97.26 153.22 78.47 134.43 68.41"/>
  <circle class="cls-3" cx="141.06" cy="99.32" r="6.06"/>
  <circle class="cls-3" cx="42.07" cy="78.01" r="6.05"/>
  <path class="cls-2" d="M114.53,69.32l-14.63-2.09-12.76,1.86c.03-3.3,6.18-5.91,13.75-5.85s13.67,2.79,13.64,6.09Z"/>
  <path class="cls-3" d="M105.07,57.89c1.13,.72,1.89,1.62,1.1,2.79-2.69,3.98-7.72,6.14-10.22,3.6-5.39-5.47,.25-4.57,2.94-8.56,.79-1.17-2.68-2.64-.66-5.13"/>
  <path class="cls-7" d="M79.6,68.65h6.61c3.38,0,6.12,2.74,6.12,6.12v8.46h-18.85v-8.46c0-3.38,2.74-6.12,6.12-6.12Z" transform="translate(119.19 -30.48) rotate(66.34)"/>
  <path class="cls-7" d="M128.23,61.69h6.61c3.38,0,6.12,2.74,6.12,6.12v8.46h-18.85v-8.46c0-3.38,2.74-6.12,6.12-6.12Z" transform="translate(11.99 157.13) rotate(-64.08)"/>
  <path class="cls-4" d="M34.25,77.62c-1.34,1.67-2.69,2.85-4.03,4.04-1.34-.08-2.69-.02-4.03-.04-4.02,0-12.1,0-16.12,0,0,0-4.03,0-4.03,0-1.34-1.22-2.69-2.4-4.03-4,1.34-1.6,2.69-2.78,4.03-4h4.03c4.02,0,12.1,0,16.12,0,1.34-.02,2.69,.04,4.03-.04,1.34,1.19,2.69,2.37,4.03,4.04h0Z"/>
  <path d="M34.25,77.72c-4.23,1.09-8.48,1.04-12.78,.7,0,0-6.39-.3-6.39-.3-2.13-.13-4.26-.24-6.39-.4,0,0,0-.2,0-.2,3.68-.28,9.03-.53,12.78-.7,4.29-.34,8.54-.39,12.78,.7,0,0,0,.2,0,.2h0Z"/>
  <path class="cls-8" d="M25.98,67.34c0,1.72,1.38,3.11,3.1,3.14v13.53c-1.71,.02-3.1,1.42-3.1,3.14s1.41,3.14,3.14,3.14c1.73,0,3.14-1.41,3.14-3.14,0,0,0-.02,0-.02h0s0-5.49,0-5.49h14.28c1.53,0,2.77-1.24,2.77-2.77v-2.32c0-1.53-1.24-2.77-2.77-2.77h-14.28s0-6.43,0-6.43c0-1.73-1.41-3.14-3.14-3.14s-3.14,1.41-3.14,3.14Z"/>
  <g>
    <path class="cls-10" d="M57.51,54.16c1.24-1.28,2.59-2.57,3.72-4.24,.12,.06,.18,.09,.3,.16-.06,.52,.11,.85,.97,1.28,2.32,1.13,3.48,1.7,5.8,2.84,.06,1.46,.13,2.17,.34,3.52-1.14,.63-2.25,1.95-2.8,3.1-.14-.03-.2-.04-.34-.06-.06-.44-.32-.62-1.16-.79-2.54-.53-3.81-.8-6.35-1.33-.28-1.72-.38-2.61-.49-4.46Zm8.18,3.84c.61-.8,1.25-1.34,2.07-1.75-2.84-1.12-4.26-1.67-7.1-2.79-.57,.93-1.27,1.7-2.2,2.4,2.9,.85,4.34,1.28,7.24,2.14Z"/>
    <path class="cls-10" d="M62.68,47.57c-.13-1.14-.18-1.73-.24-2.94,1.11-.5,1.67-.72,2.77-1.11,.06,.56,.09,.84,.17,1.38,2.07,1.62,3.11,2.44,5.18,4.06,.25-.09,.67-.25,1.02-.27,0-.26,0-.39,.02-.66,.15,.03,.22,.05,.36,.08,.02,1.09,.05,1.62,.16,2.65-1.16,.48-1.76,.73-2.23,1.23-.13-.08-.2-.12-.33-.21,.12-.53-.35-1.11-.76-1.38-1.98-1.31-2.96-1.96-4.94-3.27-.47,.16-.71,.25-1.18,.43Zm-1.12-3.6c-.12,.09-.19,.14-.31,.24-.6-1.22-.88-1.85-1.42-3.14,.63-.96,.96-1.43,1.64-2.37,.1,.09,.15,.13,.24,.21-.17,2.08-.2,3.1-.16,5.05Z"/>
  </g>
  <polygon class="cls-10" points="75.43 48.92 58.03 28.32 78.28 46.13 75.43 48.92 75.43 48.92"/>
  <polygon class="cls-10" points="75.55 47.73 69.39 32.76 79.02 45.77 75.55 47.73 75.55 47.73"/>
  <polygon class="cls-10" points="65.38 66.36 40.83 61.71 65.81 62.33 65.38 66.36 65.38 66.36"/>
  <polygon class="cls-10" points="65.97 68.86 53.83 68.86 65.29 64.86 65.97 68.86 65.97 68.86"/>
</svg>