<?xml version="1.0" encoding="UTF-8"?>
<svg id="Layer_1" data-name="Layer 1" xmlns="http://www.w3.org/2000/svg" viewBox="0 0 144.27 144">
  <defs>
    <style>
      .cls-1, .cls-2, .cls-3, .cls-4, .cls-5, .cls-6, .cls-7, .cls-8, .cls-9 {
        stroke: #000;
        stroke-miterlimit: 10;
      }

      .cls-1, .cls-5, .cls-9 {
        fill: none;
      }

      .cls-3 {
        fill: #fff3d2;
      }

      .cls-4 {
        fill: #d1d1cd;
      }

      .cls-5 {
        stroke-width: 6px;
      }

      .cls-6 {
        fill: #ce3030;
      }

      .cls-7 {
        fill: #ffda40;
      }

      .cls-8 {
        fill: #6d5a48;
      }

      .cls-9 {
        stroke-width: 9px;
      }
    </style>
  </defs>
  <g>
    <polygon points="113.45 136.85 116.2 138.39 111.55 143.49 103.44 144 108.79 141.96 110.7 135.31 113.45 136.85"/>
    <polyline class="cls-5" points="93.51 121.58 98.9 126.97 111.31 139.38"/>
    <polygon points="66.75 141.08 65.14 143.79 60.16 138.99 55.19 134.2 61.77 136.29 68.36 138.37 66.75 141.08"/>
    <polyline class="cls-5" points="82.56 121.56 77.02 126.8 64.28 138.87"/>
  </g>
  <path class="cls-6" d="M64.49,121.39c.29,1.74,2.29,3.05,4.65,3.05h38.34c2.36,0,4.36-1.31,4.65-3.05l1.6-9.44H62.89l1.6,9.44Z"/>
  <polygon class="cls-7" points="62.89 111.95 113.73 111.95 114.37 108.13 62.24 108.13 62.89 111.95"/>
  <path class="cls-6" d="M106.98,71.2h-37.34c-7.24,0-12.84,4.71-11.94,10.04l4.55,26.88h52.13l4.55-26.88c.9-5.33-4.7-10.04-11.94-10.04Z"/>
  <path class="cls-3" d="M108.12,58.47c2.87,0,5.2-2.33,5.2-5.2s-2.33-5.2-5.2-5.2"/>
  <path class="cls-3" d="M66.29,48.89c-2.42,0-4.38,1.96-4.38,4.38s1.96,4.38,4.38,4.38"/>
  <rect class="cls-3" x="66.29" y="29.86" width="41.83" height="45.67" rx="17.67" ry="17.67" transform="translate(174.41 105.39) rotate(180)"/>
  <path d="M90.55,47.38s3.27,1.27,6.48,.26,5.17-3.92,5.17-3.92c0,0-3.27-1.27-6.48-.26s-5.17,3.92-5.17,3.92Z"/>
  <path class="cls-1" d="M101.34,51.28c0-2-1.62-3.62-3.62-3.62s-3.62,1.62-3.62,3.62"/>
  <circle cx="97.72" cy="50.7" r="1.63"/>
  <path d="M68.74,43.83s1.61,2.76,4.49,3.91,5.95,.25,5.95,.25c0,0-1.61-2.76-4.49-3.91s-5.95-.25-5.95-.25Z"/>
  <path class="cls-1" d="M76.45,50.82c0-1.84-1.49-3.33-3.33-3.33s-3.33,1.49-3.33,3.33"/>
  <circle cx="73.12" cy="50.29" r="1.5"/>
  <polyline class="cls-9" points="99.46 100.57 119.74 94.02 113.19 73.73"/>
  <polyline class="cls-9" points="43.79 95.87 62.73 95.37 62.23 76.44"/>
  <circle class="cls-3" cx="96.52" cy="100.59" r="6.06"/>
  <circle class="cls-3" cx="40.08" cy="94.9" r="6.05"/>
  <path class="cls-2" d="M97.87,66.59l-14.65-1.97-12.75,1.97c0-3.3,6.13-5.97,13.7-5.97s13.7,2.67,13.7,5.97Z"/>
  <path class="cls-3" d="M88.31,55.25c1.14,.71,1.91,1.61,1.13,2.78-2.65,4.01-7.66,6.21-10.19,3.69-5.44-5.42,.21-4.58,2.87-8.58,.78-1.18-2.7-2.62-.7-5.12"/>
  <path class="cls-4" d="M38.61,90.19c-2.06-.57-3.68-1.33-5.31-2.08-.46-1.26-1.05-2.47-1.57-3.71-1.6-3.69-4.83-11.1-6.43-14.78,0,0-1.61-3.7-1.61-3.7,.58-1.72,1.13-3.42,2.06-5.29,2.01,.59,3.62,1.35,5.28,2.1l1.61,3.7c1.6,3.69,4.83,11.1,6.43,14.78,.55,1.22,1.03,2.48,1.64,3.68-.56,1.71-1.1,3.41-2.1,5.31h0Z"/>
  <path d="M38.51,90.23c-2.69-3.45-4.33-7.37-5.74-11.44,0,0-2.27-5.98-2.27-5.98-.73-2.01-1.48-4-2.18-6.02,0,0,.18-.08,.18-.08,1.72,3.27,4.09,8.07,5.74,11.44,2.02,3.8,3.76,7.68,4.45,12,0,0-.18,.08-.18,.08h0Z"/>
  <path class="cls-8" d="M44.74,78.5c-1.58,.69-2.3,2.51-1.64,4.09l-12.41,5.4c-.7-1.56-2.53-2.28-4.11-1.59s-2.32,2.54-1.63,4.13,2.54,2.32,4.13,1.63c0,0,.01,0,.02-.01h0s5.03-2.19,5.03-2.19l5.7,13.1c.61,1.4,2.24,2.05,3.64,1.44l2.13-.93c1.4-.61,2.04-2.24,1.44-3.64l-5.7-13.1,5.9-2.56c1.59-.69,2.32-2.54,1.63-4.13s-2.54-2.32-4.13-1.63Z"/>
  <path class="cls-7" d="M59.11,67.24h6.61c3.38,0,6.12,2.74,6.12,6.12v8.46h-18.85v-8.46c0-3.38,2.74-6.12,6.12-6.12Z" transform="translate(-.53 .45) rotate(-.41)"/>
  <path class="cls-7" d="M107.4,64.85h6.61c3.38,0,6.12,2.74,6.12,6.12v8.46h-18.85v-8.46c0-3.38,2.74-6.12,6.12-6.12Z" transform="translate(-18.07 42.53) rotate(-20.14)"/>
</svg>