<?xml version="1.0" encoding="UTF-8"?>
<svg id="Layer_1" data-name="Layer 1" xmlns="http://www.w3.org/2000/svg" viewBox="0 0 144.27 144">
  <defs>
    <style>
      .cls-1, .cls-2, .cls-3, .cls-4, .cls-5, .cls-6, .cls-7, .cls-8, .cls-9 {
        stroke: #000;
        stroke-miterlimit: 10;
      }

      .cls-1, .cls-5, .cls-9 {
        fill: none;
      }

      .cls-3 {
        fill: #fff3d2;
      }

      .cls-4 {
        fill: #d1d1cd;
      }

      .cls-5 {
        stroke-width: 6px;
      }

      .cls-6 {
        fill: #ce3030;
      }

      .cls-7 {
        fill: #ffda40;
      }

      .cls-8 {
        fill: #6d5a48;
      }

      .cls-9 {
        stroke-width: 9px;
      }
    </style>
  </defs>
  <g>
    <polygon points="82.61 141.25 81.08 144 75.97 139.34 70.87 134.69 77.51 136.59 84.15 138.5 82.61 141.25"/>
    <line class="cls-5" x1="97.88" y1="121.31" x2="80.08" y2="139.11"/>
    <polygon points="98.53 136.55 101.28 138.08 96.62 143.19 89.66 143.7 93.87 141.65 95.78 135.01 98.53 136.55"/>
    <line class="cls-5" x1="78.58" y1="121.28" x2="96.39" y2="139.08"/>
  </g>
  <path class="cls-6" d="M64.49,120.39c.29,1.74,2.29,3.05,4.65,3.05h38.34c2.36,0,4.36-1.31,4.65-3.05l1.6-9.44H62.89l1.6,9.44Z"/>
  <polygon class="cls-7" points="62.89 110.95 113.73 110.95 114.37 107.13 62.24 107.13 62.89 110.95"/>
  <path class="cls-6" d="M106.98,70.2h-37.34c-7.24,0-12.84,4.71-11.94,10.04l4.55,26.88h52.13l4.55-26.88c.9-5.33-4.7-10.04-11.94-10.04Z"/>
  <path class="cls-3" d="M108.12,57.47c2.87,0,5.2-2.33,5.2-5.2s-2.33-5.2-5.2-5.2"/>
  <path class="cls-3" d="M66.29,47.89c-2.42,0-4.38,1.96-4.38,4.38s1.96,4.38,4.38,4.38"/>
  <rect class="cls-3" x="66.29" y="28.86" width="41.83" height="45.67" rx="17.67" ry="17.67" transform="translate(174.41 103.39) rotate(180)"/>
  <path d="M90.55,46.38s3.27,1.27,6.48,.26,5.17-3.92,5.17-3.92c0,0-3.27-1.27-6.48-.26s-5.17,3.92-5.17,3.92Z"/>
  <path class="cls-1" d="M101.34,50.28c0-2-1.62-3.62-3.62-3.62s-3.62,1.62-3.62,3.62"/>
  <circle cx="97.72" cy="49.7" r="1.63"/>
  <path d="M68.74,42.83s1.61,2.76,4.49,3.91,5.95,.25,5.95,.25c0,0-1.61-2.76-4.49-3.91s-5.95-.25-5.95-.25Z"/>
  <path class="cls-1" d="M76.45,49.82c0-1.84-1.49-3.33-3.33-3.33s-3.33,1.49-3.33,3.33"/>
  <circle cx="73.12" cy="49.29" r="1.5"/>
  <polyline class="cls-9" points="96.46 97.8 117.46 94.15 113.81 73.15"/>
  <polyline class="cls-9" points="42.58 93.59 61.5 94.48 62.4 75.56"/>
  <circle class="cls-3" cx="93.54" cy="97.41" r="6.06"/>
  <circle class="cls-3" cx="38.95" cy="92.34" r="6.05"/>
  <path class="cls-2" d="M97.87,65.59l-14.65-1.97-12.75,1.97c0-3.3,6.13-5.97,13.7-5.97s13.7,2.67,13.7,5.97Z"/>
  <path class="cls-3" d="M88.31,54.25c1.14,.71,1.91,1.61,1.13,2.78-2.65,4.01-7.66,6.21-10.19,3.69-5.44-5.42,.21-4.58,2.87-8.58,.78-1.18-2.7-2.62-.7-5.12"/>
  <path class="cls-4" d="M35.73,86.2c-2.1-.43-3.76-1.08-5.44-1.73-.55-1.23-1.21-2.4-1.81-3.6-1.84-3.57-5.56-10.75-7.4-14.32,0,0-1.85-3.58-1.85-3.58,.46-1.75,.9-3.49,1.7-5.42,2.04,.46,3.71,1.11,5.4,1.74l1.85,3.58c1.84,3.57,5.56,10.75,7.4,14.32,.63,1.19,1.2,2.41,1.89,3.56-.44,1.74-.87,3.48-1.74,5.44h0Z"/>
  <path d="M35.64,86.25c-2.91-3.26-4.82-7.06-6.49-11.03,0,0-2.67-5.81-2.67-5.81-.86-1.95-1.74-3.89-2.58-5.86,0,0,.18-.09,.18-.09,1.94,3.14,4.62,7.78,6.49,11.03,2.27,3.66,4.27,7.41,5.24,11.67,0,0-.18,.09-.18,.09h0Z"/>
  <path class="cls-8" d="M41.06,74.13c-1.53,.79-2.13,2.66-1.36,4.19l-12.02,6.21c-.81-1.51-2.68-2.1-4.21-1.31s-2.14,2.69-1.35,4.23,2.69,2.14,4.23,1.35c0,0,.01,0,.02-.01h0s4.88-2.52,4.88-2.52l6.56,12.69c.7,1.36,2.37,1.89,3.73,1.19l2.06-1.07c1.36-.7,1.89-2.37,1.19-3.73l-6.56-12.69,5.71-2.95c1.54-.8,2.14-2.69,1.35-4.23s-2.69-2.14-4.23-1.35Z"/>
  <path class="cls-7" d="M59.42,66.38h6.61c3.38,0,6.12,2.74,6.12,6.12v8.46h-18.85v-8.46c0-3.38,2.74-6.12,6.12-6.12Z" transform="translate(5.04 -4.01) rotate(3.81)"/>
  <path class="cls-7" d="M108.27,63.94h6.61c3.38,0,6.12,2.74,6.12,6.12v8.46h-18.85v-8.46c0-3.38,2.74-6.12,6.12-6.12Z" transform="translate(-12.45 24.96) rotate(-12.1)"/>
</svg>