<?xml version="1.0" encoding="UTF-8"?>
<svg id="Layer_1" data-name="Layer 1" xmlns="http://www.w3.org/2000/svg" viewBox="0 0 144.27 144">
  <defs>
    <style>
      .cls-1, .cls-2, .cls-3, .cls-4, .cls-5, .cls-6, .cls-7, .cls-8, .cls-9 {
        stroke: #000;
        stroke-miterlimit: 10;
      }

      .cls-1, .cls-5, .cls-9 {
        fill: none;
      }

      .cls-3 {
        fill: #fff3d2;
      }

      .cls-4 {
        fill: #d1d1cd;
      }

      .cls-5 {
        stroke-width: 6px;
      }

      .cls-6 {
        fill: #ce3030;
      }

      .cls-7 {
        fill: #ffda40;
      }

      .cls-8 {
        fill: #6d5a48;
      }

      .cls-9 {
        stroke-width: 9px;
      }
    </style>
  </defs>
  <polygon points="100.52 140.33 101.37 143.37 94.47 143.68 87.57 144 93.61 140.65 99.66 137.3 100.52 140.33"/>
  <polyline class="cls-5" points="97.21 115.44 97.21 123.06 97.21 140.61"/>
  <polygon points="94.07 122.62 97.21 122.84 95.16 129.45 93.11 136.05 92.02 129.22 90.93 122.4 94.07 122.62"/>
  <polyline class="cls-5" points="78.13 115.44 78.13 123.06 93.03 125.71"/>
  <path class="cls-6" d="M64.49,112.39c.29,1.74,2.29,3.05,4.65,3.05h38.34c2.36,0,4.36-1.31,4.65-3.05l1.6-9.44H62.89l1.6,9.44Z"/>
  <polygon class="cls-7" points="62.89 102.95 113.73 102.95 114.37 99.13 62.24 99.13 62.89 102.95"/>
  <path class="cls-6" d="M106.98,62.2h-37.34c-7.24,0-12.84,4.71-11.94,10.04l4.55,26.88h52.13l4.55-26.88c.9-5.33-4.7-10.04-11.94-10.04Z"/>
  <path class="cls-3" d="M108.12,49.47c2.87,0,5.2-2.33,5.2-5.2s-2.33-5.2-5.2-5.2"/>
  <path class="cls-3" d="M66.29,39.89c-2.42,0-4.38,1.96-4.38,4.38s1.96,4.38,4.38,4.38"/>
  <rect class="cls-3" x="66.29" y="20.86" width="41.83" height="45.67" rx="17.67" ry="17.67" transform="translate(174.41 87.39) rotate(180)"/>
  <path d="M90.55,38.38s3.27,1.27,6.48,.26,5.17-3.92,5.17-3.92c0,0-3.27-1.27-6.48-.26s-5.17,3.92-5.17,3.92Z"/>
  <path class="cls-1" d="M101.34,42.28c0-2-1.62-3.62-3.62-3.62s-3.62,1.62-3.62,3.62"/>
  <circle cx="97.72" cy="41.7" r="1.63"/>
  <path d="M68.74,34.83s1.61,2.76,4.49,3.91,5.95,.25,5.95,.25c0,0-1.61-2.76-4.49-3.91s-5.95-.25-5.95-.25Z"/>
  <path class="cls-1" d="M76.45,41.82c0-1.84-1.49-3.33-3.33-3.33s-3.33,1.49-3.33,3.33"/>
  <circle cx="73.12" cy="41.29" r="1.5"/>
  <polyline class="cls-9" points="89.3 83.01 110.27 86.82 114.08 65.85"/>
  <polyline class="cls-9" points="40.57 83.14 59.37 85.43 61.66 66.63"/>
  <circle class="cls-3" cx="86.69" cy="81.64" r="6.06"/>
  <circle class="cls-3" cx="37.04" cy="81.63" r="6.05"/>
  <path class="cls-2" d="M97.87,57.59l-14.65-1.97-12.75,1.97c0-3.3,6.13-5.97,13.7-5.97s13.7,2.67,13.7,5.97Z"/>
  <path class="cls-3" d="M88.31,46.25c1.14,.71,1.91,1.61,1.13,2.78-2.65,4.01-7.66,6.21-10.19,3.69-5.44-5.42,.21-4.58,2.87-8.58,.78-1.18-2.7-2.62-.7-5.12"/>
  <path class="cls-4" d="M35.68,76.05c-1.94-.91-3.4-1.94-4.88-2.96-.24-1.32-.62-2.62-.92-3.92-.95-3.9-2.87-11.76-3.82-15.66,0,0-.96-3.92-.96-3.92,.86-1.59,1.69-3.18,2.93-4.86,1.88,.92,3.34,1.95,4.84,2.97l.96,3.92c.95,3.9,2.87,11.76,3.82,15.66,.34,1.3,.6,2.62,.99,3.91-.84,1.59-1.67,3.17-2.97,4.87h0Z"/>
  <path d="M35.58,76.07c-2.06-3.85-3.02-8-3.71-12.25,0,0-1.22-6.28-1.22-6.28-.37-2.1-.78-4.19-1.13-6.3,0,0,.19-.05,.19-.05,1.14,3.51,2.66,8.65,3.71,12.25,1.34,4.09,2.4,8.21,2.35,12.58,0,0-.19,.05-.19,.05h0Z"/>
  <path class="cls-8" d="M43.71,65.57c-1.67,.41-2.7,2.08-2.31,3.75l-13.15,3.21c-.43-1.66-2.11-2.67-3.78-2.27s-2.72,2.11-2.31,3.79,2.11,2.72,3.79,2.31c0,0,.02,0,.02,0h0s5.33-1.3,5.33-1.3l3.39,13.88c.36,1.49,1.86,2.4,3.35,2.03l2.26-.55c1.49-.36,2.4-1.86,2.03-3.35l-3.39-13.88,6.25-1.52c1.68-.41,2.72-2.11,2.31-3.79s-2.11-2.72-3.79-2.31Z"/>
  <path class="cls-7" d="M58.82,57.48h6.61c3.38,0,6.12,2.74,6.12,6.12v8.46h-18.85v-8.46c0-3.38,2.74-6.12,6.12-6.12Z" transform="translate(9.68 -8.06) rotate(8.05)"/>
  <path class="cls-7" d="M109.33,55.98h6.61c3.38,0,6.12,2.74,6.12,6.12v8.46h-18.85v-8.46c0-3.38,2.74-6.12,6.12-6.12Z" transform="translate(9.97 -15.14) rotate(8.05)"/>
</svg>