<?xml version="1.0" encoding="UTF-8"?>
<svg id="Layer_1" data-name="Layer 1" xmlns="http://www.w3.org/2000/svg" viewBox="0 0 144.27 144">
  <defs>
    <style>
      .cls-1 {
        stroke-width: 1.5px;
      }

      .cls-1, .cls-2, .cls-3, .cls-4, .cls-5, .cls-6, .cls-7, .cls-8, .cls-9 {
        stroke: #000;
        stroke-miterlimit: 10;
      }

      .cls-1, .cls-5, .cls-9 {
        fill: none;
      }

      .cls-3 {
        fill: #fff3d2;
      }

      .cls-4 {
        fill: #d1d1cd;
      }

      .cls-5 {
        stroke-width: 6px;
      }

      .cls-6 {
        fill: #ce3030;
      }

      .cls-7 {
        fill: #ffda40;
      }

      .cls-8 {
        fill: #6d5a48;
      }

      .cls-9 {
        stroke-width: 9px;
      }
    </style>
  </defs>
  <g>
    <polygon points="100.79 140.33 101.65 143.37 94.74 143.68 87.84 144 93.89 140.65 99.93 137.3 100.79 140.33"/>
    <line class="cls-5" x1="97.48" y1="115.44" x2="97.48" y2="140.61"/>
    <polygon points="81.71 140.33 82.57 143.37 75.66 143.68 68.76 144 74.81 140.65 80.85 137.3 81.71 140.33"/>
    <line class="cls-5" x1="78.4" y1="115.44" x2="78.4" y2="140.61"/>
  </g>
  <path class="cls-6" d="M64.49,112.39c.29,1.74,2.29,3.05,4.65,3.05h38.34c2.36,0,4.36-1.31,4.65-3.05l1.6-9.44H62.89l1.6,9.44Z"/>
  <polygon class="cls-7" points="62.89 102.95 113.73 102.95 114.37 99.13 62.24 99.13 62.89 102.95"/>
  <path class="cls-6" d="M106.98,62.2h-37.34c-7.24,0-12.84,4.71-11.94,10.04l4.55,26.88h52.13l4.55-26.88c.9-5.33-4.7-10.04-11.94-10.04Z"/>
  <path class="cls-3" d="M108.12,51.47c2.87,0,5.2-2.33,5.2-5.2s-2.33-5.2-5.2-5.2"/>
  <path class="cls-3" d="M66.29,41.89c-2.42,0-4.38,1.96-4.38,4.38s1.96,4.38,4.38,4.38"/>
  <rect class="cls-3" x="66.29" y="22.86" width="41.83" height="45.67" rx="17.67" ry="17.67" transform="translate(174.41 91.39) rotate(180)"/>
  <path d="M102.21,37.38s-3.27,1.27-6.48,.26-5.17-3.92-5.17-3.92c0,0,3.27-1.27,6.48-.26s5.17,3.92,5.17,3.92Z"/>
  <path d="M79.19,33.83s-1.61,2.76-4.49,3.91-5.95,.25-5.95,.25c0,0,1.61-2.76,4.49-3.91s5.95-.25,5.95-.25Z"/>
  <polyline class="cls-9" points="102.21 80.87 113.9 88.27 113.78 66.96"/>
  <polyline class="cls-9" points="66.85 80.99 53.84 84.7 60.69 69.07"/>
  <circle class="cls-3" cx="99.4" cy="80.01" r="6.06"/>
  <path class="cls-2" d="M97.87,59.59l-14.65-1.97-12.75,1.97c0-3.3,6.13-5.97,13.7-5.97s13.7,2.67,13.7,5.97Z"/>
  <path class="cls-3" d="M88.31,48.25c1.14,.71,1.91,1.61,1.13,2.78-2.65,4.01-7.66,6.21-10.19,3.69-5.44-5.42,.21-4.58,2.87-8.58,.78-1.18-2.7-2.62-.7-5.12"/>
  <path class="cls-7" d="M58.82,58.48h6.61c3.38,0,6.12,2.74,6.12,6.12v8.46h-18.85v-8.46c0-3.38,2.74-6.12,6.12-6.12Z"/>
  <path class="cls-7" d="M109.33,56.98h6.61c3.38,0,6.12,2.74,6.12,6.12v8.46h-18.85v-8.46c0-3.38,2.74-6.12,6.12-6.12Z" transform="translate(-2.59 4.76) rotate(-2.39)"/>
  <line class="cls-1" x1="95.04" y1="40.92" x2="100.52" y2="46.39"/>
  <line class="cls-1" x1="100.52" y1="40.92" x2="95.04" y2="46.39"/>
  <line class="cls-1" x1="70.52" y1="40.42" x2="75.99" y2="45.9"/>
  <line class="cls-1" x1="75.99" y1="40.42" x2="70.52" y2="45.9"/>
  <path class="cls-4" d="M70.09,72.98c-1.96-.86-3.45-1.85-4.96-2.83-.28-1.32-.68-2.6-1.02-3.9-1.05-3.88-3.18-11.68-4.23-15.56,0,0-1.06-3.89-1.06-3.89,.82-1.62,1.61-3.22,2.8-4.94,1.9,.88,3.39,1.86,4.92,2.84l1.06,3.89c1.05,3.88,3.18,11.68,4.23,15.56,.37,1.29,.67,2.6,1.1,3.88-.8,1.61-1.58,3.22-2.84,4.95h0Z"/>
  <path d="M69.99,73.01c-2.16-3.8-3.23-7.91-4.03-12.15,0,0-1.39-6.24-1.39-6.24-.43-2.09-.89-4.17-1.29-6.27,0,0,.19-.05,.19-.05,1.23,3.48,2.88,8.58,4.03,12.15,1.45,4.05,2.62,8.14,2.68,12.51,0,0-.19,.05-.19,.05h0Z"/>
  <path class="cls-8" d="M77.84,62.3c-1.66,.45-2.64,2.15-2.21,3.81l-13.06,3.55c-.47-1.65-2.18-2.62-3.84-2.17s-2.66,2.18-2.21,3.85,2.18,2.66,3.85,2.21c0,0,.02,0,.02,0h0s5.3-1.44,5.3-1.44l3.75,13.78c.4,1.48,1.92,2.35,3.4,1.95l2.24-.61c1.48-.4,2.35-1.92,1.95-3.4l-3.75-13.78,6.2-1.69c1.67-.46,2.66-2.18,2.21-3.85s-2.18-2.66-3.85-2.21Z"/>
  <circle class="cls-3" cx="68.53" cy="80.63" r="6.05"/>
</svg>