<?xml version="1.0" encoding="UTF-8"?>
<svg id="Layer_1" data-name="Layer 1" xmlns="http://www.w3.org/2000/svg" viewBox="0 0 144.27 144">
  <defs>
    <style>
      .cls-1, .cls-2, .cls-3, .cls-4, .cls-5, .cls-6, .cls-7, .cls-8, .cls-9 {
        stroke: #000;
        stroke-miterlimit: 10;
      }

      .cls-1, .cls-5, .cls-9 {
        fill: none;
      }

      .cls-3 {
        fill: #fff3d2;
      }

      .cls-4 {
        fill: #d1d1cd;
      }

      .cls-5 {
        stroke-width: 6px;
      }

      .cls-6 {
        fill: #ce3030;
      }

      .cls-7 {
        fill: #ffda40;
      }

      .cls-8 {
        fill: #6d5a48;
      }

      .cls-9 {
        stroke-width: 9px;
      }
    </style>
  </defs>
  <polygon points="107.62 137.46 109.24 140.16 102.66 142.27 96.08 143.39 101.04 139.57 105.99 134.76 107.62 137.46"/>
  <line class="cls-5" x1="97.9" y1="114.29" x2="104.5" y2="138.59"/>
  <path class="cls-6" d="M64.49,112.39c.29,1.74,2.29,3.05,4.65,3.05h38.34c2.36,0,4.36-1.31,4.65-3.05l1.6-9.44H62.89l1.6,9.44Z"/>
  <polygon class="cls-7" points="62.89 102.95 113.73 102.95 114.37 99.13 62.24 99.13 62.89 102.95"/>
  <path class="cls-6" d="M106.98,62.2h-37.34c-7.24,0-12.84,4.71-11.94,10.04l4.55,26.88h52.13l4.55-26.88c.9-5.33-4.7-10.04-11.94-10.04Z"/>
  <path class="cls-3" d="M108.12,51.47c2.87,0,5.2-2.33,5.2-5.2s-2.33-5.2-5.2-5.2"/>
  <path class="cls-3" d="M66.29,41.89c-2.42,0-4.38,1.96-4.38,4.38s1.96,4.38,4.38,4.38"/>
  <rect class="cls-3" x="66.29" y="22.86" width="41.83" height="45.67" rx="17.67" ry="17.67" transform="translate(174.41 91.39) rotate(180)"/>
  <path d="M90.55,39.38s3.27,1.27,6.48,.26,5.17-3.92,5.17-3.92c0,0-3.27-1.27-6.48-.26s-5.17,3.92-5.17,3.92Z"/>
  <path class="cls-1" d="M101.34,42.28c0-2-1.62-3.62-3.62-3.62s-3.62,1.62-3.62,3.62"/>
  <circle cx="97.72" cy="41.7" r="1.63"/>
  <path d="M68.74,35.83s1.61,2.76,4.49,3.91,5.95,.25,5.95,.25c0,0-1.61-2.76-4.49-3.91s-5.95-.25-5.95-.25Z"/>
  <path class="cls-1" d="M76.45,41.82c0-1.84-1.49-3.33-3.33-3.33s-3.33,1.49-3.33,3.33"/>
  <circle cx="73.12" cy="41.29" r="1.5"/>
  <polyline class="cls-9" points="92.58 88.39 113.9 88.27 113.78 66.96"/>
  <polyline class="cls-9" points="66.85 80.99 53.84 84.7 60.69 69.07"/>
  <circle class="cls-3" cx="89.77" cy="87.52" r="6.06"/>
  <path class="cls-2" d="M97.87,57.59l-14.65-1.97-12.75,1.97c0-3.3,6.13-5.97,13.7-5.97s13.7,2.67,13.7,5.97Z"/>
  <path class="cls-3" d="M88.31,46.25c1.14,.71,1.91,1.61,1.13,2.78-2.65,4.01-7.66,6.21-10.19,3.69-5.44-5.42,.21-4.58,2.87-8.58,.78-1.18-2.7-2.62-.7-5.12"/>
  <polygon points="81.75 140.33 82.61 143.37 75.7 143.68 68.8 144 74.84 140.65 80.89 137.3 81.75 140.33"/>
  <line class="cls-5" x1="78.44" y1="115.44" x2="78.44" y2="140.61"/>
  <path class="cls-7" d="M58.82,58.48h6.61c3.38,0,6.12,2.74,6.12,6.12v8.46h-18.85v-8.46c0-3.38,2.74-6.12,6.12-6.12Z" transform="translate(17.75 -13.07) rotate(13.99)"/>
  <path class="cls-7" d="M109.33,56.98h6.61c3.38,0,6.12,2.74,6.12,6.12v8.46h-18.85v-8.46c0-3.38,2.74-6.12,6.12-6.12Z" transform="translate(-2.59 4.76) rotate(-2.39)"/>
  <path class="cls-4" d="M69.52,73.54c-1.68-1.32-2.88-2.65-4.09-3.98,.06-1.34-.01-2.69,0-4.03-.05-4.02-.15-12.1-.2-16.12,0,0-.05-4.03-.05-4.03,1.2-1.36,2.36-2.72,3.95-4.08,1.62,1.32,2.82,2.65,4.05,3.98l.05,4.03c.05,4.02,.15,12.1,.2,16.12,.03,1.34,0,2.69,.09,4.03-1.18,1.36-2.34,2.72-3.99,4.08h0Z"/>
  <path d="M69.42,73.54c-1.14-4.22-1.14-8.47-.86-12.77,0,0,.22-6.39,.22-6.39,.11-2.13,.19-4.26,.32-6.39,0,0,.2,0,.2,0,.32,3.68,.64,9.02,.86,12.77,.39,4.29,.49,8.54-.54,12.78,0,0-.2,0-.2,0h0Z"/>
  <path class="cls-8" d="M79.7,65.14c-1.72,.02-3.1,1.42-3.1,3.14l-13.53,.17c-.04-1.71-1.45-3.08-3.17-3.06s-3.12,1.44-3.1,3.18,1.44,3.12,3.18,3.1c0,0,.02,0,.02,0h0s5.49-.06,5.49-.06l.17,14.28c.02,1.53,1.27,2.75,2.8,2.74l2.32-.03c1.53-.02,2.75-1.27,2.74-2.8l-.17-14.28,6.43-.08c1.73-.02,3.12-1.44,3.1-3.18s-1.44-3.12-3.18-3.1Z"/>
  <circle class="cls-3" cx="66.09" cy="80.55" r="6.05"/>
</svg>