<?xml version="1.0" encoding="utf-8"?>
<!-- Generator: Adobe Illustrator 26.3.1, SVG Export Plug-In . SVG Version: 6.00 Build 0)  -->
<svg version="1.1" xmlns="http://www.w3.org/2000/svg" xmlns:xlink="http://www.w3.org/1999/xlink" x="0px" y="0px"
	 viewBox="0 0 500 252" style="enable-background:new 0 0 500 252;" xml:space="preserve">
<style type="text/css">
	.st0{fill:none;stroke:#000000;stroke-width:5;stroke-miterlimit:10;}
	.st1{fill:#3198FF;stroke:#000000;stroke-miterlimit:10;}
	.st2{fill:#CE3030;stroke:#000000;stroke-miterlimit:10;}
	.st3{fill:#B2982B;stroke:#000000;stroke-miterlimit:10;}
	.st4{fill:#FFF3D2;stroke:#000000;stroke-miterlimit:10;}
	.st5{stroke:#000000;stroke-miterlimit:10;}
	.st6{fill:none;stroke:#000000;stroke-miterlimit:10;}
	.st7{fill:#FFDA40;stroke:#000000;stroke-linejoin:round;}
	.st8{fill:#FFDA40;stroke:#000000;stroke-miterlimit:10;}
	.st9{fill:none;stroke:#000000;stroke-width:1.5;stroke-miterlimit:10;}
	.st10{fill:#CE3030;}
</style>
<g id="Layer_1">
	<g>
		<g>
			<polygon points="448,120.1 447.2,122.8 453.2,123 459.2,123.3 454,120.4 448.7,117.5 			"/>
			<line class="st0" x1="450.9" y1="98.5" x2="450.9" y2="120.4"/>
			<polygon points="464.6,120.1 463.8,122.8 469.8,123 475.8,123.3 470.6,120.4 465.3,117.5 			"/>
			<line class="st0" x1="467.4" y1="98.5" x2="467.4" y2="120.4"/>
			<path class="st1" d="M476.4,58.6c-0.5-2.7-2.9-4.6-5.6-4.6h-26.9c-2.7,0-5.1,1.9-5.6,4.6l-4.5,23.3h47.1L476.4,58.6L476.4,58.6z"
				/>
			<path class="st1" d="M481.9,86.8h-49.1l-2.3,11.9c-0.7,3.5,2,6.8,5.6,6.8h42.5c3.6,0,6.3-3.3,5.6-6.8
				C484.2,98.8,481.9,86.8,481.9,86.8z"/>
			<polygon class="st2" points="480.9,81.8 433.8,81.8 432.8,86.8 481.9,86.8 			"/>
			<path class="st2" d="M482.4,33.9c0,13.9-11.3,25.2-25.2,25.2c-8.9,0-16.7-4.6-21.2-11.5c-2.1-2.3-3.7-5.1-4.6-8.3l-4.1-15.1
				c-1.1-4.2,1.3-8.5,5.5-9.6l14.5-4c3-1.3,6.4-2,9.9-2C471.1,8.6,482.4,19.9,482.4,33.9z"/>
			<path class="st3" d="M437.1,120.9c-3.2-1.2-3.9-2.9-3.9-2.9L445,94.7l11.8-23.3l-6.8,25.2l-6.8,25.2
				C443.1,121.8,440.3,122.1,437.1,120.9z"/>
			<path class="st4" d="M436.5,42c-2.9,0-5.2-2.3-5.2-5.2s2.3-5.2,5.2-5.2"/>
			<path class="st4" d="M478.3,32.4c2.4,0,4.4,2,4.4,4.4s-2,4.4-4.4,4.4"/>
			<path class="st4" d="M454.1,13.4h6.5c9.8,0,17.7,7.9,17.7,17.7v10.3c0,9.8-7.9,17.7-17.7,17.7h-6.5c-9.8,0-17.7-7.9-17.7-17.7
				V31.1C436.5,21.3,444.4,13.4,454.1,13.4z"/>
			<path class="st5" d="M467.9,10L467.9,10c1.9,1.3,2.3,3.9,1,5.7l-6.3,9c-1.3,1.9-3.9,2.3-5.7,1l-9-6.3c-1.9-1.3-2.3-3.9-1-5.7l0,0
				C451.6,6.9,461,5.2,467.9,10L467.9,10z"/>
			<path class="st5" d="M460.4,47.9c0,0-2.2,2.3-5.5,3.2c-3.3,0.9-6.3-0.1-6.3-0.1s2.2-2.3,5.5-3.2
				C457.3,46.9,460.4,47.9,460.4,47.9z"/>
			<path class="st5" d="M462.3,47.9c0,0,1.8,1.9,4.4,2.6c2.6,0.7,5.1-0.1,5.1-0.1s-1.8-1.9-4.4-2.6
				C464.8,47.1,462.3,47.9,462.3,47.9z"/>
			<path class="st6" d="M453.6,37.9c0.3,1.2,0.8,2.5,1.6,3.7c2.6,4,7.2,5.7,10.2,3.7c3-2,3.2-6.8,0.6-10.8c-0.8-1.2-1.7-2.1-2.8-2.9
				"/>
			<path d="M453,28.9c0,0-2.7,0.9-6.1,0.9c-3.4,0-6.1-0.9-6.1-0.9s2.7-0.9,6.1-0.9C450.2,28,453,28.9,453,28.9z"/>
			<path class="st6" d="M443.2,34.8c0-2,1.6-3.6,3.6-3.6s3.6,1.6,3.6,3.6"/>
			<circle cx="446.9" cy="34.3" r="1.6"/>
			<path d="M477.1,28.9c0,0-2.5,0.8-5.6,0.8c-3.1,0-5.6-0.8-5.6-0.8s2.5-0.8,5.6-0.8C474.5,28.1,477.1,28.9,477.1,28.9z"/>
			<path class="st6" d="M468.1,34.4c0-1.8,1.5-3.3,3.3-3.3s3.3,1.5,3.3,3.3"/>
			<circle cx="471.5" cy="33.8" r="1.5"/>
			<polyline class="st0" points="456.7,66.4 441.8,73.2 435,58.3 			"/>
			<polyline class="st0" points="460.8,70.7 476.9,72.7 478.8,56.6 			"/>
			<circle class="st4" cx="459.2" cy="65.2" r="3.8"/>
			<path class="st7" d="M464.3,56.4l-3.1-1.5c-0.5-0.2-1.1,0-1.4,0.5s0,1.1,0.5,1.4l0.3,0.1l-10.9,28.4l-4.7,9.4L433.2,118
				c0,0,2.8-1.3,5.9-0.1c3.2,1.2,3.9,3.9,3.9,3.9l6.8-25.2l3.2-11.7l10.2-26.7l0.1,0.1c0.5,0.2,1.1,0,1.4-0.5
				C465.1,57.3,464.9,56.7,464.3,56.4L464.3,56.4z"/>
			<path class="st8" d="M435.4,51.1h2.1c4.6,0,8.3,3.7,8.3,8.3v2.1c0,4.6-3.7,8.3-8.3,8.3h-2.1c-4.6,0-8.3-3.7-8.3-8.3v-2.1
				C427.1,54.9,430.8,51.1,435.4,51.1z"/>
			<path class="st8" d="M476.5,51.1h1.5c4.2,0,7.6,3.4,7.6,7.6v1.5c0,4.2-3.4,7.6-7.6,7.6h-1.5c-4.2,0-7.6-3.4-7.6-7.6v-1.5
				C468.9,54.5,472.3,51.1,476.5,51.1z"/>
			<circle class="st4" cx="457.7" cy="70.2" r="3.8"/>
		</g>
		<g id="_x31__00000104678731400151360700000015412319354010713014_">
			<polygon points="35.5,120.3 34.7,123 40.7,123.2 46.7,123.5 41.5,120.6 36.2,117.7 			"/>
			<polyline class="st0" points="38.3,98.7 38.3,105.3 38.3,120.6 			"/>
			<polygon points="41.1,104.9 38.3,105.1 40.1,110.9 41.9,116.6 42.9,110.7 43.8,104.7 			"/>
			<polyline class="st0" points="54.9,98.7 54.9,105.3 42,107.6 			"/>
			<path class="st1" d="M63.9,54.8c-0.5-2.7-2.9-4.6-5.6-4.6H31.4c-2.7,0-5.1,1.9-5.6,4.6L21.3,78h47.1L63.9,54.8L63.9,54.8z"/>
			<path class="st1" d="M69.4,83H20.3L18,95c-0.7,3.5,2,6.8,5.6,6.8h42.4c3.6,0,6.3-3.3,5.6-6.8C71.7,95,69.4,83,69.4,83z"/>
			<polygon class="st2" points="68.4,78 21.3,78 20.3,83 69.4,83 			"/>
			<path class="st2" d="M69.9,30.1c0,13.9-11.3,25.2-25.2,25.2c-8.9,0-16.7-4.6-21.2-11.5c-2.1-2.3-3.7-5.1-4.6-8.3l-4.1-15.1
				c-1.1-4.2,1.3-8.5,5.5-9.6l14.5-4c3-1.3,6.4-2,9.9-2C58.6,4.8,69.9,16.1,69.9,30.1z"/>
			<path class="st3" d="M24.6,121.1c-3.2-1.2-3.9-2.9-3.9-2.9l11.8-23.3l11.8-23.3l-6.8,25.2L30.6,122
				C30.6,122,27.8,122.3,24.6,121.1z"/>
			<path class="st4" d="M23.9,38.2c-2.9,0-5.2-2.3-5.2-5.2s2.3-5.2,5.2-5.2"/>
			<path class="st4" d="M65.8,28.6c2.4,0,4.4,2,4.4,4.4s-2,4.4-4.4,4.4"/>
			<path class="st4" d="M41.6,9.6h6.5c9.8,0,17.7,7.9,17.7,17.7v10.3c0,9.8-7.9,17.7-17.7,17.7h-6.5c-9.8,0-17.7-7.9-17.7-17.7V27.3
				C23.9,17.5,31.8,9.6,41.6,9.6z"/>
			<path class="st5" d="M55.4,6.2L55.4,6.2c1.9,1.3,2.3,3.9,1,5.7l-6.3,9c-1.3,1.9-3.9,2.3-5.7,1l-9-6.3c-1.9-1.3-2.3-3.9-1-5.7l0,0
				C39.1,3.1,48.5,1.4,55.4,6.2L55.4,6.2z"/>
			<path class="st5" d="M47.9,44.1c0,0-2.2,2.3-5.5,3.2c-3.3,0.9-6.3-0.1-6.3-0.1s2.2-2.3,5.5-3.2S47.9,44.1,47.9,44.1z"/>
			<path class="st5" d="M49.8,44.1c0,0,1.8,1.9,4.4,2.6s5.1-0.1,5.1-0.1s-1.8-1.9-4.4-2.6S49.8,44.1,49.8,44.1z"/>
			<path class="st6" d="M41,34.1c0.3,1.2,0.8,2.5,1.6,3.7c2.7,4,7.2,5.7,10.2,3.7s3.2-6.8,0.6-10.8c-0.8-1.2-1.7-2.1-2.8-2.9"/>
			<path d="M40.4,25.1c0,0-2.7,0.9-6.1,0.9s-6.1-0.9-6.1-0.9s2.7-0.9,6.1-0.9S40.4,25.1,40.4,25.1z"/>
			<path class="st6" d="M30.7,31c0-2,1.6-3.6,3.6-3.6c2,0,3.6,1.6,3.6,3.6"/>
			<circle cx="34.3" cy="30.5" r="1.6"/>
			<path d="M64.5,25.1c0,0-2.5,0.8-5.6,0.8s-5.6-0.8-5.6-0.8s2.5-0.8,5.6-0.8S64.5,25.1,64.5,25.1z"/>
			<path class="st6" d="M55.6,30.6c0-1.8,1.5-3.3,3.3-3.3s3.3,1.5,3.3,3.3"/>
			<circle cx="58.9" cy="30" r="1.5"/>
			<polyline class="st0" points="44.1,66.6 29.2,73.4 22.5,58.5 			"/>
			<polyline class="st0" points="48.3,70.9 64.4,72.9 66.3,56.8 			"/>
			<circle class="st4" cx="46.7" cy="65.4" r="3.8"/>
			<path class="st7" d="M51.8,56.6l-3.1-1.5c-0.5-0.2-1.1,0-1.4,0.5s0,1.1,0.5,1.4l0.3,0.1L37.2,85.5l-4.7,9.4l-11.8,23.3
				c0,0,2.8-1.3,5.9-0.1c3.2,1.2,3.9,3.9,3.9,3.9l6.8-25.2l3.2-11.7l10.2-26.7l0.1,0.1c0.5,0.2,1.1,0,1.4-0.5
				C52.6,57.5,52.4,56.9,51.8,56.6L51.8,56.6z"/>
			<path class="st8" d="M22.9,49.3H25c4.6,0,8.3,3.7,8.3,8.3v2.1c0,4.6-3.7,8.3-8.3,8.3h-2.1c-4.6,0-8.3-3.7-8.3-8.3v-2.1
				C14.6,53.1,18.3,49.3,22.9,49.3z"/>
			<path class="st8" d="M64,49.3h1.5c4.2,0,7.6,3.4,7.6,7.6v1.5c0,4.2-3.4,7.6-7.6,7.6H64c-4.2,0-7.6-3.4-7.6-7.6v-1.5
				C56.4,52.7,59.8,49.3,64,49.3z"/>
			<circle class="st4" cx="45.1" cy="70.4" r="3.8"/>
		</g>
		<g id="_x32__00000072962569978409724950000008200577641819785121_">
			<polygon points="106.4,117.3 104,118.6 108,123.1 115.1,123.5 110.4,121.7 108.8,116 			"/>
			<polyline class="st0" points="123.7,104 119,108.7 108.2,119.5 			"/>
			<polygon points="147,121 148.4,123.3 152.7,119.2 157,115 151.3,116.8 145.6,118.6 			"/>
			<polyline class="st0" points="133.2,104 138,108.6 149.1,119 			"/>
			<path class="st1" d="M145.8,59.9c-0.5-2.7-2.9-4.6-5.6-4.6h-26.9c-2.7,0-5.1,1.9-5.6,4.6l-4.5,23.2h47.1L145.8,59.9L145.8,59.9z"
				/>
			<path class="st1" d="M151.3,88.2h-49.1l-2.3,11.9c-0.7,3.5,2,6.8,5.6,6.8H148c3.6,0,6.3-3.3,5.6-6.8
				C153.6,100.1,151.3,88.2,151.3,88.2z"/>
			<polygon class="st2" points="150.3,83.2 103.2,83.2 102.2,88.2 151.3,88.2 			"/>
			<path class="st2" d="M151.7,35.2c0,13.9-11.3,25.2-25.2,25.2c-8.9,0-16.7-4.6-21.2-11.5c-2.1-2.3-3.7-5.1-4.6-8.3l-4.1-15.1
				c-1.1-4.2,1.3-8.5,5.5-9.6l14.5-4c3-1.3,6.4-2,9.9-2C140.4,10,151.7,21.3,151.7,35.2z"/>
			<path class="st3" d="M106.5,120.2c-3.2-1.2-3.9-2.9-3.9-2.9L114.3,94l11.8-23.3l-6.8,25.2l-6.8,25.2
				C112.4,121.1,109.7,121.4,106.5,120.2z"/>
			<path class="st4" d="M105.8,43.4c-2.9,0-5.2-2.3-5.2-5.2s2.3-5.2,5.2-5.2"/>
			<path class="st4" d="M147.6,33.8c2.4,0,4.4,2,4.4,4.4s-2,4.4-4.4,4.4"/>
			<path class="st4" d="M123.5,14.8h6.5c9.8,0,17.7,7.9,17.7,17.7v10.3c0,9.8-7.9,17.7-17.7,17.7h-6.5c-9.8,0-17.7-7.9-17.7-17.7
				V32.5C105.8,22.7,113.7,14.8,123.5,14.8z"/>
			<path class="st5" d="M137.2,11.4L137.2,11.4c1.9,1.3,2.3,3.9,1,5.7l-6.3,9c-1.3,1.9-3.9,2.3-5.7,1l-9-6.3c-1.9-1.3-2.3-3.9-1-5.7
				l0,0C121,8.3,130.4,6.6,137.2,11.4L137.2,11.4z"/>
			<path class="st5" d="M129.8,49.2c0,0-2.2,2.3-5.5,3.2c-3.3,0.9-6.3-0.1-6.3-0.1s2.2-2.3,5.5-3.2S129.8,49.2,129.8,49.2z"/>
			<path class="st5" d="M131.7,49.2c0,0,1.8,1.9,4.4,2.6s5.1-0.1,5.1-0.1s-1.8-1.9-4.4-2.6S131.7,49.2,131.7,49.2z"/>
			<path class="st6" d="M122.9,39.3c0.3,1.2,0.8,2.5,1.6,3.7c2.7,4,7.2,5.7,10.2,3.7s3.2-6.8,0.6-10.8c-0.8-1.2-1.7-2.1-2.8-2.9"/>
			<path d="M122.3,30.2c0,0-2.7,0.9-6.1,0.9c-3.4,0-6.1-0.9-6.1-0.9s2.7-0.9,6.1-0.9C119.6,29.3,122.3,30.2,122.3,30.2z"/>
			<path class="st6" d="M112.6,36.2c0-2,1.6-3.6,3.6-3.6c2,0,3.6,1.6,3.6,3.6"/>
			<circle cx="116.2" cy="35.6" r="1.6"/>
			<path d="M146.4,30.3c0,0-2.5,0.8-5.6,0.8c-3.1,0-5.6-0.8-5.6-0.8s2.5-0.8,5.6-0.8C143.9,29.4,146.4,30.3,146.4,30.3z"/>
			<path class="st6" d="M137.5,35.7c0-1.8,1.5-3.3,3.3-3.3s3.3,1.5,3.3,3.3"/>
			<circle cx="140.8" cy="35.2" r="1.5"/>
			<polyline class="st0" points="126,65.8 111.1,72.6 104.3,57.7 			"/>
			<polyline class="st0" points="130.2,70.1 146.2,72 148.2,56 			"/>
			<circle class="st4" cx="128.5" cy="64.5" r="3.8"/>
			<path class="st7" d="M133.7,55.8l-3.1-1.5c-0.5-0.2-1.1,0-1.4,0.5s0,1.1,0.5,1.4l0.3,0.1l-10.9,28.4l-4.7,9.4l-11.8,23.3
				c0,0,2.8-1.3,5.9-0.1c3.2,1.2,3.9,3.9,3.9,3.9l6.8-25.2l3.2-11.7l10.2-26.7l0.1,0.1c0.5,0.2,1.1,0,1.4-0.5
				C134.4,56.7,134.2,56,133.7,55.8L133.7,55.8z"/>
			<path class="st8" d="M104.8,51.5h2.1c4.6,0,8.3,3.7,8.3,8.3v2.1c0,4.6-3.7,8.3-8.3,8.3h-2.1c-4.6,0-8.3-3.7-8.3-8.3v-2.1
				C96.5,55.2,100.2,51.5,104.8,51.5z"/>
			<path class="st8" d="M145.9,51.5h1.5c4.2,0,7.6,3.4,7.6,7.6v1.5c0,4.2-3.4,7.6-7.6,7.6h-1.5c-4.2,0-7.6-3.4-7.6-7.6v-1.5
				C138.3,54.9,141.7,51.5,145.9,51.5z"/>
			<circle class="st4" cx="127" cy="69.6" r="3.8"/>
		</g>
		<g id="_x33__00000079478456578960280480000012551423521884608899_">
			<polygon points="186.8,106.8 184.1,107.3 186.4,112.8 188.7,118.4 189.1,112.4 189.5,106.4 			"/>
			<polyline class="st0" points="201.7,98.7 201.7,105.3 188.3,109.4 			"/>
			<polygon points="215.4,120.3 214.7,123 220.7,123.2 226.7,123.5 221.4,120.6 216.2,117.7 			"/>
			<polyline class="st0" points="218.3,98.7 218.3,105.5 218.3,120.6 			"/>
			<path class="st1" d="M227.3,54.8c-0.5-2.7-2.9-4.6-5.6-4.6h-26.9c-2.7,0-5.1,1.9-5.6,4.6L184.7,78h47.1L227.3,54.8L227.3,54.8z"
				/>
			<path class="st1" d="M232.8,83h-49.1L181.4,95c-0.7,3.5,2,6.8,5.6,6.8h42.4c3.6,0,6.3-3.3,5.6-6.8C235.1,95,232.8,83,232.8,83z"
				/>
			<polygon class="st2" points="231.8,78 184.7,78 183.7,83 232.8,83 			"/>
			<path class="st2" d="M233.2,30.1c0,13.9-11.3,25.2-25.2,25.2c-8.9,0-16.7-4.6-21.2-11.5c-2.1-2.3-3.7-5.1-4.6-8.3l-4.1-15.1
				c-1.1-4.2,1.3-8.5,5.5-9.6l14.5-4c3-1.3,6.4-2,9.9-2C221.9,4.8,233.2,16.1,233.2,30.1z"/>
			<path class="st3" d="M188,121.1c-3.2-1.2-3.9-2.9-3.9-2.9l11.8-23.3l11.8-23.3l-6.8,25.2l-6.8,25.2
				C193.9,122,191.2,122.3,188,121.1z"/>
			<path class="st4" d="M187.3,38.2c-2.9,0-5.2-2.3-5.2-5.2s2.3-5.2,5.2-5.2"/>
			<path class="st4" d="M229.1,28.6c2.4,0,4.4,2,4.4,4.4s-2,4.4-4.4,4.4"/>
			<path class="st4" d="M205,9.6h6.5c9.8,0,17.7,7.9,17.7,17.7v10.3c0,9.8-7.9,17.7-17.7,17.7H205c-9.8,0-17.7-7.9-17.7-17.7V27.3
				C187.3,17.5,195.2,9.6,205,9.6z"/>
			<path class="st5" d="M218.7,6.2L218.7,6.2c1.9,1.3,2.3,3.9,1,5.7l-6.3,9c-1.3,1.9-3.9,2.3-5.7,1l-9-6.3c-1.9-1.3-2.3-3.9-1-5.7
				l0,0C202.5,3.1,211.9,1.4,218.7,6.2L218.7,6.2z"/>
			<path class="st5" d="M211.3,44.1c0,0-2.2,2.3-5.5,3.2c-3.3,0.9-6.3-0.1-6.3-0.1s2.2-2.3,5.5-3.2
				C208.2,43.1,211.3,44.1,211.3,44.1z"/>
			<path class="st5" d="M213.2,44.1c0,0,1.8,1.9,4.4,2.6s5.1-0.1,5.1-0.1s-1.8-1.9-4.4-2.6S213.2,44.1,213.2,44.1z"/>
			<path class="st6" d="M204.4,34.1c0.3,1.2,0.8,2.5,1.6,3.7c2.6,4,7.2,5.7,10.2,3.7c3-2,3.2-6.8,0.6-10.8c-0.8-1.2-1.7-2.1-2.8-2.9
				"/>
			<path d="M203.8,25.1c0,0-2.7,0.9-6.1,0.9c-3.4,0-6.1-0.9-6.1-0.9s2.7-0.9,6.1-0.9C201.1,24.2,203.8,25.1,203.8,25.1z"/>
			<path class="st6" d="M194.1,31c0-2,1.6-3.6,3.6-3.6s3.6,1.6,3.6,3.6"/>
			<circle cx="197.7" cy="30.5" r="1.6"/>
			<path d="M227.9,25.1c0,0-2.5,0.8-5.6,0.8c-3.1,0-5.6-0.8-5.6-0.8s2.5-0.8,5.6-0.8C225.4,24.3,227.9,25.1,227.9,25.1z"/>
			<path class="st6" d="M219,30.6c0-1.8,1.5-3.3,3.3-3.3s3.3,1.5,3.3,3.3"/>
			<circle cx="222.3" cy="30" r="1.5"/>
			<polyline class="st0" points="207.5,66.6 192.6,73.4 185.8,58.5 			"/>
			<polyline class="st0" points="211.7,70.9 227.7,72.9 229.7,56.8 			"/>
			<circle class="st4" cx="210" cy="65.4" r="3.8"/>
			<path class="st7" d="M215.2,56.6l-3.1-1.5c-0.5-0.2-1.1,0-1.4,0.5s0,1.1,0.5,1.4l0.3,0.1l-10.9,28.4l-4.7,9.4l-11.8,23.3
				c0,0,2.8-1.3,5.9-0.1c3.2,1.2,3.9,3.9,3.9,3.9l6.8-25.2l3.2-11.7l10.2-26.7l0.1,0.1c0.5,0.2,1.1,0,1.4-0.5
				C215.9,57.5,215.7,56.9,215.2,56.6L215.2,56.6z"/>
			<path class="st8" d="M186.3,49.3h2.1c4.6,0,8.3,3.7,8.3,8.3v2.1c0,4.6-3.7,8.3-8.3,8.3h-2.1c-4.6,0-8.3-3.7-8.3-8.3v-2.1
				C177.9,53.1,181.7,49.3,186.3,49.3z"/>
			<path class="st8" d="M227.3,49.3h1.5c4.2,0,7.6,3.4,7.6,7.6v1.5c0,4.2-3.4,7.6-7.6,7.6h-1.5c-4.2,0-7.6-3.4-7.6-7.6v-1.5
				C219.8,52.7,223.2,49.3,227.3,49.3z"/>
			<circle class="st4" cx="208.5" cy="70.4" r="3.8"/>
		</g>
		<g id="_x34__00000149358880157800380180000011993010046723255478_">
			<polygon points="297.3,121.1 298.6,123.5 303.1,119.5 307.5,115.4 301.8,117.1 296,118.7 			"/>
			<line class="st0" x1="284" y1="103.8" x2="299.5" y2="119.3"/>
			<polygon points="283.5,117 281.1,118.4 285.1,122.8 291.2,123.2 287.5,121.5 285.9,115.7 			"/>
			<line class="st0" x1="300.8" y1="103.8" x2="285.3" y2="119.2"/>
			<path class="st1" d="M309.7,59.8c-0.5-2.7-2.9-4.6-5.6-4.6h-26.9c-2.7,0-5.1,1.9-5.6,4.6L267.1,83h47.1L309.7,59.8L309.7,59.8z"
				/>
			<path class="st1" d="M315.2,88h-49.1l-2.3,11.9c-0.7,3.5,2,6.8,5.6,6.8h42.5c3.6,0,6.3-3.3,5.6-6.8C317.5,99.9,315.2,88,315.2,88
				z"/>
			<polygon class="st2" points="314.2,83 267.1,83 266.1,88 315.2,88 			"/>
			<path class="st2" d="M315.6,35c0,13.9-11.3,25.2-25.2,25.2c-8.9,0-16.7-4.6-21.2-11.5c-2.1-2.3-3.7-5.1-4.6-8.3l-4.1-15.1
				c-1.1-4.2,1.3-8.5,5.5-9.6l14.5-4c3-1.3,6.4-2,9.9-2C304.3,9.8,315.6,21.1,315.6,35z"/>
			<path class="st3" d="M270.4,120c-3.2-1.2-3.9-2.9-3.9-2.9l11.8-23.3L290,70.5l-6.8,25.2l-6.8,25.2
				C276.3,120.9,273.6,121.2,270.4,120z"/>
			<path class="st4" d="M269.7,43.2c-2.9,0-5.2-2.3-5.2-5.2s2.3-5.2,5.2-5.2"/>
			<path class="st4" d="M311.5,33.6c2.4,0,4.4,2,4.4,4.4s-2,4.4-4.4,4.4"/>
			<path class="st4" d="M287.4,14.6h6.5c9.8,0,17.7,7.9,17.7,17.7v10.3c0,9.8-7.9,17.7-17.7,17.7h-6.5c-9.8,0-17.7-7.9-17.7-17.7
				V32.3C269.7,22.5,277.6,14.6,287.4,14.6z"/>
			<path class="st5" d="M301.1,11.2L301.1,11.2c1.9,1.3,2.3,3.9,1,5.7l-6.3,9c-1.3,1.9-3.9,2.3-5.7,1l-9-6.3c-1.9-1.3-2.3-3.9-1-5.7
				l0,0C284.9,8.1,294.3,6.4,301.1,11.2L301.1,11.2z"/>
			<path class="st5" d="M293.7,49.1c0,0-2.2,2.3-5.5,3.2s-6.3-0.1-6.3-0.1s2.2-2.3,5.5-3.2C290.6,48.1,293.7,49.1,293.7,49.1z"/>
			<path class="st5" d="M295.6,49.1c0,0,1.8,1.9,4.4,2.6c2.6,0.7,5.1-0.1,5.1-0.1s-1.8-1.9-4.4-2.6
				C298.1,48.3,295.6,49.1,295.6,49.1z"/>
			<path class="st6" d="M286.8,39.1c0.3,1.2,0.8,2.5,1.6,3.7c2.6,4,7.2,5.7,10.2,3.7s3.2-6.8,0.6-10.8c-0.8-1.2-1.7-2.1-2.8-2.9"/>
			<path d="M286.2,30.1c0,0-2.7,0.9-6.1,0.9c-3.4,0-6.1-0.9-6.1-0.9s2.7-0.9,6.1-0.9C283.5,29.1,286.2,30.1,286.2,30.1z"/>
			<path class="st6" d="M276.5,36c0-2,1.6-3.6,3.6-3.6s3.6,1.6,3.6,3.6"/>
			<circle cx="280.1" cy="35.4" r="1.6"/>
			<path d="M310.3,30.1c0,0-2.5,0.8-5.6,0.8s-5.6-0.8-5.6-0.8s2.5-0.8,5.6-0.8S310.3,30.1,310.3,30.1z"/>
			<path class="st6" d="M301.4,35.6c0-1.8,1.5-3.3,3.3-3.3s3.3,1.5,3.3,3.3"/>
			<circle cx="304.7" cy="35" r="1.5"/>
			<polyline class="st0" points="289.9,65.6 275,72.4 268.2,57.5 			"/>
			<polyline class="st0" points="294.1,69.9 310.1,71.8 312.1,55.8 			"/>
			<circle class="st4" cx="292.4" cy="64.3" r="3.8"/>
			<path class="st7" d="M297.6,55.6l-3.1-1.5c-0.5-0.2-1.1,0-1.4,0.5s0,1.1,0.5,1.4l0.3,0.1L283,84.4l-4.7,9.4l-11.8,23.3
				c0,0,2.8-1.3,5.9-0.1c3.2,1.2,3.9,3.9,3.9,3.9l6.8-25.2l3.2-11.7l10.2-26.7l0.1,0.1c0.5,0.2,1.1,0,1.4-0.5
				C298.3,56.5,298.1,55.9,297.6,55.6L297.6,55.6z"/>
			<path class="st8" d="M268.7,51.3h2.1c4.6,0,8.3,3.7,8.3,8.3v2.1c0,4.6-3.7,8.3-8.3,8.3h-2.1c-4.6,0-8.3-3.7-8.3-8.3v-2.1
				C260.3,55,264.1,51.3,268.7,51.3z"/>
			<path class="st8" d="M309.7,51.3h1.5c4.2,0,7.6,3.4,7.6,7.6v1.5c0,4.2-3.4,7.6-7.6,7.6h-1.5c-4.2,0-7.6-3.4-7.6-7.6v-1.5
				C302.2,54.7,305.6,51.3,309.7,51.3z"/>
			<circle class="st4" cx="290.9" cy="69.4" r="3.8"/>
		</g>
		<g>
			<polygon points="364.6,119.8 363.8,122.4 369.8,122.7 375.8,123 370.6,120.1 365.3,117.2 			"/>
			<line class="st0" x1="367.4" y1="98.2" x2="367.4" y2="120"/>
			<polygon points="381.1,119.8 380.4,122.4 386.4,122.7 392.4,123 387.1,120.1 381.9,117.2 			"/>
			<line class="st0" x1="384" y1="98.2" x2="384" y2="120"/>
			<path class="st1" d="M393,54.3c-0.5-2.7-2.9-4.6-5.6-4.6h-26.9c-2.7,0-5.1,1.9-5.6,4.6l-4.5,23.2h47.1L393,54.3L393,54.3z"/>
			<path class="st1" d="M398.5,82.5h-49.1l-2.3,11.9c-0.7,3.5,2,6.8,5.6,6.8h42.4c3.6,0,6.3-3.3,5.6-6.8
				C400.8,94.4,398.5,82.5,398.5,82.5z"/>
			<polygon class="st2" points="397.5,77.5 350.4,77.5 349.4,82.5 398.5,82.5 			"/>
			<path class="st2" d="M398.9,29.6c0,13.9-11.3,25.2-25.2,25.2c-8.9,0-16.7-4.6-21.2-11.5c-2.1-2.3-3.7-5.1-4.6-8.3l-4.1-15.1
				c-1.1-4.2,1.3-8.5,5.5-9.6l14.5-4c3-1.3,6.4-2,9.9-2C387.6,4.3,398.9,15.6,398.9,29.6z"/>
			<path class="st3" d="M353.7,120.6c-3.2-1.2-3.9-2.9-3.9-2.9l11.8-23.3L373.3,71l-6.8,25.2l-6.8,25.2
				C359.6,121.4,356.9,121.8,353.7,120.6z"/>
			<path class="st4" d="M353,37.7c-2.9,0-5.2-2.3-5.2-5.2s2.3-5.2,5.2-5.2"/>
			<path class="st4" d="M394.9,28.1c2.4,0,4.4,2,4.4,4.4s-2,4.4-4.4,4.4"/>
			<path class="st4" d="M370.7,9.1h6.5c9.8,0,17.7,7.9,17.7,17.7v10.3c0,9.8-7.9,17.7-17.7,17.7h-6.5c-9.8,0-17.7-7.9-17.7-17.7
				V26.8C353,17,360.9,9.1,370.7,9.1z"/>
			<path class="st5" d="M384.4,5.7L384.4,5.7c1.9,1.3,2.3,3.9,1,5.7l-6.3,9c-1.3,1.9-3.9,2.3-5.7,1l-9-6.3c-1.9-1.3-2.3-3.9-1-5.7
				l0,0C368.2,2.6,377.6,0.9,384.4,5.7L384.4,5.7z"/>
			<path class="st5" d="M377,43.6c0,0-2.2,2.3-5.5,3.2c-3.3,0.9-6.3-0.1-6.3-0.1s2.2-2.3,5.5-3.2S377,43.6,377,43.6z"/>
			<path class="st5" d="M378.9,43.6c0,0,1.8,1.9,4.4,2.6c2.6,0.7,5.1-0.1,5.1-0.1s-1.8-1.9-4.4-2.6
				C381.4,42.8,378.9,43.6,378.9,43.6z"/>
			<path class="st6" d="M370.1,33.6c0.3,1.2,0.8,2.5,1.6,3.7c2.6,4,7.2,5.7,10.2,3.7s3.2-6.8,0.6-10.8c-0.8-1.2-1.7-2.1-2.8-2.9"/>
			<path d="M369.5,24.6c0,0-2.7,0.9-6.1,0.9s-6.1-0.9-6.1-0.9s2.7-0.9,6.1-0.9S369.5,24.6,369.5,24.6z"/>
			<path class="st6" d="M359.8,30.5c0-2,1.6-3.6,3.6-3.6s3.6,1.6,3.6,3.6"/>
			<circle cx="363.4" cy="29.9" r="1.6"/>
			<path d="M393.6,24.6c0,0-2.5,0.8-5.6,0.8c-3.1,0-5.6-0.8-5.6-0.8s2.5-0.8,5.6-0.8C391.1,23.7,393.6,24.6,393.6,24.6z"/>
			<path class="st6" d="M384.7,30.1c0-1.8,1.5-3.3,3.3-3.3s3.3,1.5,3.3,3.3"/>
			<circle cx="388" cy="29.5" r="1.5"/>
			<polyline class="st0" points="373.2,66.1 358.3,72.9 351.5,58 			"/>
			<polyline class="st0" points="377.4,70.4 393.5,72.3 395.4,56.3 			"/>
			<circle class="st4" cx="375.8" cy="64.9" r="3.8"/>
			<path class="st7" d="M380.9,56.1l-3.1-1.5c-0.5-0.2-1.1,0-1.4,0.5s0,1.1,0.5,1.4l0.3,0.1L366.3,85l-4.7,9.4l-11.8,23.3
				c0,0,2.8-1.3,5.9-0.1c3.2,1.2,3.9,3.9,3.9,3.9l6.8-25.2l3.2-11.7l10.2-26.6L380,58c0.5,0.2,1.1,0,1.4-0.5
				C381.7,57,381.4,56.4,380.9,56.1L380.9,56.1z"/>
			<path class="st8" d="M352,48.8h2.1c4.6,0,8.3,3.7,8.3,8.3v2.1c0,4.6-3.7,8.3-8.3,8.3H352c-4.6,0-8.3-3.7-8.3-8.3v-2.1
				C343.7,52.5,347.4,48.8,352,48.8z"/>
			<path class="st8" d="M393.1,48.8h1.5c4.2,0,7.6,3.4,7.6,7.6v1.5c0,4.2-3.4,7.6-7.6,7.6h-1.5c-4.2,0-7.6-3.4-7.6-7.6v-1.5
				C385.5,52.2,388.9,48.8,393.1,48.8z"/>
			<circle class="st4" cx="374.2" cy="69.9" r="3.8"/>
		</g>
	</g>
	<g>
		<polygon points="23.4,238.4 20.9,239.3 24.1,244.3 27.4,249.4 26.7,243.4 26,237.4 		"/>
		<polyline class="st0" points="38.9,225.9 38.9,232.5 25.2,240.5 		"/>
		<polygon points="48.2,245 46.8,247.3 52.4,249.4 58.1,251.4 53.9,247.1 49.7,242.7 		"/>
		<polyline class="st0" points="55.5,225.9 55.5,232.5 51.2,246.2 		"/>
		<path class="st1" d="M64.5,182c-0.5-2.7-2.9-4.6-5.6-4.6H32c-2.7,0-5.1,1.9-5.6,4.6l-4.5,23.2H69L64.5,182L64.5,182z"/>
		<path class="st1" d="M69.9,210.3H20.9l-2.3,11.9c-0.7,3.5,2,6.8,5.6,6.8h42.4c3.6,0,6.3-3.3,5.6-6.8
			C72.3,222.2,69.9,210.3,69.9,210.3z"/>
		<polygon class="st2" points="69,205.3 21.8,205.3 20.9,210.3 69.9,210.3 		"/>
		<path class="st2" d="M70.4,157.3c0,13.9-11.3,25.2-25.2,25.2c-8.9,0-16.7-4.6-21.2-11.5c-2.1-2.3-3.7-5.1-4.6-8.3l-4.1-15.1
			c-1.1-4.2,1.3-8.5,5.5-9.6l14.5-4c3-1.3,6.4-2,9.9-2C59.1,132.1,70.4,143.4,70.4,157.3z"/>
		<path class="st4" d="M24.5,165.5c-2.9,0-5.2-2.3-5.2-5.2c0-2.9,2.3-5.2,5.2-5.2"/>
		<path class="st4" d="M66.3,155.9c2.4,0,4.4,2,4.4,4.4s-2,4.4-4.4,4.4"/>
		<path class="st4" d="M42.2,136.9h6.5c9.8,0,17.7,7.9,17.7,17.7v10.3c0,9.8-7.9,17.7-17.7,17.7h-6.5c-9.8,0-17.7-7.9-17.7-17.7
			v-10.3C24.5,144.8,32.4,136.9,42.2,136.9z"/>
		<path class="st5" d="M55.9,133.5L55.9,133.5c1.9,1.3,2.3,3.9,1,5.7l-6.3,9c-1.3,1.9-3.9,2.3-5.7,1l-9-6.3c-1.9-1.3-2.3-3.9-1-5.7
			l0,0C39.6,130.4,49.1,128.7,55.9,133.5L55.9,133.5z"/>
		<path class="st5" d="M48.5,171.3c0,0-2.2,2.3-5.5,3.2s-6.3-0.1-6.3-0.1s2.2-2.3,5.5-3.2S48.5,171.3,48.5,171.3z"/>
		<path class="st5" d="M50.4,171.3c0,0,1.8,1.9,4.4,2.6s5.1-0.1,5.1-0.1s-1.8-1.9-4.4-2.6S50.4,171.3,50.4,171.3z"/>
		<path class="st6" d="M41.6,161.4c0.3,1.2,0.8,2.5,1.6,3.7c2.7,4,7.2,5.7,10.2,3.7s3.2-6.8,0.6-10.8c-0.8-1.2-1.7-2.1-2.8-2.9"/>
		<path d="M41,152.3c0,0-2.7,0.9-6.1,0.9s-6.1-0.9-6.1-0.9s2.7-0.9,6.1-0.9S41,152.3,41,152.3z"/>
		<path class="st6" d="M31.3,158.3c0-2,1.6-3.6,3.6-3.6c2,0,3.6,1.6,3.6,3.6"/>
		<circle cx="34.9" cy="157.7" r="1.6"/>
		<path d="M65.1,152.3c0,0-2.5,0.8-5.6,0.8s-5.6-0.8-5.6-0.8s2.5-0.9,5.6-0.9S65.1,152.3,65.1,152.3z"/>
		<path class="st6" d="M56.2,157.8c0-1.8,1.5-3.3,3.3-3.3s3.3,1.5,3.3,3.3"/>
		<circle cx="59.5" cy="157.3" r="1.5"/>
		<path class="st3" d="M29.3,238.3c-3.2-1.2-3.9-2.9-3.9-2.9l11.8-23.3l11.8-23.3L42.1,214l-6.8,25.2
			C35.2,239.2,32.5,239.6,29.3,238.3z"/>
		<polyline class="st0" points="48.8,183.9 29.9,198.7 23.1,186.8 		"/>
		<polyline class="st0" points="52,189.2 65,198.1 67,185.1 		"/>
		<circle class="st4" cx="51.4" cy="182.6" r="3.8"/>
		<path class="st7" d="M56.5,173.9l-3.1-1.5c-0.5-0.2-1.1,0-1.4,0.5s0,1.1,0.5,1.4l0.3,0.1l-10.9,28.4l-4.7,9.4l-11.8,23.3
			c0,0,2.8-1.3,5.9-0.1c3.2,1.2,3.9,3.9,3.9,3.9l6.8-25.2l3.2-11.7l10.2-26.7l0.1,0.1c0.5,0.2,1.1,0,1.4-0.5
			C57.3,174.8,57,174.2,56.5,173.9L56.5,173.9z"/>
		<path class="st8" d="M23.6,174.6h2.1c4.6,0,8.3,3.7,8.3,8.3v2.1c0,4.6-3.7,8.3-8.3,8.3h-2.1c-4.6,0-8.3-3.7-8.3-8.3v-2.1
			C15.3,178.3,19,174.6,23.6,174.6z"/>
		<path class="st8" d="M64.7,174.6h1.5c4.2,0,7.6,3.4,7.6,7.6v1.5c0,4.2-3.4,7.6-7.6,7.6h-1.5c-4.2,0-7.6-3.4-7.6-7.6v-1.5
			C57.1,178,60.5,174.6,64.7,174.6z"/>
		<circle class="st4" cx="49.8" cy="187.7" r="3.8"/>
	</g>
	<g>
		<polygon points="118,245.2 116,247 120.9,250.4 127.8,250.9 122.9,248.6 120.1,243.3 		"/>
		<polyline class="st0" points="121.7,232.5 125.7,239.2 119.7,246.4 		"/>
		<polygon points="133.7,245.5 131.9,247.6 137.2,250.4 144.5,250.3 139,248.4 135.5,243.5 		"/>
		<polyline class="st0" points="138.3,232.5 142.3,239.2 136.3,246.4 		"/>
		<path class="st1" d="M147.2,196.6c-0.5-2.7-2.9-4.6-5.6-4.6h-26.9c-2.7,0-5.1,1.9-5.6,4.6l-4.5,20.2h47.1L147.2,196.6z"/>
		<path class="st1" d="M152.7,221.9h-49.1l-2.3,6.9c-0.7,3.5,2,6.8,5.6,6.8h42.4c3.6,0,6.3-3.3,5.6-6.8
			C155,228.8,152.7,221.9,152.7,221.9z"/>
		<polygon class="st2" points="151.7,216.9 104.6,216.9 103.7,221.9 152.7,221.9 		"/>
		<path class="st2" d="M153.2,171.9c0,13.9-11.3,25.2-25.2,25.2c-8.9,0-16.7-4.6-21.2-11.5c-2.1-2.3-3.7-5.1-4.6-8.3l-4.1-15.1
			c-1.1-4.2,1.3-8.5,5.5-9.6l14.5-4c3-1.3,6.4-2,9.9-2C141.9,146.7,153.2,158,153.2,171.9z"/>
		<path class="st3" d="M112,247.9c-3.2-1.2-3.9-2.9-3.9-2.9l11.8-23.3l11.8-23.3l-6.8,25.2l-6.8,25.2
			C117.9,248.8,115.1,249.1,112,247.9z"/>
		<path class="st4" d="M107.3,180.1c-2.9,0-5.2-2.3-5.2-5.2s2.3-5.2,5.2-5.2"/>
		<path class="st4" d="M149.1,170.5c2.4,0,4.4,2,4.4,4.4s-2,4.4-4.4,4.4"/>
		<path class="st4" d="M124.9,151.5h6.5c9.8,0,17.7,7.9,17.7,17.7v10.3c0,9.8-7.9,17.7-17.7,17.7h-6.5c-9.8,0-17.7-7.9-17.7-17.7
			v-10.3C107.3,159.4,115.2,151.5,124.9,151.5z"/>
		<path class="st5" d="M138.7,148.1L138.7,148.1c1.9,1.3,2.3,3.9,1,5.7l-6.3,9c-1.3,1.9-3.9,2.3-5.7,1l-9-6.3
			c-1.9-1.3-2.3-3.9-1-5.7l0,0C122.4,145,131.9,143.3,138.7,148.1L138.7,148.1z"/>
		<path class="st5" d="M131.2,185.9c0,0-2.2,2.4-5.5,3.2c-3.3,0.9-6.3-0.1-6.3-0.1s2.2-2.4,5.5-3.2
			C128.1,185,131.2,185.9,131.2,185.9z"/>
		<path class="st5" d="M133.1,185.9c0,0,1.8,1.9,4.4,2.6s5.1-0.1,5.1-0.1s-1.8-1.9-4.4-2.6S133.1,185.9,133.1,185.9z"/>
		<path class="st6" d="M124.4,176c0.3,1.2,0.8,2.5,1.6,3.6c2.7,4,7.2,5.7,10.2,3.7s3.2-6.8,0.6-10.8c-0.8-1.2-1.7-2.1-2.8-2.9"/>
		<path d="M123.8,167c0,0-2.7,0.9-6.1,0.9c-3.4,0-6.1-0.9-6.1-0.9s2.7-0.9,6.1-0.9C121,166,123.8,167,123.8,167z"/>
		<path class="st6" d="M114.1,172.9c0-2,1.6-3.6,3.6-3.6c2,0,3.6,1.6,3.6,3.6"/>
		<circle cx="117.7" cy="172.3" r="1.6"/>
		<path d="M147.9,167c0,0-2.5,0.8-5.6,0.8c-3.1,0-5.6-0.8-5.6-0.8s2.5-0.9,5.6-0.9C145.4,166.1,147.9,167,147.9,167z"/>
		<path class="st6" d="M138.9,172.5c0-1.8,1.5-3.3,3.3-3.3c1.8,0,3.3,1.5,3.3,3.3"/>
		<circle cx="142.3" cy="171.9" r="1.5"/>
		<polyline class="st0" points="131.5,193.5 112.6,208.3 105.8,196.4 		"/>
		<polyline class="st0" points="134.6,198.8 147.7,207.7 149.7,194.7 		"/>
		<circle class="st4" cx="134" cy="192.2" r="3.8"/>
		<path class="st7" d="M139.2,183.5L136,182c-0.5-0.2-1.1,0-1.4,0.5s0,1.1,0.5,1.4l0.3,0.1l-10.9,28.4l-4.7,9.4L108,245.1
			c0,0,2.8-1.3,5.9-0.1c3.2,1.2,3.9,3.9,3.9,3.9l6.8-25.2l3.2-11.7l10.2-26.6l0.1,0.1c0.5,0.2,1.1,0,1.4-0.5
			C139.9,184.4,139.7,183.8,139.2,183.5L139.2,183.5z"/>
		<path class="st8" d="M106.2,184.2h2.1c4.6,0,8.3,3.7,8.3,8.3v2.1c0,4.6-3.7,8.3-8.3,8.3h-2.1c-4.6,0-8.3-3.7-8.3-8.3v-2.1
			C97.9,187.9,101.6,184.2,106.2,184.2z"/>
		<path class="st8" d="M147.3,184.2h1.5c4.2,0,7.6,3.4,7.6,7.6v1.5c0,4.2-3.4,7.6-7.6,7.6h-1.5c-4.2,0-7.6-3.4-7.6-7.6v-1.5
			C139.7,187.6,143.1,184.2,147.3,184.2z"/>
		<circle class="st4" cx="132.5" cy="197.3" r="3.8"/>
	</g>
	<g>
		<polygon points="199.5,248.3 198.7,250.9 204.7,251.2 210.7,251.5 205.5,248.5 200.2,245.6 		"/>
		<line class="st0" x1="202.3" y1="226.6" x2="202.3" y2="248.5"/>
		<polygon points="216.1,248.3 215.3,250.9 221.3,251.2 227.3,251.5 222.1,248.5 216.8,245.6 		"/>
		<line class="st0" x1="218.9" y1="226.6" x2="218.9" y2="248.5"/>
		<path class="st1" d="M227.9,182.7c-0.5-2.7-2.9-4.6-5.6-4.6h-26.9c-2.7,0-5.1,1.9-5.6,4.6l-4.5,23.2h47.1L227.9,182.7L227.9,182.7
			z"/>
		<path class="st1" d="M233.4,211h-49.1l-2.3,11.9c-0.7,3.5,2,6.8,5.6,6.8h42.4c3.6,0,6.3-3.3,5.6-6.8
			C235.7,222.9,233.4,211,233.4,211z"/>
		<polygon class="st2" points="232.4,206 185.3,206 184.3,211 233.4,211 		"/>
		<path class="st2" d="M233.9,158c0,13.9-11.3,25.2-25.2,25.2c-8.9,0-16.7-4.6-21.2-11.5c-2.1-2.3-3.7-5.1-4.6-8.3l-4.1-15.1
			c-1.1-4.2,1.3-8.5,5.5-9.6l14.5-4c3-1.3,6.4-2,9.9-2C222.6,132.8,233.9,144.1,233.9,158z"/>
		<path class="st3" d="M210,246.1c-3.4-0.1-4.7-1.4-4.7-1.4l3.4-25.9l3.4-25.9l1.9,26.1l1.9,26.1C215.9,245,213.4,246.2,210,246.1
			L210,246.1z"/>
		<path class="st4" d="M187.9,166.2c-2.9,0-5.2-2.3-5.2-5.2c0-2.9,2.3-5.2,5.2-5.2"/>
		<path class="st4" d="M229.8,156.6c2.4,0,4.4,2,4.4,4.4c0,2.4-2,4.4-4.4,4.4"/>
		<path class="st4" d="M205.6,137.6h6.5c9.8,0,17.7,7.9,17.7,17.7v10.3c0,9.8-7.9,17.7-17.7,17.7h-6.5c-9.8,0-17.7-7.9-17.7-17.7
			v-10.3C187.9,145.5,195.8,137.6,205.6,137.6z"/>
		<path class="st5" d="M219.4,134.2L219.4,134.2c1.9,1.3,2.3,3.9,1,5.7l-6.3,9c-1.3,1.9-3.9,2.3-5.7,1l-9-6.3
			c-1.9-1.3-2.3-3.9-1-5.7l0,0C203.1,131.1,212.5,129.4,219.4,134.2L219.4,134.2z"/>
		<path class="st5" d="M211.9,172c0,0-2.2,2.4-5.5,3.2c-3.3,0.9-6.3-0.1-6.3-0.1s2.2-2.4,5.5-3.2C208.8,171.1,211.9,172,211.9,172z"
			/>
		<path class="st5" d="M213.8,172c0,0,1.8,1.9,4.4,2.6s5.1-0.1,5.1-0.1s-1.8-1.9-4.4-2.6S213.8,172,213.8,172z"/>
		<path class="st6" d="M205,162.1c0.3,1.2,0.8,2.5,1.6,3.6c2.6,4,7.2,5.7,10.2,3.7c3-2,3.2-6.8,0.6-10.8c-0.8-1.2-1.7-2.1-2.8-2.9"
			/>
		<path d="M204,149.6c0,0-2.2,1.9-5.2,3.2c-3.1,1.3-6,1.6-6,1.6s2.1-1.9,5.2-3.2C201.1,149.9,204,149.6,204,149.6z"/>
		<path d="M228,154.4c0,0-2.6-0.3-5.4-1.6c-2.8-1.3-4.7-3.2-4.7-3.2s2.6,0.3,5.4,1.6C226.1,152.6,228,154.4,228,154.4z"/>
		<polyline class="st0" points="207.5,197.6 191.3,199.7 189.1,183.5 		"/>
		<polyline class="st0" points="215.3,197.1 231.8,199.1 228.7,183.2 		"/>
		<circle class="st4" cx="210.6" cy="196.7" r="3.8"/>
		<path class="st7" d="M214.3,176.3l-3.4-0.4c-0.6-0.1-1.1,0.3-1.2,0.9c-0.1,0.6,0.3,1.1,0.9,1.1l0.3,0l-0.9,30.4l-1.4,10.4
			l-3.4,25.9c0,0,2.2-2.2,5.6-2.1c3.4,0.1,5,2.4,5,2.4l-1.9-26.1l-0.9-12.1l0.8-28.5l0.1,0c0.6,0.1,1.1-0.3,1.1-0.9
			C215.3,176.9,214.8,176.3,214.3,176.3L214.3,176.3z"/>
		<path class="st8" d="M186.9,177.3h2.1c4.6,0,8.3,3.7,8.3,8.3v2.1c0,4.6-3.7,8.3-8.3,8.3h-2.1c-4.6,0-8.3-3.7-8.3-8.3v-2.1
			C178.6,181,182.3,177.3,186.9,177.3z"/>
		<path class="st8" d="M228,177.3h1.5c4.2,0,7.6,3.4,7.6,7.6v1.5c0,4.2-3.4,7.6-7.6,7.6H228c-4.2,0-7.6-3.4-7.6-7.6v-1.5
			C220.4,180.7,223.8,177.3,228,177.3z"/>
		<circle class="st4" cx="212.8" cy="197.1" r="3.8"/>
		<line class="st9" x1="195.6" y1="155.3" x2="201.1" y2="160.7"/>
		<line class="st9" x1="201.1" y1="155.3" x2="195.6" y2="160.7"/>
		<line class="st9" x1="220.2" y1="155.3" x2="225.7" y2="160.7"/>
		<line class="st9" x1="225.7" y1="155.3" x2="220.2" y2="160.7"/>
	</g>
</g>
<g id="Layer_2">
	<g>
		<polygon points="279.5,245.6 277.4,247.4 282.3,250.9 289.3,251.4 284.4,249.1 281.5,243.8 		"/>
		<polyline class="st0" points="284.2,233.1 288.2,239.7 282.2,247 		"/>
		<polygon points="296.3,246.1 294.4,248.1 299.7,251 307,250.8 301.5,248.9 298.1,244 		"/>
		<polyline class="st0" points="300.8,233.1 304.8,239.7 298.8,247 		"/>
		<path class="st1" d="M309.8,197.2c-0.5-2.7-2.9-4.6-5.6-4.6h-26.9c-2.7,0-5.1,1.9-5.6,4.6l-4.5,20.2h47.1L309.8,197.2z"/>
		<path class="st1" d="M315.2,222.4h-49.1l-2.3,6.9c-0.7,3.5,2,6.8,5.6,6.8h42.4c3.6,0,6.3-3.3,5.6-6.8
			C317.6,229.4,315.2,222.4,315.2,222.4z"/>
		<polygon class="st2" points="314.3,217.4 267.2,217.4 266.2,222.4 315.2,222.4 		"/>
		<path class="st2" d="M315.7,172.5c0,13.9-11.3,25.2-25.2,25.2c-8.9,0-16.7-4.6-21.2-11.5c-2.1-2.3-3.7-5.1-4.6-8.3l-4.1-15.1
			c-1.1-4.2,1.3-8.5,5.5-9.6l14.5-4c3-1.3,6.4-2,9.9-2C304.4,147.3,315.7,158.5,315.7,172.5z"/>
		<path class="st3" d="M333.7,247.1c-2.8,1.9-4.6,1.6-4.6,1.6l-12.7-22.8l-12.7-22.8l17.1,19.8l17,19.8
			C337.8,242.7,336.5,245.2,333.7,247.1L333.7,247.1z"/>
		<path class="st4" d="M269.8,180.6c-2.9,0-5.2-2.3-5.2-5.2s2.3-5.2,5.2-5.2"/>
		<path class="st4" d="M311.6,171.1c2.4,0,4.4,2,4.4,4.4s-2,4.4-4.4,4.4"/>
		<path class="st4" d="M287.5,152h6.5c9.8,0,17.7,7.9,17.7,17.7V180c0,9.8-7.9,17.7-17.7,17.7h-6.5c-9.8,0-17.7-7.9-17.7-17.7v-10.3
			C269.8,159.9,277.7,152,287.5,152z"/>
		<path class="st5" d="M301.2,148.6L301.2,148.6c1.9,1.3,2.3,3.9,1,5.7l-6.3,9c-1.3,1.9-3.9,2.3-5.7,1l-9-6.3
			c-1.9-1.3-2.3-3.9-1-5.7l0,0C285,145.5,294.4,143.8,301.2,148.6L301.2,148.6z"/>
		<path class="st5" d="M293.8,186.5c0,0-2.2,2.4-5.5,3.2c-3.3,0.9-6.3-0.1-6.3-0.1s2.2-2.4,5.5-3.2
			C290.7,185.5,293.8,186.5,293.8,186.5z"/>
		<path class="st5" d="M295.7,186.5c0,0,1.8,1.9,4.4,2.6c2.6,0.7,5.1-0.1,5.1-0.1s-1.8-1.9-4.4-2.6
			C298.2,185.7,295.7,186.5,295.7,186.5z"/>
		<path class="st6" d="M286.9,176.6c0.3,1.2,0.8,2.5,1.6,3.6c2.7,4,7.2,5.7,10.2,3.7s3.2-6.8,0.6-10.8c-0.8-1.2-1.7-2.1-2.8-2.9"/>
		<path d="M286.1,168.9c0,0-2.9,0.3-6.2-0.5s-5.7-2.3-5.7-2.3s2.9-0.3,6.2,0.5S286.1,168.9,286.1,168.9z"/>
		<polyline class="st0" points="302,200.6 315.1,208.4 312.2,195.2 		"/>
		<path class="st6" d="M276.6,173.5c0-2,1.6-3.6,3.6-3.6s3.6,1.6,3.6,3.6"/>
		<circle cx="280.2" cy="172.9" r="1.6"/>
		<path d="M310.2,166.1c0,0-2.2,1.4-5.2,2.2c-3,0.8-5.7,0.6-5.7,0.6s2.2-1.4,5.2-2.2C307.6,165.9,310.2,166.1,310.2,166.1z"/>
		<path class="st6" d="M301.5,173c0-1.8,1.5-3.3,3.3-3.3c1.8,0,3.3,1.5,3.3,3.3"/>
		<circle cx="304.8" cy="172.5" r="1.5"/>
		<circle class="st4" cx="299.6" cy="198.5" r="3.8"/>
		<path class="st7" d="M295.6,188.5l-3,1.7c-0.5,0.3-0.7,0.9-0.4,1.4s0.9,0.7,1.4,0.4l0.3-0.2l17.4,24.9l5.1,9.2l12.7,22.8
			c0,0,0.5-3,3.2-5s5.4-1.1,5.4-1.1l-17-19.8l-7.9-9.2l-16.4-23.4l0.1-0.1c0.5-0.3,0.7-0.9,0.4-1.4
			C296.7,188.3,296.1,188.2,295.6,188.5z"/>
		<polyline class="st0" points="299.4,203.3 285.6,208.9 268.3,196.9 		"/>
		<path class="st8" d="M268.7,184.7h2.1c4.6,0,8.3,3.7,8.3,8.3v2.1c0,4.6-3.7,8.3-8.3,8.3h-2.1c-4.6,0-8.3-3.7-8.3-8.3v-2.1
			C260.4,188.5,264.2,184.7,268.7,184.7z"/>
		<circle class="st4" cx="301.3" cy="202.1" r="3.8"/>
		<path class="st8" d="M309.8,184.7h1.5c4.2,0,7.6,3.4,7.6,7.6v1.5c0,4.2-3.4,7.6-7.6,7.6h-1.5c-4.2,0-7.6-3.4-7.6-7.6v-1.5
			C302.3,188.1,305.7,184.7,309.8,184.7z"/>
	</g>
	<g>
		<polygon points="364.5,248.4 363.7,251.1 369.7,251.3 375.7,251.6 370.5,248.7 365.2,245.8 		"/>
		<line class="st0" x1="367.4" y1="226.8" x2="367.4" y2="248.7"/>
		<polygon points="381.1,248.4 380.3,251.1 386.3,251.3 392.3,251.6 387.1,248.7 381.8,245.8 		"/>
		<line class="st0" x1="383.9" y1="226.8" x2="383.9" y2="248.7"/>
		<path class="st1" d="M392.9,182.9c-0.5-2.7-2.9-4.6-5.6-4.6h-26.9c-2.7,0-5.1,1.9-5.6,4.6l-4.5,23.2h47.1L392.9,182.9L392.9,182.9
			z"/>
		<path class="st1" d="M398.4,211.1h-49.1l-2.3,11.9c-0.7,3.5,2,6.8,5.6,6.8h42.4c3.6,0,6.3-3.3,5.6-6.8
			C400.7,223.1,398.4,211.1,398.4,211.1z"/>
		<polygon class="st2" points="397.4,206.1 350.3,206.1 349.3,211.1 398.4,211.1 		"/>
		<path class="st2" d="M398.9,158.2c0,13.9-11.3,25.2-25.2,25.2c-8.9,0-16.7-4.6-21.2-11.5c-2.1-2.3-3.7-5.1-4.6-8.3l-4.1-15.1
			c-1.1-4.2,1.3-8.5,5.5-9.6l14.5-4c3-1.3,6.4-2,9.9-2C387.6,133,398.9,144.2,398.9,158.2z"/>
		<path class="st3" d="M448.1,176.8c-0.1,3.4-1.4,4.7-1.4,4.7l-25.9-3.2l-25.9-3.2l26-2.1l26-2.1C447,170.9,448.2,173.4,448.1,176.8
			L448.1,176.8z"/>
		<path class="st4" d="M353,166.3c-2.9,0-5.2-2.3-5.2-5.2c0-2.9,2.3-5.2,5.2-5.2"/>
		<path class="st4" d="M394.8,156.8c2.4,0,4.4,2,4.4,4.4s-2,4.4-4.4,4.4"/>
		<path class="st4" d="M370.6,137.7h6.5c9.8,0,17.7,7.9,17.7,17.7v10.3c0,9.8-7.9,17.7-17.7,17.7h-6.5c-9.8,0-17.7-7.9-17.7-17.7
			v-10.3C353,145.6,360.9,137.7,370.6,137.7z"/>
		<path class="st5" d="M384.4,134.3L384.4,134.3c1.9,1.3,2.3,3.9,1,5.7l-6.3,9c-1.3,1.9-3.9,2.3-5.7,1l-9-6.3
			c-1.9-1.3-2.3-3.9-1-5.7l0,0C368.1,131.2,377.6,129.5,384.4,134.3L384.4,134.3z"/>
		<path class="st5" d="M376.9,172.2c0,0-2.2,2.3-5.5,3.2c-3.3,0.9-6.3-0.1-6.3-0.1s2.2-2.3,5.5-3.2S376.9,172.2,376.9,172.2z"/>
		<path class="st5" d="M378.8,172.2c0,0,1.8,1.9,4.4,2.6c2.6,0.7,5.1-0.1,5.1-0.1s-1.8-1.9-4.4-2.6
			C381.3,171.4,378.8,172.2,378.8,172.2z"/>
		<path class="st6" d="M370.1,162.3c0.3,1.2,0.8,2.5,1.6,3.7c2.6,4,7.2,5.7,10.2,3.7s3.2-6.8,0.6-10.8c-0.8-1.2-1.7-2.1-2.8-2.9"/>
		<path d="M368.6,156.3c0,0-2.8-0.6-5.7-2.3s-4.8-3.9-4.8-3.9s2.8,0.6,5.7,2.3C366.7,154.1,368.6,156.3,368.6,156.3z"/>
		<path class="st6" d="M359.7,159.2c0-2,1.6-3.6,3.6-3.6s3.6,1.6,3.6,3.6"/>
		<polyline class="st0" points="399.2,177 411.1,187.3 395.7,186.5 		"/>
		<circle cx="363.4" cy="158.6" r="1.6"/>
		<path d="M392.8,150.3c0,0-1.7,2-4.4,3.6c-2.7,1.6-5.2,2.2-5.2,2.2s1.7-2,4.4-3.6C390.2,150.9,392.8,150.3,392.8,150.3z"/>
		<path class="st6" d="M384.6,158.7c0-1.8,1.5-3.3,3.3-3.3s3.3,1.5,3.3,3.3"/>
		<circle cx="388" cy="158.2" r="1.5"/>
		<path class="st7" d="M378.3,172.9l-0.4,3.5c-0.1,0.6,0.3,1.1,0.9,1.1c0.6,0.1,1.1-0.3,1.1-0.9l0-0.3l30.4,0.7l10.4,1.3l25.9,3.2
			c0,0-2.2-2.2-2.1-5.6c0.1-3.4,2.3-5,2.3-5l-26,2l-12.1,0.9l-28.5-0.6l0-0.1c0.1-0.6-0.4-1.1-0.9-1.2
			C378.9,171.9,378.4,172.3,378.3,172.9z"/>
		<path class="st8" d="M393,177.4h1.5c4.2,0,7.6,3.4,7.6,7.6v1.5c0,4.2-3.4,7.6-7.6,7.6H393c-4.2,0-7.6-3.4-7.6-7.6V185
			C385.4,180.8,388.8,177.4,393,177.4z"/>
		<circle class="st4" cx="397.5" cy="175.1" r="3.8"/>
		<polyline class="st0" points="387.9,178.1 381,193 361.2,188 		"/>
		<path class="st8" d="M351.9,177.4h2.1c4.6,0,8.3,3.7,8.3,8.3v2.1c0,4.6-3.7,8.3-8.3,8.3h-2.1c-4.6,0-8.3-3.7-8.3-8.3v-2.1
			C343.6,181.2,347.3,177.4,351.9,177.4z"/>
		<circle class="st4" cx="389" cy="175.5" r="3.8"/>
		<g>
			<path class="st10" d="M453,173.8c-0.5,0-0.7,0.1-1.2,0.1c0-0.1,0-0.2,0-0.3c0.8-0.3,2.1-1.6,2.8-3c0.2-0.4,0.3-0.6,0.4-0.9
				c0.1,0,0.2,0.1,0.3,0.1c0,0.1-0.1,0.2-0.1,0.3c-0.3,0.8-0.4,1.3-0.3,2.2c0,0.1,0,0.1,0,0.2c0.8-0.1,1.1-0.1,1.9-0.2
				c-0.1,0.5-0.2,0.8-0.4,1.3c-0.6,0.1-0.9,0.1-1.4,0.1c0.1,2.5,0.1,3.8-0.1,6.2c0.4,0.3,0.7,0.4,1.1,0.8c0.2-0.1,0.3-0.2,0.5-0.2
				c0.1,0.1,0.1,0.2,0.1,0.3c-0.8,0.5-1.2,0.7-2,1.1c-1-0.8-1.8-1.3-2.4-1.5c0-0.1,0-0.2,0-0.3c0.5,0,0.8-0.6,0.8-1
				C453.1,176.9,453.1,175.9,453,173.8L453,173.8z"/>
			<path class="st10" d="M462.4,170.9c1.2,0.6,2.4,1.3,3.9,1.5c0,0.2,0,0.2,0,0.4c-0.4,0.2-0.5,0.6-0.5,1.7c0.1,3.1,0,4.6-0.3,7.6
				c-1.3,0.6-1.9,0.9-3.2,1.4c-0.9-1.1-2.3-2-3.4-2.4c0-0.1,0-0.2,0-0.3c0.4-0.1,0.6-0.4,0.6-1.2c0.2-2.6,0.2-3.8,0.1-6.4
				C460.7,172.4,461.3,171.9,462.4,170.9z M461.4,180.5c0.8,0.4,1.5,0.9,2,1.7c0.4-3.4,0.4-5.1,0.3-8.6c-0.8-0.1-1.5-0.5-2.2-1.1
				C461.7,175.8,461.7,177.4,461.4,180.5L461.4,180.5z"/>
			<path class="st10" d="M472,169.6c1.2,0.8,2.4,1.7,3.9,2c0,0.2,0,0.3,0,0.5c-0.3,0.3-0.5,0.8-0.4,2.2c0.1,3.8,0,5.7-0.4,9.5
				c-1.3,0.8-2,1.2-3.3,1.9c-0.8-1.3-2.2-2.4-3.4-2.9c0-0.2,0-0.3,0-0.4c0.4-0.2,0.6-0.5,0.6-1.6c0.2-3.3,0.2-5,0.1-8.3
				C470.4,171.4,470.9,170.8,472,169.6L472,169.6z M471.1,181.9c0.8,0.5,1.4,1.1,2,2.1c0.4-4.3,0.5-6.5,0.4-10.8
				c-0.8-0.2-1.5-0.6-2.2-1.4C471.4,175.8,471.4,177.8,471.1,181.9L471.1,181.9z"/>
			<path class="st10" d="M479.4,171.7c-0.5,0-0.7,0.1-1.2,0.1c0-0.2,0-0.3,0-0.6c0.8-0.6,2-3,2.6-5.5c0.1-0.7,0.2-1,0.4-1.7
				c0.1,0.1,0.2,0.1,0.3,0.2c0,0.2-0.1,0.3-0.1,0.5c-0.2,1.5-0.3,2.5-0.2,4.1c0,0.2,0,0.2,0,0.4c0.8-0.1,1.1-0.1,1.9-0.2
				c-0.1,1-0.2,1.4-0.3,2.4c-0.6,0.1-0.9,0.1-1.4,0.1c0.2,4.9,0.2,7.3-0.2,12.1c0.4,0.5,0.7,0.8,1,1.3c0.2-0.2,0.3-0.3,0.5-0.5
				c0.1,0.2,0.1,0.4,0.1,0.6c-0.9,1-1.3,1.5-2.2,2.4c-0.9-1.4-1.7-2.1-2.3-2.5c0-0.2,0-0.4,0.1-0.6c0.5-0.2,0.8-1.3,0.9-2
				C479.6,178,479.6,175.9,479.4,171.7L479.4,171.7z"/>
		</g>
		<polygon class="st10" points="450.7,182.5 484.5,192.1 449.6,187.6 450.7,182.5 		"/>
		<polygon class="st10" points="449.9,186.9 468.9,195.9 448.2,191.8 449.9,186.9 		"/>
		<polygon class="st10" points="450.2,164.4 482.2,162.2 451,169.6 450.2,164.4 		"/>
		<polygon class="st10" points="449.3,160.7 464.9,160.2 450.4,165.8 449.3,160.7 		"/>
	</g>
</g>
</svg>
