<?xml version="1.0" encoding="UTF-8"?>
<svg id="Layer_1" data-name="Layer 1" xmlns="http://www.w3.org/2000/svg" viewBox="0 0 72 144">
  <defs>
    <style>
      .cls-1 {
        fill: #3198ff;
      }

      .cls-1, .cls-2, .cls-3, .cls-4, .cls-5, .cls-6, .cls-7, .cls-8 {
        stroke-miterlimit: 10;
      }

      .cls-1, .cls-2, .cls-3, .cls-4, .cls-5, .cls-6, .cls-7, .cls-8, .cls-9 {
        stroke: #000;
      }

      .cls-2, .cls-7 {
        fill: none;
      }

      .cls-4 {
        fill: #fff3d2;
      }

      .cls-5 {
        fill: #ce3030;
      }

      .cls-6, .cls-9 {
        fill: #ffda40;
      }

      .cls-7 {
        stroke-width: 5px;
      }

      .cls-8 {
        fill: #b2982b;
      }

      .cls-9 {
        stroke-linejoin: round;
      }
    </style>
  </defs>
  <polygon points="43.81 140.59 45.14 142.98 49.58 138.93 54.02 134.89 48.25 136.54 42.47 138.2 43.81 140.59"/>
  <line class="cls-7" x1="30.53" y1="123.25" x2="46.01" y2="138.73"/>
  <polygon points="29.97 136.5 27.58 137.84 31.63 142.28 37.68 142.72 34.02 140.94 32.36 135.17 29.97 136.5"/>
  <line class="cls-7" x1="47.31" y1="123.23" x2="31.83" y2="138.71"/>
  <path class="cls-1" d="M56.17,79.23c-.52-2.69-2.88-4.64-5.62-4.64H23.68c-2.74,0-5.1,1.94-5.62,4.64l-4.5,23.25H60.68l-4.5-23.25Z"/>
  <path class="cls-1" d="M61.65,107.48H12.58l-2.31,11.92c-.68,3.53,2.02,6.81,5.62,6.81H58.34c3.6,0,6.3-3.28,5.62-6.81l-2.31-11.92Z"/>
  <polygon class="cls-5" points="60.68 102.48 13.55 102.48 12.58 107.48 61.65 107.48 60.68 102.48"/>
  <path class="cls-5" d="M62.12,54.52c0,13.94-11.3,25.23-25.23,25.23-8.87,0-16.67-4.58-21.16-11.5-2.11-2.26-3.72-5.06-4.6-8.26l-4.13-15.1c-1.14-4.17,1.31-8.47,5.48-9.61l14.51-3.97c3.04-1.29,6.38-2.01,9.9-2.01,13.93,0,25.23,11.29,25.23,25.22Z"/>
  <path class="cls-8" d="M16.88,139.51c-3.16-1.21-3.94-2.89-3.94-2.89l11.78-23.32,11.78-23.32-6.84,25.21-6.84,25.21s-2.77,.32-5.94-.89Z"/>
  <path class="cls-4" d="M16.2,62.69c-2.87,0-5.2-2.33-5.2-5.2s2.33-5.2,5.2-5.2"/>
  <path class="cls-4" d="M58.03,53.1c2.42,0,4.38,1.96,4.38,4.38s-1.96,4.38-4.38,4.38"/>
  <rect class="cls-4" x="16.2" y="34.07" width="41.83" height="45.67" rx="17.67" ry="17.67"/>
  <path class="cls-3" d="M43.1,25.79h0c2.28,0,4.12,1.85,4.12,4.12v11c0,2.28-1.85,4.12-4.12,4.12h-11c-2.28,0-4.12-1.85-4.12-4.12h0c0-8.35,6.78-15.13,15.13-15.13Z" transform="translate(27.08 -15.16) rotate(34.96)"/>
  <path class="cls-3" d="M40.16,68.53s-2.21,2.35-5.47,3.21-6.34-.08-6.34-.08c0,0,2.21-2.35,5.47-3.21s6.34,.08,6.34,.08Z"/>
  <path class="cls-3" d="M42.07,68.53s1.79,1.9,4.43,2.6,5.14-.06,5.14-.06c0,0-1.79-1.9-4.43-2.6s-5.14,.06-5.14,.06Z"/>
  <path class="cls-2" d="M33.3,58.59c.28,1.23,.8,2.48,1.58,3.65,2.65,4.01,7.22,5.66,10.19,3.69s3.24-6.82,.58-10.82c-.78-1.18-1.73-2.14-2.75-2.88"/>
  <path d="M32.71,49.54s-2.74,.93-6.11,.93-6.11-.93-6.11-.93c0,0,2.74-.93,6.11-.93s6.11,.93,6.11,.93Z"/>
  <path class="cls-2" d="M22.98,55.49c0-2,1.62-3.62,3.62-3.62s3.62,1.62,3.62,3.62"/>
  <circle cx="26.6" cy="54.91" r="1.63"/>
  <path d="M56.81,49.56s-2.52,.85-5.62,.85-5.62-.85-5.62-.85c0,0,2.52-.85,5.62-.85s5.62,.85,5.62,.85Z"/>
  <path class="cls-2" d="M47.87,55.03c0-1.84,1.49-3.33,3.33-3.33s3.33,1.49,3.33,3.33"/>
  <circle cx="51.2" cy="54.5" r="1.5"/>
  <polyline class="cls-7" points="36.4 85.08 21.5 91.86 14.72 76.95"/>
  <polyline class="cls-7" points="40.57 89.35 56.63 91.31 58.58 75.25"/>
  <circle class="cls-4" cx="38.93" cy="83.82" r="3.82"/>
  <path class="cls-9" d="M44.09,75.08l-3.12-1.53c-.51-.25-1.14-.04-1.39,.48s-.04,1.14,.48,1.39l.29,.14-10.88,28.36-4.74,9.39-11.78,23.32s2.77-1.32,5.94-.11c3.16,1.21,3.94,3.89,3.94,3.89l6.84-25.21,3.16-11.66,10.23-26.65,.13,.06c.51,.25,1.14,.04,1.39-.48,.25-.51,.04-1.14-.48-1.39Z"/>
  <rect class="cls-6" x="6.84" y="70.79" width="18.73" height="18.73" rx="8.31" ry="8.31"/>
  <rect class="cls-6" x="48.67" y="70.79" width="16.62" height="16.62" rx="7.57" ry="7.57"/>
  <circle class="cls-4" cx="37.4" cy="88.89" r="3.82"/>
</svg>