<?xml version="1.0" encoding="UTF-8"?>
<svg id="Layer_1" data-name="Layer 1" xmlns="http://www.w3.org/2000/svg" viewBox="0 0 72 144">
  <defs>
    <style>
      .cls-1 {
        fill: #3198ff;
      }

      .cls-1, .cls-2, .cls-3, .cls-4, .cls-5, .cls-6, .cls-7, .cls-8 {
        stroke-miterlimit: 10;
      }

      .cls-1, .cls-2, .cls-3, .cls-4, .cls-5, .cls-6, .cls-7, .cls-8, .cls-9 {
        stroke: #000;
      }

      .cls-2, .cls-7 {
        fill: none;
      }

      .cls-4 {
        fill: #fff3d2;
      }

      .cls-5 {
        fill: #ce3030;
      }

      .cls-6, .cls-9 {
        fill: #ffda40;
      }

      .cls-7 {
        stroke-width: 5px;
      }

      .cls-8 {
        fill: #b2982b;
      }

      .cls-9 {
        stroke-linejoin: round;
      }
    </style>
  </defs>
  <polygon points="15.14 130.83 12.56 131.77 15.85 136.8 19.14 141.83 18.43 135.86 17.71 129.89 15.14 130.83"/>
  <polyline class="cls-7" points="30.6 118.37 30.6 125 16.95 132.96"/>
  <polygon points="39.95 137.49 38.46 139.78 44.11 141.83 49.76 143.87 45.6 139.53 41.45 135.19 39.95 137.49"/>
  <polyline class="cls-7" points="47.19 118.37 47.19 125 42.91 138.65"/>
  <path class="cls-1" d="M56.17,74.48c-.52-2.69-2.88-4.64-5.62-4.64H23.68c-2.74,0-5.1,1.94-5.62,4.64l-4.5,23.25H60.68l-4.5-23.25Z"/>
  <path class="cls-1" d="M61.65,102.74H12.58l-2.31,11.92c-.68,3.53,2.02,6.81,5.62,6.81H58.34c3.6,0,6.3-3.28,5.62-6.81l-2.31-11.92Z"/>
  <polygon class="cls-5" points="60.68 97.74 13.55 97.74 12.58 102.74 61.65 102.74 60.68 97.74"/>
  <path class="cls-5" d="M62.12,49.77c0,13.94-11.3,25.23-25.23,25.23-8.87,0-16.67-4.58-21.16-11.5-2.11-2.26-3.72-5.06-4.6-8.26l-4.13-15.1c-1.14-4.17,1.31-8.47,5.48-9.61l14.51-3.97c3.04-1.29,6.38-2.01,9.9-2.01,13.93,0,25.23,11.29,25.23,25.22Z"/>
  <path class="cls-4" d="M16.2,57.94c-2.87,0-5.2-2.33-5.2-5.2s2.33-5.2,5.2-5.2"/>
  <path class="cls-4" d="M58.03,48.35c2.42,0,4.38,1.96,4.38,4.38s-1.96,4.38-4.38,4.38"/>
  <rect class="cls-4" x="16.2" y="29.33" width="41.83" height="45.67" rx="17.67" ry="17.67"/>
  <path class="cls-3" d="M43.1,21.04h0c2.28,0,4.12,1.85,4.12,4.12v11c0,2.28-1.85,4.12-4.12,4.12h-11c-2.28,0-4.12-1.85-4.12-4.12h0c0-8.35,6.78-15.13,15.13-15.13Z" transform="translate(24.36 -16.01) rotate(34.96)"/>
  <path class="cls-3" d="M40.16,63.78s-2.21,2.35-5.47,3.21-6.34-.08-6.34-.08c0,0,2.21-2.35,5.47-3.21s6.34,.08,6.34,.08Z"/>
  <path class="cls-3" d="M42.07,63.78s1.79,1.9,4.43,2.6,5.14-.06,5.14-.06c0,0-1.79-1.9-4.43-2.6s-5.14,.06-5.14,.06Z"/>
  <path class="cls-2" d="M33.3,53.85c.28,1.23,.8,2.48,1.58,3.65,2.65,4.01,7.22,5.66,10.19,3.69s3.24-6.82,.58-10.82c-.78-1.18-1.73-2.14-2.75-2.88"/>
  <path d="M32.71,44.79s-2.74,.93-6.11,.93-6.11-.93-6.11-.93c0,0,2.74-.93,6.11-.93s6.11,.93,6.11,.93Z"/>
  <path class="cls-2" d="M22.98,50.75c0-2,1.62-3.62,3.62-3.62s3.62,1.62,3.62,3.62"/>
  <circle cx="26.6" cy="50.16" r="1.63"/>
  <path d="M56.81,44.81s-2.52,.85-5.62,.85-5.62-.85-5.62-.85c0,0,2.52-.85,5.62-.85s5.62,.85,5.62,.85Z"/>
  <path class="cls-2" d="M47.87,50.29c0-1.84,1.49-3.33,3.33-3.33s3.33,1.49,3.33,3.33"/>
  <circle cx="51.2" cy="49.75" r="1.5"/>
  <path class="cls-8" d="M21.01,130.81c-3.16-1.21-3.94-2.89-3.94-2.89l11.78-23.32,11.78-23.32-6.84,25.21-6.84,25.21s-2.77,.32-5.94-.89Z"/>
  <polyline class="cls-7" points="40.53 76.37 21.62 91.15 14.85 79.25"/>
  <polyline class="cls-7" points="43.7 81.65 56.75 90.6 58.71 77.55"/>
  <circle class="cls-4" cx="43.06" cy="75.11" r="3.82"/>
  <path class="cls-9" d="M48.22,66.38l-3.12-1.53c-.51-.25-1.14-.04-1.39,.48s-.04,1.14,.48,1.39l.29,.14-10.88,28.36-4.74,9.39-11.78,23.32s2.77-1.32,5.94-.11c3.16,1.21,3.94,3.89,3.94,3.89l6.84-25.21,3.16-11.66,10.23-26.65,.13,.06c.51,.25,1.14,.04,1.39-.48,.25-.51,.04-1.14-.48-1.39Z"/>
  <rect class="cls-6" x="6.96" y="67.08" width="18.73" height="18.73" rx="8.31" ry="8.31"/>
  <rect class="cls-6" x="48.8" y="67.08" width="16.62" height="16.62" rx="7.57" ry="7.57"/>
  <circle class="cls-4" cx="41.52" cy="80.19" r="3.82"/>
</svg>