<?xml version="1.0" encoding="UTF-8"?>
<svg id="Layer_1" data-name="Layer 1" xmlns="http://www.w3.org/2000/svg" viewBox="0 0 72 144">
  <defs>
    <style>
      .cls-1 {
        fill: #3198ff;
      }

      .cls-1, .cls-2, .cls-3, .cls-4, .cls-5, .cls-6, .cls-7, .cls-8 {
        stroke-miterlimit: 10;
      }

      .cls-1, .cls-2, .cls-3, .cls-4, .cls-5, .cls-6, .cls-7, .cls-8, .cls-9 {
        stroke: #000;
      }

      .cls-2, .cls-7 {
        fill: none;
      }

      .cls-4 {
        fill: #fff3d2;
      }

      .cls-5 {
        fill: #ce3030;
      }

      .cls-6, .cls-9 {
        fill: #ffda40;
      }

      .cls-7 {
        stroke-width: 5px;
      }

      .cls-8 {
        fill: #b2982b;
      }

      .cls-9 {
        stroke-linejoin: round;
      }
    </style>
  </defs>
  <polygon points="16.75 136.85 14.36 138.18 18.41 142.62 25.45 143.06 20.8 141.29 19.14 135.51 16.75 136.85"/>
  <polyline class="cls-7" points="34.09 123.57 29.4 128.26 18.61 139.05"/>
  <polygon points="57.36 140.52 58.76 142.88 63.09 138.71 67.41 134.54 61.68 136.36 55.96 138.17 57.36 140.52"/>
  <polyline class="cls-7" points="43.61 123.55 48.42 128.11 59.51 138.6"/>
  <path class="cls-1" d="M56.17,79.49c-.52-2.69-2.88-4.64-5.62-4.64H23.68c-2.74,0-5.1,1.94-5.62,4.64l-4.5,23.25H60.68l-4.5-23.25Z"/>
  <path class="cls-1" d="M61.65,107.75H12.58l-2.31,11.92c-.68,3.53,2.02,6.81,5.62,6.81H58.34c3.6,0,6.3-3.28,5.62-6.81l-2.31-11.92Z"/>
  <polygon class="cls-5" points="60.68 102.75 13.55 102.75 12.58 107.75 61.65 107.75 60.68 102.75"/>
  <path class="cls-5" d="M62.12,54.78c0,13.94-11.3,25.23-25.23,25.23-8.87,0-16.67-4.58-21.16-11.5-2.11-2.26-3.72-5.06-4.6-8.26l-4.13-15.1c-1.14-4.17,1.31-8.47,5.48-9.61l14.51-3.97c3.04-1.29,6.38-2.01,9.9-2.01,13.93,0,25.23,11.29,25.23,25.22Z"/>
  <path class="cls-8" d="M16.88,139.78c-3.16-1.21-3.94-2.89-3.94-2.89l11.78-23.32,11.78-23.32-6.84,25.21-6.84,25.21s-2.77,.32-5.94-.89Z"/>
  <path class="cls-4" d="M16.2,62.95c-2.87,0-5.2-2.33-5.2-5.2s2.33-5.2,5.2-5.2"/>
  <path class="cls-4" d="M58.03,53.36c2.42,0,4.38,1.96,4.38,4.38s-1.96,4.38-4.38,4.38"/>
  <rect class="cls-4" x="16.2" y="34.34" width="41.83" height="45.67" rx="17.67" ry="17.67"/>
  <path class="cls-3" d="M43.1,26.05h0c2.28,0,4.12,1.85,4.12,4.12v11c0,2.28-1.85,4.12-4.12,4.12h-11c-2.28,0-4.12-1.85-4.12-4.12h0c0-8.35,6.78-15.13,15.13-15.13Z" transform="translate(27.23 -15.11) rotate(34.96)"/>
  <path class="cls-3" d="M40.16,68.79s-2.21,2.35-5.47,3.21c-3.26,.87-6.34-.08-6.34-.08,0,0,2.21-2.35,5.47-3.21s6.34,.08,6.34,.08Z"/>
  <path class="cls-3" d="M42.07,68.79s1.79,1.9,4.43,2.6,5.14-.06,5.14-.06c0,0-1.79-1.9-4.43-2.6s-5.14,.06-5.14,.06Z"/>
  <path class="cls-2" d="M33.3,58.86c.28,1.23,.8,2.48,1.58,3.65,2.65,4.01,7.22,5.66,10.19,3.69s3.24-6.82,.58-10.82c-.78-1.18-1.73-2.14-2.75-2.88"/>
  <path d="M32.71,49.8s-2.74,.93-6.11,.93-6.11-.93-6.11-.93c0,0,2.74-.93,6.11-.93s6.11,.93,6.11,.93Z"/>
  <path class="cls-2" d="M22.98,55.76c0-2,1.62-3.62,3.62-3.62s3.62,1.62,3.62,3.62"/>
  <circle cx="26.6" cy="55.18" r="1.63"/>
  <path d="M56.81,49.82s-2.52,.85-5.62,.85-5.62-.85-5.62-.85c0,0,2.52-.85,5.62-.85s5.62,.85,5.62,.85Z"/>
  <path class="cls-2" d="M47.87,55.3c0-1.84,1.49-3.33,3.33-3.33s3.33,1.49,3.33,3.33"/>
  <circle cx="51.2" cy="54.76" r="1.5"/>
  <polyline class="cls-7" points="36.4 85.34 21.5 92.12 14.72 77.21"/>
  <polyline class="cls-7" points="40.57 89.62 56.63 91.57 58.58 75.51"/>
  <circle class="cls-4" cx="38.93" cy="84.08" r="3.82"/>
  <path class="cls-9" d="M44.09,75.35l-3.12-1.53c-.51-.25-1.14-.04-1.39,.48s-.04,1.14,.48,1.39l.29,.14-10.88,28.36-4.74,9.39-11.78,23.32s2.77-1.32,5.94-.11c3.16,1.21,3.94,3.89,3.94,3.89l6.84-25.21,3.16-11.66,10.23-26.65,.13,.06c.51,.25,1.14,.04,1.39-.48,.25-.51,.04-1.14-.48-1.39Z"/>
  <rect class="cls-6" x="6.84" y="71.05" width="18.73" height="18.73" rx="8.31" ry="8.31"/>
  <rect class="cls-6" x="48.67" y="71.05" width="16.62" height="16.62" rx="7.57" ry="7.57"/>
  <circle class="cls-4" cx="37.4" cy="89.16" r="3.82"/>
</svg>