<?xml version="1.0" encoding="UTF-8"?>
<svg id="Layer_1" data-name="Layer 1" xmlns="http://www.w3.org/2000/svg" viewBox="0 0 72 144">
  <defs>
    <style>
      .cls-1 {
        fill: #3198ff;
      }

      .cls-1, .cls-2, .cls-3, .cls-4, .cls-5, .cls-6, .cls-7, .cls-8 {
        stroke-miterlimit: 10;
      }

      .cls-1, .cls-2, .cls-3, .cls-4, .cls-5, .cls-6, .cls-7, .cls-8, .cls-9 {
        stroke: #000;
      }

      .cls-2, .cls-7 {
        fill: none;
      }

      .cls-4 {
        fill: #fff3d2;
      }

      .cls-5 {
        fill: #ce3030;
      }

      .cls-6, .cls-9 {
        fill: #ffda40;
      }

      .cls-7 {
        stroke-width: 5px;
      }

      .cls-8 {
        fill: #b2982b;
      }

      .cls-9 {
        stroke-linejoin: round;
      }
    </style>
  </defs>
  <polygon points="22.52 137.5 20.48 139.31 25.38 142.78 32.29 143.25 27.43 140.96 24.57 135.68 22.52 137.5"/>
  <polyline class="cls-7" points="26.16 124.87 30.16 131.5 24.16 138.76"/>
  <polygon points="38.21 137.85 36.39 139.9 41.68 142.76 48.96 142.62 43.5 140.72 40.03 135.81 38.21 137.85"/>
  <polyline class="cls-7" points="42.75 124.87 46.75 131.5 40.75 138.76"/>
  <path class="cls-1" d="M51.73,88.98c-.52-2.69-2.88-4.64-5.62-4.64H19.23c-2.74,0-5.1,1.94-5.62,4.64l-4.5,20.25H56.23l-4.5-20.25Z"/>
  <path class="cls-1" d="M57.2,114.24H8.14l-2.31,6.92c-.68,3.53,2.02,6.81,5.62,6.81H53.89c3.6,0,6.3-3.28,5.62-6.81l-2.31-6.92Z"/>
  <polygon class="cls-5" points="56.23 109.24 9.11 109.24 8.14 114.24 57.2 114.24 56.23 109.24"/>
  <path class="cls-5" d="M57.67,64.27c0,13.94-11.3,25.23-25.23,25.23-8.87,0-16.67-4.58-21.16-11.5-2.11-2.26-3.72-5.06-4.6-8.26l-4.13-15.1c-1.14-4.17,1.31-8.47,5.48-9.61l14.51-3.97c3.04-1.29,6.38-2.01,9.9-2.01,13.93,0,25.23,11.29,25.23,25.22Z"/>
  <path class="cls-8" d="M16.44,140.27c-3.16-1.21-3.94-2.89-3.94-2.89l11.78-23.32,11.78-23.32-6.84,25.21-6.84,25.21s-2.77,.32-5.94-.89Z"/>
  <path class="cls-4" d="M11.75,72.44c-2.87,0-5.2-2.33-5.2-5.2s2.33-5.2,5.2-5.2"/>
  <path class="cls-4" d="M53.59,62.85c2.42,0,4.38,1.96,4.38,4.38s-1.96,4.38-4.38,4.38"/>
  <rect class="cls-4" x="11.75" y="43.83" width="41.83" height="45.67" rx="17.67" ry="17.67"/>
  <path class="cls-3" d="M38.66,35.54h0c2.28,0,4.12,1.85,4.12,4.12v11c0,2.28-1.85,4.12-4.12,4.12h-11c-2.28,0-4.12-1.85-4.12-4.12h0c0-8.35,6.78-15.13,15.13-15.13Z" transform="translate(31.87 -10.85) rotate(34.96)"/>
  <path class="cls-3" d="M35.71,78.28s-2.21,2.35-5.47,3.21-6.34-.08-6.34-.08c0,0,2.21-2.35,5.47-3.21,3.26-.87,6.34,.08,6.34,.08Z"/>
  <path class="cls-3" d="M37.63,78.28s1.79,1.9,4.43,2.6,5.14-.06,5.14-.06c0,0-1.79-1.9-4.43-2.6s-5.14,.06-5.14,.06Z"/>
  <path class="cls-2" d="M28.86,68.35c.28,1.23,.8,2.48,1.58,3.65,2.65,4.01,7.22,5.66,10.19,3.69s3.24-6.82,.58-10.82c-.78-1.18-1.73-2.14-2.75-2.88"/>
  <path d="M28.27,59.29s-2.74,.93-6.11,.93-6.11-.93-6.11-.93c0,0,2.74-.93,6.11-.93s6.11,.93,6.11,.93Z"/>
  <path class="cls-2" d="M18.54,65.25c0-2,1.62-3.62,3.62-3.62s3.62,1.62,3.62,3.62"/>
  <circle cx="22.16" cy="64.66" r="1.63"/>
  <path d="M52.37,59.31s-2.52,.85-5.62,.85-5.62-.85-5.62-.85c0,0,2.52-.85,5.62-.85s5.62,.85,5.62,.85Z"/>
  <path class="cls-2" d="M43.42,64.79c0-1.84,1.49-3.33,3.33-3.33s3.33,1.49,3.33,3.33"/>
  <circle cx="46.75" cy="64.25" r="1.5"/>
  <polyline class="cls-7" points="35.96 85.83 17.05 100.61 10.27 88.7"/>
  <polyline class="cls-7" points="39.12 91.11 52.18 100.06 54.14 87"/>
  <circle class="cls-4" cx="38.48" cy="84.57" r="3.82"/>
  <path class="cls-9" d="M43.65,75.84l-3.12-1.53c-.51-.25-1.14-.04-1.39,.48s-.04,1.14,.48,1.39l.29,.14-10.88,28.36-4.74,9.39-11.78,23.32s2.77-1.32,5.94-.11c3.16,1.21,3.94,3.89,3.94,3.89l6.84-25.21,3.16-11.66,10.23-26.65,.13,.06c.51,.25,1.14,.04,1.39-.48,.25-.51,.04-1.14-.48-1.39Z"/>
  <rect class="cls-6" x="2.39" y="76.54" width="18.73" height="18.73" rx="8.31" ry="8.31"/>
  <rect class="cls-6" x="44.22" y="76.54" width="16.62" height="16.62" rx="7.57" ry="7.57"/>
  <circle class="cls-4" cx="36.95" cy="89.65" r="3.82"/>
</svg>