<?xml version="1.0" encoding="UTF-8"?>
<svg id="Layer_1" data-name="Layer 1" xmlns="http://www.w3.org/2000/svg" viewBox="0 0 72 144">
  <defs>
    <style>
      .cls-1 {
        stroke-width: 1.5px;
      }

      .cls-1, .cls-2, .cls-3, .cls-4, .cls-5, .cls-6, .cls-7, .cls-8, .cls-9 {
        stroke-miterlimit: 10;
      }

      .cls-1, .cls-2, .cls-3, .cls-4, .cls-5, .cls-6, .cls-7, .cls-8, .cls-9, .cls-10 {
        stroke: #000;
      }

      .cls-1, .cls-3, .cls-8 {
        fill: none;
      }

      .cls-2 {
        fill: #3198ff;
      }

      .cls-5 {
        fill: #fff3d2;
      }

      .cls-6 {
        fill: #ce3030;
      }

      .cls-7, .cls-10 {
        fill: #ffda40;
      }

      .cls-8 {
        stroke-width: 5px;
      }

      .cls-9 {
        fill: #b2982b;
      }

      .cls-10 {
        stroke-linejoin: round;
      }
    </style>
  </defs>
  <polygon points="27.73 140.02 26.98 142.66 32.99 142.94 38.99 143.21 33.73 140.3 28.48 137.39 27.73 140.02"/>
  <line class="cls-8" x1="30.6" y1="118.37" x2="30.6" y2="140.26"/>
  <polygon points="44.32 140.02 43.57 142.66 49.58 142.94 55.58 143.21 50.32 140.3 45.07 137.39 44.32 140.02"/>
  <line class="cls-8" x1="47.19" y1="118.37" x2="47.19" y2="140.26"/>
  <path class="cls-2" d="M56.17,74.48c-.52-2.69-2.88-4.64-5.62-4.64H23.68c-2.74,0-5.1,1.94-5.62,4.64l-4.5,23.25H60.68l-4.5-23.25Z"/>
  <path class="cls-2" d="M61.65,102.74H12.58l-2.31,11.92c-.68,3.53,2.02,6.81,5.62,6.81H58.34c3.6,0,6.3-3.28,5.62-6.81l-2.31-11.92Z"/>
  <polygon class="cls-6" points="60.68 97.74 13.55 97.74 12.58 102.74 61.65 102.74 60.68 97.74"/>
  <path class="cls-6" d="M62.12,49.77c0,13.94-11.3,25.23-25.23,25.23-8.87,0-16.67-4.58-21.16-11.5-2.11-2.26-3.72-5.06-4.6-8.26l-4.13-15.1c-1.14-4.17,1.31-8.47,5.48-9.61l14.51-3.97c3.04-1.29,6.38-2.01,9.9-2.01,13.93,0,25.23,11.29,25.23,25.22Z"/>
  <path class="cls-9" d="M38.29,137.85c-3.38-.09-4.67-1.42-4.67-1.42l3.37-25.9,3.37-25.9,1.92,26.05,1.92,26.05s-2.51,1.22-5.9,1.13Z"/>
  <path class="cls-5" d="M16.2,57.94c-2.87,0-5.2-2.33-5.2-5.2s2.33-5.2,5.2-5.2"/>
  <path class="cls-5" d="M58.03,48.35c2.42,0,4.38,1.96,4.38,4.38s-1.96,4.38-4.38,4.38"/>
  <rect class="cls-5" x="16.2" y="29.33" width="41.83" height="45.67" rx="17.67" ry="17.67"/>
  <path class="cls-4" d="M43.1,21.04h0c2.28,0,4.12,1.85,4.12,4.12v11c0,2.28-1.85,4.12-4.12,4.12h-11c-2.28,0-4.12-1.85-4.12-4.12h0c0-8.35,6.78-15.13,15.13-15.13Z" transform="translate(24.36 -16.01) rotate(34.96)"/>
  <path class="cls-4" d="M40.16,63.78s-2.21,2.35-5.47,3.21c-3.26,.87-6.34-.08-6.34-.08,0,0,2.21-2.35,5.47-3.21s6.34,.08,6.34,.08Z"/>
  <path class="cls-4" d="M42.07,63.78s1.79,1.9,4.43,2.6c2.64,.7,5.14-.06,5.14-.06,0,0-1.79-1.9-4.43-2.6s-5.14,.06-5.14,.06Z"/>
  <path class="cls-3" d="M33.3,53.85c.28,1.23,.8,2.48,1.58,3.65,2.65,4.01,7.22,5.66,10.19,3.69s3.24-6.82,.58-10.82c-.78-1.18-1.73-2.14-2.75-2.88"/>
  <path d="M32.22,41.39s-2.15,1.93-5.25,3.25-5.98,1.55-5.98,1.55c0,0,2.15-1.93,5.25-3.25s5.98-1.55,5.98-1.55Z"/>
  <path d="M56.28,46.2s-2.64-.3-5.45-1.62-4.72-3.16-4.72-3.16c0,0,2.64,.3,5.45,1.62s4.72,3.16,4.72,3.16Z"/>
  <polyline class="cls-8" points="35.8 89.31 19.57 91.46 17.41 75.23"/>
  <polyline class="cls-8" points="43.57 88.89 60.09 90.87 56.96 75"/>
  <circle class="cls-5" cx="38.9" cy="88.43" r="3.82"/>
  <path class="cls-10" d="M42.56,68.04l-3.45-.41c-.57-.07-1.09,.34-1.15,.91s.34,1.09,.91,1.15l.32,.04-.85,30.36-1.36,10.43-3.37,25.9s2.18-2.17,5.56-2.07c3.38,.09,5,2.37,5,2.37l-1.92-26.05-.89-12.05,.8-28.54,.14,.02c.57,.07,1.09-.34,1.15-.91,.07-.57-.34-1.09-.91-1.15Z"/>
  <rect class="cls-7" x="6.84" y="69.04" width="18.73" height="18.73" rx="8.31" ry="8.31"/>
  <rect class="cls-7" x="48.67" y="69.04" width="16.62" height="16.62" rx="7.57" ry="7.57"/>
  <circle class="cls-5" cx="41.06" cy="88.87" r="3.82"/>
  <line class="cls-1" x1="23.87" y1="47.02" x2="29.34" y2="52.49"/>
  <line class="cls-1" x1="29.34" y1="47.02" x2="23.87" y2="52.49"/>
  <line class="cls-1" x1="48.46" y1="47.02" x2="53.93" y2="52.49"/>
  <line class="cls-1" x1="53.93" y1="47.02" x2="48.46" y2="52.49"/>
</svg>