<svg width="72" height="21" viewBox="0 0 72 21" fill="none" xmlns="http://www.w3.org/2000/svg">
<path d="M22.3558 7.08L34.2258 17.37L24.8658 16.52" stroke="black" stroke-width="5" stroke-miterlimit="10"/>
<path d="M71.2258 6.89001C71.1458 10.27 69.8258 11.57 69.8258 11.57L43.9058 8.34001L17.9858 5.11L44.0258 3.06001L70.0658 1.01001C70.0658 1.01001 71.3058 3.51001 71.2258 6.90001V6.89001Z" fill="#B2982B" stroke="black" stroke-miterlimit="10"/>
<path d="M1.39583 2.98L1.00583 6.44C0.945828 7.01 1.35583 7.52 1.92583 7.59C2.49583 7.66 3.00583 7.24 3.07583 6.67L3.11583 6.35L33.4858 7.04L43.9158 8.34L69.8358 11.57C69.8358 11.57 67.6558 9.4 67.7358 6.02C67.8158 2.64 70.0758 1 70.0758 1L44.0358 3.05L31.9858 4L3.44583 3.35L3.46583 3.21C3.52583 2.64 3.11583 2.13 2.54583 2.06C1.97583 2 1.46583 2.41 1.39583 2.98Z" fill="#FFDA40" stroke="black" stroke-linejoin="round"/>
<path d="M20.6058 9.00999C22.7156 9.00999 24.4258 7.29972 24.4258 5.18999C24.4258 3.08027 22.7156 1.37 20.6058 1.37C18.4961 1.37 16.7858 3.08027 16.7858 5.18999C16.7858 7.29972 18.4961 9.00999 20.6058 9.00999Z" fill="#FFF3D2" stroke="black" stroke-miterlimit="10"/>
<path d="M12.1258 9.45C14.2356 9.45 15.9459 7.73973 15.9459 5.63C15.9459 3.52027 14.2356 1.81 12.1258 1.81C10.0161 1.81 8.30585 3.52027 8.30585 5.63C8.30585 7.73973 10.0161 9.45 12.1258 9.45Z" fill="#FFF3D2" stroke="black" stroke-miterlimit="10"/>
</svg>
