<svg width="48" height="62" viewBox="0 0 48 62" fill="none" xmlns="http://www.w3.org/2000/svg">
<path d="M42.6715 59.7715C39.8915 61.7115 38.0715 61.4115 38.0715 61.4115L25.3515 38.5915L12.6315 15.7715L29.6815 35.5615L46.7315 55.3515C46.7315 55.3515 45.4415 57.8315 42.6615 59.7715H42.6715Z" fill="#B2982B" stroke="black" stroke-miterlimit="10"/>
<path d="M8.57146 14.9715C10.6812 14.9715 12.3915 13.2612 12.3915 11.1515C12.3915 9.04176 10.6812 7.33149 8.57146 7.33149C6.46174 7.33149 4.75146 9.04176 4.75146 11.1515C4.75146 13.2612 6.46174 14.9715 8.57146 14.9715Z" fill="#FFF3D2" stroke="black" stroke-miterlimit="10"/>
<path d="M4.54149 1.14149L1.52149 2.87149C1.02149 3.16149 0.85149 3.79149 1.14149 4.29149C1.43149 4.79149 2.06149 4.96149 2.56149 4.67149L2.84149 4.51149L20.2415 29.4115L25.3615 38.5915L38.0815 61.4115C38.0815 61.4115 38.5415 58.3715 41.3215 56.4315C44.1015 54.4915 46.7515 55.3515 46.7515 55.3515L29.7015 35.5615L21.8115 26.4115L5.46149 3.01149L5.58149 2.94149C6.08149 2.65149 6.25149 2.02149 5.96149 1.52149C5.67149 1.02149 5.04149 0.851491 4.54149 1.14149Z" fill="#FFDA40" stroke="black" stroke-linejoin="round"/>
<path d="M10.2715 18.6015C12.3813 18.6015 14.0915 16.8912 14.0915 14.7815C14.0915 12.6718 12.3813 10.9615 10.2715 10.9615C8.16181 10.9615 6.45154 12.6718 6.45154 14.7815C6.45154 16.8912 8.16181 18.6015 10.2715 18.6015Z" fill="#FFF3D2" stroke="black" stroke-miterlimit="10"/>
</svg>
