<svg width="37" height="36" viewBox="0 0 37 36" fill="none" xmlns="http://www.w3.org/2000/svg">
<path d="M4.76002 13.59C4.29002 13.63 4.06001 13.65 3.59001 13.68C3.59001 13.57 3.59002 13.51 3.58002 13.4C4.42002 13.05 5.69001 11.81 6.37001 10.44C6.55001 10.07 6.64001 9.89001 6.81001 9.51001C6.93001 9.55001 6.98001 9.57001 7.10001 9.61001C7.05001 9.73001 7.03001 9.78001 6.99001 9.90001C6.68001 10.69 6.59002 11.21 6.65002 12.05C6.65002 12.14 6.65001 12.18 6.67001 12.26C7.43001 12.17 7.81001 12.12 8.57001 12.03C8.43001 12.55 8.36001 12.81 8.20001 13.31C7.63001 13.36 7.35001 13.38 6.78001 13.42C6.89001 15.92 6.87001 17.17 6.66001 19.67C7.10001 19.95 7.38001 20.11 7.71001 20.44C7.91001 20.34 8.01002 20.29 8.22002 20.19C8.28002 20.32 8.30002 20.39 8.36002 20.53C7.55002 20.99 7.14001 21.21 6.32001 21.59C5.32001 20.76 4.54001 20.32 3.91001 20.08C3.92001 19.96 3.93002 19.9 3.94002 19.78C4.43002 19.74 4.69001 19.2 4.71001 18.82C4.86001 16.73 4.87001 15.68 4.77001 13.58L4.76002 13.59Z" fill="#CE3030"/>
<path d="M14.15 10.74C15.31 11.33 16.57 12.04 18.03 12.21C18.03 12.37 18.04 12.46 18.05 12.62C17.7 12.87 17.56 13.23 17.58 14.36C17.64 17.42 17.58 18.95 17.29 22C16 22.62 15.35 22.9 14.05 23.38C13.19 22.28 11.78 21.39 10.63 20.99C10.64 20.86 10.65 20.79 10.66 20.66C11.07 20.54 11.21 20.26 11.26 19.43C11.43 16.88 11.44 15.6 11.33 13.05C12.47 12.19 13.04 11.73 14.15 10.74ZM13.22 20.36C14.05 20.79 14.68 21.31 15.26 22.09C15.61 18.68 15.67 16.96 15.55 13.54C14.75 13.41 14.03 13.05 13.32 12.44C13.49 15.61 13.47 17.2 13.22 20.37V20.36Z" fill="#CE3030"/>
<path d="M23.79 9.4C24.97 10.19 26.24 11.12 27.7 11.36C27.71 11.57 27.72 11.67 27.72 11.87C27.38 12.17 27.24 12.62 27.27 14.03C27.34 17.85 27.27 19.77 26.91 23.57C25.6 24.39 24.94 24.77 23.61 25.46C22.78 24.12 21.39 23.05 20.25 22.59C20.27 22.42 20.27 22.33 20.29 22.16C20.71 21.99 20.85 21.62 20.92 20.54C21.14 17.24 21.16 15.58 21.01 12.27C22.14 11.19 22.7 10.61 23.79 9.39V9.4ZM22.86 21.67C23.68 22.18 24.3 22.82 24.86 23.77C25.3 19.46 25.37 17.3 25.23 12.97C24.43 12.79 23.7 12.32 22.99 11.52C23.21 15.57 23.18 17.61 22.87 21.66L22.86 21.67Z" fill="#CE3030"/>
<path d="M31.2 11.49C30.73 11.53 30.5 11.55 30.03 11.58C30.02 11.35 30.01 11.24 30 11.01C30.83 10.36 32.04 8.02 32.58 5.5C32.73 4.83 32.8 4.49 32.93 3.8C33.05 3.9 33.11 3.95 33.24 4.05C33.21 4.26 33.19 4.36 33.15 4.57C32.92 6.02 32.87 7.02 32.99 8.65C33 8.82 33.01 8.9 33.02 9.07C33.78 8.98 34.16 8.93 34.92 8.84C34.81 9.8 34.75 10.28 34.62 11.23C34.05 11.28 33.77 11.3 33.2 11.34C33.42 16.19 33.38 18.63 32.97 23.47C33.39 23.95 33.66 24.23 33.97 24.78C34.18 24.57 34.29 24.46 34.5 24.24C34.55 24.48 34.57 24.61 34.61 24.85C33.75 25.83 33.31 26.31 32.43 27.21C31.5 25.81 30.75 25.06 30.13 24.7C30.15 24.46 30.17 24.33 30.19 24.09C30.69 23.92 31 22.82 31.06 22.05C31.36 17.83 31.38 15.72 31.19 11.5L31.2 11.49Z" fill="#CE3030"/>
<path d="M2.45004 22.3L36.32 31.92L1.41003 27.41L2.45004 22.3Z" fill="#CE3030"/>
<path d="M1.64 26.69L20.72 35.74L0 31.64L1.64 26.69Z" fill="#CE3030"/>
<path d="M1.96002 4.23L34.01 2.06L2.73002 9.38L1.96002 4.23Z" fill="#CE3030"/>
<path d="M1.10004 0.550003L16.69 0L2.15004 5.65L1.10004 0.550003Z" fill="#CE3030"/>
</svg>
