<?xml version="1.0" encoding="UTF-8"?>
<svg id="Layer_1" data-name="Layer 1" xmlns="http://www.w3.org/2000/svg" viewBox="0 0 576 144">
  <defs>
    <style>
      .cls-1 {
        fill: #ce3030;
      }

      .cls-2 {
        fill: #231f20;
      }
    </style>
  </defs>
  <g>
    <path class="cls-1" d="M47.1,120.86c-.1,0-.2,0-.3-.02-24.38-3.69-39.53-22.28-39.53-48.52S23.53,33.89,41.1,23.79c.31-.18,.66-.27,1-.27,.67,0,1.32,.33,1.7,.94l1.28,2.05c.3,.47,.38,1.05,.23,1.59-.15,.54-.51,.99-1.01,1.25-5.35,2.77-9.57,6.55-12.69,11.39,.12-.12,.26-.22,.42-.3,5.58-3.07,7.88-4.2,10.55-5.51,1.56-.77,3.18-1.56,5.65-2.85,5.51-2.96,9.5-5.16,14.39-8.58,.34-.24,.74-.36,1.15-.36,.35,0,.7,.09,1.01,.27l3.08,1.79,3.47,2.18c2.1,1.16,4.56,1.9,6.29,1.9,1.26,0,4.32-.22,5.62-2.27,.28-.45,.74-.77,1.26-.88,.14-.03,.29-.05,.43-.05,.38,0,.76,.11,1.08,.32l1.79,1.15c.91,.58,1.19,1.78,.64,2.7l-17.1,28.78c10.4,2.34,22.9,11.03,22.9,22.39,0,18.5-39.24,36.74-46.46,39.32-.22,.08-.45,.12-.67,.12Zm-8.51-20.38c5.06,3.8,11.14,5.96,17.8,6.32V41.97c-1.51-.54-2.96-1.19-4.33-1.95l2.82,42.69c.5,7.13-5.37,10.88-9.25,13.36l-7.02,4.43Zm23.85,5.54c7.98-3.28,15.62-10.39,15.62-18.58s-8.64-12.39-15.62-14v32.58ZM31.08,41.59c-4.08,6.8-6.09,15.58-6.09,26.5,0,7.76,1.56,18.66,8.8,27.53l.68-.52c3.24-2.59,4.43-5.55,4.09-10.19l-2.86-38.95-.92,.46c-.28,.14-.59,.21-.89,.21-.25,0-.5-.05-.74-.14-.53-.21-.94-.63-1.14-1.17l-.9-2.44c-.16-.43-.16-.88-.03-1.29Zm31.35,20.68l10.45-17.79c-1,.15-2.06,.21-3.22,.21-2.38,0-4.81-.32-7.23-.96v18.53Z"/>
    <path class="cls-2" d="M63.77,25.14l3.08,1.79,3.46,2.18c2.31,1.28,5.13,2.18,7.31,2.18,2.69,0,5.77-.77,7.31-3.21l1.79,1.15-18.59,31.29c9.62,1.03,24.11,9.49,24.11,20.9,0,16.67-36.54,34.36-45.13,37.44-22.05-3.33-37.83-20.26-37.83-46.54,0-22.7,13.21-35.52,32.82-46.8l1.28,2.05c-14.62,7.57-20.39,21.8-20.39,40.52,0,10.77,2.82,21.8,10.51,30.26l2.18-1.67c3.85-3.08,5.26-6.67,4.87-11.92l-3.08-41.93-3.59,1.8-.9-2.44c8.85-4.87,9.49-4.87,16.16-8.33,5.26-2.82,9.49-5.13,14.62-8.72m-5.39,83.73V40.52c-2.95-.9-5.9-2.31-8.59-4.36l3.08,46.67c.38,5.51-3.72,8.59-8.33,11.54l-9.36,5.9c6.03,5.39,13.98,8.59,23.21,8.59m11.28-66.16c-4.1,0-7.44-1.03-9.23-1.67v28.59l16.8-28.59c-2.31,1.15-4.49,1.67-7.57,1.67m-9.23,66.16c8.85-2.69,19.62-10.9,19.62-21.41,0-9.49-10.77-15.13-19.62-16.41v37.83m3.33-87.73c-.8,0-1.61,.24-2.29,.72-4.8,3.36-8.73,5.53-14.19,8.46-2.16,1.12-3.66,1.87-5.06,2.55,.95-.62,1.95-1.2,2.99-1.74,.99-.51,1.72-1.42,2.02-2.5,.29-1.08,.13-2.23-.47-3.18l-1.28-2.05c-.76-1.21-2.06-1.88-3.39-1.88-.68,0-1.36,.17-1.99,.53C22.88,31.96,5.27,45.68,5.27,72.32c0,13.57,4.01,25.48,11.59,34.46,7.32,8.67,17.57,14.21,29.64,16.04,.2,.03,.4,.04,.6,.04,.46,0,.91-.08,1.35-.23,4.8-1.72,16.29-7.06,26.68-14.07,14.01-9.45,21.11-18.58,21.11-27.13,0-6.38-3.56-12.61-10.02-17.53-3.48-2.64-7.68-4.79-11.81-6.09l15.76-26.53c1.1-1.85,.54-4.24-1.28-5.41l-1.79-1.15c-.65-.42-1.4-.64-2.16-.64-.29,0-.58,.03-.87,.09-1.04,.23-1.95,.87-2.52,1.77-.63,.99-2.44,1.34-3.93,1.34-1.38,0-3.49-.65-5.28-1.63l-3.36-2.12s-.08-.05-.12-.07l-3.08-1.79c-.62-.36-1.32-.54-2.01-.54h0Zm-9.39,23.86l-.11-1.7s.07,.03,.11,.05v1.66h0Zm10.05,9.92v-8.69c1.62,.29,3.23,.44,4.83,.47l-4.83,8.22h0Zm-30.32,37.83c-5.82-8.1-7.12-17.69-7.12-24.66,0-8.33,1.2-15.35,3.64-21.14,.44,.62,1.06,1.11,1.78,1.4,.47,.19,.97,.28,1.47,.28,0,0,0,0,0,0l2.67,36.43c.26,3.51-.42,5.72-2.46,7.7h0Zm30.32,10.08v-26.74c5.61,1.84,11.62,5.64,11.62,11.36,0,6.61-5.78,12.18-11.62,15.38h0Zm-22.19-2.28l4.42-2.79c2.32-1.48,5.52-3.52,7.72-6.56v13.44c-4.41-.52-8.5-1.9-12.14-4.09h0Z"/>
  </g>
  <g>
    <path class="cls-1" d="M114.15,119.45c-.25,0-.49-.04-.73-.14-9.14-3.58-13.58-9.72-13.58-18.79,0-9.71,6.17-15.83,12.21-20.12-4.38-5.29-7.32-11.64-8.96-19.34-.23-1.08,.46-2.14,1.53-2.37,7.56-1.64,10.69-4.29,12.76-6.67,.39-.45,.95-.69,1.51-.69,.42,0,.83,.13,1.19,.39,3.96,2.94,8.47,4.66,15.97,6.06,3.4-1.68,5.06-3.34,6.81-5.1,.39-.39,.9-.59,1.42-.59,.38,0,.77,.11,1.11,.33l1.54,1.03c.47,.31,.78,.8,.87,1.36,.09,.55-.06,1.12-.41,1.56-2.68,3.35-6.36,7.95-6.36,14.78v27.18c0,5.04,1.04,6.93,1.93,7.75l3.28-2.22c.33-.23,.72-.34,1.12-.34,.16,0,.32,.02,.48,.06,.55,.14,1.02,.5,1.28,1l1.03,1.92c.46,.86,.23,1.93-.54,2.52l-12.95,10c-.36,.27-.79,.42-1.22,.42-.25,0-.5-.05-.74-.14-3.46-1.39-7.48-5.53-9.17-9.79l-10.01,9.39c-.38,.35-.87,.54-1.37,.54Zm3.22-34.27c-.81,2.45-1.22,5.14-1.22,8.03,0,8,1.93,11.34,3.97,13.07l4.59-4.32v-13.51c-3.1-.69-5.11-1.74-7.34-3.27Zm-6.48-18.84c2.68,7.59,7.6,13.09,13.82,15.36v-10.7c-4.92-1.41-9.67-2.87-13.82-4.66Z"/>
    <path class="cls-2" d="M118.89,53.34c4.49,3.33,9.62,5.13,17.44,6.54,4.1-1.92,6.03-3.85,7.95-5.77l1.54,1.03c-3.08,3.85-6.8,8.72-6.8,16.03v27.18c0,6.41,1.54,8.98,3.98,10.13l4.36-2.95,1.03,1.92-12.95,10c-3.85-1.54-8.72-7.31-8.72-11.8l-12.57,11.8c-5.9-2.31-12.31-6.67-12.31-16.93s6.8-15.51,13.21-19.75c-5.26-5.64-8.33-12.31-10-20.13,7.69-1.67,11.28-4.36,13.85-7.31m7.82,31.03v-14.87c-6.8-1.92-13.72-3.98-18.98-6.92,2.44,10.9,9.1,19.62,18.98,21.8m-6.41,24.49l6.41-6.03v-16.03c-4.74-.77-6.8-2.18-10.26-4.74-1.67,3.59-2.31,7.44-2.31,11.15,0,8.98,2.31,13.34,6.16,15.64m-1.41-59.52c-1.12,0-2.23,.47-3.02,1.38-1.94,2.24-4.7,4.51-11.68,6.02-2.15,.47-3.52,2.59-3.07,4.74,1.54,7.24,4.2,13.34,8.07,18.54-5.86,4.51-11.37,10.83-11.37,20.51s5,16.79,14.85,20.65c.47,.18,.97,.28,1.46,.28,1,0,1.98-.37,2.74-1.08l8.02-7.53c2.21,3.77,5.74,7.01,9.04,8.33,.48,.19,.98,.29,1.49,.29,.87,0,1.73-.28,2.45-.83l12.95-10c1.54-1.19,2-3.33,1.08-5.05l-1.03-1.92c-.53-1-1.47-1.73-2.57-2-.32-.08-.64-.12-.96-.12-.79,0-1.57,.24-2.24,.69l-1.54,1.04c-.37-1.11-.55-2.75-.55-4.91v-27.18c0-5.67,2.68-9.48,5.92-13.53,.7-.88,1-2,.83-3.11-.17-1.11-.8-2.09-1.73-2.71l-1.54-1.03c-.68-.45-1.45-.67-2.22-.67-1.03,0-2.06,.4-2.83,1.17-1.59,1.59-2.99,2.99-5.7,4.42-6.77-1.31-10.9-2.91-14.47-5.57-.71-.53-1.55-.79-2.38-.79h0Zm3.82,29.23c-3.25-1.87-6-4.82-8.05-8.61,2.57,.91,5.28,1.74,8.05,2.55v6.06h0Zm-2.47,24.86c-1.18-1.75-2.09-4.73-2.09-10.21,0-1.72,.15-3.35,.46-4.9,1.23,.68,2.54,1.24,4.1,1.7v11.09l-2.47,2.32h0Z"/>
  </g>
  <g>
    <path class="cls-1" d="M195.69,120.1c-.43,0-.86-.14-1.22-.41l-11.03-8.46c-.45-.34-.73-.86-.78-1.42-.05-.56,.15-1.12,.54-1.53l3.43-3.65v-34.21c0-2.35-1.15-3.79-2.42-4.17l-6.27,6.17v31.96l3.79,3.25c.43,.37,.69,.91,.7,1.48,.01,.57-.22,1.12-.64,1.51l-9.75,8.97c-.38,.35-.87,.53-1.36,.53-.43,0-.86-.14-1.22-.41l-11.03-8.46c-.45-.34-.73-.86-.78-1.42-.05-.56,.15-1.12,.54-1.53l3.43-3.65v-34.21c0-2.17-.88-4.41-2.34-4.41-.35,0-.77,.11-1.22,.32-.27,.13-.56,.19-.85,.19-.23,0-.46-.04-.69-.12-.5-.18-.91-.56-1.13-1.04l-.77-1.67c-.35-.77-.19-1.67,.41-2.26l9.75-9.62c.38-.37,.89-.58,1.4-.58,.17,0,.34,.02,.5,.06,6.07,1.57,9.71,5.91,10.85,12.92l11.42-12.23c.38-.41,.92-.63,1.46-.63,.17,0,.34,.02,.5,.06,6.56,1.7,10.28,7.36,11.53,13.08l12.45-12.55c.38-.38,.89-.59,1.42-.59,.03,0,.06,0,.1,0,.57,.03,1.09,.29,1.45,.73,3.44,4.21,6.49,6.35,9.06,6.35,.34,0,.67-.04,1-.11,.15-.03,.3-.05,.44-.05,.81,0,1.56,.5,1.87,1.28l.64,1.67c.39,1.02-.11,2.17-1.12,2.57-1.25,.5-2.59,2.24-2.59,4.04v31.16c0,6.78,1.44,6.78,1.92,6.78,.42,0,.95-.11,1.57-.33,.22-.08,.44-.11,.66-.11,.34,0,.69,.09,.99,.26,.5,.29,.86,.78,.97,1.35l.38,1.92c.16,.8-.19,1.62-.87,2.07l-12.82,8.33c-.33,.22-.71,.32-1.09,.32-.45,0-.9-.15-1.27-.46-6.76-5.55-6.76-12.89-6.76-19.37v-30.73l-2.24-1.85-5.68,5.59v31.58l3.79,3.25c.43,.37,.69,.91,.7,1.48,.01,.57-.22,1.12-.64,1.51l-9.74,8.97c-.38,.35-.87,.53-1.36,.53Z"/>
    <path class="cls-2" d="M166.2,53.22c6.92,1.8,9.62,7.44,9.74,15.64l14.49-15.51c6.92,1.79,10.51,8.85,10.51,15.51l15.39-15.51c3.5,4.29,7.09,7.08,10.61,7.08,.48,0,.96-.05,1.44-.16l.64,1.67c-1.92,.77-3.85,3.21-3.85,5.9v31.16c0,5.69,.95,8.78,3.92,8.78,.65,0,1.39-.15,2.24-.44l.38,1.92-12.82,8.33c-5.77-4.74-6.03-10.9-6.03-17.82v-31.67l-4.36-3.59-7.56,7.44v33.34l4.49,3.85-9.74,8.97-11.03-8.46,3.98-4.23v-35c0-3.98-2.56-6.28-5.13-6.28l-7.57,7.44v33.72l4.49,3.85-9.75,8.97-11.03-8.46,3.97-4.23v-35c0-3.25-1.54-6.41-4.34-6.41-.63,0-1.32,.16-2.07,.51l-.77-1.67,9.75-9.62m0-4c-1.04,0-2.05,.4-2.81,1.15l-9.75,9.62c-1.2,1.18-1.53,2.99-.82,4.52l.77,1.67c.45,.97,1.26,1.72,2.26,2.08,.44,.16,.91,.24,1.37,.24,.58,0,1.16-.13,1.7-.38,.07-.03,.12-.06,.17-.07,.22,.35,.54,1.15,.54,2.35v33.42l-2.89,3.08c-.77,.82-1.16,1.94-1.07,3.06,.09,1.13,.66,2.16,1.55,2.85l11.03,8.46c.72,.55,1.58,.83,2.43,.83,.98,0,1.95-.36,2.71-1.06l8.89-8.19,10.97,8.42c.72,.55,1.58,.83,2.43,.83,.98,0,1.95-.36,2.71-1.06l9.74-8.97c.84-.77,1.31-1.87,1.29-3.01-.02-1.14-.53-2.22-1.4-2.97l-3.09-2.65v-29.82l3.8-3.74,.12,.1v29.78c0,6.57,0,14.76,7.49,20.91,.73,.6,1.64,.91,2.54,.91,.76,0,1.51-.21,2.18-.65l12.82-8.33c1.37-.89,2.06-2.53,1.74-4.14l-.38-1.92c-.23-1.14-.94-2.12-1.94-2.69-.61-.35-1.29-.52-1.98-.52-.45,0-.89,.07-1.33,.23-.15,.05-.28,.09-.4,.12-.19-.63-.43-1.97-.43-4.68v-31.16c0-1.01,.87-2,1.33-2.18,2.03-.81,3.03-3.11,2.25-5.15l-.64-1.67c-.6-1.57-2.11-2.57-3.73-2.57-.29,0-.59,.03-.88,.1-.18,.04-.37,.06-.56,.06-1.1,0-3.53-.73-7.51-5.61-.72-.88-1.77-1.41-2.91-1.47-.06,0-.13,0-.19,0-1.06,0-2.09,.42-2.84,1.18l-10.09,10.17c-1.97-5.1-5.89-9.65-11.97-11.23-.33-.09-.67-.13-1-.13-1.09,0-2.16,.45-2.92,1.27l-8.87,9.5c-1.86-5.67-5.68-9.28-11.43-10.77-.33-.09-.67-.13-1-.13h0Zm13.74,24.01l4.41-4.33c.17,.36,.29,.86,.29,1.5v33.42l-1.89,2.02-2.8-2.4v-30.21h0Z"/>
  </g>
  <g>
    <path class="cls-1" d="M262.87,119.45c-.35,0-.7-.09-1.01-.28-4.83-2.83-11.7-5.74-19.87-8.41-.82-.27-1.38-1.04-1.38-1.9v-1.8c0-.83,.51-1.57,1.28-1.87,2.45-.94,3.33-4.31,3.33-6.34v-24.36c0-2.54-1.7-3.69-3.28-3.92-.99-.14-1.72-.98-1.72-1.98v-2.31c0-.83,.51-1.57,1.29-1.87,9.13-3.48,16.08-7.61,23.7-12.74,.34-.23,.73-.34,1.11-.34,.59,0,1.16,.26,1.56,.74l15.77,19.49c.69,.85,.57,2.09-.27,2.79l-21.85,18.25v9.53c2.41,1,5.58,2.33,8.49,4.41l6.9-4.38c.33-.21,.7-.31,1.07-.31,.57,0,1.14,.24,1.53,.71l1.41,1.67c.36,.43,.53,.98,.46,1.54-.07,.55-.36,1.05-.82,1.38l-16.54,11.93c-.35,.25-.76,.38-1.17,.38Zm-1.87-50.57c.36,1.64,.54,3.29,.54,4.97v10.91l6.83-5.84-7.37-10.04Z"/>
    <path class="cls-2" d="M266.33,53.34l15.77,19.49-22.57,18.85v11.8c2.69,1.15,6.92,2.69,10.39,5.51l8.08-5.13,1.41,1.67-16.54,11.92c-5.9-3.46-13.59-6.41-20.26-8.59v-1.8c3.33-1.28,4.62-5.39,4.62-8.21v-24.36c0-3.46-2.31-5.51-5-5.9v-2.31c9.75-3.72,17.05-8.21,24.11-12.95m-6.8,35.77l11.54-9.87-12.69-17.31-1.79,.9c1.79,3.33,2.95,6.92,2.95,11.03v15.26m6.79-39.77c-.77,0-1.55,.22-2.23,.68-7.51,5.05-14.34,9.11-23.3,12.53-1.55,.59-2.57,2.08-2.57,3.74v2.31c0,1.99,1.46,3.68,3.43,3.96,1.57,.22,1.57,1.51,1.57,1.94v24.36c0,1.78-.82,4-2.05,4.47-1.54,.59-2.56,2.08-2.56,3.73v1.8c0,1.73,1.11,3.26,2.76,3.8,8.04,2.63,14.77,5.48,19.48,8.24,.63,.37,1.33,.55,2.02,.55,.82,0,1.64-.25,2.34-.76l16.54-11.92c.9-.65,1.5-1.65,1.63-2.76,.14-1.11-.2-2.22-.92-3.07l-1.41-1.67c-.78-.93-1.91-1.42-3.06-1.42-.74,0-1.48,.2-2.14,.62l-5.79,3.68c-2.26-1.46-4.56-2.51-6.53-3.35v-7.26l21.13-17.65c1.68-1.4,1.92-3.89,.55-5.59l-15.77-19.49c-.79-.97-1.94-1.48-3.11-1.48h0Zm-2.79,31.09v-4.71l2.12,2.89-2.12,1.81h0Z"/>
  </g>
  <g>
    <path class="cls-1" d="M367.11,120.35c-24.53,0-41.62-24.84-41.62-47.13,0-19.62,10.12-35.43,29.26-45.74,.29-.16,.62-.24,.95-.24,.2,0,.41,.03,.6,.09,.52,.16,.94,.53,1.18,1.01l1.16,2.31c.49,.97,.11,2.16-.86,2.67-13.57,7.13-15.6,25.81-15.6,36.31,0,12.69,3.24,23.91,9.39,32.57l1.25-.8c2.39-1.54,3.56-4.72,3.56-9.72,0-.54-.03-1.08-.06-1.62-.03-.59-.06-1.18-.07-1.77l-2.95-40.45-.34,.23c-.33,.23-.73,.35-1.12,.35-.17,0-.35-.02-.52-.07-.56-.15-1.03-.54-1.28-1.07l-1.28-2.69c-.46-.97-.08-2.13,.88-2.63,9.83-5.16,20.21-10.83,29.55-18.38,.37-.29,.81-.44,1.26-.44,.38,0,.77,.11,1.11,.33,14.39,9.55,30.9,23.51,30.9,46.93,0,14.12-4.85,26.99-13.66,36.22-8.45,8.85-19.7,13.73-31.68,13.73Zm-11.05-13.14c4.08,3.27,9.05,5.17,13.75,5.17,1.76,0,3.79-.25,5.82-.71V43.03c-1.72-1.06-3.6-1.97-5.68-2.74l2.88,42.29,.03,.5c.12,2.02,.23,3.93,.23,5.53,0,5.81-1.47,10-8.98,14.18l-8.05,4.42Zm25.62,1.56c11.12-8.24,13.57-22.4,13.57-33.25,0-13.09-4.45-22.6-13.57-28.95v62.2Z"/>
    <path class="cls-2" d="M380.44,25.14c15.64,10.39,30,23.72,30,45.26,0,28.98-20.52,47.95-43.34,47.95s-39.62-23.08-39.62-45.13c0-19.11,9.87-34.11,28.21-43.98l1.15,2.31c-12.69,6.67-16.67,22.82-16.67,38.08,0,12.31,2.95,25,10.9,35.26l2.82-1.8c3.59-2.31,4.49-6.92,4.49-11.41,0-1.15-.13-2.31-.13-3.46l-3.21-43.98-3.21,2.18-1.28-2.69c10.26-5.38,20.52-11.03,29.88-18.59m-10.64,89.24c2.69,0,5.51-.51,7.82-1.15V41.93c-3.08-2.05-6.41-3.46-9.87-4.49l3.08,45.26c.13,2.18,.26,4.23,.26,5.9,0,5.38-1.28,8.72-7.95,12.44l-10.51,5.77c4.36,4.36,10.64,7.57,17.18,7.57m9.87-1.92c13.08-7.44,17.57-21.93,17.57-36.93,0-13.72-4.87-25.39-17.57-32.57V112.45m.77-91.32c-.89,0-1.78,.3-2.51,.89-5.7,4.61-11.82,8.52-17.97,12.04,.96-1.18,1.19-2.86,.47-4.31l-1.15-2.31c-.48-.97-1.34-1.7-2.37-2.02-.39-.12-.8-.19-1.21-.19-.66,0-1.31,.16-1.9,.48-19.83,10.68-30.31,27.1-30.31,47.5,0,11.88,4.42,24.05,12.12,33.38,8.38,10.16,19.57,15.75,31.5,15.75,12.53,0,24.29-5.1,33.12-14.35,9.17-9.61,14.22-22.96,14.22-37.61,0-24.36-16.99-38.77-31.79-48.59-.67-.45-1.44-.67-2.21-.67h0Zm-6.82,43.72l-1.46-21.45c.5,.24,.99,.5,1.46,.76v20.69h0Zm-21.5,34.58c-6.5-10.08-7.94-21.6-7.94-29.82,0-5.93,.66-14.58,3.79-22.04l.26,.55c.5,1.05,1.44,1.84,2.57,2.14,.23,.06,.46,.1,.69,.12l2.77,37.97c0,.63,.04,1.22,.07,1.8,.03,.54,.06,1.04,.06,1.51,0,3.89-.76,6.5-2.27,7.76h0Zm31.55,4.93V50.73c6.42,5.88,9.57,14.06,9.57,24.8,0,9.21-1.82,20.91-9.57,28.85h0Zm-23.84,3.04l5.23-2.87c4.61-2.57,7.18-5.21,8.56-8.14v13.61c-1.35,.23-2.65,.35-3.82,.35-3.33,0-6.82-1.06-9.97-2.96h0Z"/>
  </g>
  <g>
    <path class="cls-1" d="M442.49,120.74c-.51,0-1.02-.2-1.41-.59-4.53-4.53-11.01-7.83-17.79-9.06-.85-.15-1.5-.83-1.62-1.69l-.26-1.8c-.12-.87,.34-1.72,1.14-2.09,2.61-1.21,3.72-2.48,3.72-4.21v-30.39c0-1.49-.68-3-1.91-4.3l-1.37,1.11c-.37,.3-.81,.45-1.26,.45-.49,0-.97-.18-1.36-.53l-1.67-1.54c-.41-.38-.64-.91-.64-1.46s.23-1.09,.63-1.47l12.05-11.28c.38-.36,.87-.54,1.37-.54,.37,0,.74,.1,1.06,.31,4.27,2.68,7.4,6.99,8.76,11.9,4.54-3.48,9.76-7.96,12.91-11.53,.4-.45,.95-.68,1.5-.68,.46,0,.91,.15,1.29,.47,7.81,6.57,11.61,16.09,11.61,29.1,0,16.42-8.05,23.62-18.24,32.73-2.29,2.04-4.65,4.15-7.12,6.53-.39,.37-.89,.56-1.39,.56Zm.08-18.88c2.47,1.03,4.9,2.42,6.94,3.94,2.19-4.01,3.42-11.34,3.42-20.66s-1.71-15.26-4.96-18.46l-5.4,4.19v30.99Z"/>
    <path class="cls-2" d="M456.34,53.34c8.08,6.79,10.9,16.54,10.9,27.57,0,18.98-11.03,24.62-24.75,37.83-4.87-4.87-11.8-8.33-18.85-9.62l-.26-1.8c1.92-.9,4.87-2.56,4.87-6.03v-30.39c0-2.82-1.67-5.26-3.85-6.92l-2.69,2.18-1.67-1.54,12.05-11.28c4.49,2.82,7.82,7.82,8.46,13.72,5.13-3.72,11.92-9.36,15.77-13.72m-6.41,55.39c3.59-4.23,5-13.59,5-23.59s-2.18-17.69-6.92-21.03l-7.44,5.77v33.34c2.82,1.03,6.54,2.95,9.36,5.51m6.41-59.39c-1.11,0-2.21,.46-3,1.35-2.58,2.92-6.59,6.47-10.45,9.56-1.78-4.23-4.79-7.87-8.66-10.3-.65-.41-1.39-.61-2.13-.61-.99,0-1.97,.37-2.73,1.08l-12.05,11.28c-.81,.76-1.27,1.82-1.27,2.93,0,1.11,.47,2.17,1.29,2.93l1.67,1.54c.76,.71,1.74,1.06,2.71,1.06,.77,0,1.55-.22,2.22-.67,.19,.43,.32,.91,.32,1.42v30.39c0,.39,0,1.21-2.56,2.4-1.6,.74-2.52,2.45-2.27,4.19l.26,1.8c.24,1.71,1.55,3.06,3.24,3.37,6.39,1.16,12.49,4.26,16.74,8.51,.78,.78,1.8,1.17,2.83,1.17s2-.37,2.77-1.12c2.44-2.35,4.79-4.45,7.06-6.48,10.57-9.45,18.91-16.91,18.91-34.23,0-13.63-4.03-23.65-12.32-30.63-.75-.63-1.66-.94-2.57-.94h0Zm-11.77,22.5l3.09-2.4c2.12,3.14,3.27,8.57,3.27,15.7s-.82,13.7-2.26,17.66c-1.3-.83-2.69-1.59-4.1-2.24v-28.71h0Z"/>
  </g>
  <g>
    <path class="cls-1" d="M499.42,119.45c-.35,0-.7-.09-1.01-.28-4.83-2.83-11.7-5.74-19.87-8.41-.82-.27-1.38-1.04-1.38-1.9v-1.8c0-.83,.51-1.57,1.28-1.87,2.45-.94,3.33-4.31,3.33-6.34v-24.36c0-2.54-1.7-3.69-3.28-3.92-.99-.14-1.72-.98-1.72-1.98v-2.31c0-.83,.51-1.57,1.29-1.87,9.13-3.48,16.08-7.61,23.7-12.74,.34-.23,.73-.34,1.12-.34,.58,0,1.16,.26,1.56,.74l15.77,19.49c.69,.85,.57,2.09-.27,2.79l-21.85,18.25v9.53c2.41,1,5.58,2.33,8.49,4.41l6.9-4.38c.33-.21,.7-.31,1.07-.31,.57,0,1.14,.24,1.53,.71l1.41,1.67c.36,.43,.53,.98,.46,1.54-.07,.55-.36,1.05-.82,1.38l-16.54,11.93c-.35,.25-.76,.38-1.17,.38Zm-1.87-50.57c.36,1.64,.54,3.29,.54,4.97v10.92l6.83-5.84-7.37-10.04Z"/>
    <path class="cls-2" d="M502.88,53.34l15.77,19.49-22.57,18.85v11.8c2.69,1.15,6.92,2.69,10.39,5.51l8.08-5.13,1.41,1.67-16.54,11.92c-5.9-3.46-13.59-6.41-20.26-8.59v-1.8c3.33-1.28,4.62-5.39,4.62-8.21v-24.36c0-3.46-2.31-5.51-5-5.9v-2.31c9.75-3.72,17.05-8.21,24.11-12.95m-6.8,35.77l11.54-9.87-12.69-17.31-1.79,.9c1.79,3.33,2.95,6.92,2.95,11.03v15.26m6.79-39.77c-.77,0-1.55,.22-2.23,.68-7.51,5.05-14.34,9.11-23.3,12.53-1.55,.59-2.57,2.08-2.57,3.74v2.31c0,1.99,1.46,3.68,3.43,3.96,1.57,.22,1.57,1.51,1.57,1.94v24.36c0,1.78-.82,4-2.05,4.47-1.54,.59-2.56,2.08-2.56,3.73v1.8c0,1.73,1.11,3.26,2.76,3.8,8.04,2.63,14.77,5.48,19.48,8.24,.63,.37,1.33,.55,2.02,.55,.82,0,1.64-.25,2.34-.76l16.54-11.92c.9-.65,1.5-1.65,1.63-2.76,.14-1.11-.2-2.22-.92-3.07l-1.41-1.67c-.78-.93-1.91-1.42-3.06-1.42-.74,0-1.48,.2-2.14,.62l-5.79,3.68c-2.26-1.46-4.56-2.51-6.53-3.35v-7.26l21.13-17.65c1.68-1.4,1.92-3.89,.55-5.59l-15.77-19.49c-.79-.97-1.94-1.48-3.11-1.48h0Zm-2.79,31.09v-4.71l2.12,2.89-2.12,1.81h0Z"/>
  </g>
  <g>
    <path class="cls-1" d="M542.88,119.45c-.35,0-.71-.09-1.02-.28-1.9-1.13-3.44-2.11-4.8-2.97-3.34-2.11-5.17-3.28-7.69-3.85-.91-.21-1.56-1.02-1.56-1.95v-2.18c0-.88,.58-1.66,1.42-1.91,1.84-.56,2.81-3.64,2.81-5.65v-30.26c0-2.17-.88-4.41-2.34-4.41-.35,0-.77,.11-1.22,.32-.27,.13-.56,.19-.85,.19-.23,0-.46-.04-.69-.12-.5-.18-.91-.56-1.13-1.04l-.77-1.67c-.35-.77-.19-1.67,.41-2.26l9.75-9.62c.38-.37,.89-.58,1.41-.58,.17,0,.34,.02,.5,.06,6.43,1.67,9.02,5.79,10.13,9.09l7.92-8.4c.38-.4,.91-.63,1.46-.63,.02,0,.05,0,.07,0,.58,.02,1.11,.29,1.48,.73,.58,.71,1.11,1.38,1.6,2,2.38,3.01,3.49,4.35,5,4.35,.27,0,.57-.04,.9-.11,.15-.03,.3-.05,.44-.05,.81,0,1.56,.5,1.87,1.28l.64,1.67c.25,.64,.15,1.36-.26,1.91l-6.41,8.59c-.38,.51-.97,.8-1.6,.8-.02,0-.04,0-.06,0-4.34-.13-8.16-2.05-10.82-5.34l-1.09,1.17v36.28c.63,.32,1.33,.72,2.27,1.38l1.77-1.23c.34-.24,.74-.36,1.14-.36,.16,0,.31,.02,.47,.06,.56,.13,1.03,.5,1.3,1l1.02,1.92c.46,.86,.23,1.92-.54,2.52l-11.67,9.1c-.36,.28-.79,.42-1.23,.42Z"/>
    <path class="cls-2" d="M536.6,53.22c6.92,1.8,8.85,6.54,9.49,11.28l10.51-11.15c3.5,4.29,5.11,7.08,8.15,7.08,.42,0,.86-.05,1.34-.16l.64,1.67-6.41,8.59c-4.1-.13-8.21-2.18-10.64-6.54l-3.33,3.59v38.34c1.15,.51,2.05,.9,4.23,2.56l2.95-2.05,1.03,1.92-11.67,9.1c-6.67-3.98-9.1-6.16-13.08-7.05v-2.18c2.95-.9,4.23-4.87,4.23-7.56v-30.26c0-3.25-1.54-6.41-4.34-6.41-.63,0-1.32,.16-2.07,.51l-.77-1.67,9.75-9.62m0-4c-1.04,0-2.05,.4-2.81,1.15l-9.75,9.62c-1.2,1.18-1.53,2.99-.82,4.52l.77,1.67c.45,.97,1.26,1.72,2.26,2.08,.44,.16,.91,.24,1.37,.24,.58,0,1.16-.13,1.7-.38,.07-.03,.12-.06,.17-.07,.22,.35,.54,1.15,.54,2.35v30.26c0,1.88-.93,3.6-1.4,3.74-1.68,.51-2.84,2.07-2.84,3.83v2.18c0,1.87,1.3,3.49,3.12,3.9,2.18,.49,3.81,1.53,7.06,3.58,1.37,.87,2.93,1.85,4.85,3,.63,.38,1.34,.56,2.05,.56,.87,0,1.74-.29,2.46-.85l11.67-9.1c1.53-1.2,1.98-3.32,1.07-5.04l-1.03-1.92c-.54-1.01-1.48-1.74-2.59-2.01-.31-.07-.62-.11-.94-.11-.81,0-1.61,.25-2.28,.72l-.66,.46c-.08-.05-.16-.1-.24-.14v-32.53c2.74,2.22,6.13,3.48,9.85,3.6,.04,0,.08,0,.12,0,1.26,0,2.45-.59,3.21-1.61l6.41-8.59c.82-1.1,1.02-2.55,.53-3.83l-.64-1.67c-.6-1.57-2.11-2.57-3.73-2.57-.29,0-.59,.03-.88,.1-.23,.05-.37,.06-.46,.06-.61,0-2.04-1.82-3.43-3.58-.5-.63-1.03-1.31-1.62-2.03-.73-.89-1.81-1.43-2.96-1.47-.05,0-.1,0-.14,0-1.1,0-2.15,.45-2.91,1.26l-5.84,6.19c-1.69-3-4.71-6.01-10.25-7.45-.33-.09-.67-.13-1-.13h0Z"/>
  </g>
</svg>