<?xml version="1.0" encoding="UTF-8"?>
<svg id="Layer_1" data-name="Layer 1" xmlns="http://www.w3.org/2000/svg" viewBox="0 0 72 72">
  <defs>
    <style>
      .cls-1 {
        fill: #ce3030;
      }
    </style>
  </defs>
  <path class="cls-1" d="M7.02,34.16c-2.92-2.92-4.53-6.8-4.52-10.92,0-4.12,1.61-7.99,4.52-10.89,2.92-2.92,6.8-4.52,10.92-4.52s8,1.6,10.9,4.52l7.17,7.17,7.15-7.17c2.91-2.91,6.79-4.52,10.91-4.52s7.99,1.61,10.9,4.52c2.92,2.92,4.53,6.79,4.53,10.9s-1.61,8-4.52,10.92l-5.38,5.4-23.58,23.59L7.02,34.16Z"/>
  <path d="M54.07,10.32c3.45,0,6.7,1.35,9.14,3.79,2.44,2.44,3.79,5.69,3.79,9.13s-1.35,6.71-3.8,9.16l-5.38,5.39-21.82,21.82L8.79,32.39c-2.45-2.45-3.79-5.7-3.79-9.16,0-3.45,1.35-6.69,3.79-9.13,2.44-2.44,5.69-3.79,9.15-3.79s6.7,1.34,9.13,3.79l5.4,5.4,3.54,3.54,3.54-3.55,5.38-5.39c2.44-2.44,5.69-3.79,9.15-3.79m0-5c-4.59,0-9.18,1.75-12.68,5.26l-5.38,5.4-5.4-5.4c-3.49-3.5-8.09-5.26-12.67-5.26s-9.18,1.75-12.69,5.26c-7.01,6.99-7.01,18.35,0,25.36l30.75,30.75,25.36-25.36,5.38-5.4c3.5-3.5,5.26-8.09,5.26-12.69s-1.75-9.17-5.26-12.67c-3.5-3.5-8.08-5.26-12.67-5.26h0Z"/>
</svg>