<?xml version="1.0" encoding="UTF-8"?>
<svg id="Layer_1" data-name="Layer 1" xmlns="http://www.w3.org/2000/svg" viewBox="0 0 144 144">
  <defs>
    <style>
      .cls-1 {
        fill: #3198ff;
      }

      .cls-1, .cls-2, .cls-3, .cls-4, .cls-5, .cls-6, .cls-7, .cls-8 {
        stroke: #000;
        stroke-miterlimit: 10;
      }

      .cls-2, .cls-7 {
        fill: none;
      }

      .cls-4 {
        fill: #fff3d2;
      }

      .cls-5 {
        fill: #ffda40;
      }

      .cls-6 {
        fill: #6925a5;
      }

      .cls-7 {
        stroke-width: 5px;
      }

      .cls-8 {
        fill: #b2982b;
      }
    </style>
  </defs>
  <ellipse class="cls-6" cx="70.43" cy="106.74" rx="34.51" ry="25.38" transform="translate(-57.23 114.36) rotate(-60)"/>
  <g>
    <polygon points="33.32 138.07 34.46 140.56 28.57 141.76 22.68 142.95 27.43 139.27 32.17 135.58 33.32 138.07"/>
    <polyline class="cls-7" points="44.81 114.38 29.33 119.1 30.53 138.57"/>
  </g>
  <g>
    <polygon points="26.74 136.75 27.88 139.25 21.99 140.44 16.1 141.63 20.85 137.95 25.6 134.26 26.74 136.75"/>
    <polyline class="cls-7" points="38.24 113.07 22.76 117.78 23.95 137.25"/>
  </g>
  <polyline class="cls-7" points="26.89 76.14 34.98 90.15 48.99 82.06"/>
  <path class="cls-5" d="M90.58,52.48h5.1l-2.55-15.86-2.55-15.86-2.55,15.86-.07,.46-1.71-10.61-1.34,8.34-.35-2.18-2.55-15.86-2.33,14.5-1.72-10.73-1.55,9.66-.41-2.57-2.55-15.86-2.55,15.86-.4,2.47-1.54-9.56-1.74,10.83-2.35-14.6-2.55,15.86-.54,3.34-1.53-9.5-1.52,9.45-2.44-15.16-2.55,15.86-2.55,15.86h4.87l-.92,5.7h10.2l-.95-5.93h17.71l-.95,5.93h10.2l-.92-5.7h.15Zm-26.79-4h.67l-.33,2.08-.33-2.08Zm9.66,.04l-.81-5.04h1.62l-.81,5.04Zm8.99-.04h.26l-.13,.82-.13-.82Z"/>
  <circle class="cls-1" cx="50.62" cy="80.64" r="10.63"/>
  <circle class="cls-3" cx="52.24" cy="55.97" r="4.08"/>
  <path class="cls-8" d="M101.14,36.38V110.42H31.27v32.16H125.13V60.37c0-13.25-10.74-23.99-23.99-23.99Z"/>
  <path class="cls-4" d="M52.44,57.15c-2.42,0-4.38,1.96-4.38,4.38s1.96,4.38,4.38,4.38"/>
  <rect class="cls-4" x="52.44" y="38.12" width="41.83" height="45.67" rx="17.67" ry="17.67" transform="translate(146.72 121.92) rotate(-180)"/>
  <path class="cls-3" d="M66.92,70.79s1.69,1.79,4.18,2.46,4.85-.06,4.85-.06c0,0-1.69-1.79-4.18-2.46s-4.85,.06-4.85,.06Z"/>
  <path class="cls-3" d="M65.46,70.79s-1.37,1.45-3.39,1.99-3.93-.05-3.93-.05c0,0,1.37-1.45,3.39-1.99s3.93,.05,3.93,.05Z"/>
  <path class="cls-4" d="M69.73,68.17c-.48,.71-1.13,1.38-1.92,1.94-2.69,1.9-6.01,1.82-7.42-.17s-.37-5.15,2.31-7.05c.79-.56,1.63-.94,2.47-1.16"/>
  <path d="M71.76,55.59s2.45-1.6,6.11-1.6c3.66,0,6.11,1.6,6.11,1.6,0,0-2.45-3.46-6.11-3.46s-6.11,3.46-6.11,3.46Z"/>
  <path class="cls-2" d="M81.49,59.55c0-2-1.62-3.62-3.62-3.62s-3.62,1.62-3.62,3.62"/>
  <circle cx="77.87" cy="58.96" r="1.63"/>
  <path d="M53.66,55.61s2.25-1.47,5.62-1.47,5.62,1.47,5.62,1.47c0,0-2.25-3.18-5.62-3.18s-5.62,3.18-5.62,3.18Z"/>
  <path class="cls-2" d="M62.61,59.09c0-1.84-1.49-3.33-3.33-3.33s-3.33,1.49-3.33,3.33"/>
  <circle cx="59.28" cy="58.55" r="1.5"/>
  <path class="cls-3" d="M65.82,75.9h5.64c.11,0,.18,.12,.13,.22l-2.82,4.88-1.27,2.2c-.75,1.29-2.61,1.29-3.36,0l-1.27-2.2-2.82-4.88c-.06-.1,.01-.22,.13-.22h5.64Z"/>
  <path class="cls-4" d="M93.28,66.74c2.87,0,5.2-2.33,5.2-5.2s-2.33-5.2-5.2-5.2"/>
  <circle class="cls-3" cx="67.27" cy="38.42" r="5.14"/>
  <circle class="cls-3" cx="77.36" cy="38.17" r="5.14"/>
  <circle class="cls-3" cx="85.99" cy="40.82" r="4.08"/>
  <circle class="cls-3" cx="94.18" cy="54.39" r="4.08"/>
  <circle class="cls-3" cx="91.7" cy="46.68" r="4.08"/>
  <circle class="cls-3" cx="58.67" cy="41.93" r="4.08"/>
  <circle class="cls-3" cx="53.53" cy="48.36" r="4.08"/>
  <rect class="cls-5" x="21.29" y="102.6" width="101.73" height="14.93" rx="7.46" ry="7.46"/>
  <polyline class="cls-7" points="76.49 103.97 92.67 103.97 92.67 87.79"/>
  <circle class="cls-1" cx="92.66" cy="82.38" r="12.41"/>
  <circle class="cls-4" cx="26.82" cy="75.98" r="3.82"/>
  <circle class="cls-4" cx="74.23" cy="104.03" r="3.82"/>
</svg>