<?xml version="1.0" encoding="UTF-8"?>
<svg id="Layer_1" data-name="Layer 1" xmlns="http://www.w3.org/2000/svg" xmlns:xlink="http://www.w3.org/1999/xlink" viewBox="0 0 72 72">
  <defs>
    <style>
      .cls-1 {
        fill: #dac3ad;
      }

      .cls-2 {
        fill: #bfa082;
      }

      .cls-3 {
        fill: #b98c63;
      }

      .cls-4 {
        fill: #ac7a4d;
      }

      .cls-5 {
        clip-path: url(#clippath);
      }

      .cls-6 {
        fill: #bb9a7a;
      }

      .cls-7 {
        fill: none;
      }

      .cls-8 {
        fill: #ceae91;
      }
    </style>
    <clipPath id="clippath">
      <rect class="cls-7" x="-36.05" width="27.05" height="27.26"/>
    </clipPath>
  </defs>
  <g class="cls-5">
    <circle class="cls-6" cx="-9" r="10.54"/>
    <path class="cls-2" d="M-9-8.54C-4.29-8.54-.46-4.71-.46,0s-3.83,8.54-8.54,8.54S-17.54,4.71-17.54,0s3.83-8.54,8.54-8.54m0-2c-5.82,0-10.54,4.72-10.54,10.54s4.72,10.54,10.54,10.54S1.54,5.82,1.54,0-3.18-10.54-9-10.54h0Z"/>
  </g>
  <g>
    <path class="cls-3" d="M72,72H0V0H72V72Z"/>
    <path class="cls-8" d="M72,26C44.29,11.58,27.71,40.42,0,26V12c25.52,6.97,46.48-6.97,72,0v14Z"/>
    <path class="cls-1" d="M72,13C46.29,5.46,25.71,20.54,0,13V5c24.34,2.94,47.66-2.94,72,0V13Z"/>
    <path class="cls-4" d="M72,70c-24.06-1.19-47.94,1.19-72,0v-8c25.14,5.82,46.86-5.82,72,0v8Z"/>
    <path class="cls-8" d="M72,42C43.98,25.83,28.02,58.17,0,42v-6c27.61,19.38,44.39-19.38,72,0v6Z"/>
    <path class="cls-8" d="M72,60c-25.52-6.97-46.48,6.97-72,0v-16c27.89,15.32,44.11-15.32,72,0v16Z"/>
    <path class="cls-4" d="M72,36.5C44.38,17.29,27.62,55.71,0,36.5v-5c28.09,16.76,43.91-16.76,72,0v5Z"/>
  </g>
</svg>