<?xml version="1.0" encoding="UTF-8"?>
<svg id="Layer_1" data-name="Layer 1" xmlns="http://www.w3.org/2000/svg" viewBox="0 0 72 72">
  <defs>
    <style>
      .cls-1 {
        fill: #cbb299;
      }

      .cls-2 {
        fill: #97683f;
      }

      .cls-3 {
        fill: #bfa082;
      }

      .cls-4 {
        fill: none;
        stroke: #653a13;
        stroke-miterlimit: 10;
        stroke-width: .5px;
      }

      .cls-5 {
        fill: #64452a;
      }

      .cls-6 {
        fill: #bb9a7a;
      }

      .cls-7 {
        fill: #7d5734;
      }

      .cls-8 {
        fill: #8d623b;
      }
    </style>
  </defs>
  <rect class="cls-8" y="53.67" width="72" height="18.33"/>
  <rect class="cls-6" width="72" height="18.33"/>
  <path class="cls-3" d="M54,23.24c-5.64,0-8.7-1.48-11.16-2.67-2.02-.97-3.47-1.68-6.84-1.68s-4.82,.7-6.84,1.68c-2.46,1.19-5.53,2.67-11.16,2.67s-8.7-1.48-11.16-2.67c-2.02-.97-3.47-1.68-6.84-1.68V8.84c5.64,0,8.7,1.48,11.16,2.67,2.02,.97,3.47,1.68,6.84,1.68s4.82-.7,6.84-1.68c2.46-1.19,5.53-2.67,11.16-2.67s8.7,1.48,11.16,2.67c2.02,.97,3.47,1.68,6.84,1.68s4.82-.7,6.84-1.68c2.46-1.19,5.53-2.67,11.16-2.67v10.06c-3.36,0-4.82,.7-6.84,1.68-2.46,1.19-5.53,2.67-11.16,2.67Z"/>
  <path class="cls-8" d="M54,25.24c-5.64,0-8.7-1.48-11.16-2.67-2.02-.97-3.47-1.68-6.84-1.68s-4.82,.7-6.84,1.68c-2.46,1.19-5.53,2.67-11.16,2.67s-8.7-1.48-11.16-2.67c-2.02-.97-3.47-1.68-6.84-1.68V10.84c5.64,0,8.7,1.48,11.16,2.67,2.02,.97,3.47,1.68,6.84,1.68s4.82-.7,6.84-1.68c2.46-1.19,5.53-2.67,11.16-2.67s8.7,1.48,11.16,2.67c2.02,.97,3.47,1.68,6.84,1.68s4.82-.7,6.84-1.68c2.46-1.19,5.53-2.67,11.16-2.67v10.06c-3.36,0-4.82,.7-6.84,1.68-2.46,1.19-5.53,2.67-11.16,2.67Z"/>
  <path class="cls-7" d="M54,34.59c-5.64,0-8.7-1.48-11.16-2.67-2.02-.97-3.47-1.68-6.84-1.68s-4.82,.7-6.84,1.68c-2.46,1.19-5.53,2.67-11.16,2.67s-8.7-1.48-11.16-2.67c-2.02-.97-3.47-1.68-6.84-1.68v-10.06c5.64,0,8.7,1.48,11.16,2.67,2.02,.97,3.47,1.68,6.84,1.68s4.82-.7,6.84-1.68c2.46-1.19,5.53-2.67,11.16-2.67s8.7,1.48,11.16,2.67c2.02,.97,3.47,1.68,6.84,1.68s4.82-.7,6.84-1.68c2.46-1.19,5.53-2.67,11.16-2.67v10.06c-3.36,0-4.82,.7-6.84,1.68-2.46,1.19-5.53,2.67-11.16,2.67Z"/>
  <path class="cls-5" d="M54,43.94c-5.64,0-8.7-1.48-11.16-2.67-2.02-.97-3.47-1.68-6.84-1.68s-4.82,.7-6.84,1.68c-2.46,1.19-5.53,2.67-11.16,2.67s-8.7-1.48-11.16-2.67c-2.02-.97-3.47-1.68-6.84-1.68v-10.06c5.64,0,8.7,1.48,11.16,2.67,2.02,.97,3.47,1.68,6.84,1.68s4.82-.7,6.84-1.68c2.46-1.19,5.53-2.67,11.16-2.67s8.7,1.48,11.16,2.67c2.02,.97,3.47,1.68,6.84,1.68s4.82-.7,6.84-1.68c2.46-1.19,5.53-2.67,11.16-2.67v10.06c-3.36,0-4.82,.7-6.84,1.68-2.46,1.19-5.53,2.67-11.16,2.67Z"/>
  <path class="cls-2" d="M54,53.3c-5.64,0-8.7-1.48-11.16-2.67-2.02-.97-3.47-1.68-6.84-1.68s-4.82,.7-6.84,1.68c-2.46,1.19-5.53,2.67-11.16,2.67s-8.7-1.48-11.16-2.67c-2.02-.97-3.47-1.68-6.84-1.68v-10.06c5.64,0,8.7,1.48,11.16,2.67,2.02,.97,3.47,1.68,6.84,1.68s4.82-.7,6.84-1.68c2.46-1.19,5.53-2.67,11.16-2.67s8.7,1.48,11.16,2.67c2.02,.97,3.47,1.68,6.84,1.68s4.82-.7,6.84-1.68c2.46-1.19,5.53-2.67,11.16-2.67v10.06c-3.36,0-4.82,.7-6.84,1.68-2.46,1.19-5.53,2.67-11.16,2.67Z"/>
  <path class="cls-7" d="M54,62.65c-5.64,0-8.7-1.48-11.16-2.67-2.02-.97-3.47-1.68-6.84-1.68s-4.82,.7-6.84,1.68c-2.46,1.19-5.53,2.67-11.16,2.67s-8.7-1.48-11.16-2.67c-2.02-.97-3.47-1.68-6.84-1.68v-10.06c5.64,0,8.7,1.48,11.16,2.67,2.02,.97,3.47,1.68,6.84,1.68s4.82-.7,6.84-1.68c2.46-1.19,5.53-2.67,11.16-2.67s8.7,1.48,11.16,2.67c2.02,.97,3.47,1.68,6.84,1.68s4.82-.7,6.84-1.68c2.46-1.19,5.53-2.67,11.16-2.67v10.06c-3.36,0-4.82,.7-6.84,1.68-2.46,1.19-5.53,2.67-11.16,2.67Z"/>
  <path class="cls-5" d="M54,72c-5.64,0-8.7-1.48-11.16-2.67-2.02-.97-3.47-1.68-6.84-1.68s-4.82,.7-6.84,1.68c-2.46,1.19-5.53,2.67-11.16,2.67s-8.7-1.48-11.16-2.67c-2.02-.97-3.47-1.68-6.84-1.68v-10.06c5.64,0,8.7,1.48,11.16,2.67,2.02,.97,3.47,1.68,6.84,1.68s4.82-.7,6.84-1.68c2.46-1.19,5.53-2.67,11.16-2.67s8.7,1.48,11.16,2.67c2.02,.97,3.47,1.68,6.84,1.68s4.82-.7,6.84-1.68c2.46-1.19,5.53-2.67,11.16-2.67v10.06c-3.36,0-4.82,.7-6.84,1.68-2.46,1.19-5.53,2.67-11.16,2.67Z"/>
  <rect class="cls-1" x="0" width="72" height="2.26"/>
  <polygon class="cls-4" points="14.78 4.33 11.25 4.18 10.02 7.49 12.78 9.69 15.73 7.74 14.78 4.33"/>
  <polygon class="cls-4" points="48.44 6.28 47.27 4.67 45.37 5.28 45.37 7.28 47.27 7.9 48.44 6.28"/>
  <polygon class="cls-4" points="56.24 8.08 53.33 6.99 51.39 9.43 53.11 12.02 56.11 11.18 56.24 8.08"/>
</svg>