<?xml version="1.0" encoding="UTF-8"?>
<svg id="Layer_1" data-name="Layer 1" xmlns="http://www.w3.org/2000/svg" xmlns:xlink="http://www.w3.org/1999/xlink" viewBox="0 0 72 72">
  <defs>
    <style>
      .cls-1 {
        fill: #cbb299;
      }

      .cls-2 {
        clip-path: url(#clippath-2);
      }

      .cls-3 {
        fill: #97683f;
      }

      .cls-4 {
        fill: #bfa082;
      }

      .cls-5 {
        clip-path: url(#clippath-1);
      }

      .cls-6 {
        fill: #64452a;
      }

      .cls-7 {
        clip-path: url(#clippath);
      }

      .cls-8 {
        fill: #bb9a7a;
      }

      .cls-9 {
        fill: none;
      }

      .cls-10 {
        fill: #7d5734;
      }

      .cls-11 {
        fill: #8d623b;
      }
    </style>
    <clipPath id="clippath">
      <path class="cls-9" d="M72,72V0H0V25.46H0c4.19,45.21,72,46.54,72,46.54Z"/>
    </clipPath>
    <clipPath id="clippath-1">
      <path class="cls-9" d="M0,0H72V58.5c0,7.45-6.05,13.5-13.5,13.5H0V0H0Z" transform="translate(72 72) rotate(180)"/>
    </clipPath>
    <clipPath id="clippath-2">
      <rect class="cls-9" y="81" width="30.16" height="27.1"/>
    </clipPath>
  </defs>
  <g class="cls-7">
    <g class="cls-5">
      <g>
        <rect class="cls-11" y="53.67" width="72" height="18.33"/>
        <rect class="cls-8" width="72" height="18.33"/>
        <path class="cls-4" d="M54,23.24c-5.64,0-8.7-1.48-11.16-2.67-2.02-.97-3.47-1.68-6.84-1.68s-4.82,.7-6.84,1.68c-2.46,1.19-5.53,2.67-11.16,2.67s-8.7-1.48-11.16-2.67c-2.02-.97-3.47-1.68-6.84-1.68V8.84c5.64,0,8.7,1.48,11.16,2.67,2.02,.97,3.47,1.68,6.84,1.68s4.82-.7,6.84-1.68c2.46-1.19,5.53-2.67,11.16-2.67s8.7,1.48,11.16,2.67c2.02,.97,3.47,1.68,6.84,1.68s4.82-.7,6.84-1.68c2.46-1.19,5.53-2.67,11.16-2.67v10.06c-3.36,0-4.82,.7-6.84,1.68-2.46,1.19-5.53,2.67-11.16,2.67Z"/>
        <path class="cls-11" d="M54,25.24c-5.64,0-8.7-1.48-11.16-2.67-2.02-.97-3.47-1.68-6.84-1.68s-4.82,.7-6.84,1.68c-2.46,1.19-5.53,2.67-11.16,2.67s-8.7-1.48-11.16-2.67c-2.02-.97-3.47-1.68-6.84-1.68V10.84c5.64,0,8.7,1.48,11.16,2.67,2.02,.97,3.47,1.68,6.84,1.68s4.82-.7,6.84-1.68c2.46-1.19,5.53-2.67,11.16-2.67s8.7,1.48,11.16,2.67c2.02,.97,3.47,1.68,6.84,1.68s4.82-.7,6.84-1.68c2.46-1.19,5.53-2.67,11.16-2.67v10.06c-3.36,0-4.82,.7-6.84,1.68-2.46,1.19-5.53,2.67-11.16,2.67Z"/>
        <path class="cls-10" d="M54,34.59c-5.64,0-8.7-1.48-11.16-2.67-2.02-.97-3.47-1.68-6.84-1.68s-4.82,.7-6.84,1.68c-2.46,1.19-5.53,2.67-11.16,2.67s-8.7-1.48-11.16-2.67c-2.02-.97-3.47-1.68-6.84-1.68v-10.06c5.64,0,8.7,1.48,11.16,2.67,2.02,.97,3.47,1.68,6.84,1.68s4.82-.7,6.84-1.68c2.46-1.19,5.53-2.67,11.16-2.67s8.7,1.48,11.16,2.67c2.02,.97,3.47,1.68,6.84,1.68s4.82-.7,6.84-1.68c2.46-1.19,5.53-2.67,11.16-2.67v10.06c-3.36,0-4.82,.7-6.84,1.68-2.46,1.19-5.53,2.67-11.16,2.67Z"/>
        <path class="cls-6" d="M54,43.94c-5.64,0-8.7-1.48-11.16-2.67-2.02-.97-3.47-1.68-6.84-1.68s-4.82,.7-6.84,1.68c-2.46,1.19-5.53,2.67-11.16,2.67s-8.7-1.48-11.16-2.67c-2.02-.97-3.47-1.68-6.84-1.68v-10.06c5.64,0,8.7,1.48,11.16,2.67,2.02,.97,3.47,1.68,6.84,1.68s4.82-.7,6.84-1.68c2.46-1.19,5.53-2.67,11.16-2.67s8.7,1.48,11.16,2.67c2.02,.97,3.47,1.68,6.84,1.68s4.82-.7,6.84-1.68c2.46-1.19,5.53-2.67,11.16-2.67v10.06c-3.36,0-4.82,.7-6.84,1.68-2.46,1.19-5.53,2.67-11.16,2.67Z"/>
        <path class="cls-3" d="M54,53.3c-5.64,0-8.7-1.48-11.16-2.67-2.02-.97-3.47-1.68-6.84-1.68s-4.82,.7-6.84,1.68c-2.46,1.19-5.53,2.67-11.16,2.67s-8.7-1.48-11.16-2.67c-2.02-.97-3.47-1.68-6.84-1.68v-10.06c5.64,0,8.7,1.48,11.16,2.67,2.02,.97,3.47,1.68,6.84,1.68s4.82-.7,6.84-1.68c2.46-1.19,5.53-2.67,11.16-2.67s8.7,1.48,11.16,2.67c2.02,.97,3.47,1.68,6.84,1.68s4.82-.7,6.84-1.68c2.46-1.19,5.53-2.67,11.16-2.67v10.06c-3.36,0-4.82,.7-6.84,1.68-2.46,1.19-5.53,2.67-11.16,2.67Z"/>
        <path class="cls-10" d="M54,62.65c-5.64,0-8.7-1.48-11.16-2.67-2.02-.97-3.47-1.68-6.84-1.68s-4.82,.7-6.84,1.68c-2.46,1.19-5.53,2.67-11.16,2.67s-8.7-1.48-11.16-2.67c-2.02-.97-3.47-1.68-6.84-1.68v-10.06c5.64,0,8.7,1.48,11.16,2.67,2.02,.97,3.47,1.68,6.84,1.68s4.82-.7,6.84-1.68c2.46-1.19,5.53-2.67,11.16-2.67s8.7,1.48,11.16,2.67c2.02,.97,3.47,1.68,6.84,1.68s4.82-.7,6.84-1.68c2.46-1.19,5.53-2.67,11.16-2.67v10.06c-3.36,0-4.82,.7-6.84,1.68-2.46,1.19-5.53,2.67-11.16,2.67Z"/>
        <path class="cls-6" d="M54,72c-5.64,0-8.7-1.48-11.16-2.67-2.02-.97-3.47-1.68-6.84-1.68s-4.82,.7-6.84,1.68c-2.46,1.19-5.53,2.67-11.16,2.67s-8.7-1.48-11.16-2.67c-2.02-.97-3.47-1.68-6.84-1.68v-10.06c5.64,0,8.7,1.48,11.16,2.67,2.02,.97,3.47,1.68,6.84,1.68s4.82-.7,6.84-1.68c2.46-1.19,5.53-2.67,11.16-2.67s8.7,1.48,11.16,2.67c2.02,.97,3.47,1.68,6.84,1.68s4.82-.7,6.84-1.68c2.46-1.19,5.53-2.67,11.16-2.67v10.06c-3.36,0-4.82,.7-6.84,1.68-2.46,1.19-5.53,2.67-11.16,2.67Z"/>
        <path class="cls-1" d="M10.99,2.3C6.77,2.71,2.71,5.76,.8,10.46c-.37,.9-.63,1.81-.8,2.73V0H72V2.26H10.96s.02,.02,.03,.03Z"/>
      </g>
    </g>
  </g>
  <g class="cls-2">
    <circle class="cls-8" cy="81.3" r="10.54"/>
    <path class="cls-4" d="M0,72.75c4.71,0,8.54,3.83,8.54,8.54s-3.83,8.54-8.54,8.54-8.54-3.83-8.54-8.54,3.83-8.54,8.54-8.54m0-2c-5.82,0-10.54,4.72-10.54,10.54s4.72,10.54,10.54,10.54,10.54-4.72,10.54-10.54-4.72-10.54-10.54-10.54H0Z"/>
  </g>
</svg>