<?xml version="1.0" encoding="UTF-8"?>
<svg id="Layer_1" data-name="Layer 1" xmlns="http://www.w3.org/2000/svg" viewBox="0 0 72 72">
  <defs>
    <style>
      .cls-1 {
        fill: #cbb299;
      }

      .cls-2 {
        fill: #97683f;
      }

      .cls-3 {
        fill: #bfa082;
      }

      .cls-4 {
        fill: none;
        stroke: #653a13;
        stroke-miterlimit: 10;
        stroke-width: .5px;
      }

      .cls-5 {
        fill: #64452a;
      }

      .cls-6 {
        fill: #bb9a7a;
      }

      .cls-7 {
        fill: #7d5734;
      }

      .cls-8 {
        fill: #8d623b;
      }
    </style>
  </defs>
  <rect class="cls-8" y="53.67" width="72" height="18.33"/>
  <rect class="cls-6" width="72" height="18.33"/>
  <path class="cls-3" d="M54,23.24c-5.64,0-8.7-1.48-11.16-2.67-2.02-.97-3.47-1.68-6.84-1.68s-4.82,.7-6.84,1.68c-2.46,1.19-5.53,2.67-11.16,2.67s-8.7-1.48-11.16-2.67c-2.02-.97-3.47-1.68-6.84-1.68V8.84c5.64,0,8.7,1.48,11.16,2.67,2.02,.97,3.47,1.68,6.84,1.68s4.82-.7,6.84-1.68c2.46-1.19,5.53-2.67,11.16-2.67s8.7,1.48,11.16,2.67c2.02,.97,3.47,1.68,6.84,1.68s4.82-.7,6.84-1.68c2.46-1.19,5.53-2.67,11.16-2.67v10.06c-3.36,0-4.82,.7-6.84,1.68-2.46,1.19-5.53,2.67-11.16,2.67Z"/>
  <path class="cls-8" d="M54,25.24c-5.64,0-8.7-1.48-11.16-2.67-2.02-.97-3.47-1.68-6.84-1.68s-4.82,.7-6.84,1.68c-2.46,1.19-5.53,2.67-11.16,2.67s-8.7-1.48-11.16-2.67c-2.02-.97-3.47-1.68-6.84-1.68V10.84c5.64,0,8.7,1.48,11.16,2.67,2.02,.97,3.47,1.68,6.84,1.68s4.82-.7,6.84-1.68c2.46-1.19,5.53-2.67,11.16-2.67s8.7,1.48,11.16,2.67c2.02,.97,3.47,1.68,6.84,1.68s4.82-.7,6.84-1.68c2.46-1.19,5.53-2.67,11.16-2.67v10.06c-3.36,0-4.82,.7-6.84,1.68-2.46,1.19-5.53,2.67-11.16,2.67Z"/>
  <path class="cls-7" d="M54,34.59c-5.64,0-8.7-1.48-11.16-2.67-2.02-.97-3.47-1.68-6.84-1.68s-4.82,.7-6.84,1.68c-2.46,1.19-5.53,2.67-11.16,2.67s-8.7-1.48-11.16-2.67c-2.02-.97-3.47-1.68-6.84-1.68v-10.06c5.64,0,8.7,1.48,11.16,2.67,2.02,.97,3.47,1.68,6.84,1.68s4.82-.7,6.84-1.68c2.46-1.19,5.53-2.67,11.16-2.67s8.7,1.48,11.16,2.67c2.02,.97,3.47,1.68,6.84,1.68s4.82-.7,6.84-1.68c2.46-1.19,5.53-2.67,11.16-2.67v10.06c-3.36,0-4.82,.7-6.84,1.68-2.46,1.19-5.53,2.67-11.16,2.67Z"/>
  <path class="cls-5" d="M54,43.94c-5.64,0-8.7-1.48-11.16-2.67-2.02-.97-3.47-1.68-6.84-1.68s-4.82,.7-6.84,1.68c-2.46,1.19-5.53,2.67-11.16,2.67s-8.7-1.48-11.16-2.67c-2.02-.97-3.47-1.68-6.84-1.68v-10.06c5.64,0,8.7,1.48,11.16,2.67,2.02,.97,3.47,1.68,6.84,1.68s4.82-.7,6.84-1.68c2.46-1.19,5.53-2.67,11.16-2.67s8.7,1.48,11.16,2.67c2.02,.97,3.47,1.68,6.84,1.68s4.82-.7,6.84-1.68c2.46-1.19,5.53-2.67,11.16-2.67v10.06c-3.36,0-4.82,.7-6.84,1.68-2.46,1.19-5.53,2.67-11.16,2.67Z"/>
  <path class="cls-2" d="M54,53.3c-5.64,0-8.7-1.48-11.16-2.67-2.02-.97-3.47-1.68-6.84-1.68s-4.82,.7-6.84,1.68c-2.46,1.19-5.53,2.67-11.16,2.67s-8.7-1.48-11.16-2.67c-2.02-.97-3.47-1.68-6.84-1.68v-10.06c5.64,0,8.7,1.48,11.16,2.67,2.02,.97,3.47,1.68,6.84,1.68s4.82-.7,6.84-1.68c2.46-1.19,5.53-2.67,11.16-2.67s8.7,1.48,11.16,2.67c2.02,.97,3.47,1.68,6.84,1.68s4.82-.7,6.84-1.68c2.46-1.19,5.53-2.67,11.16-2.67v10.06c-3.36,0-4.82,.7-6.84,1.68-2.46,1.19-5.53,2.67-11.16,2.67Z"/>
  <path class="cls-7" d="M54,62.65c-5.64,0-8.7-1.48-11.16-2.67-2.02-.97-3.47-1.68-6.84-1.68s-4.82,.7-6.84,1.68c-2.46,1.19-5.53,2.67-11.16,2.67s-8.7-1.48-11.16-2.67c-2.02-.97-3.47-1.68-6.84-1.68v-10.06c5.64,0,8.7,1.48,11.16,2.67,2.02,.97,3.47,1.68,6.84,1.68s4.82-.7,6.84-1.68c2.46-1.19,5.53-2.67,11.16-2.67s8.7,1.48,11.16,2.67c2.02,.97,3.47,1.68,6.84,1.68s4.82-.7,6.84-1.68c2.46-1.19,5.53-2.67,11.16-2.67v10.06c-3.36,0-4.82,.7-6.84,1.68-2.46,1.19-5.53,2.67-11.16,2.67Z"/>
  <path class="cls-5" d="M54,72c-5.64,0-8.7-1.48-11.16-2.67-2.02-.97-3.47-1.68-6.84-1.68s-4.82,.7-6.84,1.68c-2.46,1.19-5.53,2.67-11.16,2.67s-8.7-1.48-11.16-2.67c-2.02-.97-3.47-1.68-6.84-1.68v-10.06c5.64,0,8.7,1.48,11.16,2.67,2.02,.97,3.47,1.68,6.84,1.68s4.82-.7,6.84-1.68c2.46-1.19,5.53-2.67,11.16-2.67s8.7,1.48,11.16,2.67c2.02,.97,3.47,1.68,6.84,1.68s4.82-.7,6.84-1.68c2.46-1.19,5.53-2.67,11.16-2.67v10.06c-3.36,0-4.82,.7-6.84,1.68-2.46,1.19-5.53,2.67-11.16,2.67Z"/>
  <rect class="cls-1" x="0" width="72" height="2.26"/>
  <g>
    <path class="cls-4" d="M56.17,7.39c-1.19,1.29-2.83,1.7-3.67,.93s-.54-2.44,.65-3.73,3.67-.93,3.67-.93c0,0,.54,2.44-.65,3.73Z"/>
    <line class="cls-4" x1="56.83" y1="3.66" x2="52.53" y2="8.3"/>
    <line class="cls-4" x1="53.46" y1="7.27" x2="56.34" y2="7.16"/>
    <line class="cls-4" x1="54.84" y1="5.77" x2="56.89" y2="5.7"/>
    <line class="cls-4" x1="54.02" y1="6.57" x2="53.93" y2="4.04"/>
    <line class="cls-4" x1="56.04" y1="4.41" x2="56.02" y2="3.64"/>
  </g>
  <polygon class="cls-4" points="21.28 8.65 20.54 6.79 18.55 6.91 18.05 8.85 19.74 9.92 21.28 8.65"/>
  <polygon class="cls-4" points="14.81 7.08 12.26 5.31 9.78 7.18 10.8 10.12 13.9 10.06 14.81 7.08"/>
</svg>