<?xml version="1.0" encoding="UTF-8"?>
<svg id="Layer_1" data-name="Layer 1" xmlns="http://www.w3.org/2000/svg" viewBox="0 0 72 72">
  <defs>
    <style>
      .cls-1 {
        fill: #cbb299;
      }

      .cls-2 {
        fill: #97683f;
      }

      .cls-3 {
        fill: #bfa082;
      }

      .cls-4 {
        fill: none;
        stroke: #653a13;
        stroke-miterlimit: 10;
        stroke-width: .5px;
      }

      .cls-5 {
        fill: #64452a;
      }

      .cls-6 {
        fill: #bb9a7a;
      }

      .cls-7 {
        fill: #7d5734;
      }

      .cls-8 {
        fill: #8d623b;
      }
    </style>
  </defs>
  <rect class="cls-8" y="53.67" width="72" height="18.33"/>
  <rect class="cls-6" width="72" height="18.33"/>
  <path class="cls-3" d="M54,23.24c-5.64,0-8.7-1.48-11.16-2.67-2.02-.97-3.47-1.68-6.84-1.68s-4.82,.7-6.84,1.68c-2.46,1.19-5.53,2.67-11.16,2.67s-8.7-1.48-11.16-2.67c-2.02-.97-3.47-1.68-6.84-1.68V8.84c5.64,0,8.7,1.48,11.16,2.67,2.02,.97,3.47,1.68,6.84,1.68s4.82-.7,6.84-1.68c2.46-1.19,5.53-2.67,11.16-2.67s8.7,1.48,11.16,2.67c2.02,.97,3.47,1.68,6.84,1.68s4.82-.7,6.84-1.68c2.46-1.19,5.53-2.67,11.16-2.67v10.06c-3.36,0-4.82,.7-6.84,1.68-2.46,1.19-5.53,2.67-11.16,2.67Z"/>
  <path class="cls-8" d="M54,25.24c-5.64,0-8.7-1.48-11.16-2.67-2.02-.97-3.47-1.68-6.84-1.68s-4.82,.7-6.84,1.68c-2.46,1.19-5.53,2.67-11.16,2.67s-8.7-1.48-11.16-2.67c-2.02-.97-3.47-1.68-6.84-1.68V10.84c5.64,0,8.7,1.48,11.16,2.67,2.02,.97,3.47,1.68,6.84,1.68s4.82-.7,6.84-1.68c2.46-1.19,5.53-2.67,11.16-2.67s8.7,1.48,11.16,2.67c2.02,.97,3.47,1.68,6.84,1.68s4.82-.7,6.84-1.68c2.46-1.19,5.53-2.67,11.16-2.67v10.06c-3.36,0-4.82,.7-6.84,1.68-2.46,1.19-5.53,2.67-11.16,2.67Z"/>
  <path class="cls-7" d="M54,34.59c-5.64,0-8.7-1.48-11.16-2.67-2.02-.97-3.47-1.68-6.84-1.68s-4.82,.7-6.84,1.68c-2.46,1.19-5.53,2.67-11.16,2.67s-8.7-1.48-11.16-2.67c-2.02-.97-3.47-1.68-6.84-1.68v-10.06c5.64,0,8.7,1.48,11.16,2.67,2.02,.97,3.47,1.68,6.84,1.68s4.82-.7,6.84-1.68c2.46-1.19,5.53-2.67,11.16-2.67s8.7,1.48,11.16,2.67c2.02,.97,3.47,1.68,6.84,1.68s4.82-.7,6.84-1.68c2.46-1.19,5.53-2.67,11.16-2.67v10.06c-3.36,0-4.82,.7-6.84,1.68-2.46,1.19-5.53,2.67-11.16,2.67Z"/>
  <path class="cls-5" d="M54,43.94c-5.64,0-8.7-1.48-11.16-2.67-2.02-.97-3.47-1.68-6.84-1.68s-4.82,.7-6.84,1.68c-2.46,1.19-5.53,2.67-11.16,2.67s-8.7-1.48-11.16-2.67c-2.02-.97-3.47-1.68-6.84-1.68v-10.06c5.64,0,8.7,1.48,11.16,2.67,2.02,.97,3.47,1.68,6.84,1.68s4.82-.7,6.84-1.68c2.46-1.19,5.53-2.67,11.16-2.67s8.7,1.48,11.16,2.67c2.02,.97,3.47,1.68,6.84,1.68s4.82-.7,6.84-1.68c2.46-1.19,5.53-2.67,11.16-2.67v10.06c-3.36,0-4.82,.7-6.84,1.68-2.46,1.19-5.53,2.67-11.16,2.67Z"/>
  <path class="cls-2" d="M54,53.3c-5.64,0-8.7-1.48-11.16-2.67-2.02-.97-3.47-1.68-6.84-1.68s-4.82,.7-6.84,1.68c-2.46,1.19-5.53,2.67-11.16,2.67s-8.7-1.48-11.16-2.67c-2.02-.97-3.47-1.68-6.84-1.68v-10.06c5.64,0,8.7,1.48,11.16,2.67,2.02,.97,3.47,1.68,6.84,1.68s4.82-.7,6.84-1.68c2.46-1.19,5.53-2.67,11.16-2.67s8.7,1.48,11.16,2.67c2.02,.97,3.47,1.68,6.84,1.68s4.82-.7,6.84-1.68c2.46-1.19,5.53-2.67,11.16-2.67v10.06c-3.36,0-4.82,.7-6.84,1.68-2.46,1.19-5.53,2.67-11.16,2.67Z"/>
  <path class="cls-7" d="M54,62.65c-5.64,0-8.7-1.48-11.16-2.67-2.02-.97-3.47-1.68-6.84-1.68s-4.82,.7-6.84,1.68c-2.46,1.19-5.53,2.67-11.16,2.67s-8.7-1.48-11.16-2.67c-2.02-.97-3.47-1.68-6.84-1.68v-10.06c5.64,0,8.7,1.48,11.16,2.67,2.02,.97,3.47,1.68,6.84,1.68s4.82-.7,6.84-1.68c2.46-1.19,5.53-2.67,11.16-2.67s8.7,1.48,11.16,2.67c2.02,.97,3.47,1.68,6.84,1.68s4.82-.7,6.84-1.68c2.46-1.19,5.53-2.67,11.16-2.67v10.06c-3.36,0-4.82,.7-6.84,1.68-2.46,1.19-5.53,2.67-11.16,2.67Z"/>
  <path class="cls-5" d="M54,72c-5.64,0-8.7-1.48-11.16-2.67-2.02-.97-3.47-1.68-6.84-1.68s-4.82,.7-6.84,1.68c-2.46,1.19-5.53,2.67-11.16,2.67s-8.7-1.48-11.16-2.67c-2.02-.97-3.47-1.68-6.84-1.68v-10.06c5.64,0,8.7,1.48,11.16,2.67,2.02,.97,3.47,1.68,6.84,1.68s4.82-.7,6.84-1.68c2.46-1.19,5.53-2.67,11.16-2.67s8.7,1.48,11.16,2.67c2.02,.97,3.47,1.68,6.84,1.68s4.82-.7,6.84-1.68c2.46-1.19,5.53-2.67,11.16-2.67v10.06c-3.36,0-4.82,.7-6.84,1.68-2.46,1.19-5.53,2.67-11.16,2.67Z"/>
  <rect class="cls-1" x="0" width="72" height="2.26"/>
  <g>
    <path class="cls-4" d="M18.75,7.24c1.54,.84,2.35,2.32,1.81,3.32s-2.23,1.13-3.77,.3-1.81-3.32-1.81-3.32c0,0,2.23-1.13,3.77-.3Z"/>
    <line class="cls-4" x1="14.98" y1="7.54" x2="20.54" y2="10.55"/>
    <line class="cls-4" x1="19.3" y1="9.9" x2="18.48" y2="7.14"/>
    <line class="cls-4" x1="17.51" y1="8.93" x2="16.93" y2="6.97"/>
    <line class="cls-4" x1="18.49" y1="9.53" x2="16.06" y2="10.25"/>
    <line class="cls-4" x1="15.89" y1="8.11" x2="15.15" y2="8.33"/>
  </g>
  <g>
    <path class="cls-4" d="M42.49,7.48c-1.58,.76-3.26,.54-3.75-.49s.39-2.47,1.98-3.23,3.75,.49,3.75,.49c0,0-.39,2.47-1.98,3.23Z"/>
    <line class="cls-4" x1="44.47" y1="4.25" x2="38.76" y2="6.98"/>
    <line class="cls-4" x1="40.01" y1="6.36" x2="42.73" y2="7.32"/>
    <line class="cls-4" x1="41.85" y1="5.48" x2="43.78" y2="6.16"/>
    <line class="cls-4" x1="40.79" y1="5.92" x2="41.63" y2="3.54"/>
    <line class="cls-4" x1="43.47" y1="4.65" x2="43.72" y2="3.93"/>
  </g>
  <polygon class="cls-4" points="12.49 5.32 11.31 3.7 9.41 4.32 9.41 6.32 11.31 6.94 12.49 5.32"/>
  <polygon class="cls-4" points="70.89 7.3 70.68 5.31 68.72 4.9 67.72 6.63 69.06 8.11 70.89 7.3"/>
</svg>