<?xml version="1.0" encoding="UTF-8"?>
<svg id="Layer_1" data-name="Layer 1" xmlns="http://www.w3.org/2000/svg" xmlns:xlink="http://www.w3.org/1999/xlink" viewBox="0 0 72 72">
  <defs>
    <style>
      .cls-1 {
        fill: #cbb299;
      }

      .cls-2 {
        fill: #97683f;
      }

      .cls-3 {
        fill: #bfa082;
      }

      .cls-4 {
        fill: #64452a;
      }

      .cls-5 {
        clip-path: url(#clippath);
      }

      .cls-6 {
        fill: #bb9a7a;
      }

      .cls-7 {
        fill: none;
      }

      .cls-8 {
        fill: #7d5734;
      }

      .cls-9 {
        fill: #8d623b;
      }
    </style>
    <clipPath id="clippath">
      <rect class="cls-7" width="30.16" height="27.1"/>
    </clipPath>
  </defs>
  <g>
    <rect class="cls-9" width="72" height="17.36"/>
    <path class="cls-4" d="M54,15.95c-5.64,0-8.7-1.48-11.16-2.67-2.02-.97-3.47-1.68-6.84-1.68s-4.82,.7-6.84,1.68c-2.46,1.19-5.53,2.67-11.16,2.67s-8.7-1.48-11.16-2.67c-2.02-.97-3.47-1.68-6.84-1.68V1.55c5.64,0,8.7,1.48,11.16,2.67,2.02,.97,3.47,1.68,6.84,1.68s4.82-.7,6.84-1.68c2.46-1.19,5.53-2.67,11.16-2.67s8.7,1.48,11.16,2.67c2.02,.97,3.47,1.68,6.84,1.68s4.82-.7,6.84-1.68c2.46-1.19,5.53-2.67,11.16-2.67V11.61c-3.36,0-4.82,.7-6.84,1.68-2.46,1.19-5.53,2.67-11.16,2.67Z"/>
    <rect class="cls-9" y="53.67" width="72" height="18.33"/>
    <path class="cls-9" d="M54,25.24c-5.64,0-8.7-1.48-11.16-2.67-2.02-.97-3.47-1.68-6.84-1.68s-4.82,.7-6.84,1.68c-2.46,1.19-5.53,2.67-11.16,2.67s-8.7-1.48-11.16-2.67c-2.02-.97-3.47-1.68-6.84-1.68V10.84c5.64,0,8.7,1.48,11.16,2.67,2.02,.97,3.47,1.68,6.84,1.68s4.82-.7,6.84-1.68c2.46-1.19,5.53-2.67,11.16-2.67s8.7,1.48,11.16,2.67c2.02,.97,3.47,1.68,6.84,1.68s4.82-.7,6.84-1.68c2.46-1.19,5.53-2.67,11.16-2.67v10.06c-3.36,0-4.82,.7-6.84,1.68-2.46,1.19-5.53,2.67-11.16,2.67Z"/>
    <path class="cls-8" d="M54,34.59c-5.64,0-8.7-1.48-11.16-2.67-2.02-.97-3.47-1.68-6.84-1.68s-4.82,.7-6.84,1.68c-2.46,1.19-5.53,2.67-11.16,2.67s-8.7-1.48-11.16-2.67c-2.02-.97-3.47-1.68-6.84-1.68v-10.06c5.64,0,8.7,1.48,11.16,2.67,2.02,.97,3.47,1.68,6.84,1.68s4.82-.7,6.84-1.68c2.46-1.19,5.53-2.67,11.16-2.67s8.7,1.48,11.16,2.67c2.02,.97,3.47,1.68,6.84,1.68s4.82-.7,6.84-1.68c2.46-1.19,5.53-2.67,11.16-2.67v10.06c-3.36,0-4.82,.7-6.84,1.68-2.46,1.19-5.53,2.67-11.16,2.67Z"/>
    <path class="cls-4" d="M54,43.94c-5.64,0-8.7-1.48-11.16-2.67-2.02-.97-3.47-1.68-6.84-1.68s-4.82,.7-6.84,1.68c-2.46,1.19-5.53,2.67-11.16,2.67s-8.7-1.48-11.16-2.67c-2.02-.97-3.47-1.68-6.84-1.68v-10.06c5.64,0,8.7,1.48,11.16,2.67,2.02,.97,3.47,1.68,6.84,1.68s4.82-.7,6.84-1.68c2.46-1.19,5.53-2.67,11.16-2.67s8.7,1.48,11.16,2.67c2.02,.97,3.47,1.68,6.84,1.68s4.82-.7,6.84-1.68c2.46-1.19,5.53-2.67,11.16-2.67v10.06c-3.36,0-4.82,.7-6.84,1.68-2.46,1.19-5.53,2.67-11.16,2.67Z"/>
    <path class="cls-2" d="M54,53.3c-5.64,0-8.7-1.48-11.16-2.67-2.02-.97-3.47-1.68-6.84-1.68s-4.82,.7-6.84,1.68c-2.46,1.19-5.53,2.67-11.16,2.67s-8.7-1.48-11.16-2.67c-2.02-.97-3.47-1.68-6.84-1.68v-10.06c5.64,0,8.7,1.48,11.16,2.67,2.02,.97,3.47,1.68,6.84,1.68s4.82-.7,6.84-1.68c2.46-1.19,5.53-2.67,11.16-2.67s8.7,1.48,11.16,2.67c2.02,.97,3.47,1.68,6.84,1.68s4.82-.7,6.84-1.68c2.46-1.19,5.53-2.67,11.16-2.67v10.06c-3.36,0-4.82,.7-6.84,1.68-2.46,1.19-5.53,2.67-11.16,2.67Z"/>
    <path class="cls-8" d="M54,62.65c-5.64,0-8.7-1.48-11.16-2.67-2.02-.97-3.47-1.68-6.84-1.68s-4.82,.7-6.84,1.68c-2.46,1.19-5.53,2.67-11.16,2.67s-8.7-1.48-11.16-2.67c-2.02-.97-3.47-1.68-6.84-1.68v-10.06c5.64,0,8.7,1.48,11.16,2.67,2.02,.97,3.47,1.68,6.84,1.68s4.82-.7,6.84-1.68c2.46-1.19,5.53-2.67,11.16-2.67s8.7,1.48,11.16,2.67c2.02,.97,3.47,1.68,6.84,1.68s4.82-.7,6.84-1.68c2.46-1.19,5.53-2.67,11.16-2.67v10.06c-3.36,0-4.82,.7-6.84,1.68-2.46,1.19-5.53,2.67-11.16,2.67Z"/>
    <path class="cls-4" d="M54,72c-5.64,0-8.7-1.48-11.16-2.67-2.02-.97-3.47-1.68-6.84-1.68s-4.82,.7-6.84,1.68c-2.46,1.19-5.53,2.67-11.16,2.67s-8.7-1.48-11.16-2.67c-2.02-.97-3.47-1.68-6.84-1.68v-10.06c5.64,0,8.7,1.48,11.16,2.67,2.02,.97,3.47,1.68,6.84,1.68s4.82-.7,6.84-1.68c2.46-1.19,5.53-2.67,11.16-2.67s8.7,1.48,11.16,2.67c2.02,.97,3.47,1.68,6.84,1.68s4.82-.7,6.84-1.68c2.46-1.19,5.53-2.67,11.16-2.67v10.06c-3.36,0-4.82,.7-6.84,1.68-2.46,1.19-5.53,2.67-11.16,2.67Z"/>
  </g>
  <g class="cls-5">
    <circle class="cls-6" cy=".3" r="10.54"/>
    <path class="cls-3" d="M0-8.25C4.71-8.25,8.54-4.41,8.54,.3S4.71,8.84,0,8.84-8.54,5.01-8.54,.3-4.71-8.25,0-8.25m0-2C-5.82-10.25-10.54-5.53-10.54,.3S-5.82,10.84,0,10.84,10.54,6.12,10.54,.3,5.82-10.25,0-10.25H0Z"/>
    <circle class="cls-1" cx="0" cy=".55" r="1.71"/>
  </g>
</svg>