<svg width="73" height="72" viewBox="0 0 73 72" fill="none" xmlns="http://www.w3.org/2000/svg">
<g clip-path="url(#clip0_21_4488)">
<mask id="mask0_21_4488" style="mask-type:luminance" maskUnits="userSpaceOnUse" x="0" y="0" width="73" height="72">
<path d="M72.0779 24.22V0H0.0779114V72L37.7479 47.01L72.0779 24.22Z" fill="white"/>
</mask>
<g mask="url(#mask0_21_4488)">
<mask id="mask1_21_4488" style="mask-type:luminance" maskUnits="userSpaceOnUse" x="0" y="0" width="73" height="72">
<path d="M0.0779114 0H58.5779C66.0279 0 72.0779 6.05 72.0779 13.5V72H0.0779114V0Z" fill="white"/>
</mask>
<g mask="url(#mask1_21_4488)">
<path d="M72.0779 53.67H0.0779114V72H72.0779V53.67Z" fill="#8D623B"/>
<path d="M72.0779 0H0.0779114V18.33H72.0779V0Z" fill="#BB9A7A"/>
<path d="M54.0779 23.24C48.4379 23.24 45.3779 21.76 42.9179 20.57C40.8979 19.6 39.4479 18.89 36.0779 18.89C32.7079 18.89 31.2579 19.59 29.2379 20.57C26.7779 21.76 23.7079 23.24 18.0779 23.24C12.4479 23.24 9.37791 21.76 6.91791 20.57C4.89791 19.6 3.44791 18.89 0.0779114 18.89V8.84C5.71791 8.84 8.77791 10.32 11.2379 11.51C13.2579 12.48 14.7079 13.19 18.0779 13.19C21.4479 13.19 22.8979 12.49 24.9179 11.51C27.3779 10.32 30.4479 8.84 36.0779 8.84C41.7079 8.84 44.7779 10.32 47.2379 11.51C49.2579 12.48 50.7079 13.19 54.0779 13.19C57.4479 13.19 58.8979 12.49 60.9179 11.51C63.3779 10.32 66.4479 8.84 72.0779 8.84V18.9C68.7179 18.9 67.2579 19.6 65.2379 20.58C62.7779 21.77 59.7079 23.25 54.0779 23.25V23.24Z" fill="#BFA082"/>
<path d="M54.0779 25.24C48.4379 25.24 45.3779 23.76 42.9179 22.57C40.8979 21.6 39.4479 20.89 36.0779 20.89C32.7079 20.89 31.2579 21.59 29.2379 22.57C26.7779 23.76 23.7079 25.24 18.0779 25.24C12.4479 25.24 9.37791 23.76 6.91791 22.57C4.89791 21.6 3.44791 20.89 0.0779114 20.89V10.84C5.71791 10.84 8.77791 12.32 11.2379 13.51C13.2579 14.48 14.7079 15.19 18.0779 15.19C21.4479 15.19 22.8979 14.49 24.9179 13.51C27.3779 12.32 30.4479 10.84 36.0779 10.84C41.7079 10.84 44.7779 12.32 47.2379 13.51C49.2579 14.48 50.7079 15.19 54.0779 15.19C57.4479 15.19 58.8979 14.49 60.9179 13.51C63.3779 12.32 66.4479 10.84 72.0779 10.84V20.9C68.7179 20.9 67.2579 21.6 65.2379 22.58C62.7779 23.77 59.7079 25.25 54.0779 25.25V25.24Z" fill="#8D623B"/>
<path d="M54.0779 34.59C48.4379 34.59 45.3779 33.11 42.9179 31.92C40.8979 30.95 39.4479 30.24 36.0779 30.24C32.7079 30.24 31.2579 30.94 29.2379 31.92C26.7779 33.11 23.7079 34.59 18.0779 34.59C12.4479 34.59 9.37791 33.11 6.91791 31.92C4.89791 30.95 3.44791 30.24 0.0779114 30.24V20.18C5.71791 20.18 8.77791 21.66 11.2379 22.85C13.2579 23.82 14.7079 24.53 18.0779 24.53C21.4479 24.53 22.8979 23.83 24.9179 22.85C27.3779 21.66 30.4479 20.18 36.0779 20.18C41.7079 20.18 44.7779 21.66 47.2379 22.85C49.2579 23.82 50.7079 24.53 54.0779 24.53C57.4479 24.53 58.8979 23.83 60.9179 22.85C63.3779 21.66 66.4479 20.18 72.0779 20.18V30.24C68.7179 30.24 67.2579 30.94 65.2379 31.92C62.7779 33.11 59.7079 34.59 54.0779 34.59Z" fill="#7D5734"/>
<path d="M54.0779 43.94C48.4379 43.94 45.3779 42.46 42.9179 41.27C40.8979 40.3 39.4479 39.59 36.0779 39.59C32.7079 39.59 31.2579 40.29 29.2379 41.27C26.7779 42.46 23.7079 43.94 18.0779 43.94C12.4479 43.94 9.37791 42.46 6.91791 41.27C4.89791 40.3 3.44791 39.59 0.0779114 39.59V29.53C5.71791 29.53 8.77791 31.01 11.2379 32.2C13.2579 33.17 14.7079 33.88 18.0779 33.88C21.4479 33.88 22.8979 33.18 24.9179 32.2C27.3779 31.01 30.4479 29.53 36.0779 29.53C41.7079 29.53 44.7779 31.01 47.2379 32.2C49.2579 33.17 50.7079 33.88 54.0779 33.88C57.4479 33.88 58.8979 33.18 60.9179 32.2C63.3779 31.01 66.4479 29.53 72.0779 29.53V39.59C68.7179 39.59 67.2579 40.29 65.2379 41.27C62.7779 42.46 59.7079 43.94 54.0779 43.94Z" fill="#64452A"/>
<path d="M54.0779 53.3C48.4379 53.3 45.3779 51.82 42.9179 50.63C40.8979 49.66 39.4479 48.95 36.0779 48.95C32.7079 48.95 31.2579 49.65 29.2379 50.63C26.7779 51.82 23.7079 53.3 18.0779 53.3C12.4479 53.3 9.37791 51.82 6.91791 50.63C4.89791 49.66 3.44791 48.95 0.0779114 48.95V38.89C5.71791 38.89 8.77791 40.37 11.2379 41.56C13.2579 42.53 14.7079 43.24 18.0779 43.24C21.4479 43.24 22.8979 42.54 24.9179 41.56C27.3779 40.37 30.4479 38.89 36.0779 38.89C41.7079 38.89 44.7779 40.37 47.2379 41.56C49.2579 42.53 50.7079 43.24 54.0779 43.24C57.4479 43.24 58.8979 42.54 60.9179 41.56C63.3779 40.37 66.4479 38.89 72.0779 38.89V48.95C68.7179 48.95 67.2579 49.65 65.2379 50.63C62.7779 51.82 59.7079 53.3 54.0779 53.3Z" fill="#97683F"/>
<path d="M54.0779 62.65C48.4379 62.65 45.3779 61.17 42.9179 59.98C40.8979 59.01 39.4479 58.3 36.0779 58.3C32.7079 58.3 31.2579 59 29.2379 59.98C26.7779 61.17 23.7079 62.65 18.0779 62.65C12.4479 62.65 9.37791 61.17 6.91791 59.98C4.89791 59.01 3.44791 58.3 0.0779114 58.3V48.24C5.71791 48.24 8.77791 49.72 11.2379 50.91C13.2579 51.88 14.7079 52.59 18.0779 52.59C21.4479 52.59 22.8979 51.89 24.9179 50.91C27.3779 49.72 30.4479 48.24 36.0779 48.24C41.7079 48.24 44.7779 49.72 47.2379 50.91C49.2579 51.88 50.7079 52.59 54.0779 52.59C57.4479 52.59 58.8979 51.89 60.9179 50.91C63.3779 49.72 66.4479 48.24 72.0779 48.24V58.3C68.7179 58.3 67.2579 59 65.2379 59.98C62.7779 61.17 59.7079 62.65 54.0779 62.65Z" fill="#7D5734"/>
<path d="M54.0779 72C48.4379 72 45.3779 70.52 42.9179 69.33C40.8979 68.36 39.4479 67.65 36.0779 67.65C32.7079 67.65 31.2579 68.35 29.2379 69.33C26.7779 70.52 23.7079 72 18.0779 72C12.4479 72 9.37791 70.52 6.91791 69.33C4.89791 68.36 3.44791 67.65 0.0779114 67.65V57.59C5.71791 57.59 8.77791 59.07 11.2379 60.26C13.2579 61.23 14.7079 61.94 18.0779 61.94C21.4479 61.94 22.8979 61.24 24.9179 60.26C27.3779 59.07 30.4479 57.59 36.0779 57.59C41.7079 57.59 44.7779 59.07 47.2379 60.26C49.2579 61.23 50.7079 61.94 54.0779 61.94C57.4479 61.94 58.8979 61.24 60.9179 60.26C63.3779 59.07 66.4479 57.59 72.0779 57.59V67.65C68.7179 67.65 67.2579 68.35 65.2379 69.33C62.7779 70.52 59.7079 72 54.0779 72Z" fill="#64452A"/>
<path d="M72.0779 0H0.0779114V2.26H72.0779V0Z" fill="#CBB299"/>
<path d="M69.1079 -1.69C65.8279 -1.69 62.9279 -0.120003 61.0879 2.3C65.3079 2.72 69.3679 5.77 71.2779 10.46C72.3079 13 72.5479 15.63 72.1279 18.03C76.2279 16.75 79.1979 12.92 79.1979 8.4C79.1979 2.83 74.6779 -1.69 69.1079 -1.69Z" fill="#CBB299"/>
</g>
</g>
</g>
<defs>
<clipPath id="clip0_21_4488">
<rect width="72" height="72" fill="white" transform="translate(0.0779114)"/>
</clipPath>
</defs>
</svg>
