<?xml version="1.0" encoding="UTF-8"?>
<svg id="Layer_1" data-name="Layer 1" xmlns="http://www.w3.org/2000/svg" viewBox="0 0 72 72">
  <defs>
    <style>
      .cls-1 {
        fill: #dac3ad;
      }

      .cls-2 {
        fill: none;
        stroke: #653a13;
        stroke-miterlimit: 10;
        stroke-width: .5px;
      }

      .cls-3 {
        fill: #b98c63;
      }

      .cls-4 {
        fill: #ac7a4d;
      }

      .cls-5 {
        fill: #ceae91;
      }
    </style>
  </defs>
  <g>
    <path class="cls-3" d="M72,72H0V0H72V72Z"/>
    <path class="cls-5" d="M72,26C44.29,11.58,27.71,40.42,0,26V12c25.52,6.97,46.48-6.97,72,0v14Z"/>
    <path class="cls-1" d="M72,13C46.29,5.46,25.71,20.54,0,13V5c24.34,2.94,47.66-2.94,72,0V13Z"/>
    <path class="cls-4" d="M72,70c-24.06-1.19-47.94,1.19-72,0v-8c25.14,5.82,46.86-5.82,72,0v8Z"/>
    <path class="cls-5" d="M72,42C43.98,25.83,28.02,58.17,0,42v-6c27.61,19.38,44.39-19.38,72,0v6Z"/>
    <path class="cls-5" d="M72,60c-25.52-6.97-46.48,6.97-72,0v-16c27.89,15.32,44.11-15.32,72,0v16Z"/>
    <path class="cls-4" d="M72,36.5C44.38,17.29,27.62,55.71,0,36.5v-5c28.09,16.76,43.91-16.76,72,0v5Z"/>
  </g>
  <polygon class="cls-2" points="11.54 20.94 10.36 19.33 8.46 19.94 8.46 21.94 10.36 22.56 11.54 20.94"/>
  <polygon class="cls-2" points="19.33 22.74 16.42 21.65 14.49 24.09 16.21 26.68 19.2 25.84 19.33 22.74"/>
  <polygon class="cls-2" points="63.76 53.18 62.59 51.56 60.68 52.18 60.68 54.18 62.59 54.79 63.76 53.18"/>
</svg>