<svg width="303" height="304" viewBox="0 0 303 304" fill="none" xmlns="http://www.w3.org/2000/svg">
<g clip-path="url(#clip0_21_4747)">
<path d="M74 2H2V19.36H74V2Z" fill="#8D623B"/>
<path d="M56 17.95C50.36 17.95 47.3 16.47 44.84 15.28C42.82 14.31 41.37 13.6 38 13.6C34.63 13.6 33.18 14.3 31.16 15.28C28.7 16.47 25.63 17.95 20 17.95C14.37 17.95 11.3 16.47 8.84 15.28C6.82 14.31 5.37 13.6 2 13.6V3.54999C7.64 3.54999 10.7 5.02999 13.16 6.21999C15.18 7.18999 16.63 7.89999 20 7.89999C23.37 7.89999 24.82 7.19999 26.84 6.21999C29.3 5.02999 32.37 3.54999 38 3.54999C43.63 3.54999 46.7 5.02999 49.16 6.21999C51.18 7.18999 52.63 7.89999 56 7.89999C59.37 7.89999 60.82 7.19999 62.84 6.21999C65.3 5.02999 68.37 3.54999 74 3.54999V13.61C70.64 13.61 69.18 14.31 67.16 15.29C64.7 16.48 61.63 17.96 56 17.96V17.95Z" fill="#64452A"/>
<path d="M74 55.67H2V74H74V55.67Z" fill="#8D623B"/>
<path d="M56 27.24C50.36 27.24 47.3 25.76 44.84 24.57C42.82 23.6 41.37 22.89 38 22.89C34.63 22.89 33.18 23.59 31.16 24.57C28.7 25.76 25.63 27.24 20 27.24C14.37 27.24 11.3 25.76 8.84 24.57C6.82 23.6 5.37 22.89 2 22.89V12.84C7.64 12.84 10.7 14.32 13.16 15.51C15.18 16.48 16.63 17.19 20 17.19C23.37 17.19 24.82 16.49 26.84 15.51C29.3 14.32 32.37 12.84 38 12.84C43.63 12.84 46.7 14.32 49.16 15.51C51.18 16.48 52.63 17.19 56 17.19C59.37 17.19 60.82 16.49 62.84 15.51C65.3 14.32 68.37 12.84 74 12.84V22.9C70.64 22.9 69.18 23.6 67.16 24.58C64.7 25.77 61.63 27.25 56 27.25V27.24Z" fill="#8D623B"/>
<path d="M56 36.59C50.36 36.59 47.3 35.11 44.84 33.92C42.82 32.95 41.37 32.24 38 32.24C34.63 32.24 33.18 32.94 31.16 33.92C28.7 35.11 25.63 36.59 20 36.59C14.37 36.59 11.3 35.11 8.84 33.92C6.82 32.95 5.37 32.24 2 32.24V22.18C7.64 22.18 10.7 23.66 13.16 24.85C15.18 25.82 16.63 26.53 20 26.53C23.37 26.53 24.82 25.83 26.84 24.85C29.3 23.66 32.37 22.18 38 22.18C43.63 22.18 46.7 23.66 49.16 24.85C51.18 25.82 52.63 26.53 56 26.53C59.37 26.53 60.82 25.83 62.84 24.85C65.3 23.66 68.37 22.18 74 22.18V32.24C70.64 32.24 69.18 32.94 67.16 33.92C64.7 35.11 61.63 36.59 56 36.59Z" fill="#7D5734"/>
<path d="M56 45.94C50.36 45.94 47.3 44.46 44.84 43.27C42.82 42.3 41.37 41.59 38 41.59C34.63 41.59 33.18 42.29 31.16 43.27C28.7 44.46 25.63 45.94 20 45.94C14.37 45.94 11.3 44.46 8.84 43.27C6.82 42.3 5.37 41.59 2 41.59V31.53C7.64 31.53 10.7 33.01 13.16 34.2C15.18 35.17 16.63 35.88 20 35.88C23.37 35.88 24.82 35.18 26.84 34.2C29.3 33.01 32.37 31.53 38 31.53C43.63 31.53 46.7 33.01 49.16 34.2C51.18 35.17 52.63 35.88 56 35.88C59.37 35.88 60.82 35.18 62.84 34.2C65.3 33.01 68.37 31.53 74 31.53V41.59C70.64 41.59 69.18 42.29 67.16 43.27C64.7 44.46 61.63 45.94 56 45.94Z" fill="#64452A"/>
<path d="M56 55.3C50.36 55.3 47.3 53.82 44.84 52.63C42.82 51.66 41.37 50.95 38 50.95C34.63 50.95 33.18 51.65 31.16 52.63C28.7 53.82 25.63 55.3 20 55.3C14.37 55.3 11.3 53.82 8.84 52.63C6.82 51.66 5.37 50.95 2 50.95V40.89C7.64 40.89 10.7 42.37 13.16 43.56C15.18 44.53 16.63 45.24 20 45.24C23.37 45.24 24.82 44.54 26.84 43.56C29.3 42.37 32.37 40.89 38 40.89C43.63 40.89 46.7 42.37 49.16 43.56C51.18 44.53 52.63 45.24 56 45.24C59.37 45.24 60.82 44.54 62.84 43.56C65.3 42.37 68.37 40.89 74 40.89V50.95C70.64 50.95 69.18 51.65 67.16 52.63C64.7 53.82 61.63 55.3 56 55.3Z" fill="#97683F"/>
<path d="M56 64.65C50.36 64.65 47.3 63.17 44.84 61.98C42.82 61.01 41.37 60.3 38 60.3C34.63 60.3 33.18 61 31.16 61.98C28.7 63.17 25.63 64.65 20 64.65C14.37 64.65 11.3 63.17 8.84 61.98C6.82 61.01 5.37 60.3 2 60.3V50.24C7.64 50.24 10.7 51.72 13.16 52.91C15.18 53.88 16.63 54.59 20 54.59C23.37 54.59 24.82 53.89 26.84 52.91C29.3 51.72 32.37 50.24 38 50.24C43.63 50.24 46.7 51.72 49.16 52.91C51.18 53.88 52.63 54.59 56 54.59C59.37 54.59 60.82 53.89 62.84 52.91C65.3 51.72 68.37 50.24 74 50.24V60.3C70.64 60.3 69.18 61 67.16 61.98C64.7 63.17 61.63 64.65 56 64.65Z" fill="#7D5734"/>
<path d="M56 74C50.36 74 47.3 72.52 44.84 71.33C42.82 70.36 41.37 69.65 38 69.65C34.63 69.65 33.18 70.35 31.16 71.33C28.7 72.52 25.63 74 20 74C14.37 74 11.3 72.52 8.84 71.33C6.82 70.36 5.37 69.65 2 69.65V59.59C7.64 59.59 10.7 61.07 13.16 62.26C15.18 63.23 16.63 63.94 20 63.94C23.37 63.94 24.82 63.24 26.84 62.26C29.3 61.07 32.37 59.59 38 59.59C43.63 59.59 46.7 61.07 49.16 62.26C51.18 63.23 52.63 63.94 56 63.94C59.37 63.94 60.82 63.24 62.84 62.26C65.3 61.07 68.37 59.59 74 59.59V69.65C70.64 69.65 69.18 70.35 67.16 71.33C64.7 72.52 61.63 74 56 74Z" fill="#64452A"/>
<mask id="mask0_21_4747" style="mask-type:luminance" maskUnits="userSpaceOnUse" x="2" y="2" width="31" height="28">
<path d="M32.16 2H2V29.1H32.16V2Z" fill="white"/>
</mask>
<g mask="url(#mask0_21_4747)">
<path d="M2.00001 12.84C7.82109 12.84 12.54 8.12109 12.54 2.30001C12.54 -3.52107 7.82109 -8.23999 2.00001 -8.23999C-3.82107 -8.23999 -8.53999 -3.52107 -8.53999 2.30001C-8.53999 8.12109 -3.82107 12.84 2.00001 12.84Z" fill="#BB9A7A"/>
<path d="M2.00001 -6.25C6.71001 -6.25 10.54 -2.41 10.54 2.3C10.54 7.01 6.71001 10.84 2.00001 10.84C-2.70999 10.84 -6.53999 7.01 -6.53999 2.3C-6.53999 -2.41 -2.70999 -6.25 2.00001 -6.25ZM2.00001 -8.25C-3.81999 -8.25 -8.53999 -3.53 -8.53999 2.3C-8.53999 8.13 -3.81999 12.84 2.00001 12.84C7.82001 12.84 12.54 8.12 12.54 2.3C12.54 -3.52 7.82001 -8.25 2.00001 -8.25Z" fill="#BFA082"/>
<path d="M2.00001 4.26C2.94442 4.26 3.71001 3.4944 3.71001 2.55C3.71001 1.60559 2.94442 0.839996 2.00001 0.839996C1.0556 0.839996 0.290009 1.60559 0.290009 2.55C0.290009 3.4944 1.0556 4.26 2.00001 4.26Z" fill="#CBB299"/>
</g>
</g>
<g clip-path="url(#clip1_21_4747)">
<path d="M149.693 2H77.6926V19.36H149.693V2Z" fill="#8D623B"/>
<path d="M131.693 17.95C126.053 17.95 122.993 16.47 120.533 15.28C118.513 14.31 117.063 13.6 113.693 13.6C110.323 13.6 108.873 14.3 106.853 15.28C104.393 16.47 101.323 17.95 95.6926 17.95C90.0626 17.95 86.9926 16.47 84.5326 15.28C82.5126 14.31 81.0626 13.6 77.6926 13.6V3.54999C83.3326 3.54999 86.3926 5.02999 88.8526 6.21999C90.8726 7.18999 92.3226 7.89999 95.6926 7.89999C99.0626 7.89999 100.513 7.19999 102.533 6.21999C104.993 5.02999 108.063 3.54999 113.693 3.54999C119.323 3.54999 122.393 5.02999 124.853 6.21999C126.873 7.18999 128.323 7.89999 131.693 7.89999C135.063 7.89999 136.513 7.19999 138.533 6.21999C140.993 5.02999 144.063 3.54999 149.693 3.54999V13.61C146.333 13.61 144.873 14.31 142.853 15.29C140.393 16.48 137.323 17.96 131.693 17.96V17.95Z" fill="#64452A"/>
<path d="M149.693 55.67H77.6926V74H149.693V55.67Z" fill="#8D623B"/>
<path d="M131.693 27.24C126.053 27.24 122.993 25.76 120.533 24.57C118.513 23.6 117.063 22.89 113.693 22.89C110.323 22.89 108.873 23.59 106.853 24.57C104.393 25.76 101.323 27.24 95.6926 27.24C90.0626 27.24 86.9926 25.76 84.5326 24.57C82.5126 23.6 81.0626 22.89 77.6926 22.89V12.84C83.3326 12.84 86.3926 14.32 88.8526 15.51C90.8726 16.48 92.3226 17.19 95.6926 17.19C99.0626 17.19 100.513 16.49 102.533 15.51C104.993 14.32 108.063 12.84 113.693 12.84C119.323 12.84 122.393 14.32 124.853 15.51C126.873 16.48 128.323 17.19 131.693 17.19C135.063 17.19 136.513 16.49 138.533 15.51C140.993 14.32 144.063 12.84 149.693 12.84V22.9C146.333 22.9 144.873 23.6 142.853 24.58C140.393 25.77 137.323 27.25 131.693 27.25V27.24Z" fill="#8D623B"/>
<path d="M131.693 36.59C126.053 36.59 122.993 35.11 120.533 33.92C118.513 32.95 117.063 32.24 113.693 32.24C110.323 32.24 108.873 32.94 106.853 33.92C104.393 35.11 101.323 36.59 95.6926 36.59C90.0626 36.59 86.9926 35.11 84.5326 33.92C82.5126 32.95 81.0626 32.24 77.6926 32.24V22.18C83.3326 22.18 86.3926 23.66 88.8526 24.85C90.8726 25.82 92.3226 26.53 95.6926 26.53C99.0626 26.53 100.513 25.83 102.533 24.85C104.993 23.66 108.063 22.18 113.693 22.18C119.323 22.18 122.393 23.66 124.853 24.85C126.873 25.82 128.323 26.53 131.693 26.53C135.063 26.53 136.513 25.83 138.533 24.85C140.993 23.66 144.063 22.18 149.693 22.18V32.24C146.333 32.24 144.873 32.94 142.853 33.92C140.393 35.11 137.323 36.59 131.693 36.59Z" fill="#7D5734"/>
<path d="M131.693 45.94C126.053 45.94 122.993 44.46 120.533 43.27C118.513 42.3 117.063 41.59 113.693 41.59C110.323 41.59 108.873 42.29 106.853 43.27C104.393 44.46 101.323 45.94 95.6926 45.94C90.0626 45.94 86.9926 44.46 84.5326 43.27C82.5126 42.3 81.0626 41.59 77.6926 41.59V31.53C83.3326 31.53 86.3926 33.01 88.8526 34.2C90.8726 35.17 92.3226 35.88 95.6926 35.88C99.0626 35.88 100.513 35.18 102.533 34.2C104.993 33.01 108.063 31.53 113.693 31.53C119.323 31.53 122.393 33.01 124.853 34.2C126.873 35.17 128.323 35.88 131.693 35.88C135.063 35.88 136.513 35.18 138.533 34.2C140.993 33.01 144.063 31.53 149.693 31.53V41.59C146.333 41.59 144.873 42.29 142.853 43.27C140.393 44.46 137.323 45.94 131.693 45.94Z" fill="#64452A"/>
<path d="M131.693 55.3C126.053 55.3 122.993 53.82 120.533 52.63C118.513 51.66 117.063 50.95 113.693 50.95C110.323 50.95 108.873 51.65 106.853 52.63C104.393 53.82 101.323 55.3 95.6926 55.3C90.0626 55.3 86.9926 53.82 84.5326 52.63C82.5126 51.66 81.0626 50.95 77.6926 50.95V40.89C83.3326 40.89 86.3926 42.37 88.8526 43.56C90.8726 44.53 92.3226 45.24 95.6926 45.24C99.0626 45.24 100.513 44.54 102.533 43.56C104.993 42.37 108.063 40.89 113.693 40.89C119.323 40.89 122.393 42.37 124.853 43.56C126.873 44.53 128.323 45.24 131.693 45.24C135.063 45.24 136.513 44.54 138.533 43.56C140.993 42.37 144.063 40.89 149.693 40.89V50.95C146.333 50.95 144.873 51.65 142.853 52.63C140.393 53.82 137.323 55.3 131.693 55.3Z" fill="#97683F"/>
<path d="M131.693 64.65C126.053 64.65 122.993 63.17 120.533 61.98C118.513 61.01 117.063 60.3 113.693 60.3C110.323 60.3 108.873 61 106.853 61.98C104.393 63.17 101.323 64.65 95.6926 64.65C90.0626 64.65 86.9926 63.17 84.5326 61.98C82.5126 61.01 81.0626 60.3 77.6926 60.3V50.24C83.3326 50.24 86.3926 51.72 88.8526 52.91C90.8726 53.88 92.3226 54.59 95.6926 54.59C99.0626 54.59 100.513 53.89 102.533 52.91C104.993 51.72 108.063 50.24 113.693 50.24C119.323 50.24 122.393 51.72 124.853 52.91C126.873 53.88 128.323 54.59 131.693 54.59C135.063 54.59 136.513 53.89 138.533 52.91C140.993 51.72 144.063 50.24 149.693 50.24V60.3C146.333 60.3 144.873 61 142.853 61.98C140.393 63.17 137.323 64.65 131.693 64.65Z" fill="#7D5734"/>
<path d="M131.693 74C126.053 74 122.993 72.52 120.533 71.33C118.513 70.36 117.063 69.65 113.693 69.65C110.323 69.65 108.873 70.35 106.853 71.33C104.393 72.52 101.323 74 95.6926 74C90.0626 74 86.9926 72.52 84.5326 71.33C82.5126 70.36 81.0626 69.65 77.6926 69.65V59.59C83.3326 59.59 86.3926 61.07 88.8526 62.26C90.8726 63.23 92.3226 63.94 95.6926 63.94C99.0626 63.94 100.513 63.24 102.533 62.26C104.993 61.07 108.063 59.59 113.693 59.59C119.323 59.59 122.393 61.07 124.853 62.26C126.873 63.23 128.323 63.94 131.693 63.94C135.063 63.94 136.513 63.24 138.533 62.26C140.993 61.07 144.063 59.59 149.693 59.59V69.65C146.333 69.65 144.873 70.35 142.853 71.33C140.393 72.52 137.323 74 131.693 74Z" fill="#64452A"/>
<mask id="mask1_21_4747" style="mask-type:luminance" maskUnits="userSpaceOnUse" x="122" y="2" width="28" height="28">
<path d="M149.693 2H122.643V29.26H149.693V2Z" fill="white"/>
</mask>
<g mask="url(#mask1_21_4747)">
<path d="M149.693 12.54C155.514 12.54 160.233 7.82107 160.233 1.99999C160.233 -3.82109 155.514 -8.54001 149.693 -8.54001C143.872 -8.54001 139.153 -3.82109 139.153 1.99999C139.153 7.82107 143.872 12.54 149.693 12.54Z" fill="#BB9A7A"/>
<path d="M149.693 -6.54001C154.403 -6.54001 158.233 -2.71001 158.233 1.99999C158.233 6.70999 154.403 10.54 149.693 10.54C144.983 10.54 141.153 6.70999 141.153 1.99999C141.153 -2.71001 144.983 -6.54001 149.693 -6.54001ZM149.693 -8.54001C143.873 -8.54001 139.153 -3.82001 139.153 1.99999C139.153 7.81999 143.873 12.54 149.693 12.54C155.513 12.54 160.233 7.81999 160.233 1.99999C160.233 -3.82001 155.513 -8.54001 149.693 -8.54001Z" fill="#BFA082"/>
<path d="M149.693 3.96999C150.637 3.96999 151.403 3.20439 151.403 2.25999C151.403 1.31558 150.637 0.549988 149.693 0.549988C148.748 0.549988 147.983 1.31558 147.983 2.25999C147.983 3.20439 148.748 3.96999 149.693 3.96999Z" fill="#CBB299"/>
</g>
</g>
<g clip-path="url(#clip2_21_4747)">
<path d="M301.078 229.861H229.078V247.221H301.078V229.861Z" fill="#8D623B"/>
<path d="M283.078 245.811C277.438 245.811 274.378 244.331 271.918 243.141C269.898 242.171 268.448 241.461 265.078 241.461C261.708 241.461 260.258 242.161 258.238 243.141C255.778 244.331 252.708 245.811 247.078 245.811C241.448 245.811 238.378 244.331 235.918 243.141C233.898 242.171 232.448 241.461 229.078 241.461V231.411C234.718 231.411 237.778 232.891 240.238 234.081C242.258 235.051 243.708 235.761 247.078 235.761C250.448 235.761 251.898 235.061 253.918 234.081C256.378 232.891 259.448 231.411 265.078 231.411C270.708 231.411 273.778 232.891 276.238 234.081C278.258 235.051 279.708 235.761 283.078 235.761C286.448 235.761 287.898 235.061 289.918 234.081C292.378 232.891 295.448 231.411 301.078 231.411V241.471C297.718 241.471 296.258 242.171 294.238 243.151C291.778 244.341 288.708 245.821 283.078 245.821V245.811Z" fill="#64452A"/>
<path d="M301.078 283.531H229.078V301.861H301.078V283.531Z" fill="#8D623B"/>
<path d="M283.078 255.101C277.438 255.101 274.378 253.621 271.918 252.431C269.898 251.461 268.448 250.751 265.078 250.751C261.708 250.751 260.258 251.451 258.238 252.431C255.778 253.621 252.708 255.101 247.078 255.101C241.448 255.101 238.378 253.621 235.918 252.431C233.898 251.461 232.448 250.751 229.078 250.751V240.701C234.718 240.701 237.778 242.181 240.238 243.371C242.258 244.341 243.708 245.051 247.078 245.051C250.448 245.051 251.898 244.351 253.918 243.371C256.378 242.181 259.448 240.701 265.078 240.701C270.708 240.701 273.778 242.181 276.238 243.371C278.258 244.341 279.708 245.051 283.078 245.051C286.448 245.051 287.898 244.351 289.918 243.371C292.378 242.181 295.448 240.701 301.078 240.701V250.761C297.718 250.761 296.258 251.461 294.238 252.441C291.778 253.631 288.708 255.111 283.078 255.111V255.101Z" fill="#8D623B"/>
<path d="M283.078 264.452C277.438 264.452 274.378 262.972 271.918 261.782C269.898 260.812 268.448 260.102 265.078 260.102C261.708 260.102 260.258 260.802 258.238 261.782C255.778 262.972 252.708 264.452 247.078 264.452C241.448 264.452 238.378 262.972 235.918 261.782C233.898 260.812 232.448 260.102 229.078 260.102V250.042C234.718 250.042 237.778 251.522 240.238 252.712C242.258 253.682 243.708 254.392 247.078 254.392C250.448 254.392 251.898 253.692 253.918 252.712C256.378 251.522 259.448 250.042 265.078 250.042C270.708 250.042 273.778 251.522 276.238 252.712C278.258 253.682 279.708 254.392 283.078 254.392C286.448 254.392 287.898 253.692 289.918 252.712C292.378 251.522 295.448 250.042 301.078 250.042V260.102C297.718 260.102 296.258 260.802 294.238 261.782C291.778 262.972 288.708 264.452 283.078 264.452Z" fill="#7D5734"/>
<path d="M283.078 273.801C277.438 273.801 274.378 272.321 271.918 271.131C269.898 270.161 268.448 269.451 265.078 269.451C261.708 269.451 260.258 270.151 258.238 271.131C255.778 272.321 252.708 273.801 247.078 273.801C241.448 273.801 238.378 272.321 235.918 271.131C233.898 270.161 232.448 269.451 229.078 269.451V259.391C234.718 259.391 237.778 260.871 240.238 262.061C242.258 263.031 243.708 263.741 247.078 263.741C250.448 263.741 251.898 263.041 253.918 262.061C256.378 260.871 259.448 259.391 265.078 259.391C270.708 259.391 273.778 260.871 276.238 262.061C278.258 263.031 279.708 263.741 283.078 263.741C286.448 263.741 287.898 263.041 289.918 262.061C292.378 260.871 295.448 259.391 301.078 259.391V269.451C297.718 269.451 296.258 270.151 294.238 271.131C291.778 272.321 288.708 273.801 283.078 273.801Z" fill="#64452A"/>
<path d="M283.078 283.161C277.438 283.161 274.378 281.681 271.918 280.491C269.898 279.521 268.448 278.811 265.078 278.811C261.708 278.811 260.258 279.511 258.238 280.491C255.778 281.681 252.708 283.161 247.078 283.161C241.448 283.161 238.378 281.681 235.918 280.491C233.898 279.521 232.448 278.811 229.078 278.811V268.751C234.718 268.751 237.778 270.231 240.238 271.421C242.258 272.391 243.708 273.101 247.078 273.101C250.448 273.101 251.898 272.401 253.918 271.421C256.378 270.231 259.448 268.751 265.078 268.751C270.708 268.751 273.778 270.231 276.238 271.421C278.258 272.391 279.708 273.101 283.078 273.101C286.448 273.101 287.898 272.401 289.918 271.421C292.378 270.231 295.448 268.751 301.078 268.751V278.811C297.718 278.811 296.258 279.511 294.238 280.491C291.778 281.681 288.708 283.161 283.078 283.161Z" fill="#97683F"/>
<path d="M283.078 292.512C277.438 292.512 274.378 291.031 271.918 289.841C269.898 288.871 268.448 288.161 265.078 288.161C261.708 288.161 260.258 288.861 258.238 289.841C255.778 291.031 252.708 292.512 247.078 292.512C241.448 292.512 238.378 291.031 235.918 289.841C233.898 288.871 232.448 288.161 229.078 288.161V278.102C234.718 278.102 237.778 279.581 240.238 280.771C242.258 281.741 243.708 282.451 247.078 282.451C250.448 282.451 251.898 281.751 253.918 280.771C256.378 279.581 259.448 278.102 265.078 278.102C270.708 278.102 273.778 279.581 276.238 280.771C278.258 281.741 279.708 282.451 283.078 282.451C286.448 282.451 287.898 281.751 289.918 280.771C292.378 279.581 295.448 278.102 301.078 278.102V288.161C297.718 288.161 296.258 288.861 294.238 289.841C291.778 291.031 288.708 292.512 283.078 292.512Z" fill="#7D5734"/>
<path d="M283.078 301.861C277.438 301.861 274.378 300.381 271.918 299.191C269.898 298.221 268.448 297.511 265.078 297.511C261.708 297.511 260.258 298.211 258.238 299.191C255.778 300.381 252.708 301.861 247.078 301.861C241.448 301.861 238.378 300.381 235.918 299.191C233.898 298.221 232.448 297.511 229.078 297.511V287.451C234.718 287.451 237.778 288.931 240.238 290.121C242.258 291.091 243.708 291.801 247.078 291.801C250.448 291.801 251.898 291.101 253.918 290.121C256.378 288.931 259.448 287.451 265.078 287.451C270.708 287.451 273.778 288.931 276.238 290.121C278.258 291.091 279.708 291.801 283.078 291.801C286.448 291.801 287.898 291.101 289.918 290.121C292.378 288.931 295.448 287.451 301.078 287.451V297.511C297.718 297.511 296.258 298.211 294.238 299.191C291.778 300.381 288.708 301.861 283.078 301.861Z" fill="#64452A"/>
</g>
<g clip-path="url(#clip3_21_4747)">
<mask id="mask2_21_4747" style="mask-type:luminance" maskUnits="userSpaceOnUse" x="153" y="2" width="73" height="72">
<path d="M153.385 26.22V2H225.385V74L187.715 49.01L153.385 26.22Z" fill="white"/>
</mask>
<g mask="url(#mask2_21_4747)">
<mask id="mask3_21_4747" style="mask-type:luminance" maskUnits="userSpaceOnUse" x="153" y="2" width="73" height="72">
<path d="M225.385 74L153.385 74V15.5C153.385 8.05 159.435 2 166.885 2L225.385 2V74Z" fill="white"/>
</mask>
<g mask="url(#mask3_21_4747)">
<path d="M225.385 55.67H153.385V74H225.385V55.67Z" fill="#8D623B"/>
<path d="M225.385 2H153.385V20.33H225.385V2Z" fill="#BB9A7A"/>
<path d="M207.385 25.24C201.745 25.24 198.685 23.76 196.225 22.57C194.205 21.6 192.755 20.89 189.385 20.89C186.015 20.89 184.565 21.59 182.545 22.57C180.085 23.76 177.015 25.24 171.385 25.24C165.755 25.24 162.685 23.76 160.225 22.57C158.205 21.6 156.755 20.89 153.385 20.89V10.84C159.025 10.84 162.085 12.32 164.545 13.51C166.565 14.48 168.015 15.19 171.385 15.19C174.755 15.19 176.205 14.49 178.225 13.51C180.685 12.32 183.755 10.84 189.385 10.84C195.015 10.84 198.085 12.32 200.545 13.51C202.565 14.48 204.015 15.19 207.385 15.19C210.755 15.19 212.205 14.49 214.225 13.51C216.685 12.32 219.755 10.84 225.385 10.84V20.9C222.025 20.9 220.565 21.6 218.545 22.58C216.085 23.77 213.015 25.25 207.385 25.25V25.24Z" fill="#BFA082"/>
<path d="M207.385 27.24C201.745 27.24 198.685 25.76 196.225 24.57C194.205 23.6 192.755 22.89 189.385 22.89C186.015 22.89 184.565 23.59 182.545 24.57C180.085 25.76 177.015 27.24 171.385 27.24C165.755 27.24 162.685 25.76 160.225 24.57C158.205 23.6 156.755 22.89 153.385 22.89V12.84C159.025 12.84 162.085 14.32 164.545 15.51C166.565 16.48 168.015 17.19 171.385 17.19C174.755 17.19 176.205 16.49 178.225 15.51C180.685 14.32 183.755 12.84 189.385 12.84C195.015 12.84 198.085 14.32 200.545 15.51C202.565 16.48 204.015 17.19 207.385 17.19C210.755 17.19 212.205 16.49 214.225 15.51C216.685 14.32 219.755 12.84 225.385 12.84V22.9C222.025 22.9 220.565 23.6 218.545 24.58C216.085 25.77 213.015 27.25 207.385 27.25V27.24Z" fill="#8D623B"/>
<path d="M207.385 36.59C201.745 36.59 198.685 35.11 196.225 33.92C194.205 32.95 192.755 32.24 189.385 32.24C186.015 32.24 184.565 32.94 182.545 33.92C180.085 35.11 177.015 36.59 171.385 36.59C165.755 36.59 162.685 35.11 160.225 33.92C158.205 32.95 156.755 32.24 153.385 32.24V22.18C159.025 22.18 162.085 23.66 164.545 24.85C166.565 25.82 168.015 26.53 171.385 26.53C174.755 26.53 176.205 25.83 178.225 24.85C180.685 23.66 183.755 22.18 189.385 22.18C195.015 22.18 198.085 23.66 200.545 24.85C202.565 25.82 204.015 26.53 207.385 26.53C210.755 26.53 212.205 25.83 214.225 24.85C216.685 23.66 219.755 22.18 225.385 22.18V32.24C222.025 32.24 220.565 32.94 218.545 33.92C216.085 35.11 213.015 36.59 207.385 36.59Z" fill="#7D5734"/>
<path d="M207.385 45.94C201.745 45.94 198.685 44.46 196.225 43.27C194.205 42.3 192.755 41.59 189.385 41.59C186.015 41.59 184.565 42.29 182.545 43.27C180.085 44.46 177.015 45.94 171.385 45.94C165.755 45.94 162.685 44.46 160.225 43.27C158.205 42.3 156.755 41.59 153.385 41.59V31.53C159.025 31.53 162.085 33.01 164.545 34.2C166.565 35.17 168.015 35.88 171.385 35.88C174.755 35.88 176.205 35.18 178.225 34.2C180.685 33.01 183.755 31.53 189.385 31.53C195.015 31.53 198.085 33.01 200.545 34.2C202.565 35.17 204.015 35.88 207.385 35.88C210.755 35.88 212.205 35.18 214.225 34.2C216.685 33.01 219.755 31.53 225.385 31.53V41.59C222.025 41.59 220.565 42.29 218.545 43.27C216.085 44.46 213.015 45.94 207.385 45.94Z" fill="#64452A"/>
<path d="M207.385 55.3C201.745 55.3 198.685 53.82 196.225 52.63C194.205 51.66 192.755 50.95 189.385 50.95C186.015 50.95 184.565 51.65 182.545 52.63C180.085 53.82 177.015 55.3 171.385 55.3C165.755 55.3 162.685 53.82 160.225 52.63C158.205 51.66 156.755 50.95 153.385 50.95V40.89C159.025 40.89 162.085 42.37 164.545 43.56C166.565 44.53 168.015 45.24 171.385 45.24C174.755 45.24 176.205 44.54 178.225 43.56C180.685 42.37 183.755 40.89 189.385 40.89C195.015 40.89 198.085 42.37 200.545 43.56C202.565 44.53 204.015 45.24 207.385 45.24C210.755 45.24 212.205 44.54 214.225 43.56C216.685 42.37 219.755 40.89 225.385 40.89V50.95C222.025 50.95 220.565 51.65 218.545 52.63C216.085 53.82 213.015 55.3 207.385 55.3Z" fill="#97683F"/>
<path d="M207.385 64.65C201.745 64.65 198.685 63.17 196.225 61.98C194.205 61.01 192.755 60.3 189.385 60.3C186.015 60.3 184.565 61 182.545 61.98C180.085 63.17 177.015 64.65 171.385 64.65C165.755 64.65 162.685 63.17 160.225 61.98C158.205 61.01 156.755 60.3 153.385 60.3V50.24C159.025 50.24 162.085 51.72 164.545 52.91C166.565 53.88 168.015 54.59 171.385 54.59C174.755 54.59 176.205 53.89 178.225 52.91C180.685 51.72 183.755 50.24 189.385 50.24C195.015 50.24 198.085 51.72 200.545 52.91C202.565 53.88 204.015 54.59 207.385 54.59C210.755 54.59 212.205 53.89 214.225 52.91C216.685 51.72 219.755 50.24 225.385 50.24V60.3C222.025 60.3 220.565 61 218.545 61.98C216.085 63.17 213.015 64.65 207.385 64.65Z" fill="#7D5734"/>
<path d="M207.385 74C201.745 74 198.685 72.52 196.225 71.33C194.205 70.36 192.755 69.65 189.385 69.65C186.015 69.65 184.565 70.35 182.545 71.33C180.085 72.52 177.015 74 171.385 74C165.755 74 162.685 72.52 160.225 71.33C158.205 70.36 156.755 69.65 153.385 69.65V59.59C159.025 59.59 162.085 61.07 164.545 62.26C166.565 63.23 168.015 63.94 171.385 63.94C174.755 63.94 176.205 63.24 178.225 62.26C180.685 61.07 183.755 59.59 189.385 59.59C195.015 59.59 198.085 61.07 200.545 62.26C202.565 63.23 204.015 63.94 207.385 63.94C210.755 63.94 212.205 63.24 214.225 62.26C216.685 61.07 219.755 59.59 225.385 59.59V69.65C222.025 69.65 220.565 70.35 218.545 71.33C216.085 72.52 213.015 74 207.385 74Z" fill="#64452A"/>
<path d="M164.375 4.3C160.155 4.71 156.095 7.76 154.185 12.46C153.815 13.36 153.555 14.27 153.385 15.19V2H225.385V4.26H164.345C164.345 4.26 164.365 4.28 164.375 4.29V4.3Z" fill="#CBB299"/>
</g>
</g>
</g>
<g clip-path="url(#clip4_21_4747)">
<mask id="mask4_21_4747" style="mask-type:luminance" maskUnits="userSpaceOnUse" x="229" y="2" width="73" height="72">
<path d="M301.078 26.22V2H229.078V74L266.748 49.01L301.078 26.22Z" fill="white"/>
</mask>
<g mask="url(#mask4_21_4747)">
<mask id="mask5_21_4747" style="mask-type:luminance" maskUnits="userSpaceOnUse" x="229" y="2" width="73" height="72">
<path d="M229.078 2H287.578C295.028 2 301.078 8.05 301.078 15.5V74H229.078V2Z" fill="white"/>
</mask>
<g mask="url(#mask5_21_4747)">
<path d="M301.078 55.67H229.078V74H301.078V55.67Z" fill="#8D623B"/>
<path d="M301.078 2H229.078V20.33H301.078V2Z" fill="#BB9A7A"/>
<path d="M283.078 25.24C277.438 25.24 274.378 23.76 271.918 22.57C269.898 21.6 268.448 20.89 265.078 20.89C261.708 20.89 260.258 21.59 258.238 22.57C255.778 23.76 252.708 25.24 247.078 25.24C241.448 25.24 238.378 23.76 235.918 22.57C233.898 21.6 232.448 20.89 229.078 20.89V10.84C234.718 10.84 237.778 12.32 240.238 13.51C242.258 14.48 243.708 15.19 247.078 15.19C250.448 15.19 251.898 14.49 253.918 13.51C256.378 12.32 259.448 10.84 265.078 10.84C270.708 10.84 273.778 12.32 276.238 13.51C278.258 14.48 279.708 15.19 283.078 15.19C286.448 15.19 287.898 14.49 289.918 13.51C292.378 12.32 295.448 10.84 301.078 10.84V20.9C297.718 20.9 296.258 21.6 294.238 22.58C291.778 23.77 288.708 25.25 283.078 25.25V25.24Z" fill="#BFA082"/>
<path d="M283.078 27.24C277.438 27.24 274.378 25.76 271.918 24.57C269.898 23.6 268.448 22.89 265.078 22.89C261.708 22.89 260.258 23.59 258.238 24.57C255.778 25.76 252.708 27.24 247.078 27.24C241.448 27.24 238.378 25.76 235.918 24.57C233.898 23.6 232.448 22.89 229.078 22.89V12.84C234.718 12.84 237.778 14.32 240.238 15.51C242.258 16.48 243.708 17.19 247.078 17.19C250.448 17.19 251.898 16.49 253.918 15.51C256.378 14.32 259.448 12.84 265.078 12.84C270.708 12.84 273.778 14.32 276.238 15.51C278.258 16.48 279.708 17.19 283.078 17.19C286.448 17.19 287.898 16.49 289.918 15.51C292.378 14.32 295.448 12.84 301.078 12.84V22.9C297.718 22.9 296.258 23.6 294.238 24.58C291.778 25.77 288.708 27.25 283.078 27.25V27.24Z" fill="#8D623B"/>
<path d="M283.078 36.59C277.438 36.59 274.378 35.11 271.918 33.92C269.898 32.95 268.448 32.24 265.078 32.24C261.708 32.24 260.258 32.94 258.238 33.92C255.778 35.11 252.708 36.59 247.078 36.59C241.448 36.59 238.378 35.11 235.918 33.92C233.898 32.95 232.448 32.24 229.078 32.24V22.18C234.718 22.18 237.778 23.66 240.238 24.85C242.258 25.82 243.708 26.53 247.078 26.53C250.448 26.53 251.898 25.83 253.918 24.85C256.378 23.66 259.448 22.18 265.078 22.18C270.708 22.18 273.778 23.66 276.238 24.85C278.258 25.82 279.708 26.53 283.078 26.53C286.448 26.53 287.898 25.83 289.918 24.85C292.378 23.66 295.448 22.18 301.078 22.18V32.24C297.718 32.24 296.258 32.94 294.238 33.92C291.778 35.11 288.708 36.59 283.078 36.59Z" fill="#7D5734"/>
<path d="M283.078 45.94C277.438 45.94 274.378 44.46 271.918 43.27C269.898 42.3 268.448 41.59 265.078 41.59C261.708 41.59 260.258 42.29 258.238 43.27C255.778 44.46 252.708 45.94 247.078 45.94C241.448 45.94 238.378 44.46 235.918 43.27C233.898 42.3 232.448 41.59 229.078 41.59V31.53C234.718 31.53 237.778 33.01 240.238 34.2C242.258 35.17 243.708 35.88 247.078 35.88C250.448 35.88 251.898 35.18 253.918 34.2C256.378 33.01 259.448 31.53 265.078 31.53C270.708 31.53 273.778 33.01 276.238 34.2C278.258 35.17 279.708 35.88 283.078 35.88C286.448 35.88 287.898 35.18 289.918 34.2C292.378 33.01 295.448 31.53 301.078 31.53V41.59C297.718 41.59 296.258 42.29 294.238 43.27C291.778 44.46 288.708 45.94 283.078 45.94Z" fill="#64452A"/>
<path d="M283.078 55.3C277.438 55.3 274.378 53.82 271.918 52.63C269.898 51.66 268.448 50.95 265.078 50.95C261.708 50.95 260.258 51.65 258.238 52.63C255.778 53.82 252.708 55.3 247.078 55.3C241.448 55.3 238.378 53.82 235.918 52.63C233.898 51.66 232.448 50.95 229.078 50.95V40.89C234.718 40.89 237.778 42.37 240.238 43.56C242.258 44.53 243.708 45.24 247.078 45.24C250.448 45.24 251.898 44.54 253.918 43.56C256.378 42.37 259.448 40.89 265.078 40.89C270.708 40.89 273.778 42.37 276.238 43.56C278.258 44.53 279.708 45.24 283.078 45.24C286.448 45.24 287.898 44.54 289.918 43.56C292.378 42.37 295.448 40.89 301.078 40.89V50.95C297.718 50.95 296.258 51.65 294.238 52.63C291.778 53.82 288.708 55.3 283.078 55.3Z" fill="#97683F"/>
<path d="M283.078 64.65C277.438 64.65 274.378 63.17 271.918 61.98C269.898 61.01 268.448 60.3 265.078 60.3C261.708 60.3 260.258 61 258.238 61.98C255.778 63.17 252.708 64.65 247.078 64.65C241.448 64.65 238.378 63.17 235.918 61.98C233.898 61.01 232.448 60.3 229.078 60.3V50.24C234.718 50.24 237.778 51.72 240.238 52.91C242.258 53.88 243.708 54.59 247.078 54.59C250.448 54.59 251.898 53.89 253.918 52.91C256.378 51.72 259.448 50.24 265.078 50.24C270.708 50.24 273.778 51.72 276.238 52.91C278.258 53.88 279.708 54.59 283.078 54.59C286.448 54.59 287.898 53.89 289.918 52.91C292.378 51.72 295.448 50.24 301.078 50.24V60.3C297.718 60.3 296.258 61 294.238 61.98C291.778 63.17 288.708 64.65 283.078 64.65Z" fill="#7D5734"/>
<path d="M283.078 74C277.438 74 274.378 72.52 271.918 71.33C269.898 70.36 268.448 69.65 265.078 69.65C261.708 69.65 260.258 70.35 258.238 71.33C255.778 72.52 252.708 74 247.078 74C241.448 74 238.378 72.52 235.918 71.33C233.898 70.36 232.448 69.65 229.078 69.65V59.59C234.718 59.59 237.778 61.07 240.238 62.26C242.258 63.23 243.708 63.94 247.078 63.94C250.448 63.94 251.898 63.24 253.918 62.26C256.378 61.07 259.448 59.59 265.078 59.59C270.708 59.59 273.778 61.07 276.238 62.26C278.258 63.23 279.708 63.94 283.078 63.94C286.448 63.94 287.898 63.24 289.918 62.26C292.378 61.07 295.448 59.59 301.078 59.59V69.65C297.718 69.65 296.258 70.35 294.238 71.33C291.778 72.52 288.708 74 283.078 74Z" fill="#64452A"/>
<path d="M301.078 2H229.078V4.26H301.078V2Z" fill="#CBB299"/>
<path d="M298.108 0.309998C294.828 0.309998 291.928 1.88 290.088 4.3C294.308 4.72 298.368 7.77 300.278 12.46C301.308 15 301.548 17.63 301.128 20.03C305.228 18.75 308.198 14.92 308.198 10.4C308.198 4.83 303.678 0.309998 298.108 0.309998Z" fill="#CBB299"/>
</g>
</g>
</g>
<g clip-path="url(#clip5_21_4747)">
<mask id="mask6_21_4747" style="mask-type:luminance" maskUnits="userSpaceOnUse" x="2" y="77" width="72" height="73">
<path d="M74 149.954V77.9538H2V103.414C6.19 148.624 74 149.954 74 149.954Z" fill="white"/>
</mask>
<g mask="url(#mask6_21_4747)">
<mask id="mask7_21_4747" style="mask-type:luminance" maskUnits="userSpaceOnUse" x="2" y="77" width="72" height="73">
<path d="M74 149.954H2L2 91.4538C2 84.0038 8.05 77.9538 15.5 77.9538L74 77.9538L74 149.954Z" fill="white"/>
</mask>
<g mask="url(#mask7_21_4747)">
<path d="M74 131.624H2V149.954H74V131.624Z" fill="#8D623B"/>
<path d="M74 77.9538H2V96.2838H74V77.9538Z" fill="#BB9A7A"/>
<path d="M56 101.194C50.36 101.194 47.3 99.7138 44.84 98.5238C42.82 97.5538 41.37 96.8438 38 96.8438C34.63 96.8438 33.18 97.5438 31.16 98.5238C28.7 99.7138 25.63 101.194 20 101.194C14.37 101.194 11.3 99.7138 8.84 98.5238C6.82 97.5538 5.37 96.8438 2 96.8438V86.7938C7.64 86.7938 10.7 88.2738 13.16 89.4638C15.18 90.4338 16.63 91.1438 20 91.1438C23.37 91.1438 24.82 90.4438 26.84 89.4638C29.3 88.2738 32.37 86.7938 38 86.7938C43.63 86.7938 46.7 88.2738 49.16 89.4638C51.18 90.4338 52.63 91.1438 56 91.1438C59.37 91.1438 60.82 90.4438 62.84 89.4638C65.3 88.2738 68.37 86.7938 74 86.7938V96.8538C70.64 96.8538 69.18 97.5538 67.16 98.5338C64.7 99.7238 61.63 101.204 56 101.204V101.194Z" fill="#BFA082"/>
<path d="M56 103.194C50.36 103.194 47.3 101.714 44.84 100.524C42.82 99.5538 41.37 98.8438 38 98.8438C34.63 98.8438 33.18 99.5438 31.16 100.524C28.7 101.714 25.63 103.194 20 103.194C14.37 103.194 11.3 101.714 8.84 100.524C6.82 99.5538 5.37 98.8438 2 98.8438V88.7938C7.64 88.7938 10.7 90.2738 13.16 91.4638C15.18 92.4338 16.63 93.1438 20 93.1438C23.37 93.1438 24.82 92.4438 26.84 91.4638C29.3 90.2738 32.37 88.7938 38 88.7938C43.63 88.7938 46.7 90.2738 49.16 91.4638C51.18 92.4338 52.63 93.1438 56 93.1438C59.37 93.1438 60.82 92.4438 62.84 91.4638C65.3 90.2738 68.37 88.7938 74 88.7938V98.8538C70.64 98.8538 69.18 99.5538 67.16 100.534C64.7 101.724 61.63 103.204 56 103.204V103.194Z" fill="#8D623B"/>
<path d="M56 112.544C50.36 112.544 47.3 111.064 44.84 109.874C42.82 108.904 41.37 108.194 38 108.194C34.63 108.194 33.18 108.894 31.16 109.874C28.7 111.064 25.63 112.544 20 112.544C14.37 112.544 11.3 111.064 8.84 109.874C6.82 108.904 5.37 108.194 2 108.194V98.1338C7.64 98.1338 10.7 99.6138 13.16 100.804C15.18 101.774 16.63 102.484 20 102.484C23.37 102.484 24.82 101.784 26.84 100.804C29.3 99.6138 32.37 98.1338 38 98.1338C43.63 98.1338 46.7 99.6138 49.16 100.804C51.18 101.774 52.63 102.484 56 102.484C59.37 102.484 60.82 101.784 62.84 100.804C65.3 99.6138 68.37 98.1338 74 98.1338V108.194C70.64 108.194 69.18 108.894 67.16 109.874C64.7 111.064 61.63 112.544 56 112.544Z" fill="#7D5734"/>
<path d="M56 121.894C50.36 121.894 47.3 120.414 44.84 119.224C42.82 118.254 41.37 117.544 38 117.544C34.63 117.544 33.18 118.244 31.16 119.224C28.7 120.414 25.63 121.894 20 121.894C14.37 121.894 11.3 120.414 8.84 119.224C6.82 118.254 5.37 117.544 2 117.544V107.484C7.64 107.484 10.7 108.964 13.16 110.154C15.18 111.124 16.63 111.834 20 111.834C23.37 111.834 24.82 111.134 26.84 110.154C29.3 108.964 32.37 107.484 38 107.484C43.63 107.484 46.7 108.964 49.16 110.154C51.18 111.124 52.63 111.834 56 111.834C59.37 111.834 60.82 111.134 62.84 110.154C65.3 108.964 68.37 107.484 74 107.484V117.544C70.64 117.544 69.18 118.244 67.16 119.224C64.7 120.414 61.63 121.894 56 121.894Z" fill="#64452A"/>
<path d="M56 131.254C50.36 131.254 47.3 129.774 44.84 128.584C42.82 127.614 41.37 126.904 38 126.904C34.63 126.904 33.18 127.604 31.16 128.584C28.7 129.774 25.63 131.254 20 131.254C14.37 131.254 11.3 129.774 8.84 128.584C6.82 127.614 5.37 126.904 2 126.904V116.844C7.64 116.844 10.7 118.324 13.16 119.514C15.18 120.484 16.63 121.194 20 121.194C23.37 121.194 24.82 120.494 26.84 119.514C29.3 118.324 32.37 116.844 38 116.844C43.63 116.844 46.7 118.324 49.16 119.514C51.18 120.484 52.63 121.194 56 121.194C59.37 121.194 60.82 120.494 62.84 119.514C65.3 118.324 68.37 116.844 74 116.844V126.904C70.64 126.904 69.18 127.604 67.16 128.584C64.7 129.774 61.63 131.254 56 131.254Z" fill="#97683F"/>
<path d="M56 140.604C50.36 140.604 47.3 139.124 44.84 137.934C42.82 136.964 41.37 136.254 38 136.254C34.63 136.254 33.18 136.954 31.16 137.934C28.7 139.124 25.63 140.604 20 140.604C14.37 140.604 11.3 139.124 8.84 137.934C6.82 136.964 5.37 136.254 2 136.254V126.194C7.64 126.194 10.7 127.674 13.16 128.864C15.18 129.834 16.63 130.544 20 130.544C23.37 130.544 24.82 129.844 26.84 128.864C29.3 127.674 32.37 126.194 38 126.194C43.63 126.194 46.7 127.674 49.16 128.864C51.18 129.834 52.63 130.544 56 130.544C59.37 130.544 60.82 129.844 62.84 128.864C65.3 127.674 68.37 126.194 74 126.194V136.254C70.64 136.254 69.18 136.954 67.16 137.934C64.7 139.124 61.63 140.604 56 140.604Z" fill="#7D5734"/>
<path d="M56 149.954C50.36 149.954 47.3 148.474 44.84 147.284C42.82 146.314 41.37 145.604 38 145.604C34.63 145.604 33.18 146.304 31.16 147.284C28.7 148.474 25.63 149.954 20 149.954C14.37 149.954 11.3 148.474 8.84 147.284C6.82 146.314 5.37 145.604 2 145.604V135.544C7.64 135.544 10.7 137.024 13.16 138.214C15.18 139.184 16.63 139.894 20 139.894C23.37 139.894 24.82 139.194 26.84 138.214C29.3 137.024 32.37 135.544 38 135.544C43.63 135.544 46.7 137.024 49.16 138.214C51.18 139.184 52.63 139.894 56 139.894C59.37 139.894 60.82 139.194 62.84 138.214C65.3 137.024 68.37 135.544 74 135.544V145.604C70.64 145.604 69.18 146.304 67.16 147.284C64.7 148.474 61.63 149.954 56 149.954Z" fill="#64452A"/>
<path d="M12.99 80.2538C8.77 80.6638 4.71 83.7138 2.8 88.4138C2.43 89.3138 2.17 90.2238 2 91.1438V77.9538H74V80.2138H12.96C12.96 80.2138 12.98 80.2338 12.99 80.2438V80.2538Z" fill="#CBB299"/>
</g>
</g>
</g>
<g clip-path="url(#clip6_21_4747)">
<mask id="mask8_21_4747" style="mask-type:luminance" maskUnits="userSpaceOnUse" x="77" y="77" width="73" height="73">
<path d="M77.6926 149.954V77.9538H149.693V103.414C145.503 148.624 77.6926 149.954 77.6926 149.954Z" fill="white"/>
</mask>
<g mask="url(#mask8_21_4747)">
<mask id="mask9_21_4747" style="mask-type:luminance" maskUnits="userSpaceOnUse" x="77" y="77" width="73" height="73">
<path d="M77.6926 77.9538H136.193C143.643 77.9538 149.693 84.0038 149.693 91.4538V149.954H77.6926V77.9538Z" fill="white"/>
</mask>
<g mask="url(#mask9_21_4747)">
<path d="M149.693 131.624H77.6926V149.954H149.693V131.624Z" fill="#8D623B"/>
<path d="M149.693 77.9538H77.6926V96.2838H149.693V77.9538Z" fill="#BB9A7A"/>
<path d="M131.693 101.194C126.053 101.194 122.993 99.7138 120.533 98.5238C118.513 97.5538 117.063 96.8438 113.693 96.8438C110.323 96.8438 108.873 97.5438 106.853 98.5238C104.393 99.7138 101.323 101.194 95.6926 101.194C90.0626 101.194 86.9926 99.7138 84.5326 98.5238C82.5126 97.5538 81.0626 96.8438 77.6926 96.8438V86.7938C83.3326 86.7938 86.3926 88.2738 88.8526 89.4638C90.8726 90.4338 92.3226 91.1438 95.6926 91.1438C99.0626 91.1438 100.513 90.4438 102.533 89.4638C104.993 88.2738 108.063 86.7938 113.693 86.7938C119.323 86.7938 122.393 88.2738 124.853 89.4638C126.873 90.4338 128.323 91.1438 131.693 91.1438C135.063 91.1438 136.513 90.4438 138.533 89.4638C140.993 88.2738 144.063 86.7938 149.693 86.7938V96.8538C146.333 96.8538 144.873 97.5538 142.853 98.5338C140.393 99.7238 137.323 101.204 131.693 101.204V101.194Z" fill="#BFA082"/>
<path d="M131.693 103.194C126.053 103.194 122.993 101.714 120.533 100.524C118.513 99.5538 117.063 98.8438 113.693 98.8438C110.323 98.8438 108.873 99.5438 106.853 100.524C104.393 101.714 101.323 103.194 95.6926 103.194C90.0626 103.194 86.9926 101.714 84.5326 100.524C82.5126 99.5538 81.0626 98.8438 77.6926 98.8438V88.7938C83.3326 88.7938 86.3926 90.2738 88.8526 91.4638C90.8726 92.4338 92.3226 93.1438 95.6926 93.1438C99.0626 93.1438 100.513 92.4438 102.533 91.4638C104.993 90.2738 108.063 88.7938 113.693 88.7938C119.323 88.7938 122.393 90.2738 124.853 91.4638C126.873 92.4338 128.323 93.1438 131.693 93.1438C135.063 93.1438 136.513 92.4438 138.533 91.4638C140.993 90.2738 144.063 88.7938 149.693 88.7938V98.8538C146.333 98.8538 144.873 99.5538 142.853 100.534C140.393 101.724 137.323 103.204 131.693 103.204V103.194Z" fill="#8D623B"/>
<path d="M131.693 112.544C126.053 112.544 122.993 111.064 120.533 109.874C118.513 108.904 117.063 108.194 113.693 108.194C110.323 108.194 108.873 108.894 106.853 109.874C104.393 111.064 101.323 112.544 95.6926 112.544C90.0626 112.544 86.9926 111.064 84.5326 109.874C82.5126 108.904 81.0626 108.194 77.6926 108.194V98.1338C83.3326 98.1338 86.3926 99.6138 88.8526 100.804C90.8726 101.774 92.3226 102.484 95.6926 102.484C99.0626 102.484 100.513 101.784 102.533 100.804C104.993 99.6138 108.063 98.1338 113.693 98.1338C119.323 98.1338 122.393 99.6138 124.853 100.804C126.873 101.774 128.323 102.484 131.693 102.484C135.063 102.484 136.513 101.784 138.533 100.804C140.993 99.6138 144.063 98.1338 149.693 98.1338V108.194C146.333 108.194 144.873 108.894 142.853 109.874C140.393 111.064 137.323 112.544 131.693 112.544Z" fill="#7D5734"/>
<path d="M131.693 121.894C126.053 121.894 122.993 120.414 120.533 119.224C118.513 118.254 117.063 117.544 113.693 117.544C110.323 117.544 108.873 118.244 106.853 119.224C104.393 120.414 101.323 121.894 95.6926 121.894C90.0626 121.894 86.9926 120.414 84.5326 119.224C82.5126 118.254 81.0626 117.544 77.6926 117.544V107.484C83.3326 107.484 86.3926 108.964 88.8526 110.154C90.8726 111.124 92.3226 111.834 95.6926 111.834C99.0626 111.834 100.513 111.134 102.533 110.154C104.993 108.964 108.063 107.484 113.693 107.484C119.323 107.484 122.393 108.964 124.853 110.154C126.873 111.124 128.323 111.834 131.693 111.834C135.063 111.834 136.513 111.134 138.533 110.154C140.993 108.964 144.063 107.484 149.693 107.484V117.544C146.333 117.544 144.873 118.244 142.853 119.224C140.393 120.414 137.323 121.894 131.693 121.894Z" fill="#64452A"/>
<path d="M131.693 131.254C126.053 131.254 122.993 129.774 120.533 128.584C118.513 127.614 117.063 126.904 113.693 126.904C110.323 126.904 108.873 127.604 106.853 128.584C104.393 129.774 101.323 131.254 95.6926 131.254C90.0626 131.254 86.9926 129.774 84.5326 128.584C82.5126 127.614 81.0626 126.904 77.6926 126.904V116.844C83.3326 116.844 86.3926 118.324 88.8526 119.514C90.8726 120.484 92.3226 121.194 95.6926 121.194C99.0626 121.194 100.513 120.494 102.533 119.514C104.993 118.324 108.063 116.844 113.693 116.844C119.323 116.844 122.393 118.324 124.853 119.514C126.873 120.484 128.323 121.194 131.693 121.194C135.063 121.194 136.513 120.494 138.533 119.514C140.993 118.324 144.063 116.844 149.693 116.844V126.904C146.333 126.904 144.873 127.604 142.853 128.584C140.393 129.774 137.323 131.254 131.693 131.254Z" fill="#97683F"/>
<path d="M131.693 140.604C126.053 140.604 122.993 139.124 120.533 137.934C118.513 136.964 117.063 136.254 113.693 136.254C110.323 136.254 108.873 136.954 106.853 137.934C104.393 139.124 101.323 140.604 95.6926 140.604C90.0626 140.604 86.9926 139.124 84.5326 137.934C82.5126 136.964 81.0626 136.254 77.6926 136.254V126.194C83.3326 126.194 86.3926 127.674 88.8526 128.864C90.8726 129.834 92.3226 130.544 95.6926 130.544C99.0626 130.544 100.513 129.844 102.533 128.864C104.993 127.674 108.063 126.194 113.693 126.194C119.323 126.194 122.393 127.674 124.853 128.864C126.873 129.834 128.323 130.544 131.693 130.544C135.063 130.544 136.513 129.844 138.533 128.864C140.993 127.674 144.063 126.194 149.693 126.194V136.254C146.333 136.254 144.873 136.954 142.853 137.934C140.393 139.124 137.323 140.604 131.693 140.604Z" fill="#7D5734"/>
<path d="M131.693 149.954C126.053 149.954 122.993 148.474 120.533 147.284C118.513 146.314 117.063 145.604 113.693 145.604C110.323 145.604 108.873 146.304 106.853 147.284C104.393 148.474 101.323 149.954 95.6926 149.954C90.0626 149.954 86.9926 148.474 84.5326 147.284C82.5126 146.314 81.0626 145.604 77.6926 145.604V135.544C83.3326 135.544 86.3926 137.024 88.8526 138.214C90.8726 139.184 92.3226 139.894 95.6926 139.894C99.0626 139.894 100.513 139.194 102.533 138.214C104.993 137.024 108.063 135.544 113.693 135.544C119.323 135.544 122.393 137.024 124.853 138.214C126.873 139.184 128.323 139.894 131.693 139.894C135.063 139.894 136.513 139.194 138.533 138.214C140.993 137.024 144.063 135.544 149.693 135.544V145.604C146.333 145.604 144.873 146.304 142.853 147.284C140.393 148.474 137.323 149.954 131.693 149.954Z" fill="#64452A"/>
<path d="M149.693 77.9538H77.6926V80.2138H149.693V77.9538Z" fill="#CBB299"/>
<path d="M146.723 76.2638C143.443 76.2638 140.543 77.8338 138.703 80.2538C142.923 80.6738 146.983 83.7238 148.893 88.4138C149.923 90.9538 150.163 93.5838 149.743 95.9838C153.843 94.7038 156.813 90.8738 156.813 86.3538C156.813 80.7838 152.293 76.2638 146.723 76.2638Z" fill="#CBB299"/>
</g>
</g>
</g>
<g clip-path="url(#clip7_21_4747)">
<mask id="mask10_21_4747" style="mask-type:luminance" maskUnits="userSpaceOnUse" x="153" y="77" width="73" height="73">
<path d="M225.385 149.954H153.385V91.4538C153.385 84.0038 159.435 77.9538 166.885 77.9538L225.385 77.9538V149.954Z" fill="white"/>
</mask>
<g mask="url(#mask10_21_4747)">
<path d="M225.385 131.624H153.385V149.954H225.385V131.624Z" fill="#8D623B"/>
<path d="M225.385 77.9538H153.385V96.2838H225.385V77.9538Z" fill="#BB9A7A"/>
<path d="M207.385 101.194C201.745 101.194 198.685 99.7138 196.225 98.5238C194.205 97.5538 192.755 96.8438 189.385 96.8438C186.015 96.8438 184.565 97.5438 182.545 98.5238C180.085 99.7138 177.015 101.194 171.385 101.194C165.755 101.194 162.685 99.7138 160.225 98.5238C158.205 97.5538 156.755 96.8438 153.385 96.8438V86.7938C159.025 86.7938 162.085 88.2738 164.545 89.4638C166.565 90.4338 168.015 91.1438 171.385 91.1438C174.755 91.1438 176.205 90.4438 178.225 89.4638C180.685 88.2738 183.755 86.7938 189.385 86.7938C195.015 86.7938 198.085 88.2738 200.545 89.4638C202.565 90.4338 204.015 91.1438 207.385 91.1438C210.755 91.1438 212.205 90.4438 214.225 89.4638C216.685 88.2738 219.755 86.7938 225.385 86.7938V96.8538C222.025 96.8538 220.565 97.5538 218.545 98.5338C216.085 99.7238 213.015 101.204 207.385 101.204V101.194Z" fill="#BFA082"/>
<path d="M207.385 103.194C201.745 103.194 198.685 101.714 196.225 100.524C194.205 99.5538 192.755 98.8438 189.385 98.8438C186.015 98.8438 184.565 99.5438 182.545 100.524C180.085 101.714 177.015 103.194 171.385 103.194C165.755 103.194 162.685 101.714 160.225 100.524C158.205 99.5538 156.755 98.8438 153.385 98.8438V88.7938C159.025 88.7938 162.085 90.2738 164.545 91.4638C166.565 92.4338 168.015 93.1438 171.385 93.1438C174.755 93.1438 176.205 92.4438 178.225 91.4638C180.685 90.2738 183.755 88.7938 189.385 88.7938C195.015 88.7938 198.085 90.2738 200.545 91.4638C202.565 92.4338 204.015 93.1438 207.385 93.1438C210.755 93.1438 212.205 92.4438 214.225 91.4638C216.685 90.2738 219.755 88.7938 225.385 88.7938V98.8538C222.025 98.8538 220.565 99.5538 218.545 100.534C216.085 101.724 213.015 103.204 207.385 103.204V103.194Z" fill="#8D623B"/>
<path d="M207.385 112.544C201.745 112.544 198.685 111.064 196.225 109.874C194.205 108.904 192.755 108.194 189.385 108.194C186.015 108.194 184.565 108.894 182.545 109.874C180.085 111.064 177.015 112.544 171.385 112.544C165.755 112.544 162.685 111.064 160.225 109.874C158.205 108.904 156.755 108.194 153.385 108.194V98.1338C159.025 98.1338 162.085 99.6138 164.545 100.804C166.565 101.774 168.015 102.484 171.385 102.484C174.755 102.484 176.205 101.784 178.225 100.804C180.685 99.6138 183.755 98.1338 189.385 98.1338C195.015 98.1338 198.085 99.6138 200.545 100.804C202.565 101.774 204.015 102.484 207.385 102.484C210.755 102.484 212.205 101.784 214.225 100.804C216.685 99.6138 219.755 98.1338 225.385 98.1338V108.194C222.025 108.194 220.565 108.894 218.545 109.874C216.085 111.064 213.015 112.544 207.385 112.544Z" fill="#7D5734"/>
<path d="M207.385 121.894C201.745 121.894 198.685 120.414 196.225 119.224C194.205 118.254 192.755 117.544 189.385 117.544C186.015 117.544 184.565 118.244 182.545 119.224C180.085 120.414 177.015 121.894 171.385 121.894C165.755 121.894 162.685 120.414 160.225 119.224C158.205 118.254 156.755 117.544 153.385 117.544V107.484C159.025 107.484 162.085 108.964 164.545 110.154C166.565 111.124 168.015 111.834 171.385 111.834C174.755 111.834 176.205 111.134 178.225 110.154C180.685 108.964 183.755 107.484 189.385 107.484C195.015 107.484 198.085 108.964 200.545 110.154C202.565 111.124 204.015 111.834 207.385 111.834C210.755 111.834 212.205 111.134 214.225 110.154C216.685 108.964 219.755 107.484 225.385 107.484V117.544C222.025 117.544 220.565 118.244 218.545 119.224C216.085 120.414 213.015 121.894 207.385 121.894Z" fill="#64452A"/>
<path d="M207.385 131.254C201.745 131.254 198.685 129.774 196.225 128.584C194.205 127.614 192.755 126.904 189.385 126.904C186.015 126.904 184.565 127.604 182.545 128.584C180.085 129.774 177.015 131.254 171.385 131.254C165.755 131.254 162.685 129.774 160.225 128.584C158.205 127.614 156.755 126.904 153.385 126.904V116.844C159.025 116.844 162.085 118.324 164.545 119.514C166.565 120.484 168.015 121.194 171.385 121.194C174.755 121.194 176.205 120.494 178.225 119.514C180.685 118.324 183.755 116.844 189.385 116.844C195.015 116.844 198.085 118.324 200.545 119.514C202.565 120.484 204.015 121.194 207.385 121.194C210.755 121.194 212.205 120.494 214.225 119.514C216.685 118.324 219.755 116.844 225.385 116.844V126.904C222.025 126.904 220.565 127.604 218.545 128.584C216.085 129.774 213.015 131.254 207.385 131.254Z" fill="#97683F"/>
<path d="M207.385 140.604C201.745 140.604 198.685 139.124 196.225 137.934C194.205 136.964 192.755 136.254 189.385 136.254C186.015 136.254 184.565 136.954 182.545 137.934C180.085 139.124 177.015 140.604 171.385 140.604C165.755 140.604 162.685 139.124 160.225 137.934C158.205 136.964 156.755 136.254 153.385 136.254V126.194C159.025 126.194 162.085 127.674 164.545 128.864C166.565 129.834 168.015 130.544 171.385 130.544C174.755 130.544 176.205 129.844 178.225 128.864C180.685 127.674 183.755 126.194 189.385 126.194C195.015 126.194 198.085 127.674 200.545 128.864C202.565 129.834 204.015 130.544 207.385 130.544C210.755 130.544 212.205 129.844 214.225 128.864C216.685 127.674 219.755 126.194 225.385 126.194V136.254C222.025 136.254 220.565 136.954 218.545 137.934C216.085 139.124 213.015 140.604 207.385 140.604Z" fill="#7D5734"/>
<path d="M207.385 149.954C201.745 149.954 198.685 148.474 196.225 147.284C194.205 146.314 192.755 145.604 189.385 145.604C186.015 145.604 184.565 146.304 182.545 147.284C180.085 148.474 177.015 149.954 171.385 149.954C165.755 149.954 162.685 148.474 160.225 147.284C158.205 146.314 156.755 145.604 153.385 145.604V135.544C159.025 135.544 162.085 137.024 164.545 138.214C166.565 139.184 168.015 139.894 171.385 139.894C174.755 139.894 176.205 139.194 178.225 138.214C180.685 137.024 183.755 135.544 189.385 135.544C195.015 135.544 198.085 137.024 200.545 138.214C202.565 139.184 204.015 139.894 207.385 139.894C210.755 139.894 212.205 139.194 214.225 138.214C216.685 137.024 219.755 135.544 225.385 135.544V145.604C222.025 145.604 220.565 146.304 218.545 147.284C216.085 148.474 213.015 149.954 207.385 149.954Z" fill="#64452A"/>
<path d="M164.375 80.2538C160.155 80.6638 156.095 83.7138 154.185 88.4138C153.815 89.3138 153.555 90.2238 153.385 91.1438V77.9538H225.385V80.2138H164.345C164.345 80.2138 164.365 80.2338 164.375 80.2438V80.2538Z" fill="#CBB299"/>
</g>
</g>
<g clip-path="url(#clip8_21_4747)">
<path d="M74 207.578H2V225.908H74V207.578Z" fill="#8D623B"/>
<path d="M74 153.908H2V172.238H74V153.908Z" fill="#BB9A7A"/>
<path d="M56 177.148C50.36 177.148 47.3 175.668 44.84 174.478C42.82 173.508 41.37 172.798 38 172.798C34.63 172.798 33.18 173.498 31.16 174.478C28.7 175.668 25.63 177.148 20 177.148C14.37 177.148 11.3 175.668 8.84 174.478C6.82 173.508 5.37 172.798 2 172.798V162.748C7.64 162.748 10.7 164.228 13.16 165.418C15.18 166.388 16.63 167.098 20 167.098C23.37 167.098 24.82 166.398 26.84 165.418C29.3 164.228 32.37 162.748 38 162.748C43.63 162.748 46.7 164.228 49.16 165.418C51.18 166.388 52.63 167.098 56 167.098C59.37 167.098 60.82 166.398 62.84 165.418C65.3 164.228 68.37 162.748 74 162.748V172.808C70.64 172.808 69.18 173.508 67.16 174.488C64.7 175.678 61.63 177.158 56 177.158V177.148Z" fill="#BFA082"/>
<path d="M56 179.148C50.36 179.148 47.3 177.668 44.84 176.478C42.82 175.508 41.37 174.798 38 174.798C34.63 174.798 33.18 175.498 31.16 176.478C28.7 177.668 25.63 179.148 20 179.148C14.37 179.148 11.3 177.668 8.84 176.478C6.82 175.508 5.37 174.798 2 174.798V164.748C7.64 164.748 10.7 166.228 13.16 167.418C15.18 168.388 16.63 169.098 20 169.098C23.37 169.098 24.82 168.398 26.84 167.418C29.3 166.228 32.37 164.748 38 164.748C43.63 164.748 46.7 166.228 49.16 167.418C51.18 168.388 52.63 169.098 56 169.098C59.37 169.098 60.82 168.398 62.84 167.418C65.3 166.228 68.37 164.748 74 164.748V174.808C70.64 174.808 69.18 175.508 67.16 176.488C64.7 177.678 61.63 179.158 56 179.158V179.148Z" fill="#8D623B"/>
<path d="M56 188.498C50.36 188.498 47.3 187.018 44.84 185.828C42.82 184.858 41.37 184.148 38 184.148C34.63 184.148 33.18 184.848 31.16 185.828C28.7 187.018 25.63 188.498 20 188.498C14.37 188.498 11.3 187.018 8.84 185.828C6.82 184.858 5.37 184.148 2 184.148V174.088C7.64 174.088 10.7 175.568 13.16 176.758C15.18 177.728 16.63 178.438 20 178.438C23.37 178.438 24.82 177.738 26.84 176.758C29.3 175.568 32.37 174.088 38 174.088C43.63 174.088 46.7 175.568 49.16 176.758C51.18 177.728 52.63 178.438 56 178.438C59.37 178.438 60.82 177.738 62.84 176.758C65.3 175.568 68.37 174.088 74 174.088V184.148C70.64 184.148 69.18 184.848 67.16 185.828C64.7 187.018 61.63 188.498 56 188.498Z" fill="#7D5734"/>
<path d="M56 197.848C50.36 197.848 47.3 196.368 44.84 195.178C42.82 194.208 41.37 193.498 38 193.498C34.63 193.498 33.18 194.198 31.16 195.178C28.7 196.368 25.63 197.848 20 197.848C14.37 197.848 11.3 196.368 8.84 195.178C6.82 194.208 5.37 193.498 2 193.498V183.438C7.64 183.438 10.7 184.918 13.16 186.108C15.18 187.078 16.63 187.788 20 187.788C23.37 187.788 24.82 187.088 26.84 186.108C29.3 184.918 32.37 183.438 38 183.438C43.63 183.438 46.7 184.918 49.16 186.108C51.18 187.078 52.63 187.788 56 187.788C59.37 187.788 60.82 187.088 62.84 186.108C65.3 184.918 68.37 183.438 74 183.438V193.498C70.64 193.498 69.18 194.198 67.16 195.178C64.7 196.368 61.63 197.848 56 197.848Z" fill="#64452A"/>
<path d="M56 207.208C50.36 207.208 47.3 205.728 44.84 204.538C42.82 203.568 41.37 202.858 38 202.858C34.63 202.858 33.18 203.558 31.16 204.538C28.7 205.728 25.63 207.208 20 207.208C14.37 207.208 11.3 205.728 8.84 204.538C6.82 203.568 5.37 202.858 2 202.858V192.798C7.64 192.798 10.7 194.278 13.16 195.468C15.18 196.438 16.63 197.148 20 197.148C23.37 197.148 24.82 196.448 26.84 195.468C29.3 194.278 32.37 192.798 38 192.798C43.63 192.798 46.7 194.278 49.16 195.468C51.18 196.438 52.63 197.148 56 197.148C59.37 197.148 60.82 196.448 62.84 195.468C65.3 194.278 68.37 192.798 74 192.798V202.858C70.64 202.858 69.18 203.558 67.16 204.538C64.7 205.728 61.63 207.208 56 207.208Z" fill="#97683F"/>
<path d="M56 216.558C50.36 216.558 47.3 215.078 44.84 213.888C42.82 212.918 41.37 212.208 38 212.208C34.63 212.208 33.18 212.908 31.16 213.888C28.7 215.078 25.63 216.558 20 216.558C14.37 216.558 11.3 215.078 8.84 213.888C6.82 212.918 5.37 212.208 2 212.208V202.148C7.64 202.148 10.7 203.628 13.16 204.818C15.18 205.788 16.63 206.498 20 206.498C23.37 206.498 24.82 205.798 26.84 204.818C29.3 203.628 32.37 202.148 38 202.148C43.63 202.148 46.7 203.628 49.16 204.818C51.18 205.788 52.63 206.498 56 206.498C59.37 206.498 60.82 205.798 62.84 204.818C65.3 203.628 68.37 202.148 74 202.148V212.208C70.64 212.208 69.18 212.908 67.16 213.888C64.7 215.078 61.63 216.558 56 216.558Z" fill="#7D5734"/>
<path d="M56 225.908C50.36 225.908 47.3 224.428 44.84 223.238C42.82 222.268 41.37 221.558 38 221.558C34.63 221.558 33.18 222.258 31.16 223.238C28.7 224.428 25.63 225.908 20 225.908C14.37 225.908 11.3 224.428 8.84 223.238C6.82 222.268 5.37 221.558 2 221.558V211.498C7.64 211.498 10.7 212.978 13.16 214.168C15.18 215.138 16.63 215.848 20 215.848C23.37 215.848 24.82 215.148 26.84 214.168C29.3 212.978 32.37 211.498 38 211.498C43.63 211.498 46.7 212.978 49.16 214.168C51.18 215.138 52.63 215.848 56 215.848C59.37 215.848 60.82 215.148 62.84 214.168C65.3 212.978 68.37 211.498 74 211.498V221.558C70.64 221.558 69.18 222.258 67.16 223.238C64.7 224.428 61.63 225.908 56 225.908Z" fill="#64452A"/>
<path d="M74 153.908H2V156.168H74V153.908Z" fill="#CBB299"/>
<path d="M58.17 161.298C56.98 162.588 55.34 162.998 54.5 162.228C53.66 161.458 53.96 159.788 55.15 158.498C56.34 157.208 58.82 157.568 58.82 157.568C58.82 157.568 59.36 160.008 58.17 161.298Z" stroke="#653A13" stroke-width="0.5" stroke-miterlimit="10"/>
<path d="M58.83 157.568L54.53 162.208" stroke="#653A13" stroke-width="0.5" stroke-miterlimit="10"/>
<path d="M55.46 161.178L58.34 161.068" stroke="#653A13" stroke-width="0.5" stroke-miterlimit="10"/>
<path d="M56.84 159.678L58.89 159.608" stroke="#653A13" stroke-width="0.5" stroke-miterlimit="10"/>
<path d="M56.02 160.478L55.93 157.948" stroke="#653A13" stroke-width="0.5" stroke-miterlimit="10"/>
<path d="M58.04 158.318L58.02 157.548" stroke="#653A13" stroke-width="0.5" stroke-miterlimit="10"/>
<path d="M23.28 162.558L22.54 160.698L20.55 160.818L20.05 162.758L21.74 163.828L23.28 162.558Z" stroke="#653A13" stroke-width="0.5" stroke-miterlimit="10"/>
<path d="M16.81 160.988L14.26 159.218L11.78 161.088L12.8 164.028L15.9 163.968L16.81 160.988Z" stroke="#653A13" stroke-width="0.5" stroke-miterlimit="10"/>
</g>
<g clip-path="url(#clip9_21_4747)">
<path d="M149.693 207.578H77.6926V225.908H149.693V207.578Z" fill="#8D623B"/>
<path d="M149.693 153.908H77.6926V172.238H149.693V153.908Z" fill="#BB9A7A"/>
<path d="M131.693 177.148C126.053 177.148 122.993 175.668 120.533 174.478C118.513 173.508 117.063 172.798 113.693 172.798C110.323 172.798 108.873 173.498 106.853 174.478C104.393 175.668 101.323 177.148 95.6926 177.148C90.0626 177.148 86.9926 175.668 84.5326 174.478C82.5126 173.508 81.0626 172.798 77.6926 172.798V162.748C83.3326 162.748 86.3926 164.228 88.8526 165.418C90.8726 166.388 92.3226 167.098 95.6926 167.098C99.0626 167.098 100.513 166.398 102.533 165.418C104.993 164.228 108.063 162.748 113.693 162.748C119.323 162.748 122.393 164.228 124.853 165.418C126.873 166.388 128.323 167.098 131.693 167.098C135.063 167.098 136.513 166.398 138.533 165.418C140.993 164.228 144.063 162.748 149.693 162.748V172.808C146.333 172.808 144.873 173.508 142.853 174.488C140.393 175.678 137.323 177.158 131.693 177.158V177.148Z" fill="#BFA082"/>
<path d="M131.693 179.148C126.053 179.148 122.993 177.668 120.533 176.478C118.513 175.508 117.063 174.798 113.693 174.798C110.323 174.798 108.873 175.498 106.853 176.478C104.393 177.668 101.323 179.148 95.6926 179.148C90.0626 179.148 86.9926 177.668 84.5326 176.478C82.5126 175.508 81.0626 174.798 77.6926 174.798V164.748C83.3326 164.748 86.3926 166.228 88.8526 167.418C90.8726 168.388 92.3226 169.098 95.6926 169.098C99.0626 169.098 100.513 168.398 102.533 167.418C104.993 166.228 108.063 164.748 113.693 164.748C119.323 164.748 122.393 166.228 124.853 167.418C126.873 168.388 128.323 169.098 131.693 169.098C135.063 169.098 136.513 168.398 138.533 167.418C140.993 166.228 144.063 164.748 149.693 164.748V174.808C146.333 174.808 144.873 175.508 142.853 176.488C140.393 177.678 137.323 179.158 131.693 179.158V179.148Z" fill="#8D623B"/>
<path d="M131.693 188.498C126.053 188.498 122.993 187.018 120.533 185.828C118.513 184.858 117.063 184.148 113.693 184.148C110.323 184.148 108.873 184.848 106.853 185.828C104.393 187.018 101.323 188.498 95.6926 188.498C90.0626 188.498 86.9926 187.018 84.5326 185.828C82.5126 184.858 81.0626 184.148 77.6926 184.148V174.088C83.3326 174.088 86.3926 175.568 88.8526 176.758C90.8726 177.728 92.3226 178.438 95.6926 178.438C99.0626 178.438 100.513 177.738 102.533 176.758C104.993 175.568 108.063 174.088 113.693 174.088C119.323 174.088 122.393 175.568 124.853 176.758C126.873 177.728 128.323 178.438 131.693 178.438C135.063 178.438 136.513 177.738 138.533 176.758C140.993 175.568 144.063 174.088 149.693 174.088V184.148C146.333 184.148 144.873 184.848 142.853 185.828C140.393 187.018 137.323 188.498 131.693 188.498Z" fill="#7D5734"/>
<path d="M131.693 197.848C126.053 197.848 122.993 196.368 120.533 195.178C118.513 194.208 117.063 193.498 113.693 193.498C110.323 193.498 108.873 194.198 106.853 195.178C104.393 196.368 101.323 197.848 95.6926 197.848C90.0626 197.848 86.9926 196.368 84.5326 195.178C82.5126 194.208 81.0626 193.498 77.6926 193.498V183.438C83.3326 183.438 86.3926 184.918 88.8526 186.108C90.8726 187.078 92.3226 187.788 95.6926 187.788C99.0626 187.788 100.513 187.088 102.533 186.108C104.993 184.918 108.063 183.438 113.693 183.438C119.323 183.438 122.393 184.918 124.853 186.108C126.873 187.078 128.323 187.788 131.693 187.788C135.063 187.788 136.513 187.088 138.533 186.108C140.993 184.918 144.063 183.438 149.693 183.438V193.498C146.333 193.498 144.873 194.198 142.853 195.178C140.393 196.368 137.323 197.848 131.693 197.848Z" fill="#64452A"/>
<path d="M131.693 207.208C126.053 207.208 122.993 205.728 120.533 204.538C118.513 203.568 117.063 202.858 113.693 202.858C110.323 202.858 108.873 203.558 106.853 204.538C104.393 205.728 101.323 207.208 95.6926 207.208C90.0626 207.208 86.9926 205.728 84.5326 204.538C82.5126 203.568 81.0626 202.858 77.6926 202.858V192.798C83.3326 192.798 86.3926 194.278 88.8526 195.468C90.8726 196.438 92.3226 197.148 95.6926 197.148C99.0626 197.148 100.513 196.448 102.533 195.468C104.993 194.278 108.063 192.798 113.693 192.798C119.323 192.798 122.393 194.278 124.853 195.468C126.873 196.438 128.323 197.148 131.693 197.148C135.063 197.148 136.513 196.448 138.533 195.468C140.993 194.278 144.063 192.798 149.693 192.798V202.858C146.333 202.858 144.873 203.558 142.853 204.538C140.393 205.728 137.323 207.208 131.693 207.208Z" fill="#97683F"/>
<path d="M131.693 216.558C126.053 216.558 122.993 215.078 120.533 213.888C118.513 212.918 117.063 212.208 113.693 212.208C110.323 212.208 108.873 212.908 106.853 213.888C104.393 215.078 101.323 216.558 95.6926 216.558C90.0626 216.558 86.9926 215.078 84.5326 213.888C82.5126 212.918 81.0626 212.208 77.6926 212.208V202.148C83.3326 202.148 86.3926 203.628 88.8526 204.818C90.8726 205.788 92.3226 206.498 95.6926 206.498C99.0626 206.498 100.513 205.798 102.533 204.818C104.993 203.628 108.063 202.148 113.693 202.148C119.323 202.148 122.393 203.628 124.853 204.818C126.873 205.788 128.323 206.498 131.693 206.498C135.063 206.498 136.513 205.798 138.533 204.818C140.993 203.628 144.063 202.148 149.693 202.148V212.208C146.333 212.208 144.873 212.908 142.853 213.888C140.393 215.078 137.323 216.558 131.693 216.558Z" fill="#7D5734"/>
<path d="M131.693 225.908C126.053 225.908 122.993 224.428 120.533 223.238C118.513 222.268 117.063 221.558 113.693 221.558C110.323 221.558 108.873 222.258 106.853 223.238C104.393 224.428 101.323 225.908 95.6926 225.908C90.0626 225.908 86.9926 224.428 84.5326 223.238C82.5126 222.268 81.0626 221.558 77.6926 221.558V211.498C83.3326 211.498 86.3926 212.978 88.8526 214.168C90.8726 215.138 92.3226 215.848 95.6926 215.848C99.0626 215.848 100.513 215.148 102.533 214.168C104.993 212.978 108.063 211.498 113.693 211.498C119.323 211.498 122.393 212.978 124.853 214.168C126.873 215.138 128.323 215.848 131.693 215.848C135.063 215.848 136.513 215.148 138.533 214.168C140.993 212.978 144.063 211.498 149.693 211.498V221.558C146.333 221.558 144.873 222.258 142.853 223.238C140.393 224.428 137.323 225.908 131.693 225.908Z" fill="#64452A"/>
<path d="M149.693 153.908H77.6926V156.168H149.693V153.908Z" fill="#CBB299"/>
<path d="M96.4426 161.148C97.9826 161.988 98.7926 163.468 98.2526 164.468C97.7126 165.468 96.0226 165.598 94.4826 164.768C92.9426 163.938 92.6726 161.448 92.6726 161.448C92.6726 161.448 94.9026 160.318 96.4426 161.148Z" stroke="#653A13" stroke-width="0.5" stroke-miterlimit="10"/>
<path d="M92.6726 161.448L98.2326 164.458" stroke="#653A13" stroke-width="0.5" stroke-miterlimit="10"/>
<path d="M96.9926 163.808L96.1726 161.048" stroke="#653A13" stroke-width="0.5" stroke-miterlimit="10"/>
<path d="M95.2026 162.838L94.6226 160.878" stroke="#653A13" stroke-width="0.5" stroke-miterlimit="10"/>
<path d="M96.1826 163.438L93.7526 164.158" stroke="#653A13" stroke-width="0.5" stroke-miterlimit="10"/>
<path d="M93.5826 162.018L92.8426 162.238" stroke="#653A13" stroke-width="0.5" stroke-miterlimit="10"/>
<path d="M120.183 161.388C118.603 162.148 116.923 161.928 116.433 160.898C115.943 159.868 116.823 158.428 118.413 157.668C120.003 156.908 122.163 158.158 122.163 158.158C122.163 158.158 121.773 160.628 120.183 161.388Z" stroke="#653A13" stroke-width="0.5" stroke-miterlimit="10"/>
<path d="M122.163 158.158L116.453 160.888" stroke="#653A13" stroke-width="0.5" stroke-miterlimit="10"/>
<path d="M117.703 160.268L120.423 161.228" stroke="#653A13" stroke-width="0.5" stroke-miterlimit="10"/>
<path d="M119.543 159.388L121.473 160.068" stroke="#653A13" stroke-width="0.5" stroke-miterlimit="10"/>
<path d="M118.483 159.828L119.323 157.448" stroke="#653A13" stroke-width="0.5" stroke-miterlimit="10"/>
<path d="M121.163 158.558L121.413 157.838" stroke="#653A13" stroke-width="0.5" stroke-miterlimit="10"/>
<path d="M90.1826 159.228L89.0026 157.608L87.1026 158.228V160.228L89.0026 160.848L90.1826 159.228Z" stroke="#653A13" stroke-width="0.5" stroke-miterlimit="10"/>
<path d="M148.583 161.208L148.373 159.218L146.413 158.808L145.413 160.538L146.753 162.018L148.583 161.208Z" stroke="#653A13" stroke-width="0.5" stroke-miterlimit="10"/>
</g>
<g clip-path="url(#clip10_21_4747)">
<path d="M225.385 207.578H153.385V225.908H225.385V207.578Z" fill="#8D623B"/>
<path d="M225.385 153.908H153.385V172.238H225.385V153.908Z" fill="#BB9A7A"/>
<path d="M207.385 177.148C201.745 177.148 198.685 175.668 196.225 174.478C194.205 173.508 192.755 172.798 189.385 172.798C186.015 172.798 184.565 173.498 182.545 174.478C180.085 175.668 177.015 177.148 171.385 177.148C165.755 177.148 162.685 175.668 160.225 174.478C158.205 173.508 156.755 172.798 153.385 172.798V162.748C159.025 162.748 162.085 164.228 164.545 165.418C166.565 166.388 168.015 167.098 171.385 167.098C174.755 167.098 176.205 166.398 178.225 165.418C180.685 164.228 183.755 162.748 189.385 162.748C195.015 162.748 198.085 164.228 200.545 165.418C202.565 166.388 204.015 167.098 207.385 167.098C210.755 167.098 212.205 166.398 214.225 165.418C216.685 164.228 219.755 162.748 225.385 162.748V172.808C222.025 172.808 220.565 173.508 218.545 174.488C216.085 175.678 213.015 177.158 207.385 177.158V177.148Z" fill="#BFA082"/>
<path d="M207.385 179.148C201.745 179.148 198.685 177.668 196.225 176.478C194.205 175.508 192.755 174.798 189.385 174.798C186.015 174.798 184.565 175.498 182.545 176.478C180.085 177.668 177.015 179.148 171.385 179.148C165.755 179.148 162.685 177.668 160.225 176.478C158.205 175.508 156.755 174.798 153.385 174.798V164.748C159.025 164.748 162.085 166.228 164.545 167.418C166.565 168.388 168.015 169.098 171.385 169.098C174.755 169.098 176.205 168.398 178.225 167.418C180.685 166.228 183.755 164.748 189.385 164.748C195.015 164.748 198.085 166.228 200.545 167.418C202.565 168.388 204.015 169.098 207.385 169.098C210.755 169.098 212.205 168.398 214.225 167.418C216.685 166.228 219.755 164.748 225.385 164.748V174.808C222.025 174.808 220.565 175.508 218.545 176.488C216.085 177.678 213.015 179.158 207.385 179.158V179.148Z" fill="#8D623B"/>
<path d="M207.385 188.498C201.745 188.498 198.685 187.018 196.225 185.828C194.205 184.858 192.755 184.148 189.385 184.148C186.015 184.148 184.565 184.848 182.545 185.828C180.085 187.018 177.015 188.498 171.385 188.498C165.755 188.498 162.685 187.018 160.225 185.828C158.205 184.858 156.755 184.148 153.385 184.148V174.088C159.025 174.088 162.085 175.568 164.545 176.758C166.565 177.728 168.015 178.438 171.385 178.438C174.755 178.438 176.205 177.738 178.225 176.758C180.685 175.568 183.755 174.088 189.385 174.088C195.015 174.088 198.085 175.568 200.545 176.758C202.565 177.728 204.015 178.438 207.385 178.438C210.755 178.438 212.205 177.738 214.225 176.758C216.685 175.568 219.755 174.088 225.385 174.088V184.148C222.025 184.148 220.565 184.848 218.545 185.828C216.085 187.018 213.015 188.498 207.385 188.498Z" fill="#7D5734"/>
<path d="M207.385 197.848C201.745 197.848 198.685 196.368 196.225 195.178C194.205 194.208 192.755 193.498 189.385 193.498C186.015 193.498 184.565 194.198 182.545 195.178C180.085 196.368 177.015 197.848 171.385 197.848C165.755 197.848 162.685 196.368 160.225 195.178C158.205 194.208 156.755 193.498 153.385 193.498V183.438C159.025 183.438 162.085 184.918 164.545 186.108C166.565 187.078 168.015 187.788 171.385 187.788C174.755 187.788 176.205 187.088 178.225 186.108C180.685 184.918 183.755 183.438 189.385 183.438C195.015 183.438 198.085 184.918 200.545 186.108C202.565 187.078 204.015 187.788 207.385 187.788C210.755 187.788 212.205 187.088 214.225 186.108C216.685 184.918 219.755 183.438 225.385 183.438V193.498C222.025 193.498 220.565 194.198 218.545 195.178C216.085 196.368 213.015 197.848 207.385 197.848Z" fill="#64452A"/>
<path d="M207.385 207.208C201.745 207.208 198.685 205.728 196.225 204.538C194.205 203.568 192.755 202.858 189.385 202.858C186.015 202.858 184.565 203.558 182.545 204.538C180.085 205.728 177.015 207.208 171.385 207.208C165.755 207.208 162.685 205.728 160.225 204.538C158.205 203.568 156.755 202.858 153.385 202.858V192.798C159.025 192.798 162.085 194.278 164.545 195.468C166.565 196.438 168.015 197.148 171.385 197.148C174.755 197.148 176.205 196.448 178.225 195.468C180.685 194.278 183.755 192.798 189.385 192.798C195.015 192.798 198.085 194.278 200.545 195.468C202.565 196.438 204.015 197.148 207.385 197.148C210.755 197.148 212.205 196.448 214.225 195.468C216.685 194.278 219.755 192.798 225.385 192.798V202.858C222.025 202.858 220.565 203.558 218.545 204.538C216.085 205.728 213.015 207.208 207.385 207.208Z" fill="#97683F"/>
<path d="M207.385 216.558C201.745 216.558 198.685 215.078 196.225 213.888C194.205 212.918 192.755 212.208 189.385 212.208C186.015 212.208 184.565 212.908 182.545 213.888C180.085 215.078 177.015 216.558 171.385 216.558C165.755 216.558 162.685 215.078 160.225 213.888C158.205 212.918 156.755 212.208 153.385 212.208V202.148C159.025 202.148 162.085 203.628 164.545 204.818C166.565 205.788 168.015 206.498 171.385 206.498C174.755 206.498 176.205 205.798 178.225 204.818C180.685 203.628 183.755 202.148 189.385 202.148C195.015 202.148 198.085 203.628 200.545 204.818C202.565 205.788 204.015 206.498 207.385 206.498C210.755 206.498 212.205 205.798 214.225 204.818C216.685 203.628 219.755 202.148 225.385 202.148V212.208C222.025 212.208 220.565 212.908 218.545 213.888C216.085 215.078 213.015 216.558 207.385 216.558Z" fill="#7D5734"/>
<path d="M207.385 225.908C201.745 225.908 198.685 224.428 196.225 223.238C194.205 222.268 192.755 221.558 189.385 221.558C186.015 221.558 184.565 222.258 182.545 223.238C180.085 224.428 177.015 225.908 171.385 225.908C165.755 225.908 162.685 224.428 160.225 223.238C158.205 222.268 156.755 221.558 153.385 221.558V211.498C159.025 211.498 162.085 212.978 164.545 214.168C166.565 215.138 168.015 215.848 171.385 215.848C174.755 215.848 176.205 215.148 178.225 214.168C180.685 212.978 183.755 211.498 189.385 211.498C195.015 211.498 198.085 212.978 200.545 214.168C202.565 215.138 204.015 215.848 207.385 215.848C210.755 215.848 212.205 215.148 214.225 214.168C216.685 212.978 219.755 211.498 225.385 211.498V221.558C222.025 221.558 220.565 222.258 218.545 223.238C216.085 224.428 213.015 225.908 207.385 225.908Z" fill="#64452A"/>
<path d="M225.385 153.908H153.385V156.168H225.385V153.908Z" fill="#CBB299"/>
<path d="M168.165 158.238L164.635 158.088L163.405 161.398L166.165 163.598L169.115 161.648L168.165 158.238Z" stroke="#653A13" stroke-width="0.5" stroke-miterlimit="10"/>
<path d="M201.825 160.188L200.655 158.578L198.755 159.188V161.188L200.655 161.808L201.825 160.188Z" stroke="#653A13" stroke-width="0.5" stroke-miterlimit="10"/>
<path d="M209.625 161.988L206.715 160.898L204.775 163.338L206.495 165.928L209.495 165.088L209.625 161.988Z" stroke="#653A13" stroke-width="0.5" stroke-miterlimit="10"/>
</g>
<g clip-path="url(#clip11_21_4747)">
<path d="M301.078 207.578H229.078V225.908H301.078V207.578Z" fill="#8D623B"/>
<path d="M301.078 153.908H229.078V172.238H301.078V153.908Z" fill="#BB9A7A"/>
<path d="M283.078 177.148C277.438 177.148 274.378 175.668 271.918 174.478C269.898 173.508 268.448 172.798 265.078 172.798C261.708 172.798 260.258 173.498 258.238 174.478C255.778 175.668 252.708 177.148 247.078 177.148C241.448 177.148 238.378 175.668 235.918 174.478C233.898 173.508 232.448 172.798 229.078 172.798V162.748C234.718 162.748 237.778 164.228 240.238 165.418C242.258 166.388 243.708 167.098 247.078 167.098C250.448 167.098 251.898 166.398 253.918 165.418C256.378 164.228 259.448 162.748 265.078 162.748C270.708 162.748 273.778 164.228 276.238 165.418C278.258 166.388 279.708 167.098 283.078 167.098C286.448 167.098 287.898 166.398 289.918 165.418C292.378 164.228 295.448 162.748 301.078 162.748V172.808C297.718 172.808 296.258 173.508 294.238 174.488C291.778 175.678 288.708 177.158 283.078 177.158V177.148Z" fill="#BFA082"/>
<path d="M283.078 179.148C277.438 179.148 274.378 177.668 271.918 176.478C269.898 175.508 268.448 174.798 265.078 174.798C261.708 174.798 260.258 175.498 258.238 176.478C255.778 177.668 252.708 179.148 247.078 179.148C241.448 179.148 238.378 177.668 235.918 176.478C233.898 175.508 232.448 174.798 229.078 174.798V164.748C234.718 164.748 237.778 166.228 240.238 167.418C242.258 168.388 243.708 169.098 247.078 169.098C250.448 169.098 251.898 168.398 253.918 167.418C256.378 166.228 259.448 164.748 265.078 164.748C270.708 164.748 273.778 166.228 276.238 167.418C278.258 168.388 279.708 169.098 283.078 169.098C286.448 169.098 287.898 168.398 289.918 167.418C292.378 166.228 295.448 164.748 301.078 164.748V174.808C297.718 174.808 296.258 175.508 294.238 176.488C291.778 177.678 288.708 179.158 283.078 179.158V179.148Z" fill="#8D623B"/>
<path d="M283.078 188.498C277.438 188.498 274.378 187.018 271.918 185.828C269.898 184.858 268.448 184.148 265.078 184.148C261.708 184.148 260.258 184.848 258.238 185.828C255.778 187.018 252.708 188.498 247.078 188.498C241.448 188.498 238.378 187.018 235.918 185.828C233.898 184.858 232.448 184.148 229.078 184.148V174.088C234.718 174.088 237.778 175.568 240.238 176.758C242.258 177.728 243.708 178.438 247.078 178.438C250.448 178.438 251.898 177.738 253.918 176.758C256.378 175.568 259.448 174.088 265.078 174.088C270.708 174.088 273.778 175.568 276.238 176.758C278.258 177.728 279.708 178.438 283.078 178.438C286.448 178.438 287.898 177.738 289.918 176.758C292.378 175.568 295.448 174.088 301.078 174.088V184.148C297.718 184.148 296.258 184.848 294.238 185.828C291.778 187.018 288.708 188.498 283.078 188.498Z" fill="#7D5734"/>
<path d="M283.078 197.848C277.438 197.848 274.378 196.368 271.918 195.178C269.898 194.208 268.448 193.498 265.078 193.498C261.708 193.498 260.258 194.198 258.238 195.178C255.778 196.368 252.708 197.848 247.078 197.848C241.448 197.848 238.378 196.368 235.918 195.178C233.898 194.208 232.448 193.498 229.078 193.498V183.438C234.718 183.438 237.778 184.918 240.238 186.108C242.258 187.078 243.708 187.788 247.078 187.788C250.448 187.788 251.898 187.088 253.918 186.108C256.378 184.918 259.448 183.438 265.078 183.438C270.708 183.438 273.778 184.918 276.238 186.108C278.258 187.078 279.708 187.788 283.078 187.788C286.448 187.788 287.898 187.088 289.918 186.108C292.378 184.918 295.448 183.438 301.078 183.438V193.498C297.718 193.498 296.258 194.198 294.238 195.178C291.778 196.368 288.708 197.848 283.078 197.848Z" fill="#64452A"/>
<path d="M283.078 207.208C277.438 207.208 274.378 205.728 271.918 204.538C269.898 203.568 268.448 202.858 265.078 202.858C261.708 202.858 260.258 203.558 258.238 204.538C255.778 205.728 252.708 207.208 247.078 207.208C241.448 207.208 238.378 205.728 235.918 204.538C233.898 203.568 232.448 202.858 229.078 202.858V192.798C234.718 192.798 237.778 194.278 240.238 195.468C242.258 196.438 243.708 197.148 247.078 197.148C250.448 197.148 251.898 196.448 253.918 195.468C256.378 194.278 259.448 192.798 265.078 192.798C270.708 192.798 273.778 194.278 276.238 195.468C278.258 196.438 279.708 197.148 283.078 197.148C286.448 197.148 287.898 196.448 289.918 195.468C292.378 194.278 295.448 192.798 301.078 192.798V202.858C297.718 202.858 296.258 203.558 294.238 204.538C291.778 205.728 288.708 207.208 283.078 207.208Z" fill="#97683F"/>
<path d="M283.078 216.558C277.438 216.558 274.378 215.078 271.918 213.888C269.898 212.918 268.448 212.208 265.078 212.208C261.708 212.208 260.258 212.908 258.238 213.888C255.778 215.078 252.708 216.558 247.078 216.558C241.448 216.558 238.378 215.078 235.918 213.888C233.898 212.918 232.448 212.208 229.078 212.208V202.148C234.718 202.148 237.778 203.628 240.238 204.818C242.258 205.788 243.708 206.498 247.078 206.498C250.448 206.498 251.898 205.798 253.918 204.818C256.378 203.628 259.448 202.148 265.078 202.148C270.708 202.148 273.778 203.628 276.238 204.818C278.258 205.788 279.708 206.498 283.078 206.498C286.448 206.498 287.898 205.798 289.918 204.818C292.378 203.628 295.448 202.148 301.078 202.148V212.208C297.718 212.208 296.258 212.908 294.238 213.888C291.778 215.078 288.708 216.558 283.078 216.558Z" fill="#7D5734"/>
<path d="M283.078 225.908C277.438 225.908 274.378 224.428 271.918 223.238C269.898 222.268 268.448 221.558 265.078 221.558C261.708 221.558 260.258 222.258 258.238 223.238C255.778 224.428 252.708 225.908 247.078 225.908C241.448 225.908 238.378 224.428 235.918 223.238C233.898 222.268 232.448 221.558 229.078 221.558V211.498C234.718 211.498 237.778 212.978 240.238 214.168C242.258 215.138 243.708 215.848 247.078 215.848C250.448 215.848 251.898 215.148 253.918 214.168C256.378 212.978 259.448 211.498 265.078 211.498C270.708 211.498 273.778 212.978 276.238 214.168C278.258 215.138 279.708 215.848 283.078 215.848C286.448 215.848 287.898 215.148 289.918 214.168C292.378 212.978 295.448 211.498 301.078 211.498V221.558C297.718 221.558 296.258 222.258 294.238 223.238C291.778 224.428 288.708 225.908 283.078 225.908Z" fill="#64452A"/>
<path d="M301.078 153.908H229.078V156.168H301.078V153.908Z" fill="#CBB299"/>
</g>
<g clip-path="url(#clip12_21_4747)">
<path d="M74 301.861H2V229.861H74V301.861Z" fill="#B98C63"/>
<path d="M74 255.861C46.29 241.441 29.71 270.281 2 255.861V241.861C27.52 248.831 48.48 234.891 74 241.861V255.861Z" fill="#CEAE91"/>
<path d="M74 242.861C48.29 235.321 27.71 250.401 2 242.861V234.861C26.34 237.801 49.66 231.921 74 234.861V242.861Z" fill="#DAC3AD"/>
<path d="M74 299.862C49.94 298.672 26.06 301.052 2 299.862V291.862C27.14 297.682 48.86 286.042 74 291.862V299.862Z" fill="#AC7A4D"/>
<path d="M74 271.861C45.98 255.691 30.02 288.031 2 271.861V265.861C29.61 285.241 46.39 246.481 74 265.861V271.861Z" fill="#CEAE91"/>
<path d="M74 289.861C48.48 282.891 27.52 296.831 2 289.861V273.861C29.89 289.181 46.11 258.541 74 273.861V289.861Z" fill="#CEAE91"/>
<path d="M74 266.361C46.38 247.151 29.62 285.571 2 266.361V261.361C30.09 278.121 45.91 244.601 74 261.361V266.361Z" fill="#AC7A4D"/>
<path d="M13.54 250.801L12.36 249.191L10.46 249.801V251.801L12.36 252.421L13.54 250.801Z" stroke="#653A13" stroke-width="0.5" stroke-miterlimit="10"/>
<path d="M21.33 252.601L18.42 251.511L16.49 253.951L18.21 256.541L21.2 255.701L21.33 252.601Z" stroke="#653A13" stroke-width="0.5" stroke-miterlimit="10"/>
<path d="M65.76 283.041L64.59 281.421L62.68 282.041V284.041L64.59 284.651L65.76 283.041Z" stroke="#653A13" stroke-width="0.5" stroke-miterlimit="10"/>
</g>
<g clip-path="url(#clip13_21_4747)">
<path d="M149.693 301.861H77.6926V229.861H149.693V301.861Z" fill="#B98C63"/>
<path d="M149.693 255.861C121.983 241.441 105.403 270.281 77.6926 255.861V241.861C103.213 248.831 124.173 234.891 149.693 241.861V255.861Z" fill="#CEAE91"/>
<path d="M149.693 242.861C123.983 235.321 103.403 250.401 77.6926 242.861V234.861C102.033 237.801 125.353 231.921 149.693 234.861V242.861Z" fill="#DAC3AD"/>
<path d="M149.693 299.862C125.633 298.672 101.753 301.052 77.6926 299.862V291.862C102.833 297.682 124.553 286.042 149.693 291.862V299.862Z" fill="#AC7A4D"/>
<path d="M149.693 271.861C121.673 255.691 105.713 288.031 77.6926 271.861V265.861C105.303 285.241 122.083 246.481 149.693 265.861V271.861Z" fill="#CEAE91"/>
<path d="M149.693 289.861C124.173 282.891 103.213 296.831 77.6926 289.861V273.861C105.583 289.181 121.803 258.541 149.693 273.861V289.861Z" fill="#CEAE91"/>
<path d="M149.693 266.361C122.073 247.151 105.313 285.571 77.6926 266.361V261.361C105.783 278.121 121.603 244.601 149.693 261.361V266.361Z" fill="#AC7A4D"/>
<path d="M93.1626 283.412L89.6426 283.262L88.4026 286.572L91.1626 288.762L94.1126 286.812L93.1626 283.412Z" stroke="#653A13" stroke-width="0.5" stroke-miterlimit="10"/>
<path d="M120.363 244.742L117.643 248.241L120.133 251.922L124.393 250.682L124.543 246.252L120.363 244.742Z" stroke="#653A13" stroke-width="0.5" stroke-miterlimit="10"/>
<path d="M115.773 245.121L113.883 244.481L112.683 246.081L113.833 247.711L115.743 247.121L115.773 245.121Z" stroke="#653A13" stroke-width="0.5" stroke-miterlimit="10"/>
<path d="M127.393 248.021L126.963 249.591L128.323 250.491L129.603 249.481L129.033 247.951L127.393 248.021Z" stroke="#653A13" stroke-width="0.5" stroke-miterlimit="10"/>
</g>
<g clip-path="url(#clip14_21_4747)">
<path d="M225.385 301.861H153.385V229.861H225.385V301.861Z" fill="#B98C63"/>
<path d="M225.385 255.861C197.675 241.441 181.095 270.281 153.385 255.861V241.861C178.905 248.831 199.865 234.891 225.385 241.861V255.861Z" fill="#CEAE91"/>
<path d="M225.385 242.861C199.675 235.321 179.095 250.401 153.385 242.861V234.861C177.725 237.801 201.045 231.921 225.385 234.861V242.861Z" fill="#DAC3AD"/>
<path d="M225.385 299.862C201.325 298.672 177.445 301.052 153.385 299.862V291.862C178.525 297.682 200.245 286.042 225.385 291.862V299.862Z" fill="#AC7A4D"/>
<path d="M225.385 271.861C197.365 255.691 181.405 288.031 153.385 271.861V265.861C180.995 285.241 197.775 246.481 225.385 265.861V271.861Z" fill="#CEAE91"/>
<path d="M225.385 289.861C199.865 282.891 178.905 296.831 153.385 289.861V273.861C181.275 289.181 197.495 258.541 225.385 273.861V289.861Z" fill="#CEAE91"/>
<path d="M225.385 266.361C197.765 247.151 181.005 285.571 153.385 266.361V261.361C181.475 278.121 197.295 244.601 225.385 261.361V266.361Z" fill="#AC7A4D"/>
</g>
<g clip-path="url(#clip15_21_4747)">
<mask id="mask11_21_4747" style="mask-type:luminance" maskUnits="userSpaceOnUse" x="229" y="77" width="73" height="73">
<path d="M229.078 77.9538H287.578C295.028 77.9538 301.078 84.0038 301.078 91.4538V149.954H229.078V77.9538Z" fill="white"/>
</mask>
<g mask="url(#mask11_21_4747)">
<path d="M301.078 131.624H229.078V149.954H301.078V131.624Z" fill="#8D623B"/>
<path d="M301.078 77.9538H229.078V96.2838H301.078V77.9538Z" fill="#BB9A7A"/>
<path d="M283.078 101.194C277.438 101.194 274.378 99.7138 271.918 98.5238C269.898 97.5538 268.448 96.8438 265.078 96.8438C261.708 96.8438 260.258 97.5438 258.238 98.5238C255.778 99.7138 252.708 101.194 247.078 101.194C241.448 101.194 238.378 99.7138 235.918 98.5238C233.898 97.5538 232.448 96.8438 229.078 96.8438V86.7938C234.718 86.7938 237.778 88.2738 240.238 89.4638C242.258 90.4338 243.708 91.1438 247.078 91.1438C250.448 91.1438 251.898 90.4438 253.918 89.4638C256.378 88.2738 259.448 86.7938 265.078 86.7938C270.708 86.7938 273.778 88.2738 276.238 89.4638C278.258 90.4338 279.708 91.1438 283.078 91.1438C286.448 91.1438 287.898 90.4438 289.918 89.4638C292.378 88.2738 295.448 86.7938 301.078 86.7938V96.8538C297.718 96.8538 296.258 97.5538 294.238 98.5338C291.778 99.7238 288.708 101.204 283.078 101.204V101.194Z" fill="#BFA082"/>
<path d="M283.078 103.194C277.438 103.194 274.378 101.714 271.918 100.524C269.898 99.5538 268.448 98.8438 265.078 98.8438C261.708 98.8438 260.258 99.5438 258.238 100.524C255.778 101.714 252.708 103.194 247.078 103.194C241.448 103.194 238.378 101.714 235.918 100.524C233.898 99.5538 232.448 98.8438 229.078 98.8438V88.7938C234.718 88.7938 237.778 90.2738 240.238 91.4638C242.258 92.4338 243.708 93.1438 247.078 93.1438C250.448 93.1438 251.898 92.4438 253.918 91.4638C256.378 90.2738 259.448 88.7938 265.078 88.7938C270.708 88.7938 273.778 90.2738 276.238 91.4638C278.258 92.4338 279.708 93.1438 283.078 93.1438C286.448 93.1438 287.898 92.4438 289.918 91.4638C292.378 90.2738 295.448 88.7938 301.078 88.7938V98.8538C297.718 98.8538 296.258 99.5538 294.238 100.534C291.778 101.724 288.708 103.204 283.078 103.204V103.194Z" fill="#8D623B"/>
<path d="M283.078 112.544C277.438 112.544 274.378 111.064 271.918 109.874C269.898 108.904 268.448 108.194 265.078 108.194C261.708 108.194 260.258 108.894 258.238 109.874C255.778 111.064 252.708 112.544 247.078 112.544C241.448 112.544 238.378 111.064 235.918 109.874C233.898 108.904 232.448 108.194 229.078 108.194V98.1338C234.718 98.1338 237.778 99.6138 240.238 100.804C242.258 101.774 243.708 102.484 247.078 102.484C250.448 102.484 251.898 101.784 253.918 100.804C256.378 99.6138 259.448 98.1338 265.078 98.1338C270.708 98.1338 273.778 99.6138 276.238 100.804C278.258 101.774 279.708 102.484 283.078 102.484C286.448 102.484 287.898 101.784 289.918 100.804C292.378 99.6138 295.448 98.1338 301.078 98.1338V108.194C297.718 108.194 296.258 108.894 294.238 109.874C291.778 111.064 288.708 112.544 283.078 112.544Z" fill="#7D5734"/>
<path d="M283.078 121.894C277.438 121.894 274.378 120.414 271.918 119.224C269.898 118.254 268.448 117.544 265.078 117.544C261.708 117.544 260.258 118.244 258.238 119.224C255.778 120.414 252.708 121.894 247.078 121.894C241.448 121.894 238.378 120.414 235.918 119.224C233.898 118.254 232.448 117.544 229.078 117.544V107.484C234.718 107.484 237.778 108.964 240.238 110.154C242.258 111.124 243.708 111.834 247.078 111.834C250.448 111.834 251.898 111.134 253.918 110.154C256.378 108.964 259.448 107.484 265.078 107.484C270.708 107.484 273.778 108.964 276.238 110.154C278.258 111.124 279.708 111.834 283.078 111.834C286.448 111.834 287.898 111.134 289.918 110.154C292.378 108.964 295.448 107.484 301.078 107.484V117.544C297.718 117.544 296.258 118.244 294.238 119.224C291.778 120.414 288.708 121.894 283.078 121.894Z" fill="#64452A"/>
<path d="M283.078 131.254C277.438 131.254 274.378 129.774 271.918 128.584C269.898 127.614 268.448 126.904 265.078 126.904C261.708 126.904 260.258 127.604 258.238 128.584C255.778 129.774 252.708 131.254 247.078 131.254C241.448 131.254 238.378 129.774 235.918 128.584C233.898 127.614 232.448 126.904 229.078 126.904V116.844C234.718 116.844 237.778 118.324 240.238 119.514C242.258 120.484 243.708 121.194 247.078 121.194C250.448 121.194 251.898 120.494 253.918 119.514C256.378 118.324 259.448 116.844 265.078 116.844C270.708 116.844 273.778 118.324 276.238 119.514C278.258 120.484 279.708 121.194 283.078 121.194C286.448 121.194 287.898 120.494 289.918 119.514C292.378 118.324 295.448 116.844 301.078 116.844V126.904C297.718 126.904 296.258 127.604 294.238 128.584C291.778 129.774 288.708 131.254 283.078 131.254Z" fill="#97683F"/>
<path d="M283.078 140.604C277.438 140.604 274.378 139.124 271.918 137.934C269.898 136.964 268.448 136.254 265.078 136.254C261.708 136.254 260.258 136.954 258.238 137.934C255.778 139.124 252.708 140.604 247.078 140.604C241.448 140.604 238.378 139.124 235.918 137.934C233.898 136.964 232.448 136.254 229.078 136.254V126.194C234.718 126.194 237.778 127.674 240.238 128.864C242.258 129.834 243.708 130.544 247.078 130.544C250.448 130.544 251.898 129.844 253.918 128.864C256.378 127.674 259.448 126.194 265.078 126.194C270.708 126.194 273.778 127.674 276.238 128.864C278.258 129.834 279.708 130.544 283.078 130.544C286.448 130.544 287.898 129.844 289.918 128.864C292.378 127.674 295.448 126.194 301.078 126.194V136.254C297.718 136.254 296.258 136.954 294.238 137.934C291.778 139.124 288.708 140.604 283.078 140.604Z" fill="#7D5734"/>
<path d="M283.078 149.954C277.438 149.954 274.378 148.474 271.918 147.284C269.898 146.314 268.448 145.604 265.078 145.604C261.708 145.604 260.258 146.304 258.238 147.284C255.778 148.474 252.708 149.954 247.078 149.954C241.448 149.954 238.378 148.474 235.918 147.284C233.898 146.314 232.448 145.604 229.078 145.604V135.544C234.718 135.544 237.778 137.024 240.238 138.214C242.258 139.184 243.708 139.894 247.078 139.894C250.448 139.894 251.898 139.194 253.918 138.214C256.378 137.024 259.448 135.544 265.078 135.544C270.708 135.544 273.778 137.024 276.238 138.214C278.258 139.184 279.708 139.894 283.078 139.894C286.448 139.894 287.898 139.194 289.918 138.214C292.378 137.024 295.448 135.544 301.078 135.544V145.604C297.718 145.604 296.258 146.304 294.238 147.284C291.778 148.474 288.708 149.954 283.078 149.954Z" fill="#64452A"/>
<path d="M301.078 77.9538H229.078V80.2138H301.078V77.9538Z" fill="#CBB299"/>
<path d="M298.108 76.2638C294.828 76.2638 291.928 77.8338 290.088 80.2538C294.308 80.6738 298.368 83.7238 300.278 88.4138C301.308 90.9538 301.548 93.5838 301.128 95.9838C305.228 94.7038 308.198 90.8738 308.198 86.3538C308.198 80.7838 303.678 76.2638 298.108 76.2638Z" fill="#CBB299"/>
</g>
</g>
<defs>
<clipPath id="clip0_21_4747">
<rect width="72" height="72" fill="white" transform="translate(2 2)"/>
</clipPath>
<clipPath id="clip1_21_4747">
<rect width="72" height="72" fill="white" transform="translate(77.6926 2)"/>
</clipPath>
<clipPath id="clip2_21_4747">
<rect width="72" height="72" fill="white" transform="translate(229.078 229.861)"/>
</clipPath>
<clipPath id="clip3_21_4747">
<rect width="72" height="72" fill="white" transform="translate(153.385 2)"/>
</clipPath>
<clipPath id="clip4_21_4747">
<rect width="72" height="72" fill="white" transform="translate(229.078 2)"/>
</clipPath>
<clipPath id="clip5_21_4747">
<rect width="72" height="72" fill="white" transform="translate(2 77.9538)"/>
</clipPath>
<clipPath id="clip6_21_4747">
<rect width="72" height="72" fill="white" transform="translate(77.6926 77.9538)"/>
</clipPath>
<clipPath id="clip7_21_4747">
<rect width="72" height="72" fill="white" transform="translate(153.385 77.9538)"/>
</clipPath>
<clipPath id="clip8_21_4747">
<rect width="72" height="72" fill="white" transform="translate(2 153.908)"/>
</clipPath>
<clipPath id="clip9_21_4747">
<rect width="72" height="72" fill="white" transform="translate(77.6926 153.908)"/>
</clipPath>
<clipPath id="clip10_21_4747">
<rect width="72" height="72" fill="white" transform="translate(153.385 153.908)"/>
</clipPath>
<clipPath id="clip11_21_4747">
<rect width="72" height="72" fill="white" transform="translate(229.078 153.908)"/>
</clipPath>
<clipPath id="clip12_21_4747">
<rect width="72" height="72" fill="white" transform="translate(2 229.861)"/>
</clipPath>
<clipPath id="clip13_21_4747">
<rect width="72" height="72" fill="white" transform="translate(77.6926 229.861)"/>
</clipPath>
<clipPath id="clip14_21_4747">
<rect width="72" height="72" fill="white" transform="translate(153.385 229.861)"/>
</clipPath>
<clipPath id="clip15_21_4747">
<rect width="72" height="72" fill="white" transform="translate(229.078 77.9538)"/>
</clipPath>
</defs>
</svg>
