<?xml version="1.0" encoding="UTF-8"?>
<svg id="Layer_1" data-name="Layer 1" xmlns="http://www.w3.org/2000/svg" viewBox="0 0 256 256">
  <defs>
    <style>
      .cls-1 {
        fill: #c9a689;
      }

      .cls-2 {
        fill: #d3af94;
      }

      .cls-3 {
        fill: #bb9a7a;
      }

      .cls-4 {
        fill: none;
        stroke: #c9a689;
        stroke-miterlimit: 10;
      }

      .cls-5 {
        fill: #ceae91;
      }

      .cls-6 {
        fill: #e4ccb2;
      }
    </style>
  </defs>
  <path class="cls-6" d="M.21,146H100.21v70c0,22.08-17.92,40-40,40h-20C18.14,256,.21,238.08,.21,216v-70H.21Z" transform="translate(100.43 402) rotate(180)"/>
  <path class="cls-6" d="M180.18,126h20c22.08,0,40,17.92,40,40v90h-100v-90c0-22.08,17.92-40,40-40Z"/>
  <g>
    <g>
      <path class="cls-3" d="M75.16,121.4l.03-.03-23.56-23.56c-.78-.78-2.05-.78-2.83,0l-23.56,23.56,.03,.03h-.06v30.86h50v-30.86h-.06Z"/>
      <path class="cls-3" d="M80.45,123.14l-29.17-29.17c-.57-.57-1.55-.57-2.12,0l-29.17,29.17-3.54-3.54,29.17-29.17c1.23-1.23,2.86-1.9,4.6-1.9s3.37,.68,4.6,1.9l29.17,29.17-3.54,3.54Z"/>
    </g>
    <g>
      <rect class="cls-6" x="29.21" y="126.91" width="10.29" height="13.71" rx="2" ry="2"/>
      <line class="cls-4" x1="34.36" y1="126.97" x2="34.36" y2="140.42"/>
      <line class="cls-4" x1="29.55" y1="133.54" x2="38.9" y2="133.54"/>
      <path class="cls-1" d="M37.5,127.56c.55,0,1,.45,1,1v9.71c0,.55-.45,1-1,1h-6.29c-.55,0-1-.45-1-1v-9.71c0-.55,.45-1,1-1h6.29m0-1h-6.29c-1.1,0-2,.9-2,2v9.71c0,1.1,.9,2,2,2h6.29c1.1,0,2-.9,2-2v-9.71c0-1.1-.9-2-2-2h0Z"/>
      <rect class="cls-2" x="28.47" y="138.1" width="11.77" height="2.52" rx=".97" ry=".97"/>
    </g>
    <g>
      <path class="cls-2" d="M45.44,128.8h9.55c1.1,0,2,.9,2,2v22h-13.55v-22c0-1.1,.9-2,2-2Z"/>
      <path class="cls-1" d="M54.99,129.8c.55,0,1,.45,1,1v21h-11.55v-21c0-.55,.45-1,1-1h9.55m0-1h-9.55c-1.1,0-2,.9-2,2v22h13.55v-22c0-1.1-.9-2-2-2h0Z"/>
      <circle class="cls-6" cx="54.62" cy="141.23" r=".79"/>
    </g>
    <g>
      <rect class="cls-6" x="60.93" y="126.91" width="10.29" height="13.71" rx="2" ry="2"/>
      <line class="cls-4" x1="66.07" y1="126.97" x2="66.07" y2="140.42"/>
      <line class="cls-4" x1="61.27" y1="133.54" x2="70.62" y2="133.54"/>
      <path class="cls-1" d="M69.22,127.56c.55,0,1,.45,1,1v9.71c0,.55-.45,1-1,1h-6.29c-.55,0-1-.45-1-1v-9.71c0-.55,.45-1,1-1h6.29m0-1h-6.29c-1.1,0-2,.9-2,2v9.71c0,1.1,.9,2,2,2h6.29c1.1,0,2-.9,2-2v-9.71c0-1.1-.9-2-2-2h0Z"/>
      <rect class="cls-2" x="60.19" y="138.1" width="11.77" height="2.52" rx=".97" ry=".97"/>
    </g>
  </g>
  <g>
    <path class="cls-3" d="M215.12,103.14l.03-.03-23.56-23.56c-.78-.78-2.05-.78-2.83,0l-23.56,23.56,.03,.03h-.06v30.86h50v-30.86h-.06Z"/>
    <path class="cls-3" d="M220.41,104.88l-29.17-29.17c-.59-.58-1.54-.58-2.12,0l-29.17,29.17-3.54-3.54,29.17-29.17c2.53-2.53,6.66-2.53,9.19,0l29.17,29.17-3.54,3.54Z"/>
    <circle class="cls-6" cx="189.99" cy="94.27" r="5.54"/>
    <g>
      <g>
        <path class="cls-2" d="M197.68,109.13h9.55c1.1,0,2,.9,2,2v22h-13.55v-22c0-1.1,.9-2,2-2Z"/>
        <path class="cls-1" d="M207.24,110.13c.55,0,1,.45,1,1v21h-11.56v-21c0-.55,.45-1,1-1h9.56m0-1h-9.56c-1.1,0-2,.9-2,2v22h13.56v-22c0-1.1-.9-2-2-2h0Z"/>
        <circle class="cls-6" cx="198.27" cy="121.55" r=".79"/>
      </g>
      <g>
        <rect class="cls-6" x="182.48" y="109.47" width="10.29" height="13.71" rx="2" ry="2"/>
        <line class="cls-4" x1="187.62" y1="109.54" x2="187.62" y2="122.99"/>
        <line class="cls-4" x1="182.82" y1="116.1" x2="192.17" y2="116.1"/>
        <path class="cls-1" d="M190.77,110.13c.55,0,1,.45,1,1v9.71c0,.55-.45,1-1,1h-6.29c-.55,0-1-.45-1-1v-9.71c0-.55,.45-1,1-1h6.29m0-1h-6.29c-1.1,0-2,.9-2,2v9.71c0,1.1,.9,2,2,2h6.29c1.1,0,2-.9,2-2v-9.71c0-1.1-.9-2-2-2h0Z"/>
        <rect class="cls-2" x="181.74" y="120.66" width="11.77" height="2.52" rx=".97" ry=".97"/>
      </g>
      <g>
        <rect class="cls-6" x="168.54" y="109.47" width="10.29" height="13.71" rx="2" ry="2"/>
        <line class="cls-4" x1="173.68" y1="109.54" x2="173.68" y2="122.99"/>
        <line class="cls-4" x1="168.88" y1="116.1" x2="178.22" y2="116.1"/>
        <path class="cls-1" d="M176.82,110.13c.55,0,1,.45,1,1v9.71c0,.55-.45,1-1,1h-6.29c-.55,0-1-.45-1-1v-9.71c0-.55,.45-1,1-1h6.29m0-1h-6.29c-1.1,0-2,.9-2,2v9.71c0,1.1,.9,2,2,2h6.29c1.1,0,2-.9,2-2v-9.71c0-1.1-.9-2-2-2h0Z"/>
        <rect class="cls-2" x="167.79" y="120.66" width="11.77" height="2.52" rx=".97" ry=".97"/>
      </g>
    </g>
    <path class="cls-1" d="M189.99,88.74c3.06,0,5.54,2.48,5.54,5.54s-2.48,5.54-5.54,5.54-5.54-2.48-5.54-5.54,2.48-5.54,5.54-5.54m0-1c-3.61,0-6.54,2.93-6.54,6.54s2.93,6.54,6.54,6.54,6.54-2.93,6.54-6.54-2.93-6.54-6.54-6.54h0Z"/>
    <line class="cls-4" x1="189.99" y1="88.34" x2="189.99" y2="100.21"/>
    <line class="cls-4" x1="184.22" y1="94.27" x2="195.75" y2="94.27"/>
  </g>
  <rect class="cls-1" x="23.71" y="151.88" width="53" height="4.1" rx="1.29" ry="1.29"/>
  <rect class="cls-1" x="163.68" y="132.02" width="53" height="4.1" rx="1.29" ry="1.29"/>
  <path class="cls-1" d="M217.67,135.27c-.67-2.42,.83-5.25,3.38-5.56-1.85,.51-2.86,2.29-2.72,4.06,1.08-1.6,3.13-2.52,5-1.76-2.32-.56-4.5,1.22-4.69,3.49,0,0-.63-.11-.88-.15-.04,.01-.07,.02-.07,.02,0-.01,0-.02,0-.04-.01,0-.03,0-.03,0,0-.02,.01-.03,.01-.05Z"/>
  <path class="cls-1" d="M166.1,127.41c-1.74-.16-3.26,.92-4.01,2.42-.9-2.2-2.56-4.09-4.83-4.79,1.98,.95,3.23,2.86,3.78,4.93-.96-1.03-2.29-1.7-3.72-1.54,2.08,.08,3.64,1.82,4.02,3.75,0,.25,.01,.5,0,.75,0,0,1.5,.03,1.5,.03-.05-.6-.15-1.21-.31-1.81,.07-1.9,1.52-3.63,3.57-3.75Z"/>
  <path class="cls-5" d="M23.44,151.43c.67-2.42-.83-5.25-3.38-5.56,1.85,.51,2.86,2.29,2.72,4.06-1.08-1.6-3.13-2.52-5-1.76,2.32-.56,4.5,1.22,4.69,3.49,0,0,.63-.11,.88-.15,.04,.01,.07,.02,.07,.02,0-.01,0-.02,0-.04,.01,0,.03,0,.03,0,0-.02-.01-.03-.01-.05Z"/>
  <path class="cls-1" d="M84.98,151.05c-1.72-.32-3.33,.62-4.21,2.04-.7-2.27-2.17-4.31-4.37-5.21,1.89,1.13,2.96,3.14,3.3,5.26-.86-1.12-2.12-1.9-3.56-1.87,2.06,.27,3.22,1.18,3.42,3.13-.02,.25-.03,.5-.07,.74,0,0,1.49,.17,1.49,.17,0-.6,.04-.55,.1-.86,.25-1.89,1.84-3.48,3.9-3.4Z"/>
  <path class="cls-1" d="M27.05,156.91c-1.28-.24-2.47,.46-3.12,1.51-.52-1.69-1.61-3.2-3.24-3.87,1.4,.84,2.19,2.33,2.45,3.9-.64-.83-1.58-1.41-2.64-1.39,1.53,.2,2.38,.87,2.53,2.32-.01,.19-.02,.37-.05,.55,0,0,1.11,.13,1.11,.13,0-.45,.03-.41,.08-.64,.18-1.4,1.37-2.58,2.89-2.52Z"/>
</svg>