<?xml version="1.0" encoding="UTF-8"?>
<svg id="Layer_1" data-name="Layer 1" xmlns="http://www.w3.org/2000/svg" viewBox="0 0 256 256">
  <defs>
    <style>
      .cls-1 {
        fill: #ffefe1;
      }
    </style>
  </defs>
  <path class="cls-1" d="M191.91,28.34c-7.28,0-13.35,5.18-14.72,12.06-1.61-1.13-3.56-1.8-5.68-1.8-5.46,0-9.88,4.42-9.88,9.88s4.42,9.88,9.88,9.88c.17,0,.33-.02,.49-.02,.08,.01,.16,.02,.25,.02h19.05s.08,0,.12-.01c.16,0,.33,.01,.49,.01,8.29,0,15.01-6.72,15.01-15.01s-6.72-15.01-15.01-15.01Z"/>
  <path class="cls-1" d="M234.32,120.37c-1.12,0-2.2,.17-3.22,.49,0-.18,.03-.36,.03-.54,0-8.75-7.1-15.85-15.85-15.85-3.35,0-6.45,1.05-9.01,2.82-2.73-10.98-12.66-19.12-24.48-19.12-13.94,0-25.24,11.3-25.24,25.24,0,1.16,.09,2.3,.24,3.42-2.54-2.52-6.03-4.08-9.89-4.08-7.76,0-14.06,6.29-14.06,14.06s6.29,14.06,14.06,14.06c.38,0,.75-.03,1.12-.06,.02,0,.04,0,.07,0h52.77c1.47,4.76,5.9,8.22,11.15,8.22,4.03,0,7.58-2.04,9.68-5.15,1.42,1.34,3.32,2.16,5.43,2.16,3.01,0,5.63-1.68,6.97-4.15,.09,0,.17,.01,.26,.01,5.95,0,10.77-4.82,10.77-10.77s-4.82-10.77-10.77-10.77Z"/>
  <path class="cls-1" d="M120.33,49.09c.61-1.63,.94-3.4,.94-5.24,0-8.29-6.72-15.01-15.01-15.01-2.08,0-4.06,.42-5.86,1.19-.33-4.73-4.27-8.47-9.09-8.47-1.19,0-2.33,.24-3.37,.65-4.78-11.33-15.99-19.28-29.06-19.28-17.14,0-31.08,13.68-31.51,30.72-1.52-.37-3.1-.57-4.72-.57-11.04,0-19.99,8.95-19.99,19.99s8.91,19.95,19.92,19.99c.85,4.16,4.53,7.29,8.94,7.29,2.23,0,4.27-.8,5.85-2.13,2.56,4.63,7.49,7.77,13.15,7.77,6.43,0,11.92-4.05,14.06-9.73,1.18,1.05,2.74,1.69,4.44,1.69,3.14,0,5.77-2.16,6.5-5.07h43.8s.03,0,.04,0c.03,0,.05,0,.08,0,6.58,0,11.91-5.33,11.91-11.91s-4.86-11.41-11.01-11.86Z"/>
  <path class="cls-1" d="M31.72,174.27c-5.22,0-9.58,3.72-10.56,8.65-1.15-.81-2.56-1.29-4.07-1.29-3.92,0-7.09,3.17-7.09,7.09s3.17,7.09,7.09,7.09c.12,0,.24-.01,.35-.02,.06,0,.12,.02,.18,.02h13.66s.06,0,.09,0c.12,0,.23,0,.35,0,5.95,0,10.77-4.82,10.77-10.77s-4.82-10.77-10.77-10.77Z"/>
  <path class="cls-1" d="M171.35,224.42c.48-1.28,.74-2.66,.74-4.11,0-6.5-5.27-11.76-11.76-11.76-1.63,0-3.18,.33-4.59,.93-.26-3.71-3.35-6.64-7.12-6.64-.93,0-1.82,.18-2.64,.51-3.75-8.87-12.53-15.1-22.77-15.1-13.43,0-24.35,10.72-24.69,24.07-1.19-.29-2.43-.44-3.7-.44-8.65,0-15.66,7.01-15.66,15.66s6.98,15.63,15.6,15.66c.67,3.26,3.55,5.71,7,5.71,1.75,0,3.35-.63,4.59-1.67,2,3.63,5.87,6.09,10.3,6.09,5.04,0,9.34-3.17,11.01-7.63,.93,.82,2.14,1.32,3.48,1.32,2.46,0,4.52-1.69,5.09-3.97h34.31s.02,0,.03,0c.02,0,.04,0,.06,0,5.15,0,9.33-4.18,9.33-9.33s-3.8-8.94-8.63-9.3Z"/>
</svg>