<?xml version="1.0" encoding="UTF-8"?>
<svg id="Layer_1" data-name="Layer 1" xmlns="http://www.w3.org/2000/svg" viewBox="0 0 72 72">
  <defs>
    <style>
      .cls-1 {
        fill: #ce3030;
      }

      .cls-1, .cls-2, .cls-3 {
        stroke: #000;
        stroke-miterlimit: 10;
      }

      .cls-2 {
        fill: #ffda40;
      }

      .cls-3 {
        fill: #c9ab6f;
      }
    </style>
  </defs>
  <circle class="cls-2" cx="54.01" cy="10.01" r="4.68"/>
  <circle class="cls-2" cx="10.47" cy="53.79" r="4.68"/>
  <path class="cls-3" d="M14.84,54.88c-2.04-.5-3.92-2.49-5.66-5.66L49.11,9.31c2.98,1.31,4.95,3.15,5.66,5.66L14.84,54.88Z"/>
  <circle class="cls-2" cx="61.08" cy="13.55" r="5.13"/>
  <circle class="cls-2" cx="13.35" cy="61.54" r="5.13"/>
  <path class="cls-3" d="M18.15,62.74c-2.24-.55-4.29-2.73-6.2-6.2L55.71,12.77c3.26,1.44,5.43,3.45,6.2,6.2L18.15,62.74Z"/>
  <rect class="cls-1" x="30.54" y="27.93" width="4.09" height="18.29" rx=".85" ry=".85" transform="translate(-16.67 33.9) rotate(-45)"/>
  <path class="cls-1" d="M23.5,34.15c-1.21,.34-2.55,.46-3.8-.02-3.44-1.31-5.43-4.51-4.43-7.13,.51-1.33,1.68-2.3,3.26-2.73,1.48-.4,3.18-.28,4.79,.34,3.41,1.3,4.43,6.37,4.48,6.59l.12,.61-.49,.38c-.11,.08-1.82,1.37-3.92,1.97Zm-4.51-7.93c-.93,.26-1.58,.79-1.85,1.49-.6,1.57,.9,3.65,3.27,4.55,1.69,.64,4.03-.51,5.27-1.3-.4-1.42-1.39-3.84-3.07-4.48h0c-1.22-.46-2.49-.56-3.56-.27-.02,0-.04,.01-.06,.02Z"/>
  <path class="cls-1" d="M23.09,29.47c-.85-.93-1.55-2.08-1.68-3.41-.36-3.66,1.62-6.87,4.41-7.14,1.42-.14,2.81,.48,3.89,1.7,1.01,1.15,1.66,2.72,1.83,4.44,.36,3.63-3.73,6.81-3.9,6.94l-.49,.38-.56-.27c-.13-.06-2.04-1.02-3.51-2.64Zm5.08-7.57c-.65-.71-1.41-1.06-2.15-.99-1.67,.17-2.87,2.44-2.62,4.96,.18,1.8,2.25,3.38,3.52,4.14,1.09-.99,2.82-2.96,2.64-4.75h0c-.13-1.3-.61-2.48-1.34-3.31-.01-.02-.03-.03-.04-.05Z"/>
  <rect class="cls-1" x="25.97" y="32.4" width="1.91" height="10.43"/>
  <rect class="cls-1" x="28.79" y="31.68" width="1.82" height="10.43" transform="translate(-11.29 13.17) rotate(-21.1)"/>
  <circle class="cls-1" cx="26.96" cy="31.51" r="2.08"/>
</svg>