<?xml version="1.0" encoding="UTF-8"?>
<svg id="Layer_1" data-name="Layer 1" xmlns="http://www.w3.org/2000/svg" xmlns:xlink="http://www.w3.org/1999/xlink" viewBox="0 0 72 72">
  <defs>
    <style>
      .cls-1 {
        fill: #c9ab6f;
        stroke: #000;
        stroke-miterlimit: 10;
      }

      .cls-2 {
        fill: #322215;
      }

      .cls-3 {
        clip-path: url(#clippath);
      }

      .cls-4 {
        fill: none;
      }
    </style>
    <clipPath id="clippath">
      <path class="cls-4" d="M63.46,12.85V53.5c-1.7-.69-3.33-1.56-4.86-2.59-.36-.24-.79-.49-1.18-.33-.28,.12-.44,.41-.57,.68-1.2,2.39-2.39,4.79-3.59,7.18-2.17-1.51-5.16-1.13-7.58-2.2-1.85-.82-3.21-2.41-4.51-3.95,.57,4.01,.15,8.16-1.18,11.98H15c-3.17,0-5.74-2.56-5.74-5.73v-22.09c2.67-.85,5.41-1.47,8.19-1.85-1.86-3.12-3.72-6.24-5.58-9.37,5.94-.08,11.87-.53,17.76-1.33-1.24-2.53-2.66-4.98-4.26-7.31,.98,.15,1.87-.73,2.1-1.69,.23-.95,0-1.96-.26-2.91-.41-1.62-.81-3.25-1.19-4.88h31.71c3.16,0,5.73,2.57,5.73,5.74Z"/>
    </clipPath>
  </defs>
  <path class="cls-1" d="M63.46,12.85V53.5c-1.7-.69-3.33-1.56-4.86-2.59-.36-.24-.79-.49-1.18-.33-.28,.12-.44,.41-.57,.68-1.2,2.39-2.39,4.79-3.59,7.18-2.17-1.51-5.16-1.13-7.58-2.2-1.85-.82-3.21-2.41-4.51-3.95,.57,4.01,.15,8.16-1.18,11.98H15c-3.17,0-5.74-2.56-5.74-5.73v-22.09c2.67-.85,5.41-1.47,8.19-1.85-1.86-3.12-3.72-6.24-5.58-9.37,5.94-.08,11.87-.53,17.76-1.33-1.24-2.53-2.66-4.98-4.26-7.31,.98,.15,1.87-.73,2.1-1.69,.23-.95,0-1.96-.26-2.91-.41-1.62-.81-3.25-1.19-4.88h31.71c3.16,0,5.73,2.57,5.73,5.74Z"/>
  <g class="cls-3">
    <g>
      <path class="cls-2" d="M8.53,19.79c.18,.43,.67,.13,.7-.3,.17-1.18,.4-2.47,.64-3.63,0,0,.78,.18,.78,.18-.1,.63,.06,1.31,.45,1.8l-.76-.02c.87-1.15,1.95-2.14,3.13-2.95,.28,.83,.67,1.91,.86,2.66,0,0-.07,0-.07,0,0,0,.05-.01,.1-.05l.39-.31c.15-.12,.41-.25,.7-.23,.6,.09,.77,.48,.99,.69,.21,.24,.4,.41,.65,.43,.54,.02,1.06-.55,1.45-1.05-.27,.64-.65,1.32-1.43,1.48-.69,.17-1.25-.77-1.7-.83-.13-.04-.55,.57-.89,.67-.15,.07-.39,.06-.55-.01-.38-.17-.46-.49-.53-.64-.24-.62-.48-1.24-.7-1.86l.75,.23c-1.07,.83-2.02,1.81-2.84,2.88,0,0-.35-.52-.35-.52-.5-.74-.68-1.67-.46-2.53l.78,.18c-.23,.79-.48,1.57-.74,2.35-.2,.41-.36,1.51-.86,1.68-.23,.07-.52-.07-.51-.3h0Z"/>
      <path class="cls-2" d="M22.68,17.31c-.23,.43,.42,.82,.76,.65,.51-.24,.65-.97,.83-1.49,.3,.49,.69,1.62,1.38,.98,.23-.19,.43-.5,.88-.7,.48-.19,.95-.01,1.25,.1,1.25,.59,2.09-.56,2.76-1.49,0,0,.84,.46,.84,.46-.13,.29,.03,.73,.25,.8,.1,.09,.51-.11,.47-.25,0,0-.25-1.15-.25-1.15l1.01,.68c1.63,1.13,1.06,3.27,2.06,4.71,.28,.4,.66,.68,1.09,.65l-.19,.09c1.22-1.08,2.07-2.62,2.3-4.33,.08,1.75-.62,3.58-1.92,4.87-1.5,.28-2.43-1.24-2.72-2.46-.27-1.1-.45-2.24-1.17-2.7l.76-.47c.09,1.02-.97,1.66-1.86,1.28-.78-.38-1.03-1.3-.73-2.06,0,0,.84,.46,.84,.46-.75,1.18-2.4,2.57-3.85,1.67-.3-.14-.53-.22-.71-.17-.54,.24-1.22,1.2-2,.63-.37-.27-.51-.63-.64-.95h.39c-.2,.41-.47,.92-1,1.08-.49,.17-1.17-.4-.84-.86h0Z"/>
      <path class="cls-2" d="M43.54,12.26c0,2.55,.28,5.08,.91,7.53h-.88c.51-2.2,1.21-4.72,1.79-6.9,.22,2.12,.47,4.62,.61,6.73,0,0-.71-.26-.71-.26,.93-.73,1.35-2,1.67-3.11,.3,1.24,.57,2.56,.82,3.81,0,0-.17-.04-.17-.04,.22-.2,.4-.5,.44-.83,.03,.33-.07,.69-.29,.96-.15,.17-.09,.14-.17-.04-.32-.88-.66-1.76-.96-2.64h.58c-.19,1.23-1.03,2.28-1.93,3.12-.21-1.63-.43-3.27-.6-4.9,0,0,.97,.08,.97,.08-.5,1.96-1.1,4.03-1.68,5.98-.76-3.08-1.11-6.36-.4-9.47h0Z"/>
      <path class="cls-2" d="M51.62,14.82c.38,1.8,.99,4.17,2.96,4.66,0,0-.39,.12-.39,.12,.93-1.22,1.51-2.69,1.64-4.2l.97,.1c-.12,1.28,.03,2.59,.49,3.79l-.59-.29c1.27-.39,2.05-1.9,3.04-2.8,.35-.41,1.05-.78,1.52-.29,1.06,1,1.62,2.62,3.19,2.91-1.57,.03-2.51-1.54-3.57-2.44-.14-.09-.15-.08-.26-.03-1.3,1.2-2.02,3.29-4.05,3.72,0,0-.17-.42-.17-.42-.53-1.34-.74-2.81-.56-4.25l.97,.1c-.17,1.7-.9,3.34-2.04,4.59l-.17,.19c-2.42-.66-2.98-3.33-2.98-5.45h0Z"/>
      <path class="cls-2" d="M7.39,27.12c-.21,1.39,1.08,2.51,2.2,2.49,1.18,0,2.23-.97,2.58-2.06l.48-1.51,.44,1.52c.18,.61,1.18,.91,1.89,.65,.78-.28,1.45-.98,2.1-1.72l.27-.31c.8,.55,1.29,1.45,1.78,2.06,.45,.53,1.26,1,1.93,.56,0,0,.01,.12,.01,.12l.08,.74-.26-.7,.13,.05c-.33,.27-.8,.31-1.21,.22-1.18-.2-1.85-1.62-2.67-2.14,0,0,.56-.07,.56-.07-.3,.4-.62,.81-1.01,1.19-1.15,1.36-3.85,1.64-4.55-.35,0,0,.92,.01,.92,.01-.51,1.45-1.96,2.6-3.53,2.45-1.49-.14-2.74-1.79-2.16-3.19h0Z"/>
      <path class="cls-2" d="M25.53,27.08c.21,1.29,.82,2.49,1.75,3.35l-.39,.06c.57-1.27,1.03-2.59,1.36-3.93l.31-1.27,.44,1.26c.41,1.16,.76,2.34,1.15,3.51,.19,.6,.34,1.21,.61,1.28,.98,.25,1.54-1.09,2.26-1.82,.43-.55,1.25-.68,1.72-.83,.7-.74,1.04-2.01,1.27-3.01,0,0,.74-3.63,.74-3.63,.07,1.69-.07,4.64,.47,6.25,0,0-.54-.1-.54-.1,.54-.59,.94-1.3,1.24-2.05l.68-1.71c-.18,1.21-.51,2.76-.2,3.97,0,0-.13-.05-.13-.05,.31-.18,.56-.5,.65-.87-.03,.42-.28,.83-.64,1.08,0,0-.04-.12-.04-.12-.24-.72-.35-1.49-.33-2.26l.42,.08c-.24,1.03-.84,1.95-1.5,2.77,0,0-.2-.55-.2-.55-.32-.87-.53-1.79-.61-2.72l.81,.04c-.26,1.33-.51,2.7-1.55,3.68-.43,.27-.82,.24-.99,.32-.82,.35-.99,1.13-1.73,1.84-1.58,1.4-2.97,.62-3.3-1.32-.33-1.18-.69-2.36-1-3.55h.75c-.48,1.47-1.1,2.9-1.86,4.25-.99-1.08-1.64-2.51-1.62-3.94h0Z"/>
      <path class="cls-2" d="M43.29,26.3c.18,.78,.27,1.55,.35,2.33h-.72c-.13-.94,.46-1.81,1.1-2.47,.46,1.04,.93,2.1,1.31,3.17,0,0-.65-.24-.65-.24,.58-.27,1.08-.72,1.45-1.3l.53,.21c-.25,.49-.51,.98-.82,1.45,.06-.56,.17-1.1,.29-1.64l.53,.21c-.27,.95-1.07,1.7-1.96,2.15-.45-.96-.87-1.95-1.24-2.94l.79,.14c-.33,.31-.55,.77-.6,1.25h-.72c.08-.77,.18-1.55,.37-2.32h0Z"/>
      <path class="cls-2" d="M52.02,26.89c.05,1.1,.47,2.15,1.19,2.92l-.33,.05c.8-2.22,1.69-4.42,2.52-6.64l.4,.98,1.3,3.15c.51,1.05,1.16,3.91,1.97,2,.6-1.18,1.93-3.71,2.56-4.9,.61,.21,1.18,.68,1.44,1.21,.52,.9,.79,2.55,1.95,2.59,1.48-.31,2.99-1.66,4.13-2.41-.04-.16-.17-.3-.34-.35,.18,.02,.34,.15,.41,.32-.8,.95-1.87,1.76-2.91,2.48-.35,.22-.74,.49-1.26,.54-.53,.05-1.04-.22-1.36-.55-.85-.75-1.09-2.47-2.04-2.86,0,0,.57-.21,.57-.21l-1.51,3.07-.77,1.53c-.25,.66-1,1.51-1.87,1.09-1.17-.58-1.36-2.17-1.85-3.21,0,0-1.19-3.2-1.19-3.2h.77c-.9,1.94-1.76,3.89-2.71,5.81-.78-.96-1.22-2.22-1.07-3.42h0Z"/>
      <path class="cls-2" d="M7.16,38.38c-.35,1.51,.24,3.15,1.42,4.02l-.34,.07c.81-1.64,1.43-3.36,1.8-5.13l.23-1.09c.32,.67,1.29,2.72,1.62,3.42,.28,.54,.61,1.63,1.19,1.75,.16,.03,.38-.13,.58-.47,.57-1.07,.9-2.36,.99-3.58,0,0,.23-3.36,.23-3.36,.36,1.43,.81,4.09,1.49,5.39,.3,.62,.78,1.52,1.01,1.42,.49-.06,.89-.92,1.21-1.37,0,0,1.27-1.96,1.27-1.96l.42-.65,.29,.7c.51,1.24,1.13,2.43,1.84,3.57l-.44-.06c.89-.76,1.44-1.97,1.39-3.19h.31c-.04,1.02-.09,2.05-.15,3.08-.07-1.03-.12-2.06-.16-3.1h.31c.21,1.41-.41,2.93-1.55,3.87-.87-1.21-1.64-2.5-2.29-3.85l.71,.05-1.2,2.01c-1.25,2.42-2.71,2.55-3.85-.09-.36-.73-.63-1.51-.82-2.3l.98-.08c-.16,1.46-.72,5.03-2.67,4.92-.75-.13-1.07-.68-1.31-1.08-.44-.84-1.2-2.83-1.6-3.71,0,0,.72-.05,.72-.05-.51,1.9-1.27,3.73-2.29,5.4-1.35-1.08-1.92-2.99-1.33-4.54h0Z"/>
      <path class="cls-2" d="M30.29,40.9c-.25,1.43-.2,2.9,.18,4.3,0,0-.5-.04-.5-.04,.68-1.87,.83-3.89,.57-5.82l.89-.1c.19,1.44,.37,2.87,1.08,4l-.78-.09c1.29-1.29,1.94-3.08,2.15-4.87,0,0,.64,.73,.64,.73,.9,.93,.5,2.63,1.7,2.93,0,0-.27,.13-.27,.13,.82-.84,1.32-2.02,1.36-3.23l.49,.02c-.14,.93-.15,1.89-.05,2.85h-.15s.16-.97,.16-.97c-.01,.38,0,1.24-.02,1.61-.3-1.15-.48-2.33-.43-3.53,0,0,.49,.02,.49,.02,.07,1.39-.44,2.8-1.38,3.86-.51,.08-1.04-.16-1.33-.5-.69-.63-.72-2.01-1.25-2.54,0,0,.81-.25,.81-.25-.27,1.88-1.26,3.6-2.65,4.89-1.04-1.48-1.35-3.33-1.46-4.97,0,0,.89-.1,.89-.1,.29,2.4-.3,4.79-1.32,6.92-.4-1.72-.43-3.57,.17-5.24h0Z"/>
      <path class="cls-2" d="M42.73,37.96c.43,1.55,.93,3.07,1.6,4.52l-.45,.02,1.22-4.85,.38-1.51,.37,1.54c.37,1.54,.99,3.02,1.88,4.32l-.42-.21c1-.18,1.28-1.75,1.7-2.63,0,0,1.42-3.52,1.42-3.52l.52-1.28c.56,1.93,1.2,3.9,2.13,5.69,0,0-.53-.21-.53-.21,1.03-.59,.62-2.18,1.59-3.07,0,0,.48-.49,.48-.49,.13,1.02,.33,2.05,.71,3,0,0-.48-.04-.48-.04,.33-.49,.67-.99,1.02-1.47l.17,.24c.69,.96,1.03,2.15,.95,3.29h-.12s.07-.96,.07-.96l.05,.96h-.12c-.04-1.12-.46-2.2-1.17-3.02l.36-.02c-.24,.43-.49,.85-.75,1.27l-.26,.44c-.44-.92-.81-1.89-1.01-2.9,0,0,.58,.18,.58,.18-.77,.91-.35,2.9-1.79,3.41,0,0-.35,.12-.35,.12l-.18-.33c-.77-1.43-1.42-2.93-1.89-4.49l.92,.04-1.41,3.53c-.4,.89-.66,1.94-1.41,2.68-.34,.35-.9,.55-1.42,.53,0,0-.14-.22-.14-.22-.92-1.43-1.57-3.03-1.85-4.69l.74,.03-1.49,4.77-.22,.7c-.62-1.74-1.16-3.54-1.39-5.37h0Z"/>
      <path class="cls-2" d="M60.51,38.96c.04,.51,.3,.9,.61,1.09l-.47,.02c.48-.69,.83-1.42,1.15-2.17,0,0,.46,.19,.46,.19,1.1,.47,1.04,1.72,1.92,2.34,.23,.16,.51,.26,.83,.09-.4,.78-1.58,.35-2.03-.22-.4-.45-.65-1.06-1.13-1.3,0,0,.65-.25,.65-.25-.32,.69-.79,1.3-1.37,1.78l-.29,.24-.18-.22c-.4-.47-.44-1.14-.16-1.58h0Z"/>
      <path class="cls-2" d="M8.24,48.21c.74,1.46,1.42,2.89,2.18,4.27l-.82-.06c.63-.95,1.35-1.91,2.05-2.82,0,0,.27,.77,.27,.77,.24,.6,1.46,.61,1.77-.01,0,0,.29-.53,.29-.53l.15,.51c.48,1.53,.4,1.57-.43,.2,0,0,.44-.02,.44-.02-.37,1.33-2.43,1.47-3.06,.27,0,0,.81,.06,.81,.06-.62,.94-1.3,1.87-1.98,2.77-.86-1.69-1.54-3.51-1.66-5.41h0Z"/>
      <path class="cls-2" d="M21.36,51.02c.22,1.39,.7,2.73,1.46,3.88l-.18-.12c.63-.12,.64-1.39,.82-1.95,.35-1.62,.62-4.71,.81-6.39,0,0,.41,3.87,.41,3.87,.21,1.31,.37,3.34,1.31,4.21,.22,.13,.26,.1,.44-.08,.58-.8,1.78-2.5,2.37-3.32,.99,.46,1.48,1.47,1.71,2.44,0,0-.75-.22-.75-.22,1-.81,2.18-1.4,3.44-1.66l-.27,.24c.28-.66,1.67-3.93,1.92-4.52,.14,1.85,.6,3.67,1.53,5.32-.95-1.23-1.6-2.71-1.93-4.26l.5,.05-1.29,3.69-.06,.18-.21,.06c-1.35,.37-2.55,1.13-3.55,2.08-.25-.77-.53-1.99-1.16-2.33,0,0,.65-.13,.65-.13-.54,.75-1.59,2.31-2.16,3.04-1.58,1.53-2.78-.85-2.96-2.22-.19-.82-.31-1.66-.36-2.49l.83,.03c-.23,1.31-.54,2.58-.95,3.85-.17,.52-.6,1.19-1.28,.99-.68-1.31-1.09-2.77-1.09-4.22h0Z"/>
      <path class="cls-2" d="M43.02,50.44c-.03,1.39,.3,2.76,.95,3.96h-.29c.56-1.46,.89-3,1.03-4.55h.58c.13,1.36,.61,2.66,1.37,3.76l-.64,.03c.9-1.73,1.84-3.44,2.77-5.15l.48-.87c.22,.61,1.12,3.19,1.36,3.86,.05,.13,.08,.24,.11,.29,.04,.07,.03,0-.09-.02-.13,0-.13,.06-.07-.01,.11-.15,.91-1.38,1.04-1.58,0,0,.64-.98,.64-.98l.24,1.15c.19,.93,.49,1.84,.85,2.71h-.91c.35-.79,1.29-2.86,1.63-3.61,.24,.8,1.05,3.47,1.31,4.31l-.6-.29c.73-.26,1.16-1.12,1.53-2.01,.43-1.06,.97-2.24,2.11-2.78,.11,.14,1.16,1.49,1.3,1.66,0,0-.64,.07-.64,.07l1.76-4.17,.76-1.8c-.1,1.48-.71,3.45-.03,4.8,.42,.81,1.81,1.31,2.43,.46,.53,.41,.97,.94,1.28,1.52-.35-.53-.8-.99-1.32-1.34l.11-.02c-.74,.95-2.26,.48-2.83-.44-.58-.93-.52-2.09-.42-3.12,0,0,.52,.13,.52,.13l-1.6,4.25-.21,.57-.42-.5-1.09-1.28,.5,.07c-1.55,1.09-1.4,4.01-3.43,4.78,0,0-.45,.17-.45,.17-.05-.17-1.04-3.27-1.13-3.55,0,0,.89,.05,.89,.05l-1.08,2.47-.45,1.03c-.58-1.24-1.11-2.59-1.35-3.94,0,0,.88,.17,.88,.17-.19,.28-.92,1.37-1.11,1.63-.6,.73-1.4,.24-1.56-.55,0,0-.99-2.93-.99-2.93l.81,.07c-.95,1.7-1.91,3.4-2.9,5.08l-.31,.54-.32-.51c-.79-1.24-1.24-2.67-1.33-4.12h.58c-.2,1.73-.72,3.39-1.46,4.94-.69-1.36-1-2.91-.81-4.4h0Z"/>
      <path class="cls-2" d="M12.45,66.65c.43-1.9,1.12-3.77,2.03-5.5,.35-.72,.94-1.54,1.91-1.43,1.13,2.26,2.2,4.56,3.26,6.87l-.8-.18c1.67-1.53,2.96-3.46,3.92-5.51,.38,.64,.8,1.46,1.28,1.97,.57,.67,1.81,.92,2.22-.02,.11-.22,.19-.49,.32-.76,.13-.32,.44-.66,.82-.78,0,0,.09,.12,.09,.12,.62,.85,1.48,1.53,2.46,2.01-1.05-.3-2.01-.93-2.78-1.74l.25,.05c-.36,.21-.42,.77-.64,1.32-.19,.62-.9,1.09-1.55,1.07-1.32,.06-2.24-1.11-2.82-2.09,0,0,.78-.04,.78-.04-.94,2.15-2.42,4.04-4.18,5.6,0,0-.29-.65-.29-.65-1-2.21-1.99-4.43-2.92-6.68l.33,.21c-.38-.05-.81,.44-1.12,.98-1.01,1.66-1.86,3.39-2.58,5.19h0Z"/>
      <path class="cls-2" d="M37.33,63.28c-.14-.33-.18-.66-.23-1,1.54,0,3.13,1.02,3.4,2.6-.66-.32-1.15-.66-1.66-1-.5-.33-1-.66-1.52-1.04l.37-.23c-.1,.23-.21,.45-.37,.67h0Z"/>
    </g>
  </g>
</svg>