<?xml version="1.0" encoding="UTF-8"?>
<svg id="Layer_1" data-name="Layer 1" xmlns="http://www.w3.org/2000/svg" viewBox="0 0 72 72">
  <defs>
    <style>
      .cls-1 {
        stroke-width: 1.5px;
      }

      .cls-1, .cls-2, .cls-3, .cls-4, .cls-5 {
        stroke: #000;
        stroke-miterlimit: 10;
      }

      .cls-1, .cls-3 {
        fill: none;
      }

      .cls-3 {
        stroke-width: 2px;
      }

      .cls-4 {
        fill: #494847;
      }

      .cls-6 {
        fill: #ce3030;
      }

      .cls-5 {
        fill: #fff;
      }
    </style>
  </defs>
  <path class="cls-2" d="M52.28,7.72l-9.38,8.35,7.3-4.34c1.27-.75,2.92-.34,3.67,.93,.11,.18,.18,.36,.24,.55,.37,1.16-.08,2.47-1.17,3.12l-9.88,5.87,7.6-1.87c1.44-.36,2.89,.52,3.24,1.95,.34,1.38-.45,2.77-1.77,3.19-.06,.02-.12,.04-.19,.05l-10.11,2.49,8.68-.31c1.48-.06,2.72,1.1,2.77,2.58,.05,1.21-.74,2.28-1.85,2.64-.23,.07-.47,.12-.73,.13l-8.43,.31h.1c1.09,.18,1.84,1.21,1.67,2.31-.12,.77-.67,1.38-1.37,1.6-.29,.09-.6,.12-.92,.07l-5-.78s-.02,.07-.03,.11c-.23,.59-.7,1-1.26,1.18-.42,.13-.89,.13-1.34-.04l-5.5-2.16c-1.04-.4-1.54-1.56-1.14-2.59,.23-.59,.71-1,1.27-1.18-.33-.42-.49-.97-.4-1.54,.16-1.03,1.08-1.76,2.1-1.68-.7-.31-1.18-1.01-1.18-1.83,0-.74,.4-1.38,1.01-1.73-.48-.25-.84-.69-.99-1.25-.14-.5-.07-1.01,.16-1.44-.37-.12-.71-.34-.96-.67-.46-.58-.54-1.35-.27-2.01-.11-.03-.22-.07-.33-.13-.99-.51-1.38-1.72-.87-2.7l2.7-5.26c.51-.99,1.71-1.37,2.7-.87,.46,.24,.8,.63,.97,1.08l7.52-9.26c.93-1.15,2.61-1.33,3.76-.4,.42,.34,.71,.78,.86,1.25,.27,.84,.13,1.78-.47,2.51l-3.06,3.77,6.73-6c1.1-.99,2.79-.89,3.77,.21,.26,.29,.44,.61,.55,.96,.31,.97,.05,2.09-.77,2.81Z"/>
  <rect class="cls-4" x="44.59" y="21.59" width="5.01" height="39.1" rx="2.51" ry="2.51" transform="translate(64.77 -18.85) rotate(65.28)"/>
  <rect class="cls-4" x="49.37" y="23.69" width="5.01" height="39.1" rx="2.51" ry="2.51" transform="translate(69.46 -21.97) rotate(65.28)"/>
  <rect class="cls-4" x="49.57" y="28.38" width="5.01" height="39.1" rx="2.51" ry="2.51" transform="translate(73.83 -19.42) rotate(65.28)"/>
  <line class="cls-3" x1="31.6" y1="55.32" x2="34.43" y2="60.96"/>
  <path d="M34.17,60.77c-.59,.7-1,1.16-1.34,1.63-.3,.47-.82,.76-1.03,1.3-.53,1.22,.27,2.51,1.31,3.29,0,0-.08,.18-.08,.18-1.66-.37-3.13-2-2.79-3.84,.11-.92,.46-1.92,1.27-2.44,.78-.51,1.76-.71,2.62-.33l.04,.2h0Z"/>
  <path d="M34.01,60.6c-.85,.33-1.43,.54-1.96,.79-.49,.27-1.08,.28-1.53,.65-1.05,.82-.97,2.34-.42,3.52,0,0-.16,.12-.16,.12-1.28-1.12-1.79-3.25-.62-4.7,.54-.75,1.33-1.46,2.28-1.54,.93-.08,1.88,.22,2.46,.97l-.06,.19h0Z"/>
  <path d="M35.11,60.65c-.25,.88-.42,1.47-.54,2.04-.08,.55-.43,1.03-.4,1.61,.03,1.33,1.29,2.18,2.56,2.45,0,0,0,.2,0,.2-1.66,.35-3.67-.51-4.13-2.33-.28-.88-.38-1.94,.14-2.75,.49-.79,1.3-1.38,2.25-1.39l.12,.16h0Z"/>
  <ellipse class="cls-4" cx="32.82" cy="53.66" rx="3.59" ry="2.98" transform="translate(-29.08 64.85) rotate(-68.79)"/>
  <path class="cls-4" d="M50.59,48.63c0,5.35-4.34,9.69-9.69,9.69-3.28,0-6.18-1.63-7.93-4.12l-15.14-13.28c-2.64-.76-4.56-3.19-4.56-6.07,0-3.5,2.83-6.33,6.33-6.33,2.55,0,4.74,1.5,5.74,3.67l17.89,7.03c4.23,1.04,7.36,4.86,7.36,9.41Z"/>
  <line class="cls-3" x1="37.42" y1="57.38" x2="40.68" y2="64.17"/>
  <path d="M40.37,63.92c-.75,.71-1.29,1.23-1.76,1.79-.42,.56-1.03,.96-1.29,1.64-.25,.65-.28,1.39,.04,2.1,.3,.73,.9,1.38,1.6,1.91l-.08,.18c-1.91-.53-3.56-2.46-3.1-4.58,.16-1.06,.62-2.17,1.55-2.78,.9-.59,2.02-.83,3.02-.46l.04,.2h0Z"/>
  <path d="M40.19,63.72c-1,.27-1.72,.46-2.4,.73-.63,.29-1.36,.35-1.92,.82-.53,.45-.91,1.09-.97,1.87-.09,.78,.13,1.65,.49,2.44l-.16,.12c-1.42-1.38-1.95-3.86-.53-5.51,.65-.85,1.59-1.61,2.69-1.7,1.07-.09,2.17,.24,2.87,1.04l-.06,.19h0Z"/>
  <path d="M41.49,63.8c-.38,.96-.67,1.66-.86,2.36-.15,.68-.53,1.3-.49,2.03,.04,.7,.33,1.38,.91,1.9,.57,.54,1.4,.88,2.25,1.07v.2c-1.95,.31-4.26-.76-4.73-2.88-.29-1.03-.34-2.24,.25-3.17,.57-.91,1.49-1.59,2.55-1.67l.12,.16h0Z"/>
  <circle class="cls-5" cx="20.57" cy="33.92" r="3"/>
  <circle cx="20.57" cy="33.92" r="1.05"/>
  <g>
    <path d="M17.07,35.38c0-.08,0-.17,0-.17-.65-.7-1.35-1.09-2.07-1.35-1.38-.5-2.92-.55-4.18,.23-.61,.39-1.18,.82-1.76,1.21-2.25,1.47-4.16,3.55-5.35,5.94,0,0,.08,.08,.16,.15,3.31-3.56,8.3-6.41,13.19-6.02Z"/>
    <path d="M11.78,49.02c.11,0,.21,0,.21,0,.41-1.22,.83-2.37,1.36-3.44,.5-1.05,1.06-2.06,1.7-3.02,.6-.93,1.67-1.52,1.98-2.63,.41-1.32,.57-2.49,.47-4.07,0,0-.09-.09-.18-.18-3.11,3.8-5.37,8.35-5.53,13.34Z"/>
  </g>
  <path class="cls-4" d="M44.68,54.3c-1.25,4.56-5.02,7.5-8.41,6.57-3.39-.93-5.12-5.39-3.86-9.95"/>
  <rect class="cls-4" x="44.07" y="33.02" width="5.01" height="12.4" rx="2.51" ry="2.51" transform="translate(102.53 15.21) rotate(116.68)"/>
  <rect class="cls-4" x="48.31" y="22.89" width="6.69" height="22.75" rx="3.34" ry="3.34" transform="translate(98.68 -6.12) rotate(105.78)"/>
  <rect class="cls-4" x="50.14" y="14.21" width="6.69" height="26.67" rx="3.34" ry="3.34" transform="translate(84.68 -23.89) rotate(93.98)"/>
  <rect class="cls-4" x="52.54" y="6.3" width="6.69" height="28.61" rx="3.34" ry="3.34" transform="translate(63.48 -38.47) rotate(77.08)"/>
  <rect class="cls-4" x="53.29" y="-1.42" width="6.69" height="31.3" rx="3.34" ry="3.34" transform="translate(46.72 -43.32) rotate(66.13)"/>
  <rect class="cls-4" x="46.02" y="-3.78" width="6.69" height="29.92" rx="3.34" ry="3.34" transform="translate(31.78 -36.28) rotate(56.91)"/>
  <rect class="cls-4" x="34.33" y="30.28" width="5.01" height="12.4" rx="2.51" ry="2.51" transform="translate(88.38 30.96) rotate(129.16)"/>
  <rect class="cls-4" x="37.12" y="26.24" width="5.01" height="12.4" rx="2.51" ry="2.51" transform="translate(86.41 11.59) rotate(116.68)"/>
  <rect class="cls-4" x="39.92" y="21.53" width="5.01" height="12.4" rx="2.51" ry="2.51" transform="translate(81.86 -4.11) rotate(107.91)"/>
  <rect class="cls-4" x="41.37" y="16.4" width="5.01" height="12.4" rx="2.51" ry="2.51" transform="translate(68.6 -20.11) rotate(92.81)"/>
  <rect class="cls-4" x="40.84" y="11.13" width="5.01" height="12.4" rx="2.51" ry="2.51" transform="translate(44.56 -29.34) rotate(69.7)"/>
  <rect class="cls-4" x="39.52" y="6.12" width="5.01" height="12.4" rx="2.51" ry="2.51" transform="translate(21.02 -26.11) rotate(45)"/>
  <line class="cls-1" x1="16.52" y1="34.35" x2="20.24" y2="29.71"/>
  <g>
    <path class="cls-6" d="M4.63,44.49c.06-.06,.09-.14,.09-.27,.06,.02,.08,.03,.14,.04,.13,.4,.2,.61,.35,1.01-.19,.2-.78,.2-1.06,.11,0,.05,.01,.07,.02,.12,.27,.1,.7,.34,1.16,.73,.81,.69,1.23,1.02,2.12,1.61,.19-.09,.47-.24,.7-.29-.05-.22-.07-.33-.12-.56,.08,.02,.12,.03,.21,.05,.13,.54,.21,.81,.38,1.36-.45,.06-.91,.32-1.22,.57-.06-.04-.09-.06-.15-.1,.01-.26-.24-.47-.44-.61-.87-.6-1.29-.92-2.09-1.62-.38-.33-.53-.27-.63-.2-.05-.05-.07-.07-.12-.11,.05-.6-.01-1.25-.16-1.83,.31,.08,.66,.13,.82-.02Z"/>
    <path class="cls-6" d="M5.6,42.91c.38,.02,.7-.08,1.1-.33,.06-.28,.03-.47,0-.65,.05,0,.07,0,.12,0,.08,.34,.21,.77,.64,1.16,.65,.58,.99,.85,1.7,1.35,.42,.3,.64,.33,.8,.26-.02-.14-.04-.2-.06-.34,.06,.01,.09,.02,.16,.03,.1,.42,.15,.63,.28,1.06-.22,.13-.78,.12-1.09-.08,.17,.46,.26,.69,.46,1.15-.35,.19-.88,.32-1.64-.2-.72-.49-.87-1.13-.92-1.65-.57-.07-1.13-.33-1.69-.74,.21-.42,.19-.73,.12-1.02Zm2.23,1.42c-.39-.31-.57-.47-.94-.8-.38,.18-.79,.36-1.18,.4,.79,.56,1.63,.73,2.12,.4Zm.16,.13c-.22,.18-.39,.2-.68,.22,.18,.27,.42,.5,.68,.69,.62,.46,1.02,.55,1.3,.46-.09-.24-.14-.35-.22-.59-.44-.3-.66-.46-1.08-.78Z"/>
    <path class="cls-6" d="M8.69,41.3c-.03-.54-.03-.81-.02-1.33,.32-.04,.68,.05,.99,.28,.03-.38,.05-.91,.03-1.26,.63-.03,1.14,.24,1.63,.65,.85,.7,.75,1.38,1.08,2.5-.33,.23-.6,.38-.96,.29,.08,.38,.13,.57,.24,.95-.44,.07-.87,.28-1.17,.57-.05-.02-.07-.04-.12-.06,0-.13,0-.34-.22-.48-.74-.51-1.1-.79-1.76-1.39-.16-.14-.35-.19-.53-.19,0,.09,0,.14,.01,.23-.06,0-.09,0-.15,0-.06-.44-.08-.66-.1-1.09,.33-.03,.72,.08,1.05,.34Zm2.59,1.1c-.81-.52-1.19-.81-1.91-1.45-.14-.13-.36-.16-.53-.15-.01,.24-.02,.37-.02,.61,.71,.64,1.09,.94,1.88,1.47,.15-.1,.38-.2,.62-.24-.02-.1-.02-.15-.04-.25Zm.22-.7c.26,0,.46-.08,.59-.26-.11-.32-.54-.7-1.02-1.08-.49-.39-.91-.61-1.25-.55-.01,.23-.02,.34-.02,.57,.64,.58,.98,.85,1.7,1.33Z"/>
  </g>
  <polygon class="cls-6" points="5.87 42.15 .22 45.94 5.25 41.36 5.87 42.15 5.87 42.15"/>
  <polygon class="cls-6" points="5.52 42.33 1.49 42.94 5.25 41.36 5.52 42.33 5.52 42.33"/>
  <polygon class="cls-6" points="11.44 47 7.89 53.15 10.4 46.51 11.44 47 11.44 47"/>
  <polygon class="cls-6" points="11.43 47.01 10.45 50.31 10.28 46.87 11.43 47.01 11.43 47.01"/>
  <polygon class="cls-6" points="6.51 49.79 2.96 55.93 5.47 49.3 6.51 49.79 6.51 49.79"/>
  <polygon class="cls-6" points="6.49 49.79 5.52 53.1 5.35 49.65 6.49 49.79 6.49 49.79"/>
  <polygon class="cls-6" points="4.67 47.82 .32 52.35 3.95 47.23 4.67 47.82 4.67 47.82"/>
  <polygon class="cls-6" points="4.39 48.05 .87 49.39 3.96 47.23 4.39 48.05 4.39 48.05"/>
</svg>