<?xml version="1.0" encoding="UTF-8"?>
<svg id="Layer_1" data-name="Layer 1" xmlns="http://www.w3.org/2000/svg" viewBox="0 0 72 72">
  <defs>
    <style>
      .cls-1, .cls-2, .cls-3, .cls-4 {
        stroke: #000;
        stroke-miterlimit: 10;
      }

      .cls-5, .cls-3 {
        fill: #494847;
      }

      .cls-2 {
        fill: none;
        stroke-width: 2px;
      }

      .cls-4 {
        fill: #fff;
      }
    </style>
  </defs>
  <path class="cls-1" d="M42.77,34.98c0,1.38-1.06,2.55-2.46,2.66l-3.06,.25c1.39,.4,2.22,1.85,1.84,3.26-.31,1.2-1.4,1.99-2.58,1.99-.23,0-.46-.03-.7-.1l-1.13-.3c.02,.5-.09,1-.35,1.46-.5,.86-1.39,1.34-2.32,1.34-.45,0-.91-.11-1.34-.36l-3.43-1.98c-.37,.34-.86,.52-1.34,.52-.43,0-.86-.14-1.23-.42l-4.66-3.63c-.36-.28-.6-.66-.7-1.07-.22-.15-.41-.34-.56-.54-.02-.02-.03-.04-.04-.06l-.18-.07-2.22-.96c-1.02-.44-1.49-1.62-1.05-2.63,.43-1.02,1.61-1.49,2.63-1.05l1.6,.69,.12,.05s.02-.02,.02-.02c.26-.18,.57-.3,.89-.33,.09-.18,.19-.34,.32-.47-.03-.25,0-.5,.05-.75-.49-.77-.39-1.81,.28-2.48l4.18-4.18c.78-.78,2.05-.78,2.83,0,.13,.13,.24,.28,.33,.43l8.65-6.08c1.22-.86,2.88-.56,3.73,.65,.33,.47,.49,1.01,.49,1.54,0,.85-.4,1.67-1.14,2.19l-3.38,2.38,1.94-.84c1.36-.58,2.94,.05,3.52,1.4,.14,.34,.22,.7,.22,1.06,0,1.04-.61,2.02-1.62,2.46l-3.58,1.54,2.52-.21c1.47-.12,2.76,.98,2.88,2.45,0,.07,0,.14,0,.22Z"/>
  <path class="cls-1" d="M18.96,36.87l-.22-.14,.18,.07s.02,.04,.04,.06Z"/>
  <path class="cls-1" d="M19.85,32.81s-.02,0-.02,.02l-.12-.05s.1,.02,.14,.03Z"/>
  <line class="cls-2" x1="28.85" y1="54.04" x2="26.39" y2="59.85"/>
  <path d="M26.37,59.53c-.91,0-1.53,0-2.11,.04-.55,.08-1.11-.13-1.66,.06-1.27,.39-1.74,1.83-1.66,3.13,0,0-.19,.06-.19,.06-.79-1.5-.51-3.68,1.11-4.61,.77-.51,1.76-.89,2.68-.61,.89,.26,1.68,.88,1.95,1.79l-.12,.16h0Z"/>
  <path d="M26.39,59.3c-.8-.44-1.34-.74-1.87-.98-.52-.2-.91-.65-1.49-.75-1.3-.27-2.41,.78-2.95,1.96,0,0-.2-.04-.2-.04,.02-1.7,1.31-3.47,3.18-3.52,.92-.08,1.97,.06,2.65,.74,.66,.66,1.05,1.58,.86,2.5l-.18,.08h0Z"/>
  <path d="M27.07,60.17c-.83,.38-1.39,.63-1.9,.91-.47,.3-1.06,.34-1.49,.74-1,.88-.82,2.39-.2,3.54,0,0-.15,.13-.15,.13-1.34-1.04-1.99-3.13-.91-4.66,.49-.79,1.23-1.54,2.18-1.67,.92-.14,1.89,.1,2.51,.82l-.05,.19h0Z"/>
  <ellipse class="cls-3" cx="29.24" cy="52.46" rx="3.59" ry="2.98" transform="translate(-29.58 64.58) rotate(-72.5)"/>
  <rect class="cls-3" x="45.33" y="24.33" width="5.01" height="39.1" rx="2.51" ry="2.51" transform="translate(96.04 .42) rotate(95.43)"/>
  <rect class="cls-3" x="48.4" y="28.55" width="5.01" height="39.1" rx="2.51" ry="2.51" transform="translate(103.61 1.97) rotate(95.43)"/>
  <rect class="cls-3" x="46.22" y="32.7" width="5.01" height="39.1" rx="2.51" ry="2.51" transform="translate(105.34 8.68) rotate(95.43)"/>
  <path class="cls-3" d="M45.77,47.62c.24,5.34-3.9,9.88-9.24,10.12-3.28,.15-6.25-1.35-8.11-3.76l-15.72-12.59c-2.67-.64-4.7-2.98-4.83-5.86-.16-3.5,2.54-6.45,6.04-6.61,2.55-.11,4.8,1.29,5.9,3.41l18.19,6.22c4.27,.85,7.57,4.52,7.78,9.07Z"/>
  <circle class="cls-4" cx="15.12" cy="34.28" r="3"/>
  <circle cx="15.12" cy="34.28" r="1.05"/>
  <path d="M11.81,36.28c-.61,1.46-1.27,2.44-2.23,3.44-.77,.85-1.99,.91-2.94,1.48-1,.57-1.95,1.23-2.87,1.95-.95,.73-1.84,1.57-2.75,2.48l-.45-.23c.46-2.63,1.69-5.17,3.43-7.22,.44-.53,.87-1.11,1.34-1.66,.98-1.12,2.47-1.5,3.94-1.42,.76,.04,1.54,.22,2.36,.7l.16,.47h0Z"/>
  <path class="cls-5" d="M11.74,36.06c-4.5,1.97-8.59,5.02-10.91,9.46,0,0-.04-.02-.04-.02,2.1-4.36,6.11-8.56,10.96-9.43h0Z"/>
  <line class="cls-2" x1="33.71" y1="57.4" x2="31.82" y2="64.7"/>
  <path d="M31.75,64.3c-1.03,.06-1.78,.1-2.5,.23-.68,.16-1.41,.07-2.04,.42-.61,.34-1.1,.88-1.33,1.63-.24,.75-.2,1.64,0,2.49l-.18,.08c-1.12-1.63-1.14-4.17,.58-5.51,.81-.7,1.88-1.26,2.97-1.13,1.07,.13,2.08,.67,2.6,1.59l-.1,.17h0Z"/>
  <path d="M31.74,64.03c-.94-.44-1.61-.76-2.3-.99-.67-.19-1.27-.61-2-.6-.7,0-1.39,.25-1.95,.8-.57,.54-.96,1.34-1.2,2.18h-.2c-.2-1.98,1-4.22,3.15-4.57,1.04-.23,2.25-.21,3.15,.43,.88,.62,1.51,1.58,1.52,2.64l-.17,.11h0Z"/>
  <path d="M32.68,64.93c-.91,.49-1.58,.84-2.17,1.25-.55,.42-1.25,.65-1.68,1.24-.42,.56-.64,1.26-.53,2.04,.09,.78,.5,1.57,1.03,2.27l-.13,.15c-1.69-1.02-2.77-3.32-1.76-5.25,.74-2.07,3.4-3.23,5.26-1.89,0,0-.02,.2-.02,.2h0Z"/>
  <path class="cls-3" d="M41.12,52.32c-.96,4.63-4.52,7.81-7.96,7.1-3.44-.71-5.46-5.04-4.5-9.68"/>
  <rect class="cls-3" x="33.71" y="35.39" width="5.01" height="12.4" rx="2.51" ry="2.51" transform="translate(91.29 38.64) rotate(127.98)"/>
  <rect class="cls-3" x="36.47" y="29.91" width="6.69" height="22.75" rx="3.34" ry="3.34" transform="translate(95.49 27.45) rotate(120)"/>
  <rect class="cls-3" x="39.39" y="26.38" width="6.69" height="26.67" rx="3.34" ry="3.34" transform="translate(92.14 8.71) rotate(104.98)"/>
  <rect class="cls-3" x="42.58" y="22.03" width="6.69" height="28.61" rx="3.34" ry="3.34" transform="translate(78.41 -12.39) rotate(85.34)"/>
  <rect class="cls-3" x="41.94" y="16.58" width="6.69" height="31.3" rx="3.34" ry="3.34" transform="translate(56.99 -22.11) rotate(66.72)"/>
  <rect class="cls-3" x="42.29" y="11.35" width="6.69" height="29.92" rx="3.34" ry="3.34" transform="translate(40.92 -26.15) rotate(54.9)"/>
  <rect class="cls-3" x="29.01" y="30.87" width="5.01" height="12.4" rx="2.51" ry="2.51" transform="translate(78.02 22.75) rotate(113.25)"/>
  <rect class="cls-3" x="31.32" y="32.47" width="5.01" height="12.4" rx="2.51" ry="2.51" transform="translate(84.69 31.46) rotate(123.11)"/>
  <rect class="cls-3" x="33.72" y="31.23" width="5.01" height="12.4" rx="2.51" ry="2.51" transform="translate(82.97 14.47) rotate(107.91)"/>
  <rect class="cls-3" x="35.86" y="28.87" width="5.01" height="12.4" rx="2.51" ry="2.51" transform="translate(75.26 -1.53) rotate(92.81)"/>
  <rect class="cls-3" x="36.32" y="25.37" width="5.01" height="12.4" rx="2.51" ry="2.51" transform="translate(54.97 -15.79) rotate(69.7)"/>
  <rect class="cls-3" x="35.1" y="22.14" width="5.01" height="12.4" rx="2.51" ry="2.51" transform="translate(31.05 -18.29) rotate(45)"/>
</svg>