<?xml version="1.0" encoding="UTF-8"?>
<svg id="Layer_1" data-name="Layer 1" xmlns="http://www.w3.org/2000/svg" viewBox="0 0 72 72">
  <defs>
    <style>
      .cls-1, .cls-2, .cls-3, .cls-4 {
        stroke: #000;
        stroke-miterlimit: 10;
      }

      .cls-5, .cls-3 {
        fill: #494847;
      }

      .cls-2 {
        fill: none;
        stroke-width: 2px;
      }

      .cls-4 {
        fill: #fff;
      }
    </style>
  </defs>
  <line class="cls-2" x1="31.37" y1="54.92" x2="30.89" y2="61.21"/>
  <path d="M30.77,60.91c-.87,.29-1.45,.48-1.99,.7-.5,.25-1.09,.23-1.56,.58-1.08,.77-1.07,2.29-.57,3.5,0,0-.16,.11-.16,.11-1.23-1.17-1.65-3.32-.41-4.73,.57-.73,1.39-1.4,2.35-1.43,.93-.04,1.87,.3,2.41,1.08l-.07,.19h0Z"/>
  <path d="M30.71,60.68c-.9-.16-1.5-.28-2.08-.33-.55-.02-1.07-.32-1.65-.23-1.32,.16-2.04,1.5-2.18,2.8,0,0-.2,.02-.2,.02-.52-1.62,.14-3.71,1.9-4.35,.85-.37,1.89-.57,2.75-.14,.84,.41,1.5,1.16,1.61,2.1l-.15,.13h0Z"/>
  <path d="M31.63,61.29c-.67,.62-1.12,1.04-1.52,1.47-.35,.43-.9,.66-1.18,1.18-.66,1.15-.02,2.53,.93,3.42,0,0-.1,.17-.1,.17-1.6-.56-2.88-2.34-2.34-4.13,.22-.9,.68-1.85,1.54-2.28,.83-.42,1.83-.51,2.64-.03l.02,.2h0Z"/>
  <ellipse class="cls-3" cx="31.25" cy="53.29" rx="2.98" ry="3.59" transform="translate(-.95 .57) rotate(-1.03)"/>
  <path class="cls-1" d="M47.12,34.96c0-1.38-1.06-2.55-2.46-2.66l-3.06-.25c1.39-.4,2.22-1.85,1.84-3.26-.31-1.2-1.4-1.99-2.58-1.99-.23,0-.46,.03-.7,.1l-1.13,.3c.02-.5-.09-1-.35-1.46-.5-.86-1.39-1.34-2.32-1.34-.45,0-.91,.11-1.34,.36l-3.43,1.98c-.37-.34-.86-.52-1.34-.52-.43,0-.86,.14-1.23,.42l-4.66,3.63c-.36,.28-.6,.66-.7,1.07-.22,.15-.41,.34-.56,.54-.02,.02-.03,.04-.04,.06l-.18,.07-2.22,.96c-1.02,.44-1.49,1.62-1.05,2.63,.43,1.02,1.61,1.49,2.63,1.05l1.6-.69,.12-.05s.02,.02,.02,.02c.26,.18,.57,.3,.89,.33,.09,.18,.19,.34,.32,.47-.03,.25,0,.5,.05,.75-.49,.77-.39,1.81,.28,2.48l4.18,4.18c.78,.78,2.05,.78,2.83,0,.13-.13,.24-.28,.33-.43l8.65,6.08c1.22,.86,2.88,.56,3.73-.65,.33-.47,.49-1.01,.49-1.54,0-.85-.4-1.67-1.14-2.19l-3.38-2.38,1.94,.84c1.36,.58,2.94-.05,3.52-1.4,.14-.34,.22-.7,.22-1.06,0-1.04-.61-2.02-1.62-2.46l-3.58-1.54,2.52,.21c1.47,.12,2.76-.98,2.88-2.45,0-.07,0-.14,0-.22Z"/>
  <path class="cls-1" d="M18.96,36.87l-.22-.14,.18,.07s.02,.04,.04,.06Z"/>
  <rect class="cls-3" x="44.89" y="22.14" width="5.01" height="39.1" rx="2.51" ry="2.51" transform="translate(87.77 -6.83) rotate(88.43)"/>
  <rect class="cls-3" x="48.46" y="25.95" width="5.01" height="39.1" rx="2.51" ry="2.51" transform="translate(95.05 -6.69) rotate(88.43)"/>
  <rect class="cls-3" x="46.79" y="30.33" width="5.01" height="39.1" rx="2.51" ry="2.51" transform="translate(97.81 -.76) rotate(88.43)"/>
  <path class="cls-3" d="M47.61,45.55c1.02,5.25-2.42,10.34-7.67,11.35-3.22,.62-6.38-.43-8.57-2.54l-17.39-10.16c-2.74-.25-5.08-2.27-5.63-5.09-.66-3.44,1.58-6.75,5.01-7.42,2.5-.48,4.94,.57,6.33,2.51l18.9,3.51c4.35,.22,8.15,3.37,9.01,7.84Z"/>
  <circle class="cls-4" cx="15.35" cy="36.8" r="3"/>
  <circle cx="15.35" cy="36.8" r="1.05"/>
  <path d="M12.36,39.27c-.39,1.53-.91,2.6-1.71,3.73-.64,.96-1.84,1.19-2.7,1.89-.9,.71-1.75,1.5-2.55,2.35-.84,.86-1.59,1.82-2.36,2.85l-.47-.16c.07-2.67,.92-5.36,2.34-7.64,.36-.59,.7-1.22,1.08-1.84,.81-1.25,2.22-1.85,3.69-1.97,.76-.07,1.56,0,2.44,.35l.22,.45h0Z"/>
  <path class="cls-5" d="M12.26,39.06c-4.17,2.61-7.77,6.22-9.42,10.94,0,0-.05-.02-.05-.02,1.44-4.62,4.8-9.36,9.47-10.93h0Z"/>
  <line class="cls-2" x1="37.05" y1="56.56" x2="37.58" y2="64.07"/>
  <path d="M37.39,63.72c-.96,.39-1.66,.66-2.29,1.01-.59,.36-1.31,.52-1.8,1.05-.47,.51-.77,1.19-.74,1.97,0,.78,.33,1.62,.78,2.36l-.15,.14c-1.58-1.19-2.4-3.6-1.2-5.41,.54-.92,1.38-1.79,2.46-2.01,1.05-.22,2.18-.03,2.97,.68l-.04,.2h0Z"/>
  <path d="M37.29,63.47c-1.03-.12-1.77-.21-2.5-.21-.69,.04-1.4-.17-2.09,.06-.66,.22-1.24,.68-1.59,1.38-.37,.69-.49,1.58-.44,2.45l-.19,.05c-.81-1.8-.39-4.31,1.53-5.32,.92-.55,2.07-.91,3.12-.59,1.03,.31,1.93,1.02,2.28,2.02l-.13,.15h0Z"/>
  <path d="M38.47,64.02c-.71,.75-1.23,1.29-1.66,1.88-.39,.58-.98,1.01-1.2,1.71-.22,.66-.2,1.4,.15,2.1,.33,.71,.97,1.34,1.69,1.82l-.07,.19c-1.93-.43-3.68-2.27-3.34-4.42,.11-1.06,.51-2.2,1.4-2.85,.87-.64,1.97-.93,2.99-.61l.05,.19h0Z"/>
  <path class="cls-3" d="M42.46,49.39c.56,4.7-1.81,8.85-5.3,9.26-3.49,.42-6.78-3.05-7.34-7.75"/>
  <rect class="cls-3" x="33.71" y="23.14" width="5.01" height="12.4" rx="2.51" ry="2.51" transform="translate(35.38 75.95) rotate(-127.98)"/>
  <rect class="cls-3" x="36.47" y="18.27" width="6.69" height="22.75" rx="3.34" ry="3.34" transform="translate(34.05 78.95) rotate(-120)"/>
  <rect class="cls-3" x="39.39" y="17.89" width="6.69" height="26.67" rx="3.34" ry="3.34" transform="translate(23.62 80.57) rotate(-104.98)"/>
  <rect class="cls-3" x="42.58" y="20.29" width="6.69" height="28.61" rx="3.34" ry="3.34" transform="translate(7.71 77.57) rotate(-85.34)"/>
  <rect class="cls-3" x="44.85" y="24.12" width="6.69" height="31.3" rx="3.34" ry="3.34" transform="translate(-10.34 61.62) rotate(-60)"/>
  <rect class="cls-3" x="42.68" y="30.59" width="6.69" height="29.92" rx="3.34" ry="3.34" transform="translate(-18.38 52.21) rotate(-50.61)"/>
  <rect class="cls-3" x="29.01" y="27.66" width="5.01" height="12.4" rx="2.51" ry="2.51" transform="translate(12.85 76.19) rotate(-113.25)"/>
  <rect class="cls-3" x="31.32" y="26.07" width="5.01" height="12.4" rx="2.51" ry="2.51" transform="translate(25.27 78.22) rotate(-123.11)"/>
  <rect class="cls-3" x="33.72" y="27.31" width="5.01" height="12.4" rx="2.51" ry="2.51" transform="translate(15.47 78.28) rotate(-107.91)"/>
  <rect class="cls-3" x="35.86" y="29.67" width="5.01" height="12.4" rx="2.51" ry="2.51" transform="translate(4.41 75.94) rotate(-92.81)"/>
  <rect class="cls-3" x="36.32" y="33.17" width="5.01" height="12.4" rx="2.51" ry="2.51" transform="translate(-11.56 62.12) rotate(-69.7)"/>
  <rect class="cls-3" x="35.1" y="36.4" width="5.01" height="12.4" rx="2.51" ry="2.51" transform="translate(-19.11 39.07) rotate(-45)"/>
</svg>