<?xml version="1.0" encoding="UTF-8"?>
<svg id="Layer_1" data-name="Layer 1" xmlns="http://www.w3.org/2000/svg" viewBox="0 0 72 72">
  <defs>
    <style>
      .cls-1, .cls-2, .cls-3, .cls-4 {
        stroke: #000;
        stroke-miterlimit: 10;
      }

      .cls-5, .cls-3 {
        fill: #494847;
      }

      .cls-2 {
        fill: none;
        stroke-width: 2px;
      }

      .cls-4 {
        fill: #fff;
      }
    </style>
  </defs>
  <path class="cls-1" d="M54.59,47.73c0,.18-.02,.36-.06,.54-.3,1.45-1.72,2.38-3.16,2.08l-15.61-3.24,10.69,7.19c.77,.52,1.18,1.36,1.18,2.22,0,.51-.15,1.03-.46,1.49-.82,1.22-2.49,1.55-3.71,.73l-10.51-7.07c-.09,.34-.26,.65-.52,.91-.78,.78-2.06,.78-2.84,0l-4.18-4.18c-.78-.78-.78-2.06,0-2.84,.23-.23,.5-.39,.79-.49-.54-.43-.85-1.13-.74-1.86,.07-.49,.32-.91,.66-1.21-.41-.27-.71-.7-.82-1.22-.12-.57,0-1.14,.33-1.58-.99,.21-1.99-.36-2.3-1.34-.25-.76-.02-1.56,.53-2.07-.95,.34-2.02-.07-2.48-.98-.32-.64-.26-1.37,.08-1.94-.88,.14-1.77-.34-2.14-1.2-.43-1.02,.05-2.2,1.06-2.63l5.45-2.3c.26-.1,.52-.16,.78-.16,.64,0,1.26,.31,1.63,.85l4.71-2.37c.29-.14,.59-.22,.9-.22,.73,0,1.44,.41,1.79,1.1,.33,.66,.26,1.4-.1,1.98l5.98-1.69c.24-.07,.49-.1,.73-.1,1.17,0,2.25,.77,2.58,1.95,.4,1.42-.42,2.9-1.85,3.3l-3.62,1.02,6.98-.49c.06,0,.13,0,.19,0,1.39,0,2.57,1.08,2.66,2.49,.1,1.48-1.02,2.75-2.49,2.86l-.82,.06,3.96,.2c1.42,.08,2.54,1.26,2.54,2.67v.14c-.07,1.47-1.33,2.61-2.81,2.54l-10.51-.53,13.38,2.78c1.26,.26,2.14,1.38,2.14,2.62Z"/>
  <rect class="cls-3" x="44.48" y="17.72" width="5.01" height="39.1" rx="2.51" ry="2.51" transform="translate(71.64 -17.41) rotate(75.85)"/>
  <rect class="cls-3" x="48.8" y="20.66" width="5.01" height="39.1" rx="2.51" ry="2.51" transform="translate(77.75 -19.37) rotate(75.85)"/>
  <rect class="cls-3" x="48.13" y="25.3" width="5.01" height="39.1" rx="2.51" ry="2.51" transform="translate(81.74 -15.21) rotate(75.85)"/>
  <line class="cls-2" x1="36.93" y1="57.34" x2="38.16" y2="63.53"/>
  <path d="M37.97,63.28c-.76,.51-1.27,.85-1.72,1.22-.41,.37-.99,.52-1.34,.98-.83,1.04-.41,2.5,.4,3.52,0,0-.13,.15-.13,.15-1.5-.8-2.49-2.75-1.68-4.44,.35-.86,.96-1.73,1.87-2.02,.89-.29,1.88-.22,2.61,.38v.2h-.01Z"/>
  <path d="M37.85,63.08c-.91,.09-1.52,.14-2.1,.24-.54,.13-1.12-.02-1.65,.22-1.23,.51-1.55,2-1.34,3.28,0,0-.19,.08-.19,.08-.94-1.42-.87-3.61,.65-4.7,.72-.58,1.67-1.06,2.61-.88,.92,.17,1.76,.71,2.11,1.59l-.11,.17h0Z"/>
  <path d="M38.91,63.41c-.47,.78-.8,1.3-1.06,1.82-.22,.51-.69,.88-.81,1.45-.33,1.29,.67,2.44,1.82,3.04,0,0-.05,.19-.05,.19-1.69-.1-3.41-1.47-3.37-3.34-.04-.93,.15-1.97,.86-2.61,.69-.63,1.62-.98,2.54-.74l.07,.19h0Z"/>
  <ellipse class="cls-3" cx="36.36" cy="55.81" rx="2.98" ry="3.59" transform="translate(-14.54 12.85) rotate(-16.75)"/>
  <path class="cls-3" d="M46.93,44.08c1.35,5.18-1.76,10.47-6.94,11.82-3.17,.83-6.39-.02-8.71-1.99l-18-9.04c-2.75-.07-5.22-1.94-5.94-4.73-.88-3.39,1.15-6.84,4.53-7.72,2.47-.64,4.96,.26,6.48,2.11l19.08,2.3c4.36-.06,8.35,2.85,9.49,7.25Z"/>
  <line class="cls-2" x1="42.84" y1="57.38" x2="45.38" y2="64.48"/>
  <path d="M45.1,64.19c-.82,.63-1.41,1.09-1.93,1.6-.47,.51-1.12,.85-1.45,1.5-.32,.62-.42,1.35-.18,2.1,.22,.75,.76,1.47,1.39,2.06l-.1,.17c-1.84-.72-3.29-2.81-2.62-4.88,.27-1.04,.84-2.1,1.82-2.6,.95-.5,2.09-.62,3.05-.15l.02,.2h0Z"/>
  <path d="M44.94,63.97c-1.02,.16-1.76,.28-2.46,.48-.66,.22-1.39,.21-1.99,.62-.58,.4-1.01,.99-1.16,1.76-.17,.77-.04,1.65,.24,2.48l-.17,.1c-1.27-1.51-1.54-4.04,.04-5.54,.73-.78,1.74-1.44,2.84-1.41,1.07,.02,2.13,.46,2.75,1.33l-.08,.18h0Z"/>
  <path d="M46.23,64.19c-.48,.91-.83,1.58-1.09,2.26-.22,.66-.67,1.24-.69,1.97-.03,.7,.18,1.4,.71,1.98,.51,.59,1.3,1.02,2.13,1.3l-.02,.2c-1.97,.11-4.16-1.19-4.41-3.35-.18-1.05-.11-2.26,.58-3.12,.66-.85,1.65-1.43,2.71-1.4l.1,.17h0Z"/>
  <circle class="cls-4" cx="14.18" cy="37.4" r="3"/>
  <circle cx="14.18" cy="37.4" r="1.05"/>
  <path d="M11.36,40.05c-.3,1.56-.74,2.65-1.47,3.83-.58,1-1.76,1.31-2.57,2.06-.86,.77-1.65,1.61-2.4,2.5-.78,.91-1.47,1.92-2.17,3l-.48-.13c-.1-2.67,.58-5.41,1.85-7.78,.32-.61,.62-1.27,.96-1.9,.73-1.3,2.1-1.98,3.56-2.2,.75-.11,1.55-.11,2.46,.2l.25,.43h0Z"/>
  <path class="cls-5" d="M11.24,39.85c-3.99,2.87-7.36,6.7-8.71,11.52,0,0-.05-.01-.05-.01,1.14-4.7,4.2-9.65,8.75-11.51h0Z"/>
  <path class="cls-3" d="M46.1,49.02c1.82,4.37,.66,9-2.59,10.35-3.25,1.35-7.35-1.1-9.17-5.47"/>
  <rect class="cls-3" x="41.13" y="27.96" width="5.01" height="12.4" rx="2.51" ry="2.51" transform="translate(32.7 88.49) rotate(-116.68)"/>
  <rect class="cls-3" x="45.87" y="24.84" width="6.69" height="22.75" rx="3.34" ry="3.34" transform="translate(27.75 93.42) rotate(-105.78)"/>
  <rect class="cls-3" x="47.5" y="27.75" width="6.69" height="26.67" rx="3.34" ry="3.34" transform="translate(13.38 94.66) rotate(-93.98)"/>
  <rect class="cls-3" x="49.9" y="32.53" width="6.69" height="28.61" rx="3.34" ry="3.34" transform="translate(3.8 97.67) rotate(-87.13)"/>
  <rect class="cls-3" x="51.44" y="37.47" width="6.69" height="31.3" rx="3.34" ry="3.34" transform="translate(-8.36 95.97) rotate(-78.28)"/>
  <rect class="cls-3" x="45.55" y="45.37" width="6.69" height="29.92" rx="3.34" ry="3.34" transform="translate(-28.45 67.22) rotate(-56.07)"/>
  <rect class="cls-3" x="32.28" y="33.08" width="5.01" height="12.4" rx="2.51" ry="2.51" transform="translate(12.14 86.6) rotate(-112.9)"/>
  <rect class="cls-3" x="34.58" y="34.16" width="5.01" height="12.4" rx="2.51" ry="2.51" transform="translate(17.68 91.61) rotate(-116.68)"/>
  <rect class="cls-3" x="37.67" y="37.02" width="5.01" height="12.4" rx="2.51" ry="2.51" transform="translate(11.41 94.73) rotate(-107.91)"/>
  <rect class="cls-3" x="37.84" y="40.62" width="5.01" height="12.4" rx="2.51" ry="2.51" transform="translate(3.13 96.17) rotate(-102.23)"/>
  <rect class="cls-3" x="38.1" y="45.01" width="5.01" height="12.4" rx="2.51" ry="2.51" transform="translate(-16.14 83.63) rotate(-81.33)"/>
  <rect class="cls-3" x="37.37" y="50.71" width="5.01" height="12.4" rx="2.51" ry="2.51" transform="translate(-29.35 62.99) rotate(-60)"/>
</svg>