<?xml version="1.0" encoding="UTF-8"?>
<svg id="Layer_1" data-name="Layer 1" xmlns="http://www.w3.org/2000/svg" viewBox="0 0 72 72">
  <defs>
    <style>
      .cls-1, .cls-2, .cls-3, .cls-4 {
        stroke: #000;
        stroke-miterlimit: 10;
      }

      .cls-5, .cls-3 {
        fill: #494847;
      }

      .cls-2 {
        fill: none;
        stroke-width: 2px;
      }

      .cls-4 {
        fill: #fff;
      }
    </style>
  </defs>
  <path class="cls-1" d="M47.56,7.72l-9.38,8.35,7.3-4.34c1.27-.75,2.92-.34,3.67,.93,.11,.18,.18,.36,.24,.55,.37,1.16-.08,2.47-1.17,3.12l-9.88,5.87,7.6-1.87c1.44-.36,2.89,.52,3.24,1.95,.34,1.38-.45,2.77-1.77,3.19-.06,.02-.12,.04-.19,.05l-10.11,2.49,8.68-.31c1.48-.06,2.72,1.1,2.77,2.58,.05,1.21-.74,2.28-1.85,2.64-.23,.07-.47,.12-.73,.13l-8.43,.31h.1c1.09,.18,1.84,1.21,1.67,2.31-.12,.77-.67,1.38-1.37,1.6-.29,.09-.6,.12-.92,.07l-5-.78s-.02,.07-.03,.11c-.23,.59-.7,1-1.26,1.18-.42,.13-.89,.13-1.34-.04l-5.5-2.16c-1.04-.4-1.54-1.56-1.14-2.59,.23-.59,.71-1,1.27-1.18-.33-.42-.49-.97-.4-1.54,.16-1.03,1.08-1.76,2.1-1.68-.7-.31-1.18-1.01-1.18-1.83,0-.74,.4-1.38,1.01-1.73-.48-.25-.84-.69-.99-1.25-.14-.5-.07-1.01,.16-1.44-.37-.12-.71-.34-.96-.67-.46-.58-.54-1.35-.27-2.01-.11-.03-.22-.07-.33-.13-.99-.51-1.38-1.72-.87-2.7l2.7-5.26c.51-.99,1.71-1.37,2.7-.87,.46,.24,.8,.63,.97,1.08l7.52-9.26c.93-1.15,2.61-1.33,3.76-.4,.42,.34,.71,.78,.86,1.25,.27,.84,.13,1.78-.47,2.51l-3.06,3.77,6.73-6c1.1-.99,2.79-.89,3.77,.21,.26,.29,.44,.61,.55,.96,.31,.97,.05,2.09-.77,2.81Z"/>
  <rect class="cls-3" x="45.51" y="25.92" width="5.01" height="39.1" rx="2.51" ry="2.51" transform="translate(101.42 6.47) rotate(100.43)"/>
  <rect class="cls-3" x="48.21" y="30.39" width="5.01" height="39.1" rx="2.51" ry="2.51" transform="translate(109.01 9.1) rotate(100.43)"/>
  <rect class="cls-3" x="45.67" y="34.32" width="5.01" height="39.1" rx="2.51" ry="2.51" transform="translate(109.88 16.24) rotate(100.43)"/>
  <line class="cls-2" x1="29.12" y1="54.78" x2="24.96" y2="59.53"/>
  <path d="M25.04,59.22c-.87-.29-1.45-.49-2.01-.63-.55-.1-1.01-.47-1.6-.47-1.33-.03-2.23,1.19-2.56,2.45,0,0-.2,0-.2,0-.28-1.67,.68-3.65,2.51-4.03,.89-.24,1.95-.29,2.74,.26,.77,.53,1.32,1.36,1.29,2.31l-.17,.11h0Z"/>
  <path d="M25.13,59c-.62-.67-1.04-1.12-1.47-1.52-.43-.35-.66-.9-1.18-1.18-1.15-.66-2.53-.02-3.42,.93,0,0-.17-.1-.17-.1,.56-1.6,2.34-2.88,4.13-2.34,.9,.22,1.85,.68,2.28,1.54,.42,.83,.51,1.83,.03,2.64l-.2,.02h0Z"/>
  <path d="M25.5,60.04c-.91,.1-1.52,.16-2.09,.26-.54,.14-1.12,0-1.65,.24-1.22,.52-1.53,2.01-1.31,3.29,0,0-.18,.08-.18,.08-.95-1.41-.9-3.6,.61-4.71,.71-.59,1.66-1.08,2.6-.9,.92,.16,1.77,.69,2.13,1.56l-.1,.17h0Z"/>
  <ellipse class="cls-3" cx="29.99" cy="53.41" rx="3.59" ry="2.98" transform="translate(-30.86 46.46) rotate(-54.17)"/>
  <path class="cls-3" d="M45.87,48.63c0,5.35-4.34,9.69-9.69,9.69-3.28,0-6.18-1.63-7.93-4.12l-15.14-13.28c-2.64-.76-4.56-3.19-4.56-6.07,0-3.5,2.83-6.33,6.33-6.33,2.55,0,4.74,1.5,5.74,3.67l17.89,7.03c4.23,1.04,7.36,4.86,7.36,9.41Z"/>
  <line class="cls-2" x1="32.68" y1="59.51" x2="28.59" y2="65.84"/>
  <path d="M28.65,65.44c-1-.26-1.72-.46-2.44-.56-.69-.06-1.36-.37-2.07-.24-.69,.13-1.33,.49-1.77,1.13-.46,.63-.71,1.49-.79,2.36l-.2,.02c-.55-1.9,.23-4.32,2.28-5.04,.99-.41,2.18-.61,3.17-.13,.97,.46,1.76,1.29,1.97,2.33l-.15,.13h0Z"/>
  <path d="M28.73,65.18c-.75-.71-1.29-1.23-1.88-1.66-.58-.39-1.01-.98-1.71-1.2-.66-.22-1.4-.2-2.1,.15-.71,.33-1.34,.97-1.82,1.69l-.19-.07c.43-1.93,2.27-3.68,4.42-3.34,1.06,.11,2.2,.51,2.85,1.4,.64,.87,.93,1.97,.61,2.99l-.19,.05h0Z"/>
  <path d="M29.34,66.33c-1.02,.17-1.76,.3-2.46,.5-.65,.23-1.39,.23-1.98,.64-.57,.4-1,1-1.14,1.77-.16,.77-.02,1.65,.26,2.48l-.17,.1c-1.29-1.5-1.58-4.02-.02-5.54,.73-.79,1.73-1.46,2.83-1.44,1.08,0,2.14,.44,2.76,1.3,0,0-.08,.18-.08,.18h0Z"/>
  <circle class="cls-4" cx="15.85" cy="33.92" r="3"/>
  <circle cx="15.85" cy="33.92" r="1.05"/>
  <path d="M12.45,35.77c-.68,1.43-1.38,2.38-2.38,3.34-.81,.82-2.03,.82-3.01,1.34-1.02,.53-2,1.14-2.95,1.82-.98,.68-1.91,1.49-2.85,2.35l-.44-.25c.58-2.6,1.92-5.09,3.75-7.06,.47-.51,.92-1.07,1.41-1.6,1.03-1.07,2.53-1.39,4-1.24,.75,.08,1.53,.29,2.33,.81l.14,.48h0Z"/>
  <path class="cls-5" d="M12.39,35.55c-4.59,1.77-8.81,4.63-11.33,8.96,0,0-.04-.02-.04-.02,2.29-4.26,6.49-8.28,11.37-8.93h0Z"/>
  <path class="cls-3" d="M41.31,57.01c-2.37,4.1-6.75,5.99-9.79,4.24-3.04-1.76-3.59-6.5-1.23-10.6"/>
  <rect class="cls-3" x="37.97" y="33.02" width="5.01" height="12.4" rx="2.51" ry="2.51" transform="translate(93.69 20.66) rotate(116.68)"/>
  <rect class="cls-3" x="44.78" y="24.67" width="6.69" height="22.75" rx="3.34" ry="3.34" transform="translate(95.9 -.46) rotate(105.78)"/>
  <rect class="cls-3" x="46.21" y="15.6" width="6.69" height="26.67" rx="3.34" ry="3.34" transform="translate(81.86 -18.49) rotate(93.98)"/>
  <rect class="cls-3" x="49.21" y="7.29" width="6.69" height="28.61" rx="3.34" ry="3.34" transform="translate(61.85 -34.45) rotate(77.08)"/>
  <rect class="cls-3" x="50.55" y="-1.82" width="6.69" height="31.3" rx="3.34" ry="3.34" transform="translate(44.73 -41.05) rotate(66.13)"/>
  <rect class="cls-3" x="43.67" y="-4.37" width="6.69" height="29.92" rx="3.34" ry="3.34" transform="translate(30.22 -34.59) rotate(56.91)"/>
  <rect class="cls-3" x="29.61" y="30.28" width="5.01" height="12.4" rx="2.51" ry="2.51" transform="translate(80.68 34.62) rotate(129.16)"/>
  <rect class="cls-3" x="32.4" y="26.24" width="5.01" height="12.4" rx="2.51" ry="2.51" transform="translate(79.57 15.81) rotate(116.68)"/>
  <rect class="cls-3" x="35.2" y="21.53" width="5.01" height="12.4" rx="2.51" ry="2.51" transform="translate(75.69 .38) rotate(107.91)"/>
  <rect class="cls-3" x="36.65" y="16.4" width="5.01" height="12.4" rx="2.51" ry="2.51" transform="translate(63.65 -15.4) rotate(92.81)"/>
  <rect class="cls-3" x="36.12" y="11.13" width="5.01" height="12.4" rx="2.51" ry="2.51" transform="translate(41.48 -24.91) rotate(69.7)"/>
  <rect class="cls-3" x="34.8" y="6.12" width="5.01" height="12.4" rx="2.51" ry="2.51" transform="translate(19.64 -22.77) rotate(45)"/>
</svg>