<?xml version="1.0" encoding="UTF-8"?>
<svg id="Layer_1" data-name="Layer 1" xmlns="http://www.w3.org/2000/svg" viewBox="0 0 72 72">
  <defs>
    <style>
      .cls-1, .cls-2, .cls-3, .cls-4 {
        stroke: #000;
        stroke-miterlimit: 10;
      }

      .cls-5, .cls-3 {
        fill: #494847;
      }

      .cls-2 {
        fill: none;
        stroke-width: 2px;
      }

      .cls-4 {
        fill: #fff;
      }
    </style>
  </defs>
  <line class="cls-2" x1="44.31" y1="44.01" x2="50.62" y2="44.22"/>
  <path d="M49.98,44.05c.91,.08,1.52,.15,2.1,.16,.55-.03,1.09,.23,1.66,.1,1.3-.27,1.9-1.67,1.94-2.97,0,0,.2-.04,.2-.04,.65,1.57,.17,3.71-1.53,4.49-.82,.44-1.84,.72-2.73,.37-.87-.34-1.59-1.03-1.78-1.96l.14-.15h0Z"/>
  <path d="M49.94,44.28c.76,.51,1.26,.86,1.77,1.15,.5,.24,.85,.73,1.41,.88,1.27,.39,2.47-.55,3.12-1.68,0,0,.19,.06,.19,.06-.18,1.69-1.63,3.34-3.49,3.21-.93,0-1.96-.24-2.57-.98-.6-.71-.91-1.67-.62-2.57l.19-.06h0Z"/>
  <path d="M49.34,43.36c.86-.3,1.44-.5,1.98-.73,.49-.25,1.09-.24,1.55-.6,1.07-.79,1.04-2.31,.53-3.5,0,0,.16-.12,.16-.12,1.24,1.15,1.69,3.3,.48,4.72-.56,.74-1.37,1.42-2.33,1.47-.93,.05-1.88-.27-2.43-1.04l.06-.19h0Z"/>
  <ellipse class="cls-3" cx="42.69" cy="44.21" rx="3.59" ry="2.98" transform="translate(-2.65 2.73) rotate(-3.55)"/>
  <path class="cls-1" d="M36.89,23.9c-.81-1.11-2.36-1.43-3.56-.69l-2.61,1.61c.89-1.15,.69-2.8-.44-3.71-.96-.78-2.31-.78-3.26-.08-.19,.14-.35,.3-.5,.49l-.73,.91c-.27-.41-.66-.75-1.15-.97-.91-.4-1.91-.25-2.66,.3-.36,.27-.67,.63-.86,1.08l-1.59,3.63c-.5-.06-1,.09-1.39,.38-.35,.26-.62,.62-.74,1.07l-1.6,5.68c-.12,.44-.09,.89,.07,1.28-.08,.25-.13,.51-.13,.76,0,.03,0,.05,0,.08l-.1,.16-1.22,2.09c-.56,.96-.24,2.18,.71,2.74,.95,.56,2.18,.25,2.74-.71l.88-1.5,.07-.11s.02,0,.03,0c.32-.01,.63-.1,.91-.26,.18,.09,.35,.16,.54,.19,.12,.22,.29,.41,.48,.58,.06,.91,.75,1.69,1.69,1.83l5.84,.89c1.1,.17,2.11-.58,2.28-1.68,.03-.18,.03-.37,0-.54l10.57-.22c1.49-.03,2.65-1.25,2.62-2.73-.02-.57-.2-1.1-.52-1.53-.5-.68-1.31-1.11-2.21-1.09l-4.13,.08,2.06-.47c1.44-.33,2.34-1.78,2.01-3.21-.09-.36-.24-.7-.45-.98-.62-.84-1.69-1.27-2.76-1.03l-3.8,.88,2.15-1.32c1.26-.77,1.65-2.42,.87-3.68-.04-.06-.08-.12-.13-.19Z"/>
  <path class="cls-1" d="M15.32,42.11l-.25,.02,.18-.05s.04,.02,.07,.03Z"/>
  <rect class="cls-3" x="38.58" y="9.61" width="5.01" height="39.1" rx="2.51" ry="2.51" transform="translate(38.89 -21.18) rotate(52.13)"/>
  <rect class="cls-3" x="43.72" y="10.57" width="5.01" height="39.1" rx="2.51" ry="2.51" transform="translate(41.63 -24.86) rotate(52.13)"/>
  <rect class="cls-3" x="44.97" y="15.09" width="5.01" height="39.1" rx="2.51" ry="2.51" transform="translate(45.67 -24.1) rotate(52.13)"/>
  <path class="cls-3" d="M40.88,28.8c4.69,2.57,6.42,8.46,3.85,13.15-1.57,2.88-4.4,4.64-7.42,4.98l-18.92,6.91c-1.93,1.95-4.99,2.47-7.51,1.09-3.07-1.68-4.2-5.52-2.52-8.59,1.22-2.24,3.59-3.44,5.97-3.27l14.75-12.32c2.94-3.21,7.8-4.12,11.79-1.94Z"/>
  <circle class="cls-4" cx="13.52" cy="47.43" r="3"/>
  <circle cx="13.52" cy="47.43" r="1.05"/>
  <path d="M14.55,51.47c.1,1.58-.05,2.75-.46,4.07-.31,1.11-1.38,1.71-1.97,2.63-.64,.96-1.2,1.97-1.7,3.02-.53,1.08-.94,2.23-1.35,3.44h-.5c-.76-2.56-.79-5.38-.15-8,.16-.68,.28-1.38,.46-2.08,.38-1.44,1.54-2.45,2.89-3.02,.7-.3,1.48-.49,2.43-.43l.35,.35h0Z"/>
  <path class="cls-5" d="M14.39,51.31c-3.15,3.77-5.45,8.33-5.55,13.33,0,0-.05,0-.05,0-.07-4.84,1.65-10.39,5.6-13.33h0Z"/>
  <line class="cls-2" x1="45.7" y1="38.27" x2="53.18" y2="37.41"/>
  <path d="M52.56,37.4c1,.25,1.73,.44,2.45,.53,.69,.05,1.36,.35,2.08,.21,.68-.14,1.32-.51,1.76-1.16,.45-.64,.68-1.5,.76-2.37,0,0,.2-.03,.2-.03,.58,1.89-.17,4.32-2.21,5.08-.98,.43-2.17,.64-3.17,.18-.98-.44-1.78-1.26-2-2.3l.15-.14h0Z"/>
  <path d="M52.49,37.66c.76,.7,1.31,1.21,1.9,1.64,.58,.38,1.03,.96,1.72,1.18,.67,.21,1.4,.18,2.1-.18,.7-.35,1.32-.99,1.8-1.72l.19,.07c-.4,1.94-2.22,3.71-4.37,3.4-1.07-.09-2.21-.48-2.87-1.36-.65-.86-.96-1.96-.66-2.98l.19-.05h0Z"/>
  <path d="M51.86,36.52c1.02-.19,1.75-.32,2.45-.54,.65-.24,1.39-.25,1.97-.67,.57-.41,.99-1.01,1.12-1.78,.15-.77,0-1.65-.3-2.47,0,0,.17-.11,.17-.11,1.31,1.48,1.64,4,.1,5.54-.71,.8-1.71,1.48-2.81,1.48-1.08,0-2.14-.4-2.78-1.26l.08-.18h0Z"/>
  <path class="cls-3" d="M38.3,33.18c4.67-.77,8.92,1.42,9.49,4.88s-2.75,6.9-7.41,7.67"/>
  <rect class="cls-3" x="24.86" y="23.04" width="5.01" height="12.4" rx="2.51" ry="2.51" transform="translate(45.79 64.81) rotate(-164.28)"/>
  <rect class="cls-3" x="27.1" y="15.98" width="6.69" height="22.75" rx="3.34" ry="3.34" transform="translate(47.33 64.65) rotate(-156.3)"/>
  <rect class="cls-3" x="30.38" y="13.57" width="6.69" height="26.67" rx="3.34" ry="3.34" transform="translate(43.22 68.99) rotate(-141.29)"/>
  <rect class="cls-3" x="34.18" y="12.69" width="6.69" height="28.61" rx="3.34" ry="3.34" transform="translate(46.08 72.43) rotate(-136.41)"/>
  <rect class="cls-3" x="39.78" y="10.7" width="6.69" height="31.3" rx="3.34" ry="3.34" transform="translate(51.93 76.11) rotate(-131.46)"/>
  <rect class="cls-3" x="41.53" y="15.64" width="6.69" height="29.92" rx="3.34" ry="3.34" transform="translate(37.17 84.37) rotate(-116.14)"/>
  <rect class="cls-3" x="22.95" y="28.5" width="5.01" height="12.4" rx="2.51" ry="2.51" transform="translate(29.82 77.51) rotate(-149.55)"/>
  <rect class="cls-3" x="25.01" y="26.97" width="5.01" height="12.4" rx="2.51" ry="2.51" transform="translate(31.93 76.04) rotate(-146.19)"/>
  <rect class="cls-3" x="27.33" y="26.4" width="5.01" height="12.4" rx="2.51" ry="2.51" transform="translate(34.97 76.49) rotate(-144.21)"/>
  <rect class="cls-3" x="29.87" y="26.24" width="5.01" height="12.4" rx="2.51" ry="2.51" transform="translate(34.79 78.2) rotate(-138.07)"/>
  <rect class="cls-3" x="31.29" y="27.73" width="5.01" height="12.4" rx="2.51" ry="2.51" transform="translate(35.45 81.79) rotate(-137.09)"/>
  <rect class="cls-3" x="32.94" y="30.69" width="5.01" height="12.4" rx="2.51" ry="2.51" transform="translate(31.75 87.92) rotate(-132.01)"/>
  <line class="cls-2" x1="10.98" y1="51.17" x2="10.53" y2="44.81"/>
</svg>