<?xml version="1.0" encoding="UTF-8"?>
<svg id="Layer_1" data-name="Layer 1" xmlns="http://www.w3.org/2000/svg" viewBox="0 0 72 72">
  <defs>
    <style>
      .cls-1 {
        stroke-width: 1.5px;
      }

      .cls-1, .cls-2, .cls-3, .cls-4, .cls-5 {
        stroke: #000;
        stroke-miterlimit: 10;
      }

      .cls-1, .cls-3 {
        fill: none;
      }

      .cls-3 {
        stroke-width: 2px;
      }

      .cls-4 {
        fill: #494847;
      }

      .cls-5 {
        fill: #fff;
      }
    </style>
  </defs>
  <path class="cls-2" d="M23.47,64.42l9.38-8.35-7.3,4.34c-1.27,.75-2.92,.34-3.67-.93-.11-.18-.18-.36-.24-.55-.37-1.16,.08-2.47,1.17-3.12l9.88-5.87-7.6,1.87c-1.44,.36-2.89-.52-3.24-1.95-.34-1.38,.45-2.77,1.77-3.19,.06-.02,.12-.04,.19-.05l10.11-2.49-8.68,.31c-1.48,.06-2.72-1.1-2.77-2.58-.05-1.21,.74-2.28,1.85-2.64,.23-.07,.47-.12,.73-.13l8.43-.31h-.1c-1.09-.18-1.84-1.21-1.67-2.31,.12-.77,.67-1.38,1.37-1.6,.29-.09,.6-.12,.92-.07l5,.78s.02-.07,.03-.11c.23-.59,.7-1,1.26-1.18,.42-.13,.89-.13,1.34,.04l5.5,2.16c1.04,.4,1.54,1.56,1.14,2.59-.23,.59-.71,1-1.27,1.18,.33,.42,.49,.97,.4,1.54-.16,1.03-1.08,1.76-2.1,1.68,.7,.31,1.18,1.01,1.18,1.83,0,.74-.4,1.38-1.01,1.73,.48,.25,.84,.69,.99,1.25,.14,.5,.07,1.01-.16,1.44,.37,.12,.71,.34,.96,.67,.46,.58,.54,1.35,.27,2.01,.11,.03,.22,.07,.33,.13,.99,.51,1.38,1.72,.87,2.7l-2.7,5.26c-.51,.99-1.71,1.37-2.7,.87-.46-.24-.8-.63-.97-1.08l-7.52,9.26c-.93,1.15-2.61,1.33-3.76,.4-.42-.34-.71-.78-.86-1.25-.27-.84-.13-1.78,.47-2.51l3.06-3.77-6.73,6c-1.1,.99-2.79,.89-3.77-.21-.26-.29-.44-.61-.55-.96-.31-.97-.05-2.09,.77-2.81Z"/>
  <rect class="cls-4" x="20.51" y="7.13" width="5.01" height="39.1" rx="2.51" ry="2.51" transform="translate(-7.39 44.48) rotate(-79.57)"/>
  <rect class="cls-4" x="17.81" y="2.66" width="5.01" height="39.1" rx="2.51" ry="2.51" transform="translate(-5.21 38.16) rotate(-79.57)"/>
  <rect class="cls-4" x="20.34" y="-1.28" width="5.01" height="39.1" rx="2.51" ry="2.51" transform="translate(.75 37.44) rotate(-79.57)"/>
  <line class="cls-3" x1="41.91" y1="17.36" x2="46.07" y2="12.61"/>
  <path d="M45.99,12.92c.87,.29,1.45,.49,2.01,.63,.55,.1,1.01,.47,1.6,.47,1.33,.03,2.23-1.19,2.56-2.45,0,0,.2,0,.2,0,.28,1.67-.68,3.65-2.51,4.03-.89,.24-1.95,.29-2.74-.26-.77-.53-1.32-1.36-1.29-2.31l.17-.11h0Z"/>
  <path d="M45.9,13.14c.62,.67,1.04,1.12,1.47,1.52,.43,.35,.66,.9,1.18,1.18,1.15,.66,2.53,.02,3.42-.93,0,0,.17,.1,.17,.1-.56,1.6-2.34,2.88-4.13,2.34-.9-.22-1.85-.68-2.28-1.54-.42-.83-.51-1.83-.03-2.64l.2-.02h0Z"/>
  <path d="M45.52,12.1c.91-.1,1.52-.16,2.09-.26,.54-.14,1.12,0,1.65-.24,1.22-.52,1.53-2.01,1.31-3.29,0,0,.18-.08,.18-.08,.95,1.41,.9,3.6-.61,4.71-.71,.59-1.66,1.08-2.6,.9-.92-.16-1.77-.69-2.13-1.56l.11-.17h0Z"/>
  <ellipse class="cls-4" cx="41.03" cy="18.74" rx="3.59" ry="2.98" transform="translate(1.82 41.04) rotate(-54.17)"/>
  <path class="cls-4" d="M25.16,23.51c0-5.35,4.34-9.69,9.69-9.69,3.28,0,6.18,1.63,7.93,4.12l15.14,13.28c2.64,.76,4.56,3.19,4.56,6.07,0,3.5-2.83,6.33-6.33,6.33-2.55,0-4.74-1.5-5.74-3.67l-17.89-7.03c-4.23-1.04-7.36-4.86-7.36-9.41Z"/>
  <line class="cls-3" x1="38.35" y1="12.64" x2="42.43" y2="6.31"/>
  <path d="M42.38,6.7c1,.26,1.72,.46,2.44,.56,.69,.06,1.36,.37,2.07,.24,.69-.13,1.33-.49,1.77-1.13,.46-.63,.71-1.49,.79-2.36l.2-.02c.55,1.9-.23,4.32-2.28,5.04-.99,.41-2.18,.61-3.17,.13-.97-.46-1.76-1.29-1.97-2.33l.15-.13h0Z"/>
  <path d="M42.3,6.96c.75,.71,1.29,1.23,1.88,1.66,.58,.39,1.01,.98,1.71,1.2,.66,.22,1.4,.2,2.1-.15,.71-.33,1.34-.97,1.82-1.69l.19,.07c-.43,1.93-2.27,3.68-4.42,3.34-1.06-.11-2.2-.51-2.85-1.4-.64-.87-.93-1.97-.61-2.99l.19-.05h0Z"/>
  <path d="M41.69,5.81c1.02-.17,1.76-.3,2.46-.5,.65-.23,1.39-.23,1.98-.64,.57-.4,1-1,1.14-1.77,.16-.77,.02-1.65-.26-2.48l.17-.1c1.29,1.5,1.58,4.02,.02,5.54-.73,.79-1.73,1.46-2.83,1.44-1.08,0-2.14-.44-2.76-1.3l.08-.18h0Z"/>
  <circle class="cls-5" cx="55.18" cy="38.23" r="3"/>
  <path d="M59.3,36.19l-.1-.2c.41-1.52,.94-2.59,1.76-3.7,.66-.95,1.86-1.16,2.72-1.84,.91-.7,1.78-1.47,2.59-2.3,.86-.85,1.62-1.8,2.41-2.82,0,0,.11,.04,.21,.09-1.72,4.68-5.4,8.24-9.59,10.78Z"/>
  <path d="M71.05,27.55c-.67,2.59-2.09,5.02-3.98,6.93-.49,.49-.95,1.04-1.46,1.55-1.06,1.04-2.58,1.31-4.04,1.1-.75-.09-1.52-.33-2.3-.88l-.06-.26c4.89-.51,9.23-4.39,11.66-8.56,.09,.06,.19,.12,.19,.12Z"/>
  <path d="M70.01,27.66s-.04-.02-.04-.02h0s.02,.01,.04,.02h0Z"/>
  <path class="cls-4" d="M29.72,15.13c2.37-4.1,6.75-5.99,9.79-4.24,3.04,1.76,3.59,6.5,1.23,10.6"/>
  <rect class="cls-4" x="28.05" y="26.72" width="5.01" height="12.4" rx="2.51" ry="2.51" transform="translate(-12.58 45.44) rotate(-63.32)"/>
  <rect class="cls-4" x="19.56" y="24.72" width="6.69" height="22.75" rx="3.34" ry="3.34" transform="translate(-18.06 48.32) rotate(-74.22)"/>
  <rect class="cls-4" x="18.13" y="29.87" width="6.69" height="26.67" rx="3.34" ry="3.34" transform="translate(-23.12 61.63) rotate(-86.02)"/>
  <rect class="cls-4" x="15.13" y="36.24" width="6.69" height="28.61" rx="3.34" ry="3.34" transform="translate(-26.66 79.85) rotate(-102.92)"/>
  <rect class="cls-4" x="13.79" y="42.66" width="6.69" height="31.3" rx="3.34" ry="3.34" transform="translate(-29.25 97.58) rotate(-113.87)"/>
  <rect class="cls-4" x="20.67" y="46.6" width="6.69" height="29.92" rx="3.34" ry="3.34" transform="translate(-14.46 115.28) rotate(-123.09)"/>
  <rect class="cls-4" x="36.41" y="29.46" width="5.01" height="12.4" rx="2.51" ry="2.51" transform="translate(-13.31 43.31) rotate(-50.84)"/>
  <rect class="cls-4" x="33.61" y="33.5" width="5.01" height="12.4" rx="2.51" ry="2.51" transform="translate(-15.58 54.15) rotate(-63.32)"/>
  <rect class="cls-4" x="30.82" y="38.21" width="5.01" height="12.4" rx="2.51" ry="2.51" transform="translate(-19.18 62.46) rotate(-72.09)"/>
  <rect class="cls-4" x="29.37" y="43.34" width="5.01" height="12.4" rx="2.51" ry="2.51" transform="translate(-19.17 78.95) rotate(-87.19)"/>
  <rect class="cls-4" x="29.9" y="48.61" width="5.01" height="12.4" rx="2.51" ry="2.51" transform="translate(-7.77 104.22) rotate(-110.3)"/>
  <rect class="cls-4" x="31.21" y="53.63" width="5.01" height="12.4" rx="2.51" ry="2.51" transform="translate(15.26 125.97) rotate(-135)"/>
  <line class="cls-1" x1="52.87" y1="35.96" x2="57.42" y2="40.51"/>
  <line class="cls-1" x1="57.37" y1="36.04" x2="53.04" y2="40.38"/>
</svg>