<svg width="216" height="216" viewBox="0 0 216 216" fill="none" xmlns="http://www.w3.org/2000/svg">
<g clip-path="url(#clip0_15_4413)">
<path d="M52.28 7.71999L42.9 16.07L50.2 11.73C51.47 10.98 53.12 11.39 53.87 12.66C53.98 12.84 54.05 13.02 54.11 13.21C54.48 14.37 54.03 15.68 52.94 16.33L43.06 22.2L50.66 20.33C52.1 19.97 53.55 20.85 53.9 22.28C54.24 23.66 53.45 25.05 52.13 25.47C52.07 25.49 52.01 25.51 51.94 25.52L41.83 28.01L50.51 27.7C51.99 27.64 53.23 28.8 53.28 30.28C53.33 31.49 52.54 32.56 51.43 32.92C51.2 32.99 50.96 33.04 50.7 33.05L42.27 33.36H42.37C43.46 33.54 44.21 34.57 44.04 35.67C43.92 36.44 43.37 37.05 42.67 37.27C42.38 37.36 42.07 37.39 41.75 37.34L36.75 36.56C36.75 36.56 36.73 36.63 36.72 36.67C36.49 37.26 36.02 37.67 35.46 37.85C35.04 37.98 34.57 37.98 34.12 37.81L28.62 35.65C27.58 35.25 27.08 34.09 27.48 33.06C27.71 32.47 28.19 32.06 28.75 31.88C28.42 31.46 28.26 30.91 28.35 30.34C28.51 29.31 29.43 28.58 30.45 28.66C29.75 28.35 29.27 27.65 29.27 26.83C29.27 26.09 29.67 25.45 30.28 25.1C29.8 24.85 29.44 24.41 29.29 23.85C29.15 23.35 29.22 22.84 29.45 22.41C29.08 22.29 28.74 22.07 28.49 21.74C28.03 21.16 27.95 20.39 28.22 19.73C28.11 19.7 28 19.66 27.89 19.6C26.9 19.09 26.51 17.88 27.02 16.9L29.72 11.64C30.23 10.65 31.43 10.27 32.42 10.77C32.88 11.01 33.22 11.4 33.39 11.85L40.91 2.58999C41.84 1.43999 43.52 1.25999 44.67 2.18999C45.09 2.52999 45.38 2.96999 45.53 3.43999C45.8 4.27999 45.66 5.21999 45.06 5.94999L42 9.71999L48.73 3.71999C49.83 2.72999 51.52 2.82999 52.5 3.92999C52.76 4.21999 52.94 4.53999 53.05 4.88999C53.36 5.85999 53.1 6.97999 52.28 7.69999V7.71999Z" fill="black" stroke="black" stroke-miterlimit="10"/>
<path d="M63.6204 36.283C64.8796 35.7033 65.4314 34.2146 64.8528 32.9579C64.2743 31.7012 62.7845 31.1524 61.5253 31.7321L30.5683 45.9838C29.3091 46.5635 28.7573 48.0522 29.3359 49.3089C29.9144 50.5656 31.4042 51.1144 32.6634 50.5347L63.6204 36.283Z" fill="#494847" stroke="black" stroke-miterlimit="10"/>
<path d="M68.4018 38.3832C69.661 37.8035 70.2127 36.3148 69.6342 35.0581C69.0556 33.8014 67.5659 33.2526 66.3066 33.8323L35.3497 48.084C34.0905 48.6637 33.5387 50.1524 34.1172 51.4091C34.6958 52.6658 36.1856 53.2146 37.4448 52.6349L68.4018 38.3832Z" fill="#494847" stroke="black" stroke-miterlimit="10"/>
<path d="M68.5952 43.0761C69.8544 42.4964 70.4062 41.0077 69.8276 39.751C69.2491 38.4943 67.7593 37.9455 66.5001 38.5252L35.5431 52.7769C34.2839 53.3566 33.7321 54.8453 34.3106 56.102C34.8892 57.3587 36.379 57.9075 37.6382 57.3278L68.5952 43.0761Z" fill="#494847" stroke="black" stroke-miterlimit="10"/>
<path d="M31.6 55.32L34.43 60.96" stroke="black" stroke-width="2" stroke-miterlimit="10"/>
<path d="M34.17 60.77C33.58 61.47 33.17 61.93 32.83 62.4C32.53 62.87 32.01 63.16 31.8 63.7C31.27 64.92 32.07 66.21 33.11 66.99L33.03 67.17C31.37 66.8 29.9 65.17 30.24 63.33C30.35 62.41 30.7 61.41 31.51 60.89C32.29 60.38 33.27 60.18 34.13 60.56L34.17 60.76V60.77Z" fill="black"/>
<path d="M34.01 60.6C33.16 60.93 32.58 61.14 32.05 61.39C31.56 61.66 30.97 61.67 30.52 62.04C29.47 62.86 29.55 64.38 30.1 65.56L29.94 65.68C28.66 64.56 28.15 62.43 29.32 60.98C29.86 60.23 30.65 59.52 31.6 59.44C32.53 59.36 33.48 59.66 34.06 60.41L34 60.6H34.01Z" fill="black"/>
<path d="M35.11 60.65C34.86 61.53 34.69 62.12 34.57 62.69C34.49 63.24 34.14 63.72 34.17 64.3C34.2 65.63 35.46 66.48 36.73 66.75V66.95C35.07 67.3 33.06 66.44 32.6 64.62C32.32 63.74 32.22 62.68 32.74 61.87C33.23 61.08 34.04 60.49 34.99 60.48L35.11 60.64V60.65Z" fill="black"/>
<path d="M35.5971 54.7448C36.3144 52.8964 35.6521 50.9153 34.1178 50.3199C32.5835 49.7245 30.7581 50.7402 30.0408 52.5886C29.3235 54.437 29.9858 56.4181 31.5201 57.0135C33.0545 57.609 34.8798 56.5932 35.5971 54.7448Z" fill="#494847" stroke="black" stroke-miterlimit="10"/>
<path d="M50.59 48.63C50.59 53.98 46.25 58.32 40.9 58.32C37.62 58.32 34.72 56.69 32.97 54.2L17.83 40.92C15.19 40.16 13.27 37.73 13.27 34.85C13.27 31.35 16.1 28.52 19.6 28.52C22.15 28.52 24.34 30.02 25.34 32.19L43.23 39.22C47.46 40.26 50.59 44.08 50.59 48.63Z" fill="#494847" stroke="black" stroke-miterlimit="10"/>
<path d="M37.42 57.38L40.68 64.17" stroke="black" stroke-width="2" stroke-miterlimit="10"/>
<path d="M40.37 63.92C39.62 64.63 39.08 65.15 38.61 65.71C38.19 66.27 37.58 66.67 37.32 67.35C37.07 68 37.04 68.74 37.36 69.45C37.66 70.18 38.26 70.83 38.96 71.36L38.88 71.54C36.97 71.01 35.32 69.08 35.78 66.96C35.94 65.9 36.4 64.79 37.33 64.18C38.23 63.59 39.35 63.35 40.35 63.72L40.39 63.92H40.37Z" fill="black"/>
<path d="M40.19 63.72C39.19 63.99 38.47 64.18 37.79 64.45C37.16 64.74 36.43 64.8 35.87 65.27C35.34 65.72 34.96 66.36 34.9 67.14C34.81 67.92 35.03 68.79 35.39 69.58L35.23 69.7C33.81 68.32 33.28 65.84 34.7 64.19C35.35 63.34 36.29 62.58 37.39 62.49C38.46 62.4 39.56 62.73 40.26 63.53L40.2 63.72H40.19Z" fill="black"/>
<path d="M41.49 63.8C41.11 64.76 40.82 65.46 40.63 66.16C40.48 66.84 40.1 67.46 40.14 68.19C40.18 68.89 40.47 69.57 41.05 70.09C41.62 70.63 42.45 70.97 43.3 71.16V71.36C41.35 71.67 39.04 70.6 38.57 68.48C38.28 67.45 38.23 66.24 38.82 65.31C39.39 64.4 40.31 63.72 41.37 63.64L41.49 63.8Z" fill="black"/>
<path d="M20.57 36.92C22.2269 36.92 23.57 35.5769 23.57 33.92C23.57 32.2632 22.2269 30.92 20.57 30.92C18.9132 30.92 17.57 32.2632 17.57 33.92C17.57 35.5769 18.9132 36.92 20.57 36.92Z" fill="white" stroke="black" stroke-miterlimit="10"/>
<path d="M20.57 34.97C21.1499 34.97 21.62 34.4999 21.62 33.92C21.62 33.3401 21.1499 32.87 20.57 32.87C19.9901 32.87 19.52 33.3401 19.52 33.92C19.52 34.4999 19.9901 34.97 20.57 34.97Z" fill="black"/>
<path d="M17.07 35.38C17.07 35.3 17.07 35.21 17.07 35.21C16.42 34.51 15.72 34.12 15 33.86C13.62 33.36 12.08 33.31 10.82 34.09C10.21 34.48 9.63999 34.91 9.05999 35.3C6.80999 36.77 4.89999 38.85 3.70999 41.24C3.70999 41.24 3.78999 41.32 3.86999 41.39C7.17999 37.83 12.17 34.98 17.06 35.37L17.07 35.38Z" fill="black"/>
<path d="M11.78 49.02C11.89 49.02 11.99 49.02 11.99 49.02C12.4 47.8 12.82 46.65 13.35 45.58C13.85 44.53 14.41 43.52 15.05 42.56C15.65 41.63 16.72 41.04 17.03 39.93C17.44 38.61 17.6 37.44 17.5 35.86C17.5 35.86 17.41 35.77 17.32 35.68C14.21 39.48 11.95 44.03 11.79 49.02H11.78Z" fill="black"/>
<path d="M44.68 54.3C43.43 58.86 39.66 61.8 36.27 60.87C32.88 59.94 31.15 55.48 32.41 50.92" fill="#494847"/>
<path d="M44.68 54.3C43.43 58.86 39.66 61.8 36.27 60.87C32.88 59.94 31.15 55.48 32.41 50.92" stroke="black" stroke-miterlimit="10"/>
<path d="M48.7457 43.1111C49.9843 43.7336 51.492 43.236 52.1132 41.9999C52.7344 40.7637 52.2338 39.257 50.9952 38.6346L44.401 35.3209C43.1623 34.6985 41.6546 35.196 41.0334 36.4322C40.4122 37.6683 40.9128 39.175 42.1514 39.7975L48.7457 43.1111Z" fill="#494847" stroke="black" stroke-miterlimit="10"/>
<path d="M62.604 37.3683L62.6067 37.3587C63.1084 35.5835 62.076 33.7379 60.3009 33.2362L44.8365 28.8661C43.0614 28.3645 41.2157 29.3968 40.7141 31.1719L40.7114 31.1815C40.2097 32.9567 41.2421 34.8023 43.0172 35.304L58.4816 39.6741C60.2567 40.1757 62.1024 39.1434 62.604 37.3683Z" fill="#494847" stroke="black" stroke-miterlimit="10"/>
<path d="M66.7916 28.4847L66.7923 28.4747C66.9203 26.6346 65.5324 25.039 63.6922 24.911L43.7504 23.5235C41.9102 23.3955 40.3147 24.7834 40.1866 26.6236L40.1859 26.6336C40.0579 28.4738 41.4459 30.0693 43.2861 30.1974L63.2279 31.5848C65.068 31.7129 66.6636 30.3249 66.7916 28.4847Z" fill="#494847" stroke="black" stroke-miterlimit="10"/>
<path d="M69.836 17.4137L69.8337 17.4039C69.4213 15.606 67.6294 14.4828 65.8315 14.8953L44.4567 19.7986C42.6588 20.211 41.5356 22.0029 41.948 23.8008L41.9503 23.8106C42.3627 25.6085 44.1546 26.7317 45.9525 26.3192L67.3273 21.4159C69.1253 21.0034 70.2484 19.2116 69.836 17.4137Z" fill="#494847" stroke="black" stroke-miterlimit="10"/>
<path d="M70.9386 7.90074L70.9346 7.8916C70.1881 6.20474 68.2155 5.4424 66.5287 6.18885L44.0145 16.1517C42.3277 16.8981 41.5653 18.8707 42.3118 20.5575L42.3158 20.5667C43.0623 22.2535 45.0349 23.0159 46.7217 22.2694L69.2359 12.3066C70.9227 11.5602 71.6851 9.58759 70.9386 7.90074Z" fill="#494847" stroke="black" stroke-miterlimit="10"/>
<path d="M61.9008 3.01917L61.8953 3.01079C60.8882 1.46534 58.819 1.0289 57.2735 2.03599L37.8027 14.724C36.2573 15.7311 35.8208 17.8003 36.8279 19.3458L36.8334 19.3542C37.8404 20.8996 39.9097 21.3361 41.4552 20.329L60.926 7.64096C62.4714 6.63387 62.9078 4.56463 61.9008 3.01917Z" fill="#494847" stroke="black" stroke-miterlimit="10"/>
<path d="M38.1124 40.7572C39.1872 41.6326 40.7668 41.4726 41.6405 40.3999C42.5141 39.3271 42.351 37.7479 41.2761 36.8725L35.5538 32.2121C34.4789 31.3367 32.8993 31.4967 32.0257 32.5694C31.152 33.6421 31.3152 35.2214 32.39 36.0968L38.1124 40.7572Z" fill="#494847" stroke="black" stroke-miterlimit="10"/>
<path d="M41.8044 36.3254C43.043 36.9478 44.5507 36.4503 45.1719 35.2141C45.7931 33.9779 45.2926 32.4713 44.0539 31.8488L37.4597 28.5351C36.2211 27.9127 34.7134 28.4103 34.0922 29.6464C33.471 30.8826 33.9715 32.3893 35.2102 33.0117L41.8044 36.3254Z" fill="#494847" stroke="black" stroke-miterlimit="10"/>
<path d="M45.168 31.2499C46.487 31.6762 47.9012 30.9546 48.3267 29.6382C48.7521 28.3217 48.0277 26.909 46.7086 26.4827L39.6863 24.2131C38.3672 23.7868 36.953 24.5084 36.5276 25.8249C36.1021 27.1413 36.8265 28.5541 38.1456 28.9804L45.168 31.2499Z" fill="#494847" stroke="black" stroke-miterlimit="10"/>
<path d="M47.439 25.2872C48.8236 25.3551 50.001 24.29 50.0688 22.9082C50.1366 21.5264 49.0692 20.3512 47.6846 20.2832L40.3135 19.9214C38.9289 19.8534 37.7515 20.9185 37.6837 22.3003C37.6159 23.6822 38.6833 24.8574 40.0679 24.9254L47.439 25.2872Z" fill="#494847" stroke="black" stroke-miterlimit="10"/>
<path d="M47.6742 18.3944C48.9743 17.9135 49.6392 16.4717 49.1592 15.1742C48.6793 13.8766 47.2362 13.2146 45.9361 13.6956L39.0144 16.256C37.7143 16.7369 37.0494 18.1786 37.5294 19.4762C38.0094 20.7737 39.4525 21.4357 40.7526 20.9548L47.6742 18.3944Z" fill="#494847" stroke="black" stroke-miterlimit="10"/>
<path d="M46.4051 11.4798C47.3853 10.4996 47.3869 8.91192 46.4087 7.93366C45.4304 6.95539 43.8427 6.95698 42.8625 7.93719L37.6441 13.1556C36.6639 14.1359 36.6623 15.7235 37.6405 16.7018C38.6188 17.68 40.2065 17.6785 41.1867 16.6982L46.4051 11.4798Z" fill="#494847" stroke="black" stroke-miterlimit="10"/>
<path d="M16.52 34.35L20.24 29.71" stroke="black" stroke-width="1.5" stroke-miterlimit="10"/>
<path d="M4.63 44.49C4.69 44.43 4.72 44.35 4.72 44.22C4.78 44.24 4.8 44.25 4.86 44.26C4.99 44.66 5.06 44.87 5.21 45.27C5.02 45.47 4.43 45.47 4.15 45.38C4.15 45.43 4.16 45.45 4.17 45.5C4.44 45.6 4.87 45.84 5.33 46.23C6.14 46.92 6.56 47.25 7.45 47.84C7.64 47.75 7.92 47.6 8.15 47.55C8.1 47.33 8.08 47.22 8.03 46.99C8.11 47.01 8.15 47.02 8.24 47.04C8.37 47.58 8.45 47.85 8.62 48.4C8.17 48.46 7.71 48.72 7.4 48.97C7.34 48.93 7.31 48.91 7.25 48.87C7.26 48.61 7.01 48.4 6.81 48.26C5.94 47.66 5.52 47.34 4.72 46.64C4.34 46.31 4.19 46.37 4.09 46.44C4.04 46.39 4.02 46.37 3.97 46.33C4.02 45.73 3.96 45.08 3.81 44.5C4.12 44.58 4.47 44.63 4.63 44.48V44.49Z" fill="#CE3030"/>
<path d="M5.59999 42.91C5.97999 42.93 6.29999 42.83 6.69999 42.58C6.75999 42.3 6.72999 42.11 6.69999 41.93C6.74999 41.93 6.76999 41.93 6.81999 41.93C6.89999 42.27 7.02999 42.7 7.45999 43.09C8.10999 43.67 8.44999 43.94 9.15999 44.44C9.57999 44.74 9.79999 44.77 9.95999 44.7C9.93999 44.56 9.91999 44.5 9.89999 44.36C9.95999 44.37 9.98999 44.38 10.06 44.39C10.16 44.81 10.21 45.02 10.34 45.45C10.12 45.58 9.55999 45.57 9.24999 45.37C9.41999 45.83 9.50999 46.06 9.70999 46.52C9.35999 46.71 8.82999 46.84 8.06999 46.32C7.34999 45.83 7.19999 45.19 7.14999 44.67C6.57999 44.6 6.01999 44.34 5.45999 43.93C5.66999 43.51 5.64999 43.2 5.57999 42.91H5.59999ZM7.82999 44.33C7.43999 44.02 7.25999 43.86 6.88999 43.53C6.50999 43.71 6.09999 43.89 5.70999 43.93C6.49999 44.49 7.33999 44.66 7.82999 44.33ZM7.98999 44.46C7.76999 44.64 7.59999 44.66 7.30999 44.68C7.48999 44.95 7.72999 45.18 7.98999 45.37C8.60999 45.83 9.00999 45.92 9.28999 45.83C9.19999 45.59 9.14999 45.48 9.06999 45.24C8.62999 44.94 8.40999 44.78 7.98999 44.46Z" fill="#CE3030"/>
<path d="M8.68998 41.3C8.65998 40.76 8.65998 40.49 8.66998 39.97C8.98998 39.93 9.34998 40.02 9.65998 40.25C9.68998 39.87 9.70998 39.34 9.68998 38.99C10.32 38.96 10.83 39.23 11.32 39.64C12.17 40.34 12.07 41.02 12.4 42.14C12.07 42.37 11.8 42.52 11.44 42.43C11.52 42.81 11.57 43 11.68 43.38C11.24 43.45 10.81 43.66 10.51 43.95C10.46 43.93 10.44 43.91 10.39 43.89C10.39 43.76 10.39 43.55 10.17 43.41C9.42998 42.9 9.06998 42.62 8.40998 42.02C8.24998 41.88 8.05998 41.83 7.87998 41.83C7.87998 41.92 7.87998 41.97 7.88998 42.06C7.82998 42.06 7.79998 42.06 7.73998 42.06C7.67998 41.62 7.65998 41.4 7.63998 40.97C7.96998 40.94 8.35998 41.05 8.68998 41.31V41.3ZM11.28 42.4C10.47 41.88 10.09 41.59 9.36998 40.95C9.22998 40.82 9.00998 40.79 8.83998 40.8C8.82998 41.04 8.81998 41.17 8.81998 41.41C9.52998 42.05 9.90998 42.35 10.7 42.88C10.85 42.78 11.08 42.68 11.32 42.64C11.3 42.54 11.3 42.49 11.28 42.39V42.4ZM11.5 41.7C11.76 41.7 11.96 41.62 12.09 41.44C11.98 41.12 11.55 40.74 11.07 40.36C10.58 39.97 10.16 39.75 9.81998 39.81C9.80998 40.04 9.79998 40.15 9.79998 40.38C10.44 40.96 10.78 41.23 11.5 41.71V41.7Z" fill="#CE3030"/>
<path d="M5.87 42.15L0.220001 45.94L5.25 41.36L5.87 42.15Z" fill="#CE3030"/>
<path d="M5.51999 42.33L1.48999 42.94L5.24999 41.36L5.51999 42.33Z" fill="#CE3030"/>
<path d="M11.44 47L7.89001 53.15L10.4 46.51L11.44 47Z" fill="#CE3030"/>
<path d="M11.43 47.01L10.45 50.31L10.28 46.87L11.43 47.01Z" fill="#CE3030"/>
<path d="M6.50999 49.79L2.95999 55.93L5.46999 49.3L6.50999 49.79Z" fill="#CE3030"/>
<path d="M6.49001 49.79L5.52001 53.1L5.35001 49.65L6.49001 49.79Z" fill="#CE3030"/>
<path d="M4.67001 47.82L0.320007 52.35L3.95001 47.23L4.67001 47.82Z" fill="#CE3030"/>
<path d="M4.39 48.05L0.869995 49.39L3.96 47.23L4.39 48.05Z" fill="#CE3030"/>
</g>
<path d="M116.31 44.01L122.62 44.22" stroke="black" stroke-width="2" stroke-miterlimit="10"/>
<path d="M121.98 44.05C122.89 44.13 123.5 44.2 124.08 44.21C124.63 44.18 125.17 44.44 125.74 44.31C127.04 44.04 127.64 42.64 127.68 41.34L127.88 41.3C128.53 42.87 128.05 45.01 126.35 45.79C125.53 46.23 124.51 46.51 123.62 46.16C122.75 45.82 122.03 45.13 121.84 44.2L121.98 44.05Z" fill="black"/>
<path d="M121.94 44.28C122.7 44.79 123.2 45.14 123.71 45.43C124.21 45.67 124.56 46.16 125.12 46.31C126.39 46.7 127.59 45.76 128.24 44.63L128.43 44.69C128.25 46.38 126.8 48.03 124.94 47.9C124.01 47.9 122.98 47.66 122.37 46.92C121.77 46.21 121.46 45.25 121.75 44.35L121.94 44.29V44.28Z" fill="black"/>
<path d="M121.34 43.36C122.2 43.06 122.78 42.86 123.32 42.63C123.81 42.38 124.41 42.39 124.87 42.03C125.94 41.24 125.91 39.72 125.4 38.53L125.56 38.41C126.8 39.56 127.25 41.71 126.04 43.13C125.48 43.87 124.67 44.55 123.71 44.6C122.78 44.65 121.83 44.33 121.28 43.56L121.34 43.37V43.36Z" fill="black"/>
<path d="M114.88 47.1861C116.859 47.0633 118.381 45.6322 118.279 43.9895C118.177 42.3469 116.49 41.1148 114.511 41.2375C112.532 41.3603 111.011 42.7915 111.112 44.4341C111.214 46.0768 112.901 47.3089 114.88 47.1861Z" fill="#494847" stroke="black" stroke-miterlimit="10"/>
<path d="M108.89 23.9C108.08 22.79 106.53 22.47 105.33 23.21L102.72 24.82C103.61 23.67 103.41 22.02 102.28 21.11C101.32 20.33 99.97 20.33 99.02 21.03C98.83 21.17 98.67 21.33 98.52 21.52L97.79 22.43C97.52 22.02 97.13 21.68 96.64 21.46C95.73 21.06 94.73 21.21 93.98 21.76C93.62 22.03 93.31 22.39 93.12 22.84L91.53 26.47C91.03 26.41 90.53 26.56 90.14 26.85C89.79 27.11 89.52 27.47 89.4 27.92L87.8 33.6C87.68 34.04 87.71 34.49 87.87 34.88C87.79 35.13 87.74 35.39 87.74 35.64C87.74 35.67 87.74 35.69 87.74 35.72L87.64 35.88L86.42 37.97C85.86 38.93 86.18 40.15 87.13 40.71C88.08 41.27 89.31 40.96 89.87 40L90.75 38.5L90.82 38.39C90.82 38.39 90.84 38.39 90.85 38.39C91.17 38.38 91.48 38.29 91.76 38.13C91.94 38.22 92.11 38.29 92.3 38.32C92.42 38.54 92.59 38.73 92.78 38.9C92.84 39.81 93.53 40.59 94.47 40.73L100.31 41.62C101.41 41.79 102.42 41.04 102.59 39.94C102.62 39.76 102.62 39.57 102.59 39.4L113.16 39.18C114.65 39.15 115.81 37.93 115.78 36.45C115.76 35.88 115.58 35.35 115.26 34.92C114.76 34.24 113.95 33.81 113.05 33.83L108.92 33.91L110.98 33.44C112.42 33.11 113.32 31.66 112.99 30.23C112.9 29.87 112.75 29.53 112.54 29.25C111.92 28.41 110.85 27.98 109.78 28.22L105.98 29.1L108.13 27.78C109.39 27.01 109.78 25.36 109 24.1C108.96 24.04 108.92 23.98 108.87 23.91L108.89 23.9Z" fill="black" stroke="black" stroke-miterlimit="10"/>
<path d="M87.32 42.11L87.07 42.13L87.25 42.08C87.25 42.08 87.29 42.1 87.32 42.11Z" fill="black" stroke="black" stroke-miterlimit="10"/>
<path d="M128.081 20.6703C129.175 19.8194 129.374 18.2442 128.525 17.1521C127.675 16.0599 126.1 15.8644 125.006 16.7154L98.1026 37.6362C97.0083 38.4871 96.8097 40.0623 97.659 41.1544C98.5083 42.2466 100.084 42.4421 101.178 41.5911L128.081 20.6703Z" fill="#494847" stroke="black" stroke-miterlimit="10"/>
<path d="M133.219 21.6372C134.313 20.7862 134.511 19.211 133.662 18.1189C132.813 17.0268 131.237 16.8313 130.143 17.6823L103.24 38.603C102.146 39.454 101.947 41.0292 102.796 42.1213C103.646 43.2134 105.221 43.4089 106.316 42.5579L133.219 21.6372Z" fill="#494847" stroke="black" stroke-miterlimit="10"/>
<path d="M134.458 26.1586C135.552 25.3077 135.751 23.7325 134.901 22.6404C134.052 21.5482 132.477 21.3528 131.382 22.2037L104.479 43.1245C103.385 43.9754 103.186 45.5506 104.036 46.6428C104.885 47.7349 106.461 47.9304 107.555 47.0794L134.458 26.1586Z" fill="#494847" stroke="black" stroke-miterlimit="10"/>
<path d="M112.88 28.8C117.57 31.37 119.3 37.26 116.73 41.95C115.16 44.83 112.33 46.59 109.31 46.93L90.39 53.84C88.46 55.79 85.4 56.31 82.88 54.93C79.81 53.25 78.68 49.41 80.36 46.34C81.58 44.1 83.95 42.9 86.33 43.07L101.08 30.75C104.02 27.54 108.88 26.63 112.87 28.81L112.88 28.8Z" fill="#494847" stroke="black" stroke-miterlimit="10"/>
<path d="M85.52 50.43C87.1768 50.43 88.52 49.0868 88.52 47.43C88.52 45.7731 87.1768 44.43 85.52 44.43C83.8631 44.43 82.52 45.7731 82.52 47.43C82.52 49.0868 83.8631 50.43 85.52 50.43Z" fill="white" stroke="black" stroke-miterlimit="10"/>
<path d="M85.52 48.48C86.0999 48.48 86.57 48.0099 86.57 47.43C86.57 46.8501 86.0999 46.38 85.52 46.38C84.9401 46.38 84.47 46.8501 84.47 47.43C84.47 48.0099 84.9401 48.48 85.52 48.48Z" fill="black"/>
<path d="M86.55 51.47C86.65 53.05 86.5 54.22 86.09 55.54C85.78 56.65 84.71 57.25 84.12 58.17C83.48 59.13 82.92 60.14 82.42 61.19C81.89 62.27 81.48 63.42 81.07 64.63H80.57C79.81 62.07 79.78 59.25 80.42 56.63C80.58 55.95 80.7 55.25 80.88 54.55C81.26 53.11 82.42 52.1 83.77 51.53C84.47 51.23 85.25 51.04 86.2 51.1L86.55 51.45V51.47Z" fill="black"/>
<path d="M86.39 51.31C83.24 55.08 80.94 59.64 80.84 64.64H80.79C80.72 59.8 82.44 54.25 86.39 51.31Z" fill="#494847"/>
<path d="M117.7 38.27L125.18 37.41" stroke="black" stroke-width="2" stroke-miterlimit="10"/>
<path d="M124.56 37.4C125.56 37.65 126.29 37.84 127.01 37.93C127.7 37.98 128.37 38.28 129.09 38.14C129.77 38 130.41 37.63 130.85 36.98C131.3 36.34 131.53 35.48 131.61 34.61L131.81 34.58C132.39 36.47 131.64 38.9 129.6 39.66C128.62 40.09 127.43 40.3 126.43 39.84C125.45 39.4 124.65 38.58 124.43 37.54L124.58 37.4H124.56Z" fill="black"/>
<path d="M124.49 37.66C125.25 38.36 125.8 38.87 126.39 39.3C126.97 39.68 127.42 40.26 128.11 40.48C128.78 40.69 129.51 40.66 130.21 40.3C130.91 39.95 131.53 39.31 132.01 38.58L132.2 38.65C131.8 40.59 129.98 42.36 127.83 42.05C126.76 41.96 125.62 41.57 124.96 40.69C124.31 39.83 124 38.73 124.3 37.71L124.49 37.66Z" fill="black"/>
<path d="M123.86 36.52C124.88 36.33 125.61 36.2 126.31 35.98C126.96 35.74 127.7 35.73 128.28 35.31C128.85 34.9 129.27 34.3 129.4 33.53C129.55 32.76 129.4 31.88 129.1 31.06L129.27 30.95C130.58 32.43 130.91 34.95 129.37 36.49C128.66 37.29 127.66 37.97 126.56 37.97C125.48 37.97 124.42 37.57 123.78 36.71L123.86 36.53V36.52Z" fill="black"/>
<path d="M110.3 33.18C114.97 32.41 119.22 34.6 119.79 38.06C120.36 41.52 117.04 44.96 112.38 45.73" fill="#494847"/>
<path d="M110.3 33.18C114.97 32.41 119.22 34.6 119.79 38.06C120.36 41.52 117.04 44.96 112.38 45.73" stroke="black" stroke-miterlimit="10"/>
<path d="M95.9596 32.1228C95.5841 33.4571 96.3592 34.8427 97.6909 35.2176C99.0226 35.5924 100.407 34.8145 100.782 33.4802L102.782 26.3762C103.157 25.0418 102.382 23.6562 101.051 23.2814C99.7188 22.9065 98.3347 23.6844 97.9592 25.0188L95.9596 32.1228Z" fill="#494847" stroke="black" stroke-miterlimit="10"/>
<path d="M97.8712 37.7784L97.8803 37.7824C99.5694 38.5239 101.54 37.7557 102.281 36.0666L108.74 21.3519C109.482 19.6629 108.714 17.6926 107.025 16.9511L107.016 16.9471C105.326 16.2056 103.356 16.9738 102.615 18.6629L96.1554 33.3776C95.4139 35.0667 96.1821 37.037 97.8712 37.7784Z" fill="#494847" stroke="black" stroke-miterlimit="10"/>
<path d="M97.3862 37.307L97.394 37.3133C98.8334 38.4669 100.935 38.2352 102.089 36.7958L114.59 21.1971C115.744 19.7577 115.512 17.6557 114.073 16.5021L114.065 16.4959C112.626 15.3423 110.524 15.574 109.37 17.0134L96.8687 32.612C95.7151 34.0514 95.9468 36.1534 97.3862 37.307Z" fill="#494847" stroke="black" stroke-miterlimit="10"/>
<path d="M99.647 37.362L99.6542 37.3689C100.99 38.6408 103.104 38.5888 104.376 37.2527L119.497 21.369C120.769 20.0329 120.717 17.9188 119.381 16.6469L119.373 16.64C118.037 15.3682 115.923 15.4202 114.651 16.7563L99.5308 32.64C98.2589 33.9761 98.3109 36.0902 99.647 37.362Z" fill="#494847" stroke="black" stroke-miterlimit="10"/>
<path d="M103.393 36.7032L103.399 36.7107C104.62 38.0931 106.731 38.2236 108.114 37.0023L126.564 20.7015C127.947 19.4802 128.077 17.3694 126.856 15.987L126.849 15.9795C125.628 14.5971 123.517 14.4665 122.135 15.6879L103.684 31.9887C102.302 33.21 102.171 35.3208 103.393 36.7032Z" fill="#494847" stroke="black" stroke-miterlimit="10"/>
<path d="M103.438 37.1899L103.442 37.1988C104.255 38.8548 106.256 39.5384 107.912 38.7257L128.775 28.487C130.431 27.6743 131.115 25.6731 130.302 24.0171L130.298 24.0081C129.485 22.3522 127.484 21.6686 125.828 22.4812L104.965 32.72C103.309 33.5327 102.625 35.5339 103.438 37.1899Z" fill="#494847" stroke="black" stroke-miterlimit="10"/>
<path d="M93.4319 36.6074C92.7294 37.8024 93.1267 39.3396 94.3194 40.0407C95.512 40.7418 97.0484 40.3414 97.7509 39.1464L101.491 32.7843C102.193 31.5893 101.796 30.0521 100.604 29.351C99.4109 28.6499 97.8745 29.0503 97.172 30.2453L93.4319 36.6074Z" fill="#494847" stroke="black" stroke-miterlimit="10"/>
<path d="M95.3906 34.8411C94.6193 35.9929 94.9258 37.5507 96.0753 38.3205C97.2248 39.0903 98.782 38.7807 99.5534 37.6289L103.66 31.4969C104.431 30.3451 104.125 28.7873 102.975 28.0175C101.826 27.2477 100.269 27.5573 99.4972 28.7091L95.3906 34.8411Z" fill="#494847" stroke="black" stroke-miterlimit="10"/>
<path d="M97.6439 34.1262C96.8332 35.2507 97.0858 36.8182 98.208 37.6272C99.3302 38.4363 100.897 38.1806 101.708 37.0562L106.024 31.0698C106.835 29.9453 106.582 28.3779 105.46 27.5688C104.338 26.7597 102.771 27.0154 101.96 28.1398L97.6439 34.1262Z" fill="#494847" stroke="black" stroke-miterlimit="10"/>
<path d="M100.052 33.5035C99.1257 34.5348 99.2091 36.1203 100.238 37.0448C101.268 37.9692 102.853 37.8826 103.779 36.8513L108.711 31.3609C109.637 30.3296 109.554 28.7441 108.524 27.8196C107.495 26.8952 105.91 26.9818 104.983 28.0131L100.052 33.5035Z" fill="#494847" stroke="black" stroke-miterlimit="10"/>
<path d="M101.452 34.9267C100.508 35.942 100.564 37.5287 101.578 38.4706C102.591 39.4125 104.177 39.353 105.121 38.3377L110.146 32.9324C111.09 31.9171 111.033 30.3305 110.02 29.3885C109.007 28.4466 107.42 28.5061 106.477 29.5214L101.452 34.9267Z" fill="#494847" stroke="black" stroke-miterlimit="10"/>
<path d="M103.02 37.5026C101.99 38.4304 101.906 40.0158 102.832 41.0438C103.758 42.0717 105.343 42.153 106.373 41.2252L111.857 36.2861C112.887 35.3583 112.971 33.7729 112.045 32.7449C111.119 31.717 109.534 31.6358 108.504 32.5635L103.02 37.5026Z" fill="#494847" stroke="black" stroke-miterlimit="10"/>
<path d="M82.98 51.17L82.53 44.81" stroke="black" stroke-width="2" stroke-miterlimit="10"/>
<g clip-path="url(#clip1_15_4413)">
<path d="M167.47 64.42L176.85 56.07L169.55 60.41C168.28 61.16 166.63 60.75 165.88 59.48C165.77 59.3 165.7 59.12 165.64 58.93C165.27 57.77 165.72 56.46 166.81 55.81L176.69 49.94L169.09 51.81C167.65 52.17 166.2 51.29 165.85 49.86C165.51 48.48 166.3 47.09 167.62 46.67C167.68 46.65 167.74 46.63 167.81 46.62L177.92 44.13L169.24 44.44C167.76 44.5 166.52 43.34 166.47 41.86C166.42 40.65 167.21 39.58 168.32 39.22C168.55 39.15 168.79 39.1 169.05 39.09L177.48 38.78H177.38C176.29 38.6 175.54 37.57 175.71 36.47C175.83 35.7 176.38 35.09 177.08 34.87C177.37 34.78 177.68 34.75 178 34.8L183 35.58C183 35.58 183.02 35.51 183.03 35.47C183.26 34.88 183.73 34.47 184.29 34.29C184.71 34.16 185.18 34.16 185.63 34.33L191.13 36.49C192.17 36.89 192.67 38.05 192.27 39.08C192.04 39.67 191.56 40.08 191 40.26C191.33 40.68 191.49 41.23 191.4 41.8C191.24 42.83 190.32 43.56 189.3 43.48C190 43.79 190.48 44.49 190.48 45.31C190.48 46.05 190.08 46.69 189.47 47.04C189.95 47.29 190.31 47.73 190.46 48.29C190.6 48.79 190.53 49.3 190.3 49.73C190.67 49.85 191.01 50.07 191.26 50.4C191.72 50.98 191.8 51.75 191.53 52.41C191.64 52.44 191.75 52.48 191.86 52.54C192.85 53.05 193.24 54.26 192.73 55.24L190.03 60.5C189.52 61.49 188.32 61.87 187.33 61.37C186.87 61.13 186.53 60.74 186.36 60.29L178.84 69.55C177.91 70.7 176.23 70.88 175.08 69.95C174.66 69.61 174.37 69.17 174.22 68.7C173.95 67.86 174.09 66.92 174.69 66.19L177.75 62.42L171.02 68.42C169.92 69.41 168.23 69.31 167.25 68.21C166.99 67.92 166.81 67.6 166.7 67.25C166.39 66.28 166.65 65.16 167.47 64.44V64.42Z" fill="black" stroke="black" stroke-miterlimit="10"/>
<path d="M150.711 21.1268C149.347 20.8759 148.039 21.7754 147.789 23.1361C147.538 24.4967 148.44 25.8031 149.804 26.0541L183.321 32.2237C184.684 32.4747 185.992 31.5751 186.243 30.2145C186.493 28.8539 185.591 27.5474 184.228 27.2965L150.711 21.1268Z" fill="#494847" stroke="black" stroke-miterlimit="10"/>
<path d="M148.006 16.653C146.642 16.402 145.334 17.3016 145.084 18.6622C144.833 20.0228 145.735 21.3293 147.099 21.5802L180.616 27.7499C181.979 28.0008 183.287 27.1013 183.538 25.7406C183.788 24.38 182.886 23.0736 181.523 22.8226L148.006 16.653Z" fill="#494847" stroke="black" stroke-miterlimit="10"/>
<path d="M150.549 12.7315C149.186 12.4806 147.877 13.3801 147.627 14.7407C147.376 16.1014 148.279 17.4078 149.642 17.6587L183.159 23.8284C184.522 24.0793 185.83 23.1798 186.081 21.8192C186.331 20.4586 185.429 19.1521 184.066 18.9012L150.549 12.7315Z" fill="#494847" stroke="black" stroke-miterlimit="10"/>
<path d="M185.91 17.36L190.07 12.61" stroke="black" stroke-width="2" stroke-miterlimit="10"/>
<path d="M189.99 12.92C190.86 13.21 191.44 13.41 192 13.55C192.55 13.65 193.01 14.02 193.6 14.02C194.93 14.05 195.83 12.83 196.16 11.57H196.36C196.64 13.24 195.68 15.22 193.85 15.6C192.96 15.84 191.9 15.89 191.11 15.34C190.34 14.81 189.79 13.98 189.82 13.03L189.99 12.92Z" fill="black"/>
<path d="M189.9 13.14C190.52 13.81 190.94 14.26 191.37 14.66C191.8 15.01 192.03 15.56 192.55 15.84C193.7 16.5 195.08 15.86 195.97 14.91L196.14 15.01C195.58 16.61 193.8 17.89 192.01 17.35C191.11 17.13 190.16 16.67 189.73 15.81C189.31 14.98 189.22 13.98 189.7 13.17L189.9 13.15V13.14Z" fill="black"/>
<path d="M189.52 12.1C190.43 12 191.04 11.94 191.61 11.84C192.15 11.7 192.73 11.84 193.26 11.6C194.48 11.08 194.79 9.59001 194.57 8.31001L194.75 8.23001C195.7 9.64001 195.65 11.83 194.14 12.94C193.43 13.53 192.48 14.02 191.54 13.84C190.62 13.68 189.77 13.15 189.41 12.28L189.52 12.11V12.1Z" fill="black"/>
<path d="M187.448 20.4891C188.609 18.8816 188.468 16.7975 187.133 15.8341C185.799 14.8706 183.776 15.3927 182.616 17.0002C181.455 18.6077 181.596 20.6919 182.93 21.6553C184.265 22.6187 186.287 22.0966 187.448 20.4891Z" fill="#494847" stroke="black" stroke-miterlimit="10"/>
<path d="M169.16 23.51C169.16 18.16 173.5 13.82 178.85 13.82C182.13 13.82 185.03 15.45 186.78 17.94L201.92 31.22C204.56 31.98 206.48 34.41 206.48 37.29C206.48 40.79 203.65 43.62 200.15 43.62C197.6 43.62 195.41 42.12 194.41 39.95L176.52 32.92C172.29 31.88 169.16 28.06 169.16 23.51Z" fill="#494847" stroke="black" stroke-miterlimit="10"/>
<path d="M182.35 12.64L186.43 6.31" stroke="black" stroke-width="2" stroke-miterlimit="10"/>
<path d="M186.38 6.69999C187.38 6.95999 188.1 7.15999 188.82 7.25999C189.51 7.31999 190.18 7.62999 190.89 7.49999C191.58 7.36999 192.22 7.00999 192.66 6.36999C193.12 5.73999 193.37 4.87999 193.45 4.00999L193.65 3.98999C194.2 5.88999 193.42 8.30999 191.37 9.02999C190.38 9.43999 189.19 9.63999 188.2 9.15999C187.23 8.69999 186.44 7.86999 186.23 6.82999L186.38 6.69999Z" fill="black"/>
<path d="M186.3 6.96001C187.05 7.67001 187.59 8.19001 188.18 8.62001C188.76 9.01001 189.19 9.60001 189.89 9.82001C190.55 10.04 191.29 10.02 191.99 9.67001C192.7 9.34001 193.33 8.70001 193.81 7.98001L194 8.05001C193.57 9.98001 191.73 11.73 189.58 11.39C188.52 11.28 187.38 10.88 186.73 9.99001C186.09 9.12001 185.8 8.02001 186.12 7.00001L186.31 6.95001L186.3 6.96001Z" fill="black"/>
<path d="M185.69 5.81001C186.71 5.64001 187.45 5.51001 188.15 5.31001C188.8 5.08001 189.54 5.08001 190.13 4.67001C190.7 4.27001 191.13 3.67001 191.27 2.90001C191.43 2.13001 191.29 1.25001 191.01 0.420007L191.18 0.320007C192.47 1.82001 192.76 4.34001 191.2 5.86001C190.47 6.65001 189.47 7.32001 188.37 7.30001C187.29 7.30001 186.23 6.86001 185.61 6.00001L185.69 5.82001V5.81001Z" fill="black"/>
<path d="M199.18 41.23C200.837 41.23 202.18 39.8869 202.18 38.23C202.18 36.5732 200.837 35.23 199.18 35.23C197.523 35.23 196.18 36.5732 196.18 38.23C196.18 39.8869 197.523 41.23 199.18 41.23Z" fill="white" stroke="black" stroke-miterlimit="10"/>
<path d="M203.3 36.19L203.2 35.99C203.61 34.47 204.14 33.4 204.96 32.29C205.62 31.34 206.82 31.13 207.68 30.45C208.59 29.75 209.46 28.98 210.27 28.15C211.13 27.3 211.89 26.35 212.68 25.33C212.68 25.33 212.79 25.37 212.89 25.42C211.17 30.1 207.49 33.66 203.3 36.2V36.19Z" fill="black"/>
<path d="M215.05 27.55C214.38 30.14 212.96 32.57 211.07 34.48C210.58 34.97 210.12 35.52 209.61 36.03C208.55 37.07 207.03 37.34 205.57 37.13C204.82 37.04 204.05 36.8 203.27 36.25L203.21 35.99C208.1 35.48 212.44 31.6 214.87 27.43C214.96 27.49 215.06 27.55 215.06 27.55H215.05Z" fill="black"/>
<path d="M214.01 27.66L213.97 27.64C213.97 27.64 213.99 27.65 214.01 27.66Z" fill="black"/>
<path d="M173.72 15.13C176.09 11.03 180.47 9.14001 183.51 10.89C186.55 12.65 187.1 17.39 184.74 21.49" fill="#494847"/>
<path d="M173.72 15.13C176.09 11.03 180.47 9.14001 183.51 10.89C186.55 12.65 187.1 17.39 184.74 21.49" stroke="black" stroke-miterlimit="10"/>
<path d="M172.382 29.0244C171.143 28.402 169.636 28.8995 169.014 30.1357C168.393 31.3719 168.894 32.8786 170.132 33.501L176.727 36.8147C177.965 37.4371 179.473 36.9396 180.094 35.7034C180.715 34.4672 180.215 32.9605 178.976 32.3381L172.382 29.0244Z" fill="#494847" stroke="black" stroke-miterlimit="10"/>
<path d="M155.959 32.9959L155.956 33.0055C155.454 34.7806 156.487 36.6263 158.262 37.1279L173.726 41.4981C175.501 41.9997 177.347 40.9674 177.849 39.1922L177.851 39.1826C178.353 37.4075 177.321 35.5618 175.545 35.0602L160.081 30.6901C158.306 30.1884 156.46 31.2208 155.959 32.9959Z" fill="#494847" stroke="black" stroke-miterlimit="10"/>
<path d="M152.169 42.275L152.168 42.285C152.04 44.1252 153.428 45.7207 155.268 45.8488L175.21 47.2362C177.05 47.3643 178.646 45.9763 178.774 44.1361L178.775 44.1261C178.903 42.286 177.515 40.6904 175.674 40.5624L155.733 39.1749C153.892 39.0469 152.297 40.4348 152.169 42.275Z" fill="#494847" stroke="black" stroke-miterlimit="10"/>
<path d="M148.531 53.7349L148.533 53.7447C148.945 55.5426 150.737 56.6658 152.535 56.2533L173.91 51.35C175.708 50.9376 176.831 49.1457 176.418 47.3478L176.416 47.338C176.004 45.5401 174.212 44.4169 172.414 44.8294L151.039 49.7327C149.241 50.1451 148.118 51.937 148.531 53.7349Z" fill="#494847" stroke="black" stroke-miterlimit="10"/>
<path d="M146.825 64.6431L146.829 64.6523C147.576 66.3391 149.548 67.1015 151.235 66.355L173.749 56.3922C175.436 55.6458 176.198 53.6732 175.452 51.9863L175.448 51.9772C174.702 50.2903 172.729 49.528 171.042 50.2745L148.528 60.2373C146.841 60.9837 146.079 62.9563 146.825 64.6431Z" fill="#494847" stroke="black" stroke-miterlimit="10"/>
<path d="M155.468 69.7142L155.474 69.7225C156.481 71.268 158.55 71.7044 160.096 70.6974L179.566 58.0093C181.112 57.0023 181.548 54.933 180.541 53.3876L180.536 53.3792C179.529 51.8337 177.459 51.3973 175.914 52.4044L156.443 65.0924C154.898 66.0995 154.461 68.1687 155.468 69.7142Z" fill="#494847" stroke="black" stroke-miterlimit="10"/>
<path d="M181.635 31.3822C180.56 30.5068 178.981 30.6668 178.107 31.7395C177.234 32.8122 177.397 34.3915 178.472 35.2669L184.194 39.9273C185.269 40.8027 186.848 40.6427 187.722 39.57C188.596 38.4972 188.433 36.918 187.358 36.0426L181.635 31.3822Z" fill="#494847" stroke="black" stroke-miterlimit="10"/>
<path d="M177.937 35.8107C176.698 35.1883 175.19 35.6858 174.569 36.922C173.948 38.1581 174.448 39.6648 175.687 40.2873L182.281 43.6009C183.52 44.2234 185.028 43.7258 185.649 42.4896C186.27 41.2535 185.769 39.7468 184.531 39.1244L177.937 35.8107Z" fill="#494847" stroke="black" stroke-miterlimit="10"/>
<path d="M174.585 40.8886C173.266 40.4623 171.852 41.1839 171.427 42.5004C171.001 43.8168 171.726 45.2296 173.045 45.6559L180.067 47.9254C181.386 48.3517 182.8 47.6301 183.226 46.3136C183.651 44.9972 182.927 43.5844 181.608 43.1582L174.585 40.8886Z" fill="#494847" stroke="black" stroke-miterlimit="10"/>
<path d="M172.31 46.8591C170.926 46.7911 169.748 47.8562 169.681 49.238C169.613 50.6198 170.68 51.7951 172.065 51.8631L179.436 52.2249C180.82 52.2928 181.998 51.2277 182.066 49.8459C182.133 48.4641 181.066 47.2889 179.681 47.2209L172.31 46.8591Z" fill="#494847" stroke="black" stroke-miterlimit="10"/>
<path d="M172.063 53.743C170.763 54.2239 170.098 55.6656 170.578 56.9632C171.058 58.2607 172.501 58.9227 173.802 58.4418L180.723 55.8814C182.023 55.4005 182.688 53.9587 182.208 52.6612C181.728 51.3636 180.285 50.7016 178.985 51.1826L172.063 53.743Z" fill="#494847" stroke="black" stroke-miterlimit="10"/>
<path d="M173.346 60.6616C172.365 61.6418 172.364 63.2295 173.342 64.2078C174.32 65.186 175.908 65.1844 176.888 64.2042L182.107 58.9858C183.087 58.0056 183.088 56.4179 182.11 55.4396C181.132 54.4614 179.544 54.463 178.564 55.4432L173.346 60.6616Z" fill="#494847" stroke="black" stroke-miterlimit="10"/>
<path d="M196.87 35.96L201.42 40.51" stroke="black" stroke-width="1.5" stroke-miterlimit="10"/>
<path d="M201.37 36.04L197.04 40.38" stroke="black" stroke-width="1.5" stroke-miterlimit="10"/>
</g>
<g clip-path="url(#clip2_15_4413)">
<path d="M47.56 79.72L38.18 88.07L45.48 83.73C46.75 82.98 48.4 83.39 49.15 84.66C49.26 84.84 49.33 85.02 49.39 85.21C49.76 86.37 49.31 87.68 48.22 88.33L38.34 94.2L45.94 92.33C47.38 91.97 48.83 92.85 49.18 94.28C49.52 95.66 48.73 97.05 47.41 97.47C47.35 97.49 47.29 97.51 47.22 97.52L37.11 100.01L45.79 99.7C47.27 99.64 48.51 100.8 48.56 102.28C48.61 103.49 47.82 104.56 46.71 104.92C46.48 104.99 46.24 105.04 45.98 105.05L37.55 105.36H37.65C38.74 105.54 39.49 106.57 39.32 107.67C39.2 108.44 38.65 109.05 37.95 109.27C37.66 109.36 37.35 109.39 37.03 109.34L32.03 108.56C32.03 108.56 32.01 108.63 32 108.67C31.77 109.26 31.3 109.67 30.74 109.85C30.32 109.98 29.85 109.98 29.4 109.81L23.9 107.65C22.86 107.25 22.36 106.09 22.76 105.06C22.99 104.47 23.47 104.06 24.03 103.88C23.7 103.46 23.54 102.91 23.63 102.34C23.79 101.31 24.71 100.58 25.73 100.66C25.03 100.35 24.55 99.65 24.55 98.83C24.55 98.09 24.95 97.45 25.56 97.1C25.08 96.85 24.72 96.41 24.57 95.85C24.43 95.35 24.5 94.84 24.73 94.41C24.36 94.29 24.02 94.07 23.77 93.74C23.31 93.16 23.23 92.39 23.5 91.73C23.39 91.7 23.28 91.66 23.17 91.6C22.18 91.09 21.79 89.88 22.3 88.9L25 83.64C25.51 82.65 26.71 82.27 27.7 82.77C28.16 83.01 28.5 83.4 28.67 83.85L36.19 74.59C37.12 73.44 38.8 73.26 39.95 74.19C40.37 74.53 40.66 74.97 40.81 75.44C41.08 76.28 40.94 77.22 40.34 77.95L37.28 81.72L44.01 75.72C45.11 74.73 46.8 74.83 47.78 75.93C48.04 76.22 48.22 76.54 48.33 76.89C48.64 77.86 48.38 78.98 47.56 79.7V79.72Z" fill="black" stroke="black" stroke-miterlimit="10"/>
<path d="M64.3139 123.008C65.6772 123.259 66.9855 122.36 67.2359 120.999C67.4864 119.639 66.5842 118.332 65.2209 118.081L31.704 111.912C30.3407 111.661 29.0324 112.56 28.782 113.921C28.5315 115.281 29.4337 116.588 30.797 116.839L64.3139 123.008Z" fill="#494847" stroke="black" stroke-miterlimit="10"/>
<path d="M67.019 127.485C68.3823 127.736 69.6905 126.836 69.941 125.475C70.1914 124.115 69.2893 122.808 67.9259 122.557L34.409 116.388C33.0457 116.137 31.7375 117.036 31.487 118.397C31.2366 119.758 32.1387 121.064 33.5021 121.315L67.019 127.485Z" fill="#494847" stroke="black" stroke-miterlimit="10"/>
<path d="M64.4837 131.415C65.8471 131.666 67.1553 130.767 67.4058 129.406C67.6562 128.045 66.7541 126.739 65.3907 126.488L31.8738 120.318C30.5105 120.067 29.2023 120.967 28.9518 122.327C28.7014 123.688 29.6035 124.995 30.9669 125.245L64.4837 131.415Z" fill="#494847" stroke="black" stroke-miterlimit="10"/>
<path d="M29.12 126.78L24.96 131.53" stroke="black" stroke-width="2" stroke-miterlimit="10"/>
<path d="M25.04 131.22C24.17 130.93 23.59 130.73 23.03 130.59C22.48 130.49 22.02 130.12 21.43 130.12C20.1 130.09 19.2 131.31 18.87 132.57H18.67C18.39 130.9 19.35 128.92 21.18 128.54C22.07 128.3 23.13 128.25 23.92 128.8C24.69 129.33 25.24 130.16 25.21 131.11L25.04 131.22Z" fill="black"/>
<path d="M25.13 131C24.51 130.33 24.09 129.88 23.66 129.48C23.23 129.13 23 128.58 22.48 128.3C21.33 127.64 19.95 128.28 19.06 129.23L18.89 129.13C19.45 127.53 21.23 126.25 23.02 126.79C23.92 127.01 24.87 127.47 25.3 128.33C25.72 129.16 25.81 130.16 25.33 130.97L25.13 130.99V131Z" fill="black"/>
<path d="M25.5 132.04C24.59 132.14 23.98 132.2 23.41 132.3C22.87 132.44 22.29 132.3 21.76 132.54C20.54 133.06 20.23 134.55 20.45 135.83L20.27 135.91C19.32 134.5 19.37 132.31 20.88 131.2C21.59 130.61 22.54 130.12 23.48 130.3C24.4 130.46 25.25 130.99 25.61 131.86L25.51 132.03L25.5 132.04Z" fill="black"/>
<path d="M32.4142 127.155C33.5749 125.548 33.434 123.463 32.0997 122.5C30.7653 121.537 28.7428 122.059 27.5821 123.666C26.4215 125.274 26.5623 127.358 27.8966 128.321C29.231 129.285 31.2536 128.763 32.4142 127.155Z" fill="#494847" stroke="black" stroke-miterlimit="10"/>
<path d="M45.87 120.63C45.87 125.98 41.53 130.32 36.18 130.32C32.9 130.32 30 128.69 28.25 126.2L13.11 112.92C10.47 112.16 8.54999 109.73 8.54999 106.85C8.54999 103.35 11.38 100.52 14.88 100.52C17.43 100.52 19.62 102.02 20.62 104.19L38.51 111.22C42.74 112.26 45.87 116.08 45.87 120.63Z" fill="#494847" stroke="black" stroke-miterlimit="10"/>
<path d="M32.68 131.51L28.59 137.84" stroke="black" stroke-width="2" stroke-miterlimit="10"/>
<path d="M28.65 137.44C27.65 137.18 26.93 136.98 26.21 136.88C25.52 136.82 24.85 136.51 24.14 136.64C23.45 136.77 22.81 137.13 22.37 137.77C21.91 138.4 21.66 139.26 21.58 140.13L21.38 140.15C20.83 138.25 21.61 135.83 23.66 135.11C24.65 134.7 25.84 134.5 26.83 134.98C27.8 135.44 28.59 136.27 28.8 137.31L28.65 137.44Z" fill="black"/>
<path d="M28.73 137.18C27.98 136.47 27.44 135.95 26.85 135.52C26.27 135.13 25.84 134.54 25.14 134.32C24.48 134.1 23.74 134.12 23.04 134.47C22.33 134.8 21.7 135.44 21.22 136.16L21.03 136.09C21.46 134.16 23.3 132.41 25.45 132.75C26.51 132.86 27.65 133.26 28.3 134.15C28.94 135.02 29.23 136.12 28.91 137.14L28.72 137.19L28.73 137.18Z" fill="black"/>
<path d="M29.34 138.33C28.32 138.5 27.58 138.63 26.88 138.83C26.23 139.06 25.49 139.06 24.9 139.47C24.33 139.87 23.9 140.47 23.76 141.24C23.6 142.01 23.74 142.89 24.02 143.72L23.85 143.82C22.56 142.32 22.27 139.8 23.83 138.28C24.56 137.49 25.56 136.82 26.66 136.84C27.74 136.84 28.8 137.28 29.42 138.14L29.34 138.32V138.33Z" fill="black"/>
<path d="M15.85 108.92C17.5069 108.92 18.85 107.577 18.85 105.92C18.85 104.263 17.5069 102.92 15.85 102.92C14.1932 102.92 12.85 104.263 12.85 105.92C12.85 107.577 14.1932 108.92 15.85 108.92Z" fill="white" stroke="black" stroke-miterlimit="10"/>
<path d="M15.85 106.97C16.4299 106.97 16.9 106.5 16.9 105.92C16.9 105.34 16.4299 104.87 15.85 104.87C15.2701 104.87 14.8 105.34 14.8 105.92C14.8 106.5 15.2701 106.97 15.85 106.97Z" fill="black"/>
<path d="M12.45 107.77C11.77 109.2 11.07 110.15 10.07 111.11C9.26001 111.93 8.04001 111.93 7.06001 112.45C6.04001 112.98 5.06001 113.59 4.11001 114.27C3.13001 114.95 2.20001 115.76 1.26001 116.62L0.820007 116.37C1.40001 113.77 2.74001 111.28 4.57001 109.31C5.04001 108.8 5.49001 108.24 5.98001 107.71C7.01001 106.64 8.51001 106.32 9.98001 106.47C10.73 106.55 11.51 106.76 12.31 107.28L12.45 107.76V107.77Z" fill="black"/>
<path d="M12.39 107.55C7.79999 109.32 3.57999 112.18 1.05999 116.51L1.01999 116.49C3.30999 112.23 7.50999 108.21 12.39 107.56V107.55Z" fill="#494847"/>
<path d="M41.31 129.01C38.94 133.11 34.56 135 31.52 133.25C28.48 131.49 27.93 126.75 30.29 122.65" fill="#494847"/>
<path d="M41.31 129.01C38.94 133.11 34.56 135 31.52 133.25C28.48 131.49 27.93 126.75 30.29 122.65" stroke="black" stroke-miterlimit="10"/>
<path d="M42.6446 115.111C43.8833 115.733 45.391 115.236 46.0121 113.999C46.6333 112.763 46.1328 111.256 44.8941 110.634L38.2999 107.32C37.0613 106.698 35.5536 107.195 34.9324 108.432C34.3112 109.668 34.8117 111.175 36.0504 111.797L42.6446 115.111Z" fill="#494847" stroke="black" stroke-miterlimit="10"/>
<path d="M59.071 111.147L59.0738 111.138C59.5754 109.363 58.543 107.517 56.7679 107.015L41.3036 102.645C39.5284 102.143 37.6828 103.176 37.1811 104.951L37.1784 104.961C36.6768 106.736 37.7091 108.581 39.4843 109.083L54.9486 113.453C56.7237 113.955 58.5694 112.922 59.071 111.147Z" fill="#494847" stroke="black" stroke-miterlimit="10"/>
<path d="M62.8578 101.868L62.8584 101.858C62.9865 100.018 61.5985 98.422 59.7583 98.294L39.8165 96.9065C37.9764 96.7785 36.3808 98.1664 36.2528 100.007L36.2521 100.017C36.124 101.857 37.512 103.452 39.3522 103.58L59.294 104.968C61.1342 105.096 62.7297 103.708 62.8578 101.868Z" fill="#494847" stroke="black" stroke-miterlimit="10"/>
<path d="M66.4965 90.4093L66.4942 90.3996C66.0818 88.6016 64.2899 87.4785 62.492 87.8909L41.1172 92.7943C39.3193 93.2067 38.1961 94.9986 38.6085 96.7965L38.6108 96.8062C39.0232 98.6042 40.8151 99.7273 42.613 99.3149L63.9878 94.4116C65.7857 93.9991 66.9089 92.2073 66.4965 90.4093Z" fill="#494847" stroke="black" stroke-miterlimit="10"/>
<path d="M68.2057 79.5032L68.2016 79.4941C67.4552 77.8072 65.4826 77.0449 63.7957 77.7913L41.2816 87.7541C39.5947 88.5006 38.8324 90.4732 39.5788 92.16L39.5829 92.1692C40.3293 93.856 42.3019 94.6184 43.9888 93.8719L66.5029 83.9091C68.1898 83.1627 68.9521 81.1901 68.2057 79.5032Z" fill="#494847" stroke="black" stroke-miterlimit="10"/>
<path d="M59.5521 74.4182L59.5466 74.4098C58.5395 72.8644 56.4703 72.4279 54.9248 73.435L35.454 86.123C33.9086 87.1301 33.4722 89.1993 34.4792 90.7448L34.4847 90.7532C35.4918 92.2986 37.561 92.7351 39.1065 91.728L58.5773 79.04C60.1227 78.0329 60.5592 75.9636 59.5521 74.4182Z" fill="#494847" stroke="black" stroke-miterlimit="10"/>
<path d="M33.393 112.757C34.4679 113.633 36.0474 113.473 36.9211 112.4C37.7947 111.327 37.6316 109.748 36.5567 108.873L30.8344 104.212C29.7595 103.337 28.1799 103.497 27.3063 104.57C26.4327 105.642 26.5958 107.222 27.6706 108.097L33.393 112.757Z" fill="#494847" stroke="black" stroke-miterlimit="10"/>
<path d="M37.0837 108.328C38.3223 108.95 39.83 108.453 40.4512 107.217C41.0724 105.98 40.5719 104.474 39.3332 103.851L32.739 100.538C31.5004 99.9153 29.9927 100.413 29.3715 101.649C28.7503 102.885 29.2508 104.392 30.4895 105.014L37.0837 108.328Z" fill="#494847" stroke="black" stroke-miterlimit="10"/>
<path d="M40.4495 103.249C41.7685 103.675 43.1827 102.953 43.6082 101.637C44.0336 100.32 43.3092 98.9077 41.9902 98.4814L34.9678 96.2119C33.6487 95.7856 32.2345 96.5072 31.8091 97.8236C31.3836 99.14 32.1081 100.553 33.4271 100.979L40.4495 103.249Z" fill="#494847" stroke="black" stroke-miterlimit="10"/>
<path d="M42.7204 97.2829C44.105 97.3508 45.2824 96.2857 45.3502 94.9039C45.418 93.5221 44.3506 92.3469 42.966 92.2789L35.5949 91.9171C34.2103 91.8491 33.0329 92.9142 32.9651 94.296C32.8973 95.6778 33.9647 96.8531 35.3493 96.9211L42.7204 97.2829Z" fill="#494847" stroke="black" stroke-miterlimit="10"/>
<path d="M42.9566 90.3976C44.2568 89.9166 44.9217 88.4749 44.4417 87.1774C43.9617 85.8798 42.5186 85.2178 41.2185 85.6988L34.2969 88.2591C32.9967 88.7401 32.3319 90.1818 32.8119 91.4794C33.2918 92.7769 34.7349 93.4389 36.035 92.958L42.9566 90.3976Z" fill="#494847" stroke="black" stroke-miterlimit="10"/>
<path d="M41.6876 83.4822C42.6678 82.502 42.6694 80.9144 41.6911 79.9361C40.7129 78.9578 39.1252 78.9594 38.145 79.9396L32.9265 85.1581C31.9463 86.1383 31.9447 87.726 32.923 88.7042C33.9013 89.6825 35.4889 89.6809 36.4692 88.7007L41.6876 83.4822Z" fill="#494847" stroke="black" stroke-miterlimit="10"/>
</g>
<path d="M114.77 106.98C114.77 108.36 113.71 109.53 112.31 109.64L109.25 109.89C110.64 110.29 111.47 111.74 111.09 113.15C110.78 114.35 109.69 115.14 108.51 115.14C108.28 115.14 108.05 115.11 107.81 115.04L106.68 114.74C106.7 115.24 106.59 115.74 106.33 116.2C105.83 117.06 104.94 117.54 104.01 117.54C103.56 117.54 103.1 117.43 102.67 117.18L99.24 115.2C98.87 115.54 98.38 115.72 97.9 115.72C97.47 115.72 97.04 115.58 96.67 115.3L92.01 111.67C91.65 111.39 91.41 111.01 91.31 110.6C91.09 110.45 90.9 110.26 90.75 110.06C90.73 110.04 90.72 110.02 90.71 110L90.53 109.93L88.31 108.97C87.29 108.53 86.82 107.35 87.26 106.34C87.69 105.32 88.87 104.85 89.89 105.29L91.49 105.98L91.61 106.03L91.63 106.01C91.89 105.83 92.2 105.71 92.52 105.68C92.61 105.5 92.71 105.34 92.84 105.21C92.81 104.96 92.84 104.71 92.89 104.46C92.4 103.69 92.5 102.65 93.17 101.98L97.35 97.8C98.13 97.02 99.4 97.02 100.18 97.8C100.31 97.93 100.42 98.08 100.51 98.23L109.16 92.15C110.38 91.29 112.04 91.59 112.89 92.8C113.22 93.27 113.38 93.81 113.38 94.34C113.38 95.19 112.98 96.01 112.24 96.53L108.86 98.91L110.8 98.07C112.16 97.49 113.74 98.12 114.32 99.47C114.46 99.81 114.54 100.17 114.54 100.53C114.54 101.57 113.93 102.55 112.92 102.99L109.34 104.53L111.86 104.32C113.33 104.2 114.62 105.3 114.74 106.77C114.74 106.84 114.74 106.91 114.74 106.99L114.77 106.98Z" fill="black" stroke="black" stroke-miterlimit="10"/>
<path d="M90.96 108.87L90.74 108.73L90.92 108.8C90.92 108.8 90.94 108.84 90.96 108.86V108.87Z" fill="black" stroke="black" stroke-miterlimit="10"/>
<path d="M91.85 104.81C91.85 104.81 91.83 104.81 91.83 104.83L91.71 104.78C91.71 104.78 91.81 104.8 91.85 104.81Z" fill="black" stroke="black" stroke-miterlimit="10"/>
<path d="M100.85 126.04L98.39 131.85" stroke="black" stroke-width="2" stroke-miterlimit="10"/>
<path d="M98.37 131.53C97.46 131.53 96.84 131.53 96.26 131.57C95.71 131.65 95.15 131.44 94.6 131.63C93.33 132.02 92.86 133.46 92.94 134.76L92.75 134.82C91.96 133.32 92.24 131.14 93.86 130.21C94.63 129.7 95.62 129.32 96.54 129.6C97.43 129.86 98.22 130.48 98.49 131.39L98.37 131.55V131.53Z" fill="black"/>
<path d="M98.39 131.3C97.59 130.86 97.05 130.56 96.52 130.32C96 130.12 95.61 129.67 95.03 129.57C93.73 129.3 92.62 130.35 92.08 131.53L91.88 131.49C91.9 129.79 93.19 128.02 95.06 127.97C95.98 127.89 97.03 128.03 97.71 128.71C98.37 129.37 98.76 130.29 98.57 131.21L98.39 131.29V131.3Z" fill="black"/>
<path d="M99.07 132.17C98.24 132.55 97.68 132.8 97.17 133.08C96.7 133.38 96.11 133.42 95.68 133.82C94.68 134.7 94.86 136.21 95.48 137.36L95.33 137.49C93.99 136.45 93.34 134.36 94.42 132.83C94.91 132.04 95.65 131.29 96.6 131.16C97.52 131.02 98.49 131.26 99.11 131.98L99.06 132.17H99.07Z" fill="black"/>
<path d="M104.087 125.364C104.683 123.474 103.894 121.539 102.324 121.045C100.755 120.55 98.9988 121.681 98.4026 123.572C97.8064 125.463 98.5955 127.397 100.165 127.892C101.735 128.387 103.491 127.255 104.087 125.364Z" fill="#494847" stroke="black" stroke-miterlimit="10"/>
<path d="M136.557 119.994C137.937 120.125 139.162 119.115 139.293 117.738C139.423 116.361 138.411 115.138 137.031 115.007L103.104 111.782C101.724 111.651 100.499 112.661 100.368 114.038C100.237 115.415 101.25 116.638 102.63 116.769L136.557 119.994Z" fill="#494847" stroke="black" stroke-miterlimit="10"/>
<path d="M139.635 124.201C141.015 124.332 142.24 123.322 142.371 121.945C142.502 120.568 141.489 119.345 140.109 119.214L106.182 115.989C104.802 115.857 103.577 116.868 103.446 118.245C103.316 119.622 104.328 120.845 105.708 120.976L139.635 124.201Z" fill="#494847" stroke="black" stroke-miterlimit="10"/>
<path d="M137.44 128.348C138.82 128.479 140.045 127.469 140.176 126.092C140.307 124.715 139.294 123.492 137.914 123.361L103.987 120.136C102.607 120.005 101.382 121.015 101.251 122.392C101.12 123.769 102.133 124.992 103.513 125.123L137.44 128.348Z" fill="#494847" stroke="black" stroke-miterlimit="10"/>
<path d="M117.77 119.62C118.01 124.96 113.87 129.5 108.53 129.74C105.25 129.89 102.28 128.39 100.42 125.98L84.7 113.39C82.03 112.75 80 110.41 79.87 107.53C79.71 104.03 82.41 101.08 85.91 100.92C88.46 100.81 90.71 102.21 91.81 104.33L110 110.55C114.27 111.4 117.57 115.07 117.78 119.62H117.77Z" fill="#494847" stroke="black" stroke-miterlimit="10"/>
<path d="M87.12 109.28C88.7768 109.28 90.12 107.937 90.12 106.28C90.12 104.623 88.7768 103.28 87.12 103.28C85.4631 103.28 84.12 104.623 84.12 106.28C84.12 107.937 85.4631 109.28 87.12 109.28Z" fill="white" stroke="black" stroke-miterlimit="10"/>
<path d="M87.12 107.33C87.6999 107.33 88.17 106.86 88.17 106.28C88.17 105.7 87.6999 105.23 87.12 105.23C86.5401 105.23 86.07 105.7 86.07 106.28C86.07 106.86 86.5401 107.33 87.12 107.33Z" fill="black"/>
<path d="M83.81 108.28C83.2 109.74 82.54 110.72 81.58 111.72C80.81 112.57 79.59 112.63 78.64 113.2C77.64 113.77 76.69 114.43 75.77 115.15C74.82 115.88 73.93 116.72 73.02 117.63L72.57 117.4C73.03 114.77 74.26 112.23 76 110.18C76.44 109.65 76.87 109.07 77.34 108.52C78.32 107.4 79.81 107.02 81.28 107.1C82.04 107.14 82.82 107.32 83.64 107.8L83.8 108.27L83.81 108.28Z" fill="black"/>
<path d="M83.74 108.06C79.24 110.03 75.15 113.08 72.83 117.52L72.79 117.5C74.89 113.14 78.9 108.94 83.75 108.07L83.74 108.06Z" fill="#494847"/>
<path d="M105.71 129.4L103.82 136.7" stroke="black" stroke-width="2" stroke-miterlimit="10"/>
<path d="M103.75 136.3C102.72 136.36 101.97 136.4 101.25 136.53C100.57 136.69 99.84 136.6 99.21 136.95C98.6 137.29 98.11 137.83 97.88 138.58C97.64 139.33 97.68 140.22 97.88 141.07L97.7 141.15C96.58 139.52 96.56 136.98 98.28 135.64C99.09 134.94 100.16 134.38 101.25 134.51C102.32 134.64 103.33 135.18 103.85 136.1L103.75 136.27V136.3Z" fill="black"/>
<path d="M103.74 136.03C102.8 135.59 102.13 135.27 101.44 135.04C100.77 134.85 100.17 134.43 99.44 134.44C98.74 134.44 98.05 134.69 97.49 135.24C96.92 135.78 96.53 136.58 96.29 137.42H96.09C95.89 135.44 97.09 133.2 99.24 132.85C100.28 132.62 101.49 132.64 102.39 133.28C103.27 133.9 103.9 134.86 103.91 135.92L103.74 136.03Z" fill="black"/>
<path d="M104.68 136.93C103.77 137.42 103.1 137.77 102.51 138.18C101.96 138.6 101.26 138.83 100.83 139.42C100.41 139.98 100.19 140.68 100.3 141.46C100.39 142.24 100.8 143.03 101.33 143.73L101.2 143.88C99.51 142.86 98.43 140.56 99.44 138.63C100.18 136.56 102.84 135.4 104.7 136.74L104.68 136.94V136.93Z" fill="black"/>
<path d="M113.12 124.32C112.16 128.95 108.6 132.13 105.16 131.42C101.72 130.71 99.7 126.38 100.66 121.74" fill="#494847"/>
<path d="M113.12 124.32C112.16 128.95 108.6 132.13 105.16 131.42C101.72 130.71 99.7 126.38 100.66 121.74" stroke="black" stroke-miterlimit="10"/>
<path d="M109.588 117.837C110.681 118.69 112.257 118.498 113.108 117.407C113.96 116.317 113.764 114.741 112.672 113.888L106.854 109.346C105.762 108.493 104.186 108.686 103.334 109.776C102.483 110.867 102.679 112.442 103.771 113.295L109.588 117.837Z" fill="#494847" stroke="black" stroke-miterlimit="10"/>
<path d="M121.677 118.98L121.682 118.971C122.604 117.374 122.057 115.331 120.46 114.409L106.543 106.374C104.945 105.452 102.902 105.999 101.98 107.596L101.975 107.605C101.053 109.203 101.6 111.245 103.198 112.168L117.115 120.203C118.712 121.125 120.755 120.578 121.677 118.98Z" fill="#494847" stroke="black" stroke-miterlimit="10"/>
<path d="M127.609 115.179L127.612 115.169C128.088 113.387 127.03 111.556 125.248 111.079L105.938 105.912C104.156 105.435 102.325 106.493 101.848 108.275L101.845 108.285C101.369 110.067 102.427 111.898 104.208 112.375L123.519 117.542C125.301 118.019 127.132 116.961 127.609 115.179Z" fill="#494847" stroke="black" stroke-miterlimit="10"/>
<path d="M132.184 107.178L132.183 107.168C132.034 105.329 130.422 103.961 128.583 104.11L106.726 105.892C104.887 106.042 103.518 107.654 103.668 109.492L103.669 109.502C103.819 111.341 105.431 112.71 107.269 112.56L129.127 110.778C130.965 110.628 132.334 109.016 132.184 107.178Z" fill="#494847" stroke="black" stroke-miterlimit="10"/>
<path d="M131.66 98.0455L131.656 98.0363C130.927 96.3419 128.962 95.5593 127.268 96.2883L104.652 106.019C102.958 106.748 102.175 108.712 102.904 110.407L102.908 110.416C103.637 112.111 105.602 112.893 107.296 112.164L129.912 102.434C131.606 101.705 132.389 99.74 131.66 98.0455Z" fill="#494847" stroke="black" stroke-miterlimit="10"/>
<path d="M129.877 89.7167L129.871 89.7085C128.811 88.1993 126.728 87.8357 125.218 88.8964L106.205 102.259C104.695 103.32 104.332 105.403 105.392 106.913L105.398 106.921C106.459 108.43 108.542 108.794 110.051 107.733L129.065 94.3698C130.574 93.3091 130.938 91.2258 129.877 89.7167Z" fill="#494847" stroke="black" stroke-miterlimit="10"/>
<path d="M105.922 112.831C107.195 113.378 108.67 112.791 109.217 111.52C109.763 110.249 109.173 108.775 107.899 108.228L101.119 105.314C99.8449 104.767 98.3697 105.354 97.8236 106.625C97.2774 107.896 97.8672 109.37 99.1409 109.918L105.922 112.831Z" fill="#494847" stroke="black" stroke-miterlimit="10"/>
<path d="M107.545 114.783C108.706 115.54 110.26 115.215 111.016 114.056C111.771 112.897 111.443 111.344 110.281 110.587L104.1 106.555C102.939 105.798 101.385 106.124 100.629 107.282C99.8733 108.441 100.202 109.995 101.363 110.752L107.545 114.783Z" fill="#494847" stroke="black" stroke-miterlimit="10"/>
<path d="M110.955 112.947C112.274 113.374 113.688 112.652 114.113 111.336C114.539 110.019 113.814 108.606 112.495 108.18L105.473 105.911C104.154 105.484 102.74 106.206 102.314 107.522C101.889 108.839 102.613 110.252 103.932 110.678L110.955 112.947Z" fill="#494847" stroke="black" stroke-miterlimit="10"/>
<path d="M113.914 109.752C115.299 109.82 116.476 108.755 116.544 107.374C116.612 105.992 115.544 104.816 114.16 104.749L106.789 104.387C105.404 104.319 104.227 105.384 104.159 106.766C104.091 108.147 105.158 109.323 106.543 109.391L113.914 109.752Z" fill="#494847" stroke="black" stroke-miterlimit="10"/>
<path d="M115.161 104.646C116.461 104.165 117.126 102.723 116.646 101.425C116.166 100.128 114.722 99.4658 113.422 99.9467L106.501 102.507C105.201 102.988 104.536 104.43 105.016 105.727C105.496 107.025 106.939 107.687 108.239 107.206L115.161 104.646Z" fill="#494847" stroke="black" stroke-miterlimit="10"/>
<path d="M113.982 99.5022C114.962 98.522 114.964 96.9344 113.985 95.9561C113.007 94.9778 111.419 94.9794 110.439 95.9596L105.221 101.178C104.241 102.158 104.239 103.746 105.217 104.724C106.196 105.702 107.783 105.701 108.763 104.721L113.982 99.5022Z" fill="#494847" stroke="black" stroke-miterlimit="10"/>
<path d="M175.37 126.92L174.89 133.21" stroke="black" stroke-width="2" stroke-miterlimit="10"/>
<path d="M174.77 132.91C173.9 133.2 173.32 133.39 172.78 133.61C172.28 133.86 171.69 133.84 171.22 134.19C170.14 134.96 170.15 136.48 170.65 137.69L170.49 137.8C169.26 136.63 168.84 134.48 170.08 133.07C170.65 132.34 171.47 131.67 172.43 131.64C173.36 131.6 174.3 131.94 174.84 132.72L174.77 132.91Z" fill="black"/>
<path d="M174.71 132.68C173.81 132.52 173.21 132.4 172.63 132.35C172.08 132.33 171.56 132.03 170.98 132.12C169.66 132.28 168.94 133.62 168.8 134.92L168.6 134.94C168.08 133.32 168.74 131.23 170.5 130.59C171.35 130.22 172.39 130.02 173.25 130.45C174.09 130.86 174.75 131.61 174.86 132.55L174.71 132.68Z" fill="black"/>
<path d="M175.63 133.29C174.96 133.91 174.51 134.33 174.11 134.76C173.76 135.19 173.21 135.42 172.93 135.94C172.27 137.09 172.91 138.47 173.86 139.36L173.76 139.53C172.16 138.97 170.88 137.19 171.42 135.4C171.64 134.5 172.1 133.55 172.96 133.12C173.79 132.7 174.79 132.61 175.6 133.09L175.62 133.29H175.63Z" fill="black"/>
<path d="M175.317 128.879C176.963 128.849 178.268 127.218 178.232 125.236C178.197 123.254 176.834 121.671 175.188 121.7C173.543 121.73 172.238 123.361 172.273 125.343C172.309 127.326 173.672 128.909 175.317 128.879Z" fill="#494847" stroke="black" stroke-miterlimit="10"/>
<path d="M191.12 106.96C191.12 105.58 190.06 104.41 188.66 104.3L185.6 104.05C186.99 103.65 187.82 102.2 187.44 100.79C187.13 99.59 186.04 98.8 184.86 98.8C184.63 98.8 184.4 98.83 184.16 98.9L183.03 99.2C183.05 98.7 182.94 98.2 182.68 97.74C182.18 96.88 181.29 96.4 180.36 96.4C179.91 96.4 179.45 96.51 179.02 96.76L175.59 98.74C175.22 98.4 174.73 98.22 174.25 98.22C173.82 98.22 173.39 98.36 173.02 98.64L168.36 102.27C168 102.55 167.76 102.93 167.66 103.34C167.44 103.49 167.25 103.68 167.1 103.88C167.08 103.9 167.07 103.92 167.06 103.94L166.88 104.01L164.66 104.97C163.64 105.41 163.17 106.59 163.61 107.6C164.04 108.62 165.22 109.09 166.24 108.65L167.84 107.96L167.96 107.91L167.98 107.93C168.24 108.11 168.55 108.23 168.87 108.26C168.96 108.44 169.06 108.6 169.19 108.73C169.16 108.98 169.19 109.23 169.24 109.48C168.75 110.25 168.85 111.29 169.52 111.96L173.7 116.14C174.48 116.92 175.75 116.92 176.53 116.14C176.66 116.01 176.77 115.86 176.86 115.71L185.51 121.79C186.73 122.65 188.39 122.35 189.24 121.14C189.57 120.67 189.73 120.13 189.73 119.6C189.73 118.75 189.33 117.93 188.59 117.41L185.21 115.03L187.15 115.87C188.51 116.45 190.09 115.82 190.67 114.47C190.81 114.13 190.89 113.77 190.89 113.41C190.89 112.37 190.28 111.39 189.27 110.95L185.69 109.41L188.21 109.62C189.68 109.74 190.97 108.64 191.09 107.17C191.09 107.1 191.09 107.03 191.09 106.95L191.12 106.96Z" fill="black" stroke="black" stroke-miterlimit="10"/>
<path d="M162.96 108.87L162.74 108.73L162.92 108.8C162.92 108.8 162.94 108.84 162.96 108.86V108.87Z" fill="black" stroke="black" stroke-miterlimit="10"/>
<path d="M208.496 115.727C209.882 115.689 210.975 114.537 210.937 113.154C210.899 111.771 209.745 110.681 208.359 110.719L174.292 111.652C172.906 111.69 171.814 112.842 171.852 114.225C171.889 115.608 173.044 116.698 174.429 116.66L208.496 115.727Z" fill="#494847" stroke="black" stroke-miterlimit="10"/>
<path d="M212.066 119.54C213.451 119.502 214.544 118.35 214.506 116.967C214.468 115.584 213.314 114.494 211.928 114.532L177.861 115.465C176.475 115.503 175.383 116.655 175.421 118.038C175.459 119.421 176.613 120.511 177.998 120.473L212.066 119.54Z" fill="#494847" stroke="black" stroke-miterlimit="10"/>
<path d="M210.402 123.92C211.787 123.882 212.88 122.73 212.842 121.347C212.804 119.965 211.65 118.874 210.264 118.912L176.197 119.846C174.811 119.884 173.719 121.036 173.757 122.419C173.795 123.802 174.949 124.892 176.334 124.854L210.402 123.92Z" fill="#494847" stroke="black" stroke-miterlimit="10"/>
<path d="M191.61 117.55C192.63 122.8 189.19 127.89 183.94 128.9C180.72 129.52 177.56 128.47 175.37 126.36L157.98 116.2C155.24 115.95 152.9 113.93 152.35 111.11C151.69 107.67 153.93 104.36 157.36 103.69C159.86 103.21 162.3 104.26 163.69 106.2L182.59 109.71C186.94 109.93 190.74 113.08 191.6 117.55H191.61Z" fill="#494847" stroke="black" stroke-miterlimit="10"/>
<path d="M159.35 111.8C161.007 111.8 162.35 110.457 162.35 108.8C162.35 107.143 161.007 105.8 159.35 105.8C157.693 105.8 156.35 107.143 156.35 108.8C156.35 110.457 157.693 111.8 159.35 111.8Z" fill="white" stroke="black" stroke-miterlimit="10"/>
<path d="M159.35 109.85C159.93 109.85 160.4 109.38 160.4 108.8C160.4 108.22 159.93 107.75 159.35 107.75C158.77 107.75 158.3 108.22 158.3 108.8C158.3 109.38 158.77 109.85 159.35 109.85Z" fill="black"/>
<path d="M156.36 111.27C155.97 112.8 155.45 113.87 154.65 115C154.01 115.96 152.81 116.19 151.95 116.89C151.05 117.6 150.2 118.39 149.4 119.24C148.56 120.1 147.81 121.06 147.04 122.09L146.57 121.93C146.64 119.26 147.49 116.57 148.91 114.29C149.27 113.7 149.61 113.07 149.99 112.45C150.8 111.2 152.21 110.6 153.68 110.48C154.44 110.41 155.24 110.48 156.12 110.83L156.34 111.28L156.36 111.27Z" fill="black"/>
<path d="M156.26 111.06C152.09 113.67 148.49 117.28 146.84 122L146.79 121.98C148.23 117.36 151.59 112.62 156.26 111.05V111.06Z" fill="#494847"/>
<path d="M181.05 128.56L181.58 136.07" stroke="black" stroke-width="2" stroke-miterlimit="10"/>
<path d="M181.39 135.72C180.43 136.11 179.73 136.38 179.1 136.73C178.51 137.09 177.79 137.25 177.3 137.78C176.83 138.29 176.53 138.97 176.56 139.75C176.56 140.53 176.89 141.37 177.34 142.11L177.19 142.25C175.61 141.06 174.79 138.65 175.99 136.84C176.53 135.92 177.37 135.05 178.45 134.83C179.5 134.61 180.63 134.8 181.42 135.51L181.38 135.71L181.39 135.72Z" fill="black"/>
<path d="M181.29 135.47C180.26 135.35 179.52 135.26 178.79 135.26C178.1 135.3 177.39 135.09 176.7 135.32C176.04 135.54 175.46 136 175.11 136.7C174.74 137.39 174.62 138.28 174.67 139.15L174.48 139.2C173.67 137.4 174.09 134.89 176.01 133.88C176.93 133.33 178.08 132.97 179.13 133.29C180.16 133.6 181.06 134.31 181.41 135.31L181.28 135.46L181.29 135.47Z" fill="black"/>
<path d="M182.47 136.02C181.76 136.77 181.24 137.31 180.81 137.9C180.42 138.48 179.83 138.91 179.61 139.61C179.39 140.27 179.41 141.01 179.76 141.71C180.09 142.42 180.73 143.05 181.45 143.53L181.38 143.72C179.45 143.29 177.7 141.45 178.04 139.3C178.15 138.24 178.55 137.1 179.44 136.45C180.31 135.81 181.41 135.52 182.43 135.84L182.48 136.03L182.47 136.02Z" fill="black"/>
<path d="M186.46 121.39C187.02 126.09 184.65 130.24 181.16 130.65C177.67 131.07 174.38 127.6 173.82 122.9" fill="#494847"/>
<path d="M186.46 121.39C187.02 126.09 184.65 130.24 181.16 130.65C177.67 131.07 174.38 127.6 173.82 122.9" stroke="black" stroke-miterlimit="10"/>
<path d="M175.77 101.645C174.678 102.498 174.482 104.074 175.333 105.164C176.185 106.255 177.761 106.447 178.853 105.594L184.67 101.053C185.763 100.2 185.959 98.6241 185.107 97.5336C184.256 96.4431 182.68 96.2506 181.587 97.1037L175.77 101.645Z" fill="#494847" stroke="black" stroke-miterlimit="10"/>
<path d="M173.962 107.33L173.967 107.339C174.89 108.936 176.932 109.483 178.53 108.561L192.447 100.526C194.044 99.6037 194.592 97.561 193.669 95.9635L193.664 95.9549C192.742 94.3574 190.699 93.81 189.102 94.7323L175.185 102.767C173.587 103.69 173.04 105.732 173.962 107.33Z" fill="#494847" stroke="black" stroke-miterlimit="10"/>
<path d="M173.855 106.658L173.857 106.668C174.334 108.45 176.165 109.508 177.947 109.031L197.258 103.864C199.04 103.387 200.098 101.556 199.621 99.7742L199.618 99.7645C199.141 97.9826 197.31 96.9245 195.528 97.4013L176.218 102.568C174.436 103.045 173.378 104.876 173.855 106.658Z" fill="#494847" stroke="black" stroke-miterlimit="10"/>
<path d="M175.664 105.44L175.664 105.45C175.514 107.289 176.883 108.901 178.721 109.051L200.579 110.832C202.417 110.982 204.029 109.613 204.179 107.775L204.18 107.765C204.33 105.926 202.961 104.314 201.122 104.164L179.265 102.383C177.426 102.233 175.814 103.602 175.664 105.44Z" fill="#494847" stroke="black" stroke-miterlimit="10"/>
<path d="M178.649 103.938L178.644 103.946C177.721 105.544 178.269 107.586 179.866 108.509L201.188 120.819C202.785 121.741 204.828 121.194 205.75 119.596L205.755 119.588C206.677 117.99 206.13 115.947 204.533 115.025L183.211 102.715C181.614 101.793 179.571 102.34 178.649 103.938Z" fill="#494847" stroke="black" stroke-miterlimit="10"/>
<path d="M178.472 108.048L178.465 108.056C177.295 109.482 177.502 111.586 178.927 112.757L196.888 127.505C198.314 128.675 200.418 128.469 201.589 127.043L201.595 127.035C202.766 125.61 202.559 123.505 201.133 122.334L183.173 107.586C181.747 106.416 179.642 106.623 178.472 108.048Z" fill="#494847" stroke="black" stroke-miterlimit="10"/>
<path d="M171.141 105.023C169.867 105.571 169.277 107.045 169.823 108.316C170.37 109.587 171.845 110.174 173.118 109.626L179.899 106.713C181.173 106.166 181.763 104.692 181.216 103.421C180.67 102.15 179.195 101.563 177.921 102.11L171.141 105.023Z" fill="#494847" stroke="black" stroke-miterlimit="10"/>
<path d="M173.364 104.177C172.203 104.935 171.874 106.488 172.63 107.647C173.386 108.806 174.94 109.131 176.101 108.374L182.282 104.343C183.444 103.585 183.772 102.032 183.017 100.873C182.261 99.7144 180.707 99.3888 179.546 100.146L173.364 104.177Z" fill="#494847" stroke="black" stroke-miterlimit="10"/>
<path d="M175.935 104.256C174.616 104.683 173.891 106.096 174.317 107.412C174.742 108.728 176.156 109.45 177.475 109.024L184.498 106.754C185.817 106.328 186.541 104.915 186.116 103.599C185.69 102.282 184.276 101.561 182.957 101.987L175.935 104.256Z" fill="#494847" stroke="black" stroke-miterlimit="10"/>
<path d="M178.548 105.542C177.163 105.61 176.096 106.785 176.164 108.167C176.231 109.548 177.409 110.613 178.793 110.546L186.164 110.184C187.549 110.116 188.616 108.941 188.549 107.559C188.481 106.177 187.303 105.112 185.919 105.18L178.548 105.542Z" fill="#494847" stroke="black" stroke-miterlimit="10"/>
<path d="M180.243 107.736C178.943 107.255 177.5 107.917 177.02 109.214C176.54 110.512 177.204 111.954 178.505 112.435L185.426 114.995C186.726 115.476 188.169 114.814 188.649 113.516C189.129 112.219 188.464 110.777 187.164 110.296L180.243 107.736Z" fill="#494847" stroke="black" stroke-miterlimit="10"/>
<path d="M180.766 110.221C179.785 109.241 178.198 109.24 177.219 110.218C176.241 111.196 176.243 112.784 177.223 113.764L182.441 118.983C183.422 119.963 185.009 119.964 185.988 118.986C186.966 118.008 186.964 116.42 185.984 115.44L180.766 110.221Z" fill="#494847" stroke="black" stroke-miterlimit="10"/>
<path d="M54.59 191.73C54.59 191.91 54.57 192.09 54.53 192.27C54.23 193.72 52.81 194.65 51.37 194.35L35.76 191.11L46.45 198.3C47.22 198.82 47.63 199.66 47.63 200.52C47.63 201.03 47.48 201.55 47.17 202.01C46.35 203.23 44.68 203.56 43.46 202.74L32.95 195.67C32.86 196.01 32.69 196.32 32.43 196.58C31.65 197.36 30.37 197.36 29.59 196.58L25.41 192.4C24.63 191.62 24.63 190.34 25.41 189.56C25.64 189.33 25.91 189.17 26.2 189.07C25.66 188.64 25.35 187.94 25.46 187.21C25.53 186.72 25.78 186.3 26.12 186C25.71 185.73 25.41 185.3 25.3 184.78C25.18 184.21 25.3 183.64 25.63 183.2C24.64 183.41 23.64 182.84 23.33 181.86C23.08 181.1 23.31 180.3 23.86 179.79C22.91 180.13 21.84 179.72 21.38 178.81C21.06 178.17 21.12 177.44 21.46 176.87C20.58 177.01 19.69 176.53 19.32 175.67C18.89 174.65 19.37 173.47 20.38 173.04L25.83 170.74C26.09 170.64 26.35 170.58 26.61 170.58C27.25 170.58 27.87 170.89 28.24 171.43L32.95 169.06C33.24 168.92 33.54 168.84 33.85 168.84C34.58 168.84 35.29 169.25 35.64 169.94C35.97 170.6 35.9 171.34 35.54 171.92L41.52 170.23C41.76 170.16 42.01 170.13 42.25 170.13C43.42 170.13 44.5 170.9 44.83 172.08C45.23 173.5 44.41 174.98 42.98 175.38L39.36 176.4L46.34 175.91C46.4 175.91 46.47 175.91 46.53 175.91C47.92 175.91 49.1 176.99 49.19 178.4C49.29 179.88 48.17 181.15 46.7 181.26L45.88 181.32L49.84 181.52C51.26 181.6 52.38 182.78 52.38 184.19V184.33C52.31 185.8 51.05 186.94 49.57 186.87L39.06 186.34L52.44 189.12C53.7 189.38 54.58 190.5 54.58 191.74L54.59 191.73Z" fill="black" stroke="black" stroke-miterlimit="10"/>
<path d="M64.1222 179.524C65.4664 179.185 66.2819 177.823 65.9437 176.481C65.6055 175.14 64.2416 174.327 62.8975 174.666L29.8515 182.997C28.5073 183.336 27.6918 184.698 28.03 186.04C28.3682 187.381 29.732 188.194 31.0762 187.855L64.1222 179.524Z" fill="#494847" stroke="black" stroke-miterlimit="10"/>
<path d="M68.4375 182.472C69.7816 182.133 70.5971 180.77 70.2589 179.429C69.9207 178.087 68.5569 177.275 67.2127 177.614L34.1667 185.945C32.8225 186.284 32.007 187.646 32.3453 188.987C32.6835 190.329 34.0473 191.142 35.3915 190.803L68.4375 182.472Z" fill="#494847" stroke="black" stroke-miterlimit="10"/>
<path d="M67.7644 187.116C69.1086 186.777 69.9241 185.415 69.5859 184.074C69.2477 182.732 67.8839 181.919 66.5397 182.258L33.4937 190.589C32.1495 190.928 31.334 192.29 31.6722 193.632C32.0105 194.973 33.3743 195.786 34.7185 195.447L67.7644 187.116Z" fill="#494847" stroke="black" stroke-miterlimit="10"/>
<path d="M36.93 201.34L38.16 207.53" stroke="black" stroke-width="2" stroke-miterlimit="10"/>
<path d="M37.97 207.28C37.21 207.79 36.7 208.13 36.25 208.5C35.84 208.87 35.26 209.02 34.91 209.48C34.08 210.52 34.5 211.98 35.31 213L35.18 213.15C33.68 212.35 32.69 210.4 33.5 208.71C33.85 207.85 34.46 206.98 35.37 206.69C36.26 206.4 37.25 206.47 37.98 207.07V207.27H37.97V207.28Z" fill="black"/>
<path d="M37.85 207.08C36.94 207.17 36.33 207.22 35.75 207.32C35.21 207.45 34.63 207.3 34.1 207.54C32.87 208.05 32.55 209.54 32.76 210.82L32.57 210.9C31.63 209.48 31.7 207.29 33.22 206.2C33.94 205.62 34.89 205.14 35.83 205.32C36.75 205.49 37.59 206.03 37.94 206.91L37.83 207.08H37.85Z" fill="black"/>
<path d="M38.91 207.41C38.44 208.19 38.11 208.71 37.85 209.23C37.63 209.74 37.16 210.11 37.04 210.68C36.71 211.97 37.71 213.12 38.86 213.72L38.81 213.91C37.12 213.81 35.4 212.44 35.44 210.57C35.4 209.64 35.59 208.6 36.3 207.96C36.99 207.33 37.92 206.98 38.84 207.22L38.91 207.41Z" fill="black"/>
<path d="M37.3961 203.251C38.9721 202.777 39.7865 200.853 39.2151 198.954C38.6437 197.056 36.9029 195.901 35.3269 196.376C33.7509 196.85 32.9365 198.773 33.508 200.672C34.0794 202.571 35.8202 203.725 37.3961 203.251Z" fill="#494847" stroke="black" stroke-miterlimit="10"/>
<path d="M46.93 188.08C48.28 193.26 45.17 198.55 39.99 199.9C36.82 200.73 33.6 199.88 31.28 197.91L13.28 188.87C10.53 188.8 8.06001 186.93 7.34001 184.14C6.46001 180.75 8.49001 177.3 11.87 176.42C14.34 175.78 16.83 176.68 18.35 178.53L37.43 180.83C41.79 180.77 45.78 183.68 46.92 188.08H46.93Z" fill="#494847" stroke="black" stroke-miterlimit="10"/>
<path d="M42.84 201.38L45.38 208.48" stroke="black" stroke-width="2" stroke-miterlimit="10"/>
<path d="M45.1 208.19C44.28 208.82 43.69 209.28 43.17 209.79C42.7 210.3 42.05 210.64 41.72 211.29C41.4 211.91 41.3 212.64 41.54 213.39C41.76 214.14 42.3 214.86 42.93 215.45L42.83 215.62C40.99 214.9 39.54 212.81 40.21 210.74C40.48 209.7 41.05 208.64 42.03 208.14C42.98 207.64 44.12 207.52 45.08 207.99L45.1 208.19Z" fill="black"/>
<path d="M44.94 207.97C43.92 208.13 43.18 208.25 42.48 208.45C41.82 208.67 41.09 208.66 40.49 209.07C39.91 209.47 39.48 210.06 39.33 210.83C39.16 211.6 39.29 212.48 39.57 213.31L39.4 213.41C38.13 211.9 37.86 209.37 39.44 207.87C40.17 207.09 41.18 206.43 42.28 206.46C43.35 206.48 44.41 206.92 45.03 207.79L44.95 207.97H44.94Z" fill="black"/>
<path d="M46.23 208.19C45.75 209.1 45.4 209.77 45.14 210.45C44.92 211.11 44.47 211.69 44.45 212.42C44.42 213.12 44.63 213.82 45.16 214.4C45.67 214.99 46.46 215.42 47.29 215.7L47.27 215.9C45.3 216.01 43.11 214.71 42.86 212.55C42.68 211.5 42.75 210.29 43.44 209.43C44.1 208.58 45.09 208 46.15 208.03L46.25 208.2L46.23 208.19Z" fill="black"/>
<path d="M14.18 184.4C15.8368 184.4 17.18 183.057 17.18 181.4C17.18 179.743 15.8368 178.4 14.18 178.4C12.5231 178.4 11.18 179.743 11.18 181.4C11.18 183.057 12.5231 184.4 14.18 184.4Z" fill="white" stroke="black" stroke-miterlimit="10"/>
<path d="M14.18 182.45C14.7599 182.45 15.23 181.98 15.23 181.4C15.23 180.82 14.7599 180.35 14.18 180.35C13.6001 180.35 13.13 180.82 13.13 181.4C13.13 181.98 13.6001 182.45 14.18 182.45Z" fill="black"/>
<path d="M11.36 184.05C11.06 185.61 10.62 186.7 9.89001 187.88C9.31001 188.88 8.13001 189.19 7.32001 189.94C6.46001 190.71 5.67001 191.55 4.92001 192.44C4.14001 193.35 3.45001 194.36 2.75001 195.44L2.27001 195.31C2.17001 192.64 2.85001 189.9 4.12001 187.53C4.44001 186.92 4.74001 186.26 5.08001 185.63C5.81001 184.33 7.18001 183.65 8.64001 183.43C9.39001 183.32 10.19 183.32 11.1 183.63L11.35 184.06L11.36 184.05Z" fill="black"/>
<path d="M11.24 183.85C7.25001 186.72 3.88001 190.55 2.53001 195.37L2.48001 195.36C3.62001 190.66 6.68001 185.71 11.23 183.85H11.24Z" fill="#494847"/>
<path d="M46.1 193.02C47.92 197.39 46.76 202.02 43.51 203.37C40.26 204.72 36.16 202.27 34.34 197.9" fill="#494847"/>
<path d="M46.1 193.02C47.92 197.39 46.76 202.02 43.51 203.37C40.26 204.72 36.16 202.27 34.34 197.9" stroke="black" stroke-miterlimit="10"/>
<path d="M39.2086 177.581C37.97 178.204 37.4694 179.71 38.0906 180.947C38.7118 182.183 40.2195 182.68 41.4581 182.058L48.0524 178.744C49.291 178.122 49.7916 176.615 49.1704 175.379C48.5492 174.143 47.0415 173.645 45.8029 174.268L39.2086 177.581Z" fill="#494847" stroke="black" stroke-miterlimit="10"/>
<path d="M38.2688 183.3L38.2715 183.309C38.7731 185.085 40.6188 186.117 42.3939 185.615L57.8583 181.245C59.6334 180.744 60.6657 178.898 60.1641 177.123L60.1614 177.113C59.6597 175.338 57.8141 174.306 56.039 174.807L40.5746 179.177C38.7995 179.679 37.7671 181.525 38.2688 183.3Z" fill="#494847" stroke="black" stroke-miterlimit="10"/>
<path d="M37.5337 186.007L37.5344 186.017C37.6624 187.857 39.2579 189.245 41.0981 189.117L61.0399 187.729C62.8801 187.601 64.2681 186.006 64.14 184.165L64.1393 184.155C64.0113 182.315 62.4158 180.927 60.5756 181.055L40.6338 182.443C38.7936 182.571 37.4056 184.166 37.5337 186.007Z" fill="#494847" stroke="black" stroke-miterlimit="10"/>
<path d="M38.9554 190.116L38.9549 190.126C38.8626 191.968 40.2812 193.536 42.1235 193.629L64.026 194.727C65.8683 194.819 67.4367 193.4 67.529 191.558L67.5295 191.548C67.6219 189.706 66.2033 188.137 64.361 188.045L42.4585 186.947C40.6162 186.855 39.0478 188.273 38.9554 190.116Z" fill="#494847" stroke="black" stroke-miterlimit="10"/>
<path d="M39.4583 193.934L39.4562 193.943C39.0815 195.749 40.242 197.517 42.0481 197.892L66.1549 202.893C67.961 203.268 69.729 202.107 70.1037 200.301L70.1057 200.291C70.4804 198.485 69.32 196.717 67.5138 196.343L43.4071 191.342C41.6009 190.967 39.833 192.127 39.4583 193.934Z" fill="#494847" stroke="black" stroke-miterlimit="10"/>
<path d="M36.4894 195.971L36.4838 195.98C35.4542 197.51 35.8602 199.586 37.3907 200.615L56.6734 213.587C58.204 214.617 60.2794 214.211 61.309 212.68L61.3146 212.672C62.3442 211.141 61.9382 209.066 60.4077 208.036L41.125 195.064C39.5944 194.035 37.519 194.441 36.4894 195.971Z" fill="#494847" stroke="black" stroke-miterlimit="10"/>
<path d="M30.4145 182.4C29.1376 182.939 28.5388 184.41 29.0771 185.684C29.6155 186.959 31.0871 187.555 32.3641 187.015L39.1624 184.143C40.4394 183.604 41.0382 182.134 40.4998 180.859C39.9615 179.585 38.4899 178.989 37.2129 179.528L30.4145 182.4Z" fill="#494847" stroke="black" stroke-miterlimit="10"/>
<path d="M32.6695 183.77C31.4309 184.393 30.9303 185.899 31.5515 187.135C32.1727 188.372 33.6804 188.869 34.919 188.247L41.5133 184.933C42.7519 184.311 43.2524 182.804 42.6313 181.568C42.0101 180.332 40.5024 179.834 39.2637 180.456L32.6695 183.77Z" fill="#494847" stroke="black" stroke-miterlimit="10"/>
<path d="M35.8993 185.962C34.5803 186.388 33.8559 187.801 34.2813 189.117C34.7068 190.434 36.121 191.155 37.44 190.729L44.4624 188.46C45.7815 188.033 46.5059 186.621 46.0804 185.304C45.655 183.988 44.2408 183.266 42.9217 183.692L35.8993 185.962Z" fill="#494847" stroke="black" stroke-miterlimit="10"/>
<path d="M36.204 189.156C34.8492 189.45 33.9885 190.784 34.2816 192.136C34.5746 193.488 35.9105 194.346 37.2653 194.052L44.4778 192.489C45.8325 192.195 46.6932 190.861 46.4002 189.509C46.1071 188.157 44.7712 187.299 43.4165 187.593L36.204 189.156Z" fill="#494847" stroke="black" stroke-miterlimit="10"/>
<path d="M37.3355 192.176C35.9651 191.967 34.6852 192.906 34.4766 194.274C34.2681 195.642 35.2099 196.92 36.5803 197.129L43.876 198.241C45.2464 198.45 46.5264 197.511 46.7349 196.143C46.9435 194.775 46.0016 193.497 44.6312 193.288L37.3355 192.176Z" fill="#494847" stroke="black" stroke-miterlimit="10"/>
<path d="M37.9299 196.898C36.7294 196.205 35.1954 196.614 34.5037 197.812C33.8119 199.01 34.2244 200.544 35.4249 201.237L41.8162 204.927C43.0167 205.62 44.5506 205.21 45.2424 204.012C45.9341 202.814 45.5217 201.281 44.3212 200.588L37.9299 196.898Z" fill="#494847" stroke="black" stroke-miterlimit="10"/>
<defs>
<clipPath id="clip0_15_4413">
<rect width="72" height="72" fill="white"/>
</clipPath>
<clipPath id="clip1_15_4413">
<rect width="72" height="72" fill="white" transform="translate(144)"/>
</clipPath>
<clipPath id="clip2_15_4413">
<rect width="72" height="72" fill="white" transform="translate(0 72)"/>
</clipPath>
</defs>
</svg>
