<?xml version="1.0" encoding="utf-8"?>
<!-- Generator: Adobe Illustrator 26.3.1, SVG Export Plug-In . SVG Version: 6.00 Build 0)  -->
<svg version="1.1" id="Layer_1" xmlns="http://www.w3.org/2000/svg" xmlns:xlink="http://www.w3.org/1999/xlink" x="0px" y="0px"
	 viewBox="0 0 600 300" style="enable-background:new 0 0 600 300;" xml:space="preserve">
<g>
	<path d="M222.7,175.2h-8.1l7.3-37.8h-12.8l1.4-6.8h33.8l-1.4,6.8h-12.8L222.7,175.2z"/>
	<path d="M254.4,164.7l5.1-18.8l-12,1l-0.5-4l15-3.5h6.6l-6.3,24c-1.6,6.3-0.4,7.3,13.8,4.3l0.7,4
		C257.6,179.8,251.4,175.8,254.4,164.7z M261.9,133.9l2.3-9.8l8.9-0.4l-3,9.9L261.9,133.9z"/>
	<path d="M291.9,162.9l3.9-17.4h-6.6l1.5-6h4.3l6.2-10l5.8-0.4l-2.3,10.4h13l-1.2,6h-13.2l-3.7,16.9c-1.6,6.8,0.6,8.9,14.8,5.1
		l0.5,3.9C296.4,181.1,289.2,174.8,291.9,162.9z"/>
	<path d="M330.1,167.4c-1.6,0.9-3.2,1.9-3.5,2.1l-1.9-3.2c0.3-0.2,2.9-1.9,4.8-3.1c-0.1-0.6-0.1-1.3-0.1-1.9c0-19.7,12.2-37,23-37
		c4.5,0,7.3,2.9,7.3,8.1c0,8.9-7.3,19.9-22.4,30.9c1.1,7.5,6.4,7.8,16.6,3.5l1.2,3.9C341.7,178.6,332.6,177.4,330.1,167.4z
		 M337.3,158.3c10.9-9.2,15.5-17.3,15.5-22.6c0-2.6-1.3-3.8-3-3.8C344.6,131.9,337.8,143.4,337.3,158.3z"/>
	<path d="M364.5,162.4c0-11.4,9.6-24.1,22-24.1c6.6,0,10.5,3.5,10.5,9c0,8.3-8.8,13.4-25.1,14.5c0.2,7.9,5.8,9.4,22.5,5.2l0.9,4
		C375,181.3,364.5,174.2,364.5,162.4z M372.3,157.6c10.8-0.9,17.5-3.6,17.5-8.6c0-2.5-2-4.3-5.3-4.3
		C378.2,144.7,373.6,151,372.3,157.6z"/>
</g>
</svg>
